<?xml version="1.0" encoding="utf-8"?>
<!-- Generator: Adobe Illustrator 23.0.2, SVG Export Plug-In . SVG Version: 6.00 Build 0)  -->
<svg version="1.1" id="Layer_1" xmlns="http://www.w3.org/2000/svg" xmlns:xlink="http://www.w3.org/1999/xlink" x="0px" y="0px"
	 viewBox="0 0 151.7 136.6" style="enable-background:new 0 0 151.7 136.6;" xml:space="preserve">
<style type="text/css">
	.st0{fill:#161821;stroke:#161821;stroke-miterlimit:10;}
	.st1{fill:#F08080;}
</style>
<title>communication</title>
<g>
	<g id="Layer_3">
		<path class="st0" d="M13.2,111.7c-0.4,0-0.8-0.1-1.2-0.3c-0.7-0.4-1.1-1.3-1-2.1l3.4-29c-9-8.7-13.9-19.7-13.9-31.1
			c0-26.9,27.2-48.7,60.6-48.7s60.6,21.9,60.6,48.7c0,0.2,0,0.4,0,0.6c-0.3,26.5-27.5,48.1-60.6,48.1c-1.8,0-3.7-0.1-5.5-0.2
			c-5.1-0.4-10.1-1.2-15-2.7l-26.3,16.3C14,111.6,13.6,111.7,13.2,111.7z M61.1,4.8c-31,0-56.3,19.9-56.3,44.3
			c0,10.5,4.8,20.7,13.4,28.7c0.5,0.5,0.8,1.2,0.7,1.8l-3,25.6l23.2-14.5c0.5-0.3,1.2-0.4,1.8-0.2c4.9,1.5,9.9,2.4,15,2.8
			c1.7,0.1,3.5,0.2,5.2,0.2c30.7,0,56-19.7,56.2-43.9c0-0.2,0-0.3,0-0.4C117.4,24.8,92.1,4.8,61.1,4.8z"/>
		<path class="st0" d="M140.5,136.1c-0.4,0-0.8-0.1-1.1-0.3l-21.3-13.2c-5.4,1.5-11,2.3-16.6,2.3c-22.2,0-41.3-11.5-47.7-28.5
			c-0.3-0.7-0.1-1.5,0.3-2.1c0.4-0.6,1.2-0.9,1.9-0.9c1.7,0.1,3.5,0.2,5.2,0.2c30.7,0,56-19.7,56.3-43.9c0-0.7,0.3-1.3,0.9-1.7
			c0.6-0.4,1.3-0.5,2-0.3c18.8,6.2,31,20.8,31,37.1c0,9.3-4,18.3-11.4,25.5l2.8,23.4c0.1,1.2-0.7,2.3-1.9,2.4
			C140.7,136.1,140.6,136.1,140.5,136.1L140.5,136.1z M118.4,118c0.4,0,0.8,0.1,1.2,0.3l18.2,11.4l-2.4-20c-0.1-0.7,0.2-1.4,0.7-1.8
			c6.9-6.4,10.8-14.6,10.8-23.1c0-13.7-9.8-26-25.3-32C119.3,77.9,92.9,98,61.1,98h-2c6.8,13.4,23.6,22.6,42.3,22.6
			c5.5,0,11-0.8,16.3-2.4C117.9,118.1,118.1,118,118.4,118z"/>
		<path class="st1" d="M86.3,38.2H37.1c-1.2,0.1-2.2-0.8-2.3-2c-0.1-1.2,0.8-2.2,2-2.3c0.1,0,0.2,0,0.3,0h49.1
			c1.2-0.1,2.2,0.8,2.3,2c0.1,1.2-0.8,2.2-2,2.3C86.5,38.2,86.4,38.2,86.3,38.2z"/>
		<path class="st1" d="M86.3,51.5H37.1c-1.2,0.1-2.2-0.8-2.3-2c-0.1-1.2,0.8-2.2,2-2.3c0.1,0,0.2,0,0.3,0h49.1
			c1.2-0.1,2.2,0.8,2.3,2c0.1,1.2-0.8,2.2-2,2.3C86.5,51.6,86.4,51.6,86.3,51.5z"/>
		<path class="st1" d="M76.4,64.9H37.1c-1.2,0-2.2-1-2.2-2.2s1-2.2,2.2-2.2h39.3c1.2,0,2.2,1,2.2,2.2S77.6,64.9,76.4,64.9z"/>
	</g>
</g>
</svg>
