<svg xmlns="http://www.w3.org/2000/svg" viewBox="0 0 435.79 401.41"><defs><style>.cls-1{fill:#f2f2f2;}.cls-2{fill:#c6e3f1;fill-rule:evenodd;}.cls-3{opacity:0.17;}.cls-4{opacity:0.12;}.cls-5{fill:#f7f3a4;}.cls-6{fill:#fffdbb;}.cls-7{opacity:0.28;}.cls-8{fill:#153e49;}.cls-9{fill:#113542;}.cls-10{fill:#1a1a1a;}.cls-11{fill:#5d7a7f;}.cls-12{fill:#dae7e8;}.cls-13{fill:#688689;}.cls-14{fill:#f47f7f;}.cls-15{fill:#25383d;}.cls-16{fill:#4d4d4d;}</style></defs><title>contract</title><g id="Layer_2" data-name="Layer 2"><g id="Layer_1-2" data-name="Layer 1"><path class="cls-1" d="M58.35,282.94l.06,0Z"/><path class="cls-1" d="M153.4,283l.06-.06Z"/><path class="cls-1" d="M167.8,282.94l0,0Z"/><path class="cls-1" d="M206,282.91l.06-.05Z"/><path class="cls-1" d="M218.92,282.94l.05,0Z"/><path class="cls-2" d="M398.52,262.88a32.93,32.93,0,0,0-32.84,32.84h0a60.1,60.1,0,0,1-59.92,59.92h-227A78.07,78.07,0,0,1,.86,277.8h0A78.07,78.07,0,0,1,78.71,200h0a15.67,15.67,0,0,0,15.62-15.63h0a15.67,15.67,0,0,0-15.62-15.62H38a38.09,38.09,0,0,1-38-38H0a38.09,38.09,0,0,1,37.9-38H75A32.94,32.94,0,0,0,107.8,59.92h0A60.09,60.09,0,0,1,167.72,0H357.79a78.07,78.07,0,0,1,77.84,77.84h0a78.07,78.07,0,0,1-77.84,77.84h0a15.67,15.67,0,0,0-15.62,15.63h0a15.67,15.67,0,0,0,15.62,15.62h40.73C448.21,186.93,448.21,262.88,398.52,262.88Z"/><path class="cls-3" d="M342.8,67.51l-.15-.17H150.43l.44.47H149.1a20.24,20.24,0,0,0-20.24,20.24V292.66h-17l-.15.18a27,27,0,0,0,0,34.57l.15.17H304.37a22,22,0,0,0,22-22V102.73s0-.17,0-.47h16.25l.15-.18A27,27,0,0,0,342.8,67.51Z"/><ellipse class="cls-4" cx="213.34" cy="387.47" rx="113.37" ry="13.95"/><path class="cls-5" d="M144.14,97.25H336.36l.14-.17a27,27,0,0,0,0-34.58l-.14-.17H144.14l1,1a24.19,24.19,0,0,1-.78,33.73Z"/><path class="cls-6" d="M298.08,322.58H122.57V83A20.24,20.24,0,0,1,142.81,62.8h171.7s17.82-1.06,17.46,0c-12.5.24-11.86,34.92-11.86,34.92V300.54A22,22,0,0,1,298.08,322.58Z"/><path class="cls-5" d="M297.82,322.58H105.6l-.15-.18a27,27,0,0,1,0-34.57l.15-.17H297.82l-.95,1c-8.92,9.6-10.43,26,.95,33.9Z"/><path class="cls-7" d="M413.47,116.7l-1.75-1.08-.47-.29-.85-.52,2.74-4.45a.6.6,0,0,0-.2-.82l-15.08-9.27a.59.59,0,0,0-.81.2l-2.74,4.45-1-.62a.48.48,0,0,0-.66.16l-1.17,1.91a.48.48,0,0,0,.15.66l1,.62L369,146.09a.6.6,0,0,0,.19.82l1.38.84L319,231.61,318,231a.82.82,0,0,0-1.13.27h0a.83.83,0,0,0,.27,1.13l1.19.73-.27.61-1.26-.78a.83.83,0,0,0-1.13.27v0a.82.82,0,0,0,.27,1.13l1.45.89-4.8,10.7h0l-5.28,11.79-2.9,1.83-2.65,11.23,1.46.89,9.07-7.43.48-3.16,8.62-9.75h0l7.8-8.83,1.29.79a.82.82,0,0,0,1.13-.27h0a.82.82,0,0,0-.27-1.13l-1-.64.44-.51,1,.58a.82.82,0,0,0,1.13-.26v0a.84.84,0,0,0-.27-1.13l-.79-.48,49.17-80,2.37-3.86,1,.61a.59.59,0,0,0,.82-.19l23.62-38.44.44.27a.46.46,0,0,1,.16.65L393.8,143.73a.47.47,0,0,0,.15.65l1.82,1.12a.48.48,0,0,0,.66-.15l17.2-28A.48.48,0,0,0,413.47,116.7Z"/><polygon class="cls-8" points="317.15 249.09 308.3 243.79 314.34 229.89 371.81 134.01 384.6 141.67 327.17 237.49 317.15 249.09"/><rect class="cls-9" x="358.15" y="115.77" width="54.74" height="18.89" rx="0.59" transform="matrix(0.51, -0.86, 0.86, 0.51, 79.91, 391.49)"/><path class="cls-10" d="M406,112.38l-.47-.28-18.07-10.83a.46.46,0,0,0-.65.16l-1.15,1.92a.48.48,0,0,0,.16.66l17.66,10.58a.48.48,0,0,1,.16.66l-15.24,25.43a.48.48,0,0,0,.16.66l1.83,1.1a.49.49,0,0,0,.66-.17L408,114.1a.49.49,0,0,0-.17-.66Z"/><polygon class="cls-11" points="308.64 258.93 303.15 255.64 314.34 229.89 327.13 237.56 308.64 258.93"/><polygon class="cls-12" points="308.64 258.93 303.15 255.64 300.26 257.5 297.74 268.75 299.21 269.63 308.19 262.1 308.64 258.93"/><rect class="cls-13" x="319.63" y="224.49" width="1.66" height="18.73" rx="0.82" transform="translate(-44.88 388.47) rotate(-59.06)"/><rect class="cls-13" x="318.44" y="226.48" width="1.66" height="18.73" rx="0.82" transform="translate(-47.16 388.42) rotate(-59.06)"/><path class="cls-8" d="M303.73,263a1.2,1.2,0,1,1-.42-1.65A1.21,1.21,0,0,1,303.73,263Z"/><rect class="cls-8" x="296.75" y="265.76" width="7.46" height="0.58" transform="translate(-82.21 386.97) rotate(-59.06)"/><polygon class="cls-7" points="365.25 144.97 378.03 152.63 370.96 164.43 365.25 144.97"/><rect class="cls-14" x="165.27" y="108.71" width="119.42" height="5.65"/><rect class="cls-15" x="165.27" y="108.71" width="16.85" height="5.65"/><path class="cls-15" d="M236,132.93H210.45a2.36,2.36,0,1,0,0,4.72H236a2.36,2.36,0,0,0,0-4.72Z"/><path class="cls-15" d="M218.17,174.39h-7.72a2.36,2.36,0,1,0,0,4.72h7.72a2.36,2.36,0,0,0,0-4.72Z"/><path class="cls-15" d="M280.84,189.77a2.39,2.39,0,1,0,0-4.77H271a2.39,2.39,0,1,0,0,4.77Z"/><path class="cls-15" d="M184.9,196.21H165.12a2.36,2.36,0,1,0,0,4.72H184.9a2.36,2.36,0,0,0,0-4.72Z"/><path class="cls-15" d="M281.08,196.21H250.22a2.36,2.36,0,1,0,0,4.72h30.86a2.36,2.36,0,1,0,0-4.72Z"/><path class="cls-15" d="M239.85,196.21H194.41a2.36,2.36,0,0,0,0,4.72h45.44a2.36,2.36,0,1,0,0-4.72Z"/><path class="cls-15" d="M280.84,155.05a2.39,2.39,0,1,0,0-4.77H250.47a2.39,2.39,0,1,0,0,4.77Z"/><path class="cls-15" d="M186.34,162.34H165.11a2.36,2.36,0,1,0,0,4.72h21.23a2.36,2.36,0,0,0,0-4.72Z"/><path class="cls-15" d="M202.61,174.39H165.12a2.36,2.36,0,0,0,0,4.72h37.49a2.36,2.36,0,0,0,0-4.72Z"/><path class="cls-15" d="M260.11,185h-95a2.39,2.39,0,1,0,0,4.77h95a2.39,2.39,0,1,0,0-4.77Z"/><path class="cls-15" d="M239.85,208.32H165.12a2.36,2.36,0,0,0,0,4.72h74.73a2.36,2.36,0,1,0,0-4.72Z"/><path class="cls-15" d="M241.36,150.28H165.12a2.39,2.39,0,1,0,0,4.77h76.24a2.39,2.39,0,1,0,0-4.77Z"/><path class="cls-15" d="M280.84,167.11a2.36,2.36,0,0,0,0-4.72H195a2.36,2.36,0,1,0,0,4.72Z"/><path class="cls-15" d="M226.26,174.39a2.36,2.36,0,1,0,0,4.72h54.58a2.36,2.36,0,0,0,0-4.72Z"/><path class="cls-16" d="M261.77,247a5.51,5.51,0,0,0-3.89,3.9l-.41,1.18-1.18-.47a12.36,12.36,0,0,1-3.14-2.18c-1.79-1.6-6.43-3.19-12.37,1.18a3.74,3.74,0,0,1-2.94,1,4.05,4.05,0,0,1-2.14-2.11,2.36,2.36,0,0,0-3.06-1.32,2.25,2.25,0,0,0-.95.69c-1,1.24-5.59,5.72-8.82,5.56a3.39,3.39,0,0,1-2.71-1.9,5.47,5.47,0,0,1-.83-2.64l-.07-.89.85-.31c8.82-3.2,14.15-6.7,15.44-10.11a5.52,5.52,0,0,0-.82-5.31c-2.58-3.54-6.78-3.92-10.94-1a24.15,24.15,0,0,0-8.53,12.46l-.17.6-.6.2c-3.31,1.07-6.69,2-10.06,2.78a2.35,2.35,0,0,0-1.81,2.8v.06a2.36,2.36,0,0,0,2.81,1.8l.07,0c1.81-.41,4.64-1.09,7.81-2l1.18-.37.26,1.26a9.46,9.46,0,0,0,1.35,3.36,8.18,8.18,0,0,0,6.42,4H223c3.54,0,7.08-2.36,9.37-4.35l.75-.65.77.62a7,7,0,0,0,2.6,1.38c1.56.44,4.05.5,7.08-1.7,3.64-2.65,5.74-1.8,6.3-1.48l.21.16c1.06,1,4.8,4.2,8.35,3.35a5.46,5.46,0,0,0,3.85-3.82l.46-1.27,1.18.61a17.51,17.51,0,0,1,3.85,3.11,2.39,2.39,0,1,0,3.37-3.38C268.59,249.08,265.16,246.19,261.77,247Zm-39-7.08A15.23,15.23,0,0,1,226.5,236c2-1.32,3.36-1.32,4.25-.14l.47.61-.37.67c-.26.48-1,2-6.72,4.55l-3.94,1.8Z"/></g></g></svg>