<?xml version="1.0" encoding="utf-8"?>
<!-- Generator: Adobe Illustrator 23.0.2, SVG Export Plug-In . SVG Version: 6.00 Build 0)  -->
<svg version="1.1" id="Layer_1" xmlns="http://www.w3.org/2000/svg" xmlns:xlink="http://www.w3.org/1999/xlink" x="0px" y="0px"
	 viewBox="0 0 128.5 170.3" style="enable-background:new 0 0 128.5 170.3;" xml:space="preserve">
<style type="text/css">
	.st0{fill:#F08080;}
	.st1{fill:#161821;}
</style>
<title>control</title>
<g>
	<path class="st0" d="M8.3,52.6c0.9-1.1,1.6-2.3,2.1-3.7c0.2-0.7,0.4-1.4,0.5-2.2l0.1-1l-0.9,0.5c-2,1.2-3,3.5-2.7,5.8v1.6L8.3,52.6
		z"/>
	<path class="st0" d="M66.8,122.1c-1-1.1-2.5-1.8-4-1.9v0H33c0,0,0,0,0,0c-5.9,0-11-4.3-11.9-10.1l-2.2-59.6l0-0.2
		c-0.1-0.4-0.2-0.8-0.3-1.2c-0.3-0.9-0.9-1.7-1.6-2.3l-0.6-0.5l-0.2,0.7c-0.2,0.7-0.5,1.4-0.8,2.1l-0.1,0.3l0.2,0.2
		c0.2,0.3,0.4,0.7,0.4,1l2.2,59.6l0,0.2c1.2,7.4,7.5,12.8,15,12.8c0,0,0,0,0,0l29.2,0c1.5-0.1,2.8,1.1,2.8,2.5
		c0.1,1.5-1.1,2.8-2.5,2.8c-0.1,0-0.2,0-0.3,0H33c0,0-0.1,0-0.1,0c-10.1,0-18.6-7.2-20.2-17.2l-2-54.5L10.6,54l-0.7,0.3
		c-0.5,0.2-1.1,0.4-1.6,0.5L7.5,55l2.1,56.7l0,0.2c1.8,11.5,11.6,19.9,23.3,19.9c0,0,0.1,0,0.1,0h29.2c0.1,0,0.2,0,0.3,0
		c1.5,0,2.8-0.5,3.9-1.5c1.1-1,1.8-2.5,1.9-4C68.3,124.7,67.8,123.2,66.8,122.1z"/>
</g>
<path class="st1" d="M126.8,142.8c-1.1-1.1-2.6-1.8-4.2-1.8l0,0c-1.6,0-3,0.6-4.2,1.7l-1.5,1.5c-0.3-0.7-0.7-1.3-1.2-1.9l-30.3-36.2
	c-1.5-5-5.4-8.8-10.4-10.3c-6.7-2.2-14.7-2.2-20.5-2l0.9-24.9c5.4,2.7,11.6,5.4,18.5,5.4h8.5L80,78.9c-1.6,2.9-0.5,6.4,2.3,8
	c0.9,0.5,1.8,0.7,2.8,0.7c2.2,0,4.1-1.2,5.2-3.1l4.7-8.6l8.8,6.1c2.6,1.9,6.3,1.4,8.2-1.2c1.9-2.6,1.4-6.3-1.2-8.2
	c-0.1-0.1-0.2-0.1-0.3-0.2l-9.8-6.8l5.3-9.7c1.6-2.9,0.5-6.4-2.3-8c-2.9-1.6-6.4-0.5-8,2.3l-4.1,7.4c-1.4-0.9-3.1-1.4-4.8-1.4H74
	c-5.9,0-11.7-4.4-16.8-8.3L57,47.7c-0.7-0.5-1.4-1.1-2-1.5c-4-2.9-9.4-6.3-16.2-6.3c-10.6,0-16.9,6.9-16.9,18.5
	c0,1.4,2.5,48.2,2.5,48.6v0.2c0.7,5.1,5.1,8.8,10.2,8.8H68l6.9,46.3c0.7,4.6,4.7,8,9.3,8c0.5,0,0.9,0,1.4-0.1
	c5.1-0.8,8.7-5.5,7.9-10.7c0,0,0,0,0,0l-2.6-17.8l10.5,12.6c0.8,1,1.8,1.7,2.9,2.3l-2.5,2.5c-2.3,2.3-2.4,6-0.1,8.3
	c1.1,1.1,2.6,1.8,4.2,1.8c1.5,0,3-0.6,4.1-1.7l16.8-16.5C129.1,148.8,129.2,145,126.8,142.8L126.8,142.8z M101.8,51.5
	c0.9,0.5,1.2,1.6,0.7,2.4L96,65.9c0.1-1.8-0.3-3.6-1.3-5.2l4.7-8.5C99.9,51.4,100.9,51.1,101.8,51.5L101.8,51.5z M108.8,78.2
	c-0.6,0.8-1.7,1-2.5,0.4l-11.9-8.2c0.7-1,1.2-2.1,1.5-3.4l12.5,8.6C109.1,76.3,109.3,77.4,108.8,78.2L108.8,78.2z M83.6,80.9
	l3.6-6.6c1.9-0.1,3.6-0.7,5.1-1.8l-5.6,10.1c-0.5,0.9-1.6,1.2-2.4,0.7c-0.4-0.2-0.7-0.6-0.9-1.1C83.3,81.8,83.4,81.3,83.6,80.9z
	 M87.6,70.2c-0.3,0.1-0.7,0.1-1,0.1H74c-7.6,0-14.5-3.8-21.3-7.4c-1.9-1-3.6-2-5.3-2.8c-0.5-0.2-1-0.3-1.6-0.1
	c-1.1,0.3-1.7,1.4-1.3,2.5c0,0,0,0.1,0,0.1c0.2,0.5,0.5,0.9,1,1.2c1.7,0.9,3.5,1.8,5.2,2.7l0.6,0.3L50.5,94
	c-1.3,0.1-2.5,0.2-3.7,0.3c-0.5,0-1,0.3-1.4,0.7c-0.4,0.4-0.5,0.9-0.5,1.5c0,0.6,0.3,1.1,0.7,1.4c0.4,0.3,0.9,0.5,1.5,0.5
	c7.8-0.6,18.6-1.4,26.8,1.3c1.6,0.5,3,1.3,4.3,2.3c0.9,0.7,1.7,1.6,2.3,2.6c0.2,0.2,0.3,0.5,0.4,0.8c0.4,0.8,0.7,1.6,0.9,2.5
	c0.3,1.2,0.4,2.4,0.4,3.6c0,0.1,0,0.2,0,0.3l7.2,48.4c0.4,2.9-1.6,5.6-4.4,6c-0.3,0-0.5,0.1-0.8,0.1c-2.6,0-4.8-1.9-5.2-4.5l-7.1-48
	c-0.2-1-1-1.8-2.1-1.8H34.6c-3,0-5.6-2.2-6.1-5.2C27.4,87,26,59.3,26,58.3C26,53,27.6,44,38.8,44c5.6,0,10.3,2.9,13.7,5.5l2.3,1.7
	c5.6,4.3,12,9.2,19.3,9.2h12.9c1.3,0,2.5,0.5,3.4,1.3l0.2,0.2c0.2,0.2,0.4,0.4,0.5,0.6c0.1,0.2,0.3,0.5,0.4,0.7
	c0.3,0.7,0.5,1.5,0.4,2.3C91.7,67.9,89.9,69.8,87.6,70.2L87.6,70.2z M113.1,150.9c-0.3,0.5-0.7,1-1.2,1.4l-0.2,0.1
	c-0.2,0.2-0.5,0.3-0.7,0.5c-1,0.5-2.1,0.7-3.1,0.6c-1.3-0.2-2.6-0.8-3.5-1.9L89.6,134l-3-20.1l26,31c0.7,0.8,1.1,1.8,1.2,2.9
	C113.9,148.9,113.7,150,113.1,150.9L113.1,150.9z M104.6,162l4.5-4.4c4.7-0.2,8.5-3.9,8.9-8.6l3.5-3.4c0.3-0.3,0.8-0.5,1.3-0.5
	c0.5,0,0.9,0.2,1.3,0.6c0.3,0.3,0.5,0.8,0.5,1.3c0,0.5-0.2,0.9-0.5,1.3l-16.8,16.5c-0.7,0.7-1.8,0.7-2.5,0
	C103.8,163.9,103.8,162.8,104.6,162L104.6,162z M37.8,0c-9.5,0-17.5,7.2-18.4,16.7c-2.4,0-4.8,0.8-6.7,2.2c-1.2,0.9-2.2,2.1-3,3.4
	C9,23.5,8.4,24.8,8,26.2c-0.6,2.3-1,4.7-1,7.1c-0.1,2.2,0,4.3,0.2,6.1l0.3,4.7c0,0.2,0,0.3,0,0.5c0,1.1-0.1,2.1-0.4,3.2
	C6.6,49,5.9,50,5,50.9c-1.2,1.3-2.6,2.5-4.1,3.5C0,55-0.3,56.3,0.4,57.2c0.2,0.3,0.6,0.6,0.9,0.7c1.3,0.5,2.6,0.8,3.9,0.8h0.6
	c0.8,0,1.7-0.1,2.5-0.2c0.3,0,0.6-0.1,0.9-0.2c0.4-0.1,0.9-0.2,1.4-0.4c2.4-0.8,4.5-2.3,6.1-4.2c0.2-0.2,0.4-0.5,0.5-0.7
	c0.8-1,1.4-2.2,1.8-3.4c0.5-1.3,0.9-2.8,1.1-4.2c0.1-0.4,0.1-0.8,0.1-1.2v-1v-1.6c0-0.9-0.1-1.9-0.2-3.2c-0.2-2-0.5-4-0.7-5.8v-0.2
	c-0.3-1.9-0.5-3.5-0.6-4.9c-0.2-1.2,0-2.5,0.4-3.7c0.2-0.5,0.4-0.9,0.8-1.4c2.2,10,12.2,16.2,22.1,14s16.2-12.2,14-22.1
	C54,6,46.5,0,37.8,0z M11.5,43.8l-0.3-4.6c-0.1-1.7-0.2-3.7-0.1-5.8c0-2,0.3-4.1,0.8-6c0.3-1,0.7-2,1.3-2.9c0.5-0.9,1.2-1.6,2-2.2
	l0.2-0.1l-0.2,0.4c-0.6,1.7-0.8,3.5-0.6,5.4c0.1,1.7,0.4,3.4,0.7,5.2s0.6,3.7,0.7,5.7c0.1,1,0.1,2,0.2,2.9v1.5v0.1
	c0,0.2,0,0.3,0,0.5v0.3c0,0.3,0,0.5-0.1,0.8c-0.1,0.7-0.2,1.3-0.4,2c-0.2,0.7-0.5,1.4-0.8,2c-0.4,0.8-0.8,1.5-1.4,2.2
	c-1,1.2-2.3,2.1-3.7,2.7c-0.5,0.2-1,0.4-1.6,0.5c-0.1,0-0.2,0.1-0.4,0.1c-0.2,0.1-0.4,0.1-0.6,0.1c0.3-0.3,0.6-0.6,0.8-0.9
	c0.3-0.3,0.4-0.5,0.6-0.7c1-1.1,1.7-2.4,2.2-3.8c0.2-0.7,0.4-1.5,0.5-2.3c0.1-0.7,0.1-1.5,0.1-2.2C11.6,44.3,11.5,44.1,11.5,43.8z
	 M29.1,20.2c0.6-0.6,3.5-1.3,5.8-1.9c4.7-1.1,10.9-2.6,15.8-6.4c3.6,7.1,0.8,15.8-6.3,19.4c-5.7,2.9-12.5,1.7-16.9-2.9
	C27.3,25.8,27.7,21.6,29.1,20.2z M48.3,8.6c-4.1,3.3-9.7,4.7-14.3,5.7c-3.5,0.8-6.3,1.5-7.8,3c-1.2,1.3-2,3-2.3,4.7
	c-0.3-1.2-0.5-2.3-0.5-3.5c0-8,6.5-14.4,14.4-14.4C41.8,4.1,45.5,5.7,48.3,8.6z"/>
</svg>
