<?xml version="1.0" encoding="utf-8"?>
<!-- Generator: Adobe Illustrator 23.0.2, SVG Export Plug-In . SVG Version: 6.00 Build 0)  -->
<svg version="1.1" id="Layer_1" xmlns="http://www.w3.org/2000/svg" xmlns:xlink="http://www.w3.org/1999/xlink" x="0px" y="0px"
	 viewBox="0 0 131.3 138" style="enable-background:new 0 0 131.3 138;" xml:space="preserve">
<style type="text/css">
	.st0{fill:#FF5061;}
	.st1{fill:#FFFFFF;}
	.st2{fill:#22B573;}
	.st3{fill:#F08080;}
	.st4{fill:#161821;}
</style>
<title>cost effective</title>
<g>
	<g id="Layer_3">
		<g>
			<path class="st0" d="M91.8,88.7c-3.2,0-5.8,2.6-5.8,5.8s2.6,5.8,5.8,5.8c3.2,0,5.8-2.6,5.8-5.8c0,0,0,0,0,0
				C97.6,91.3,95,88.7,91.8,88.7C91.8,88.7,91.8,88.7,91.8,88.7z M91.8,98.3c-2.1,0-3.8-1.7-3.8-3.8s1.7-3.8,3.8-3.8
				s3.8,1.7,3.8,3.8v0C95.6,96.6,93.9,98.3,91.8,98.3z"/>
		</g>
		<g>
			<path class="st1" d="M79.3,49.5l-0.4-0.9L78,49.1l0.1,0.2c-0.6,0.4-1.1,1-1.6,1.6c-0.3,0.4-0.6,0.9-0.7,1.4l1.4-0.7
				c0.5-0.7,1.1-1.3,1.8-1.8c0.1-0.1,0.2-0.1,0.4-0.2L79.3,49.5z M75.6,41.9L75.2,41l-1.1,0.5c0.1,0,0.2,0,0.3-0.1l0.4,0.8l0.4,0.9
				l0.9-0.4L75.6,41.9z"/>
		</g>
		<g>
			<path class="st2" d="M80.2,49.1l-0.4-0.9l-0.9,0.4L78,49.1l0.1,0.2c-0.6,0.4-1.1,1-1.6,1.6c-0.3,0.4-0.6,0.9-0.7,1.4l1.4-0.7
				l3.4-1.6L80.2,49.1z M76.5,41.5l-0.4-0.9L75.2,41l-1.1,0.5c0.1,0,0.2,0,0.3-0.1l0.4,0.8l0.4,0.9l0.9-0.4l0.9-0.4L76.5,41.5z"/>
		</g>
		<g>
			<path class="st3" d="M88.8,26.9c1,0,2-0.1,3-0.3l0.1,0c3.1-0.7,5.8-2.5,7.7-5.1c0.5-0.6,0.9-1.4,1.3-2.1c0.9-1.8,1.4-3.8,1.4-5.8
				c0-1-0.1-2-0.3-2.9c0-0.1,0-0.2,0-0.3c-0.3-1.4-0.9-2.7-1.6-3.9c-0.7-1.1-1.5-2.1-2.5-2.9c-0.6-0.5-1.2-1-1.9-1.4
				c-1.3-0.8-2.7-1.4-4.2-1.7c-1.8-0.4-3.7-0.4-5.5,0l-0.5,0.1c-0.8,0.2-1.5,0.4-2.3,0.7C82.6,1.5,81.8,2,81,2.6
				c-1.6,1.2-3,2.7-3.9,4.5c-0.4,0.7-0.7,1.5-1,2.3c-0.8,2.3-0.8,4.8-0.3,7.2C77.3,22.7,82.8,26.9,88.8,26.9z M79.2,10.8
				c0.2-0.7,0.5-1.4,0.8-2.1c0.9-1.7,2.2-3,3.9-4c0.8-0.5,1.7-0.8,2.6-1l0.3,0c0.7-0.2,1.4-0.2,2.1-0.2c0.6,0,1.3,0.1,1.9,0.2
				c1.2,0.2,2.3,0.7,3.4,1.3c0.6,0.4,1.1,0.8,1.6,1.3c0.9,0.9,1.7,2,2.2,3.1c0.3,0.6,0.5,1.2,0.6,1.8c0.1,0.4,0.2,0.8,0.2,1.2
				c0.2,1.9-0.1,3.8-0.9,5.5l0,0c-0.1,0.3-0.3,0.6-0.5,0.9c-0.2,0.3-0.4,0.6-0.7,1c-3.4,4.3-9.8,5.1-14.1,1.6
				c-1.7-1.4-3-3.4-3.5-5.5C78.7,14.1,78.7,12.4,79.2,10.8z M91.9,26L91.9,26L91.9,26L91.9,26z"/>
			<path class="st3" d="M88.9,21.4c0.6,0,1.2-0.1,1.8-0.2c1.5-0.4,2.9-1.2,4-2.3c0.4-0.4,0.7-0.8,1-1.3c0.2-0.3,0.3-0.6,0.4-0.8
				c0.5-1,0.8-2.2,0.8-3.4c0-0.6-0.1-1.3-0.2-1.9l0,0c-0.1-0.5-0.3-0.9-0.5-1.4c-1.5-3.5-5.3-5.4-9-4.6l-0.2,0
				c-2.1,0.5-3.8,1.8-5,3.6c-0.1,0.1-0.1,0.2-0.2,0.3c-0.4,0.8-0.7,1.6-0.9,2.4c-0.2,1.1-0.2,2.3,0.1,3.4
				C81.9,19,85.2,21.4,88.9,21.4z M84.3,13.2c0-0.7,0.2-1.4,0.6-2C84.9,11,85,11,85,11c0.6-1,1.7-1.8,2.9-2.1
				c0.4-0.1,0.7-0.1,1.1-0.1c2.2,0,4,1.5,4.5,3.6c0.2,1,0.1,2-0.3,2.9l0,0c-0.1,0.2-0.2,0.4-0.3,0.5c-0.3,0.4-0.6,0.8-1,1.2
				c-0.5,0.4-1.1,0.7-1.8,0.9c-1.2,0.3-2.5,0.1-3.5-0.6c-1-0.6-1.8-1.7-2.1-2.9C84.3,14,84.2,13.6,84.3,13.2z"/>
			<path class="st3" d="M39.4,18.9c0.4-0.4,0.7-0.8,1-1.3c0.2-0.3,0.3-0.5,0.5-0.8c0.5-1,0.7-2.2,0.7-3.4c0-0.4-0.1-0.7-0.1-1.1
				c0-0.3-0.1-0.5-0.1-0.7c-0.1-0.5-0.2-0.9-0.4-1.3c0-0.2-0.1-0.3-0.2-0.4c-1.6-3.3-5.2-5-8.8-4.3l-0.2,0c-2.1,0.5-3.9,1.8-5,3.6
				c-0.1,0.1-0.2,0.3-0.2,0.3c-0.4,0.8-0.7,1.6-0.9,2.4c-0.1,0.5-0.2,1.1-0.1,1.7c0,0.6,0.1,1.2,0.2,1.7c0.5,2.1,1.8,3.9,3.6,5
				c0.4,0.3,0.8,0.5,1.3,0.6c0.9,0.4,1.9,0.6,2.9,0.6c0.1,0,0.3,0,0.4,0c0.1,0,0.3,0,0.4,0c0.4,0,0.7-0.1,1.1-0.2
				c0.5-0.1,1-0.3,1.5-0.5C37.8,20.3,38.7,19.7,39.4,18.9z M38.1,14.6L38,14.9c0,0.1-0.1,0.3-0.2,0.4c-0.1,0.2-0.1,0.4-0.3,0.5
				c-0.1,0.2-0.2,0.3-0.4,0.5c-0.2,0.2-0.4,0.5-0.7,0.7c-0.5,0.4-1.2,0.7-1.8,0.9l-0.2,0c-2.5,0.5-4.8-1.1-5.4-3.5
				c-0.1-0.4-0.2-0.9-0.1-1.3c0-0.7,0.3-1.4,0.6-2c0.1-0.1,0.1-0.1,0.1-0.2c0.7-1,1.7-1.8,2.9-2.1c0.3-0.1,0.7-0.1,1.1-0.1
				c1.9,0,3.6,1.2,4.3,2.9c0.1,0.2,0.1,0.4,0.2,0.6C38.3,13.1,38.3,13.9,38.1,14.6z"/>
			<path class="st3" d="M74.4,37.5c0.2,0.1,0.5,0.1,0.7,0.1c0,0,0,0,0.1,0c0.2,0,0.4,0,0.6-0.1c0.4-0.1,0.7-0.3,1.1-0.5
				c0.7-0.5,1.2-1.4,1.2-2.3c0-0.8-0.3-1.5-0.9-2s-1.3-0.8-2.1-0.8c-0.5,0-1,0.1-1.4,0.4c-0.3,0.2-0.7,0.5-0.9,0.8
				c-0.3,0.4-0.5,0.8-0.6,1.3c0,0.2,0,0.3,0,0.5C72.3,36,73.2,37.1,74.4,37.5z"/>
			<path class="st3" d="M130.7,62.3l-16.1-33.6c-0.8-1.6-2.1-2.7-3.7-3.3c-1.6-0.6-3.4-0.5-5,0.3l-20.3,9.7l-5-10.5l0,0
				c-0.5-1.1-1.9-1.6-3-1.1L71,27l-3.6-5.5c-0.3-0.5-0.8-0.9-1.4-1c-0.6-0.1-1.2,0-1.7,0.3l-3.9,2.5c0.3-1.7,0.3-3.5-0.1-5.3
				c0-0.1,0-0.2,0-0.3c-0.6-2.7-2-5.1-4.1-6.9c-0.6-0.5-1.2-1-1.9-1.4c-1.3-0.8-2.7-1.4-4.2-1.7c-1.4-0.3-2.9-0.4-4.4-0.2
				c-0.2-0.4-0.4-0.8-0.7-1.2c-0.7-1.1-1.5-2.1-2.5-3c-0.6-0.5-1.2-1-1.9-1.4c-1.3-0.8-2.7-1.4-4.2-1.7c-1.8-0.4-3.7-0.4-5.4,0
				c-0.2,0-0.4,0.1-0.5,0.1c-0.8,0.2-1.5,0.4-2.3,0.7c-2.7,1.2-5,3.3-6.5,6c-0.4,0.7-0.7,1.5-0.9,2.2c-0.1,0.5-0.3,0.9-0.4,1.4
				c-1.6-0.3-3.2-0.3-4.8,0.1l-0.5,0.1c-0.8,0.2-1.5,0.4-2.3,0.8c-0.9,0.4-1.7,0.9-2.5,1.5c-1.6,1.2-2.9,2.7-3.9,4.5
				c-0.4,0.7-0.7,1.5-0.9,2.2c-0.8,2.3-0.9,4.8-0.3,7.2c0.8,3.5,3,6.4,6,8.3c2.1,1.3,4.6,2,7,2c1,0,2-0.1,3.1-0.4l0,0c0,0,0,0,0,0
				l0,0c3.1-0.7,5.8-2.5,7.7-5.1c0.5-0.6,0.9-1.4,1.3-2.1c0.5-1,0.9-2.1,1.1-3.2c0.7,0.1,1.4,0.2,2,0.2c0,0,0,0,0,0
				c0.5,0,1,0,1.5-0.1c1.7,3.6,4.9,6.2,8.9,7.2L21.5,48.4l-7.8,5.1l-7.2,4.6h6.6l13.8-6.7l4.4-2l30.9-14.9l16-7.7l4.8,9.9l-6.6,3.2
				l-0.8-1.6L74.2,39c-1.9,0.9-4.1,0.1-5.1-1.8l-0.6-1.3L22.2,58h6.8l16-7.7l2.2-1l20-9.6c1.1,1.4,2.8,2.3,4.6,2.5L53.2,51
				c-1.6,0.8-2.8,2.1-3.3,3.7c-0.1,0.3-0.2,0.5-0.2,0.7c-0.1,0.4-0.2,0.7-0.2,1.1v1.6h3l0-1.5c0-0.3,0.1-0.6,0.2-0.9
				c0.3-0.9,1-1.7,1.9-2.2l20.9-10l31.7-15.3c1.8-0.9,4-0.1,4.8,1.7l0.9,2L57.7,58.1h6.7h0.2l9.2-4.3l2.3-1.1l21.6-10.2l16.5-7.8
				l3,6.3L80.1,58.1h7l31.3-14.5l9.5,19.9c0.9,1.8,0.1,4-1.7,4.8l-14.6,7l-6.3,3v3.3l22.2-10.7l0.1,0c1.6-0.8,2.7-2.1,3.3-3.7
				C131.6,65.6,131.5,63.9,130.7,62.3z M34.6,23.4c-1,0.1-2.1,0-3.1-0.2l-0.1,0c-0.8-0.2-1.6-0.4-2.3-0.8l-0.1,0
				c-0.2-0.1-0.5-0.3-0.7-0.4c-2.3-1.4-3.9-3.6-4.5-6.2c0-0.1,0-0.2-0.1-0.3l0,0l0,0l0,0l-0.1-0.9c-0.1-0.7-0.1-1.5,0-2.2
				c0-0.1,0-0.1,0-0.2c0.1-0.4,0.2-0.9,0.3-1.3c0.2-0.7,0.5-1.4,0.8-2.1c0.9-1.7,2.2-3,3.9-3.9c0.8-0.5,1.7-0.8,2.6-1l0.3,0
				c0.7-0.2,1.4-0.2,2.1-0.2c0.7,0,1.3,0.1,1.9,0.2c1.2,0.2,2.3,0.6,3.3,1.2c0.6,0.4,1.1,0.8,1.6,1.3C41.3,6.9,42,7.9,42.6,9
				c0.1,0.1,0.1,0.2,0.2,0.4c0.3,0.6,0.5,1.1,0.6,1.7l0,0c0.1,0.4,0.2,0.8,0.2,1.2c0.1,0.6,0.1,1.2,0,1.7l0,0
				c-0.1,1.2-0.4,2.3-0.8,3.4l-0.3,0.7c-0.1,0.2-0.2,0.3-0.2,0.4L42,18.9L41.9,19c-0.1,0.2-0.3,0.4-0.4,0.6c-0.6,0.7-1.2,1.4-2,1.9
				l-0.2,0.2l0,0c-0.8,0.5-1.6,0.9-2.4,1.2c-0.3,0.1-0.6,0.2-1,0.3C35.4,23.3,35,23.4,34.6,23.4z M22.6,25.8l0,0.1
				c-0.1,0.1-0.1,0.3-0.2,0.4c-0.3,0.5-0.6,0.8-1,1.2c-0.5,0.4-1.1,0.7-1.8,0.9c-1.2,0.3-2.5,0.1-3.5-0.6c-1.1-0.6-1.8-1.7-2.1-2.9
				c-0.3-1.2-0.1-2.4,0.5-3.4l0.1-0.1v0c0.6-1,1.7-1.7,2.8-2c0.3-0.1,0.7-0.1,1.1-0.1c2.2,0,4,1.5,4.5,3.6
				C23.1,23.9,23,24.9,22.6,25.8z M20.2,14.1c0,0.7,0.1,1.4,0.3,2.1c-1.2-0.3-2.5-0.4-3.7-0.1l-0.2,0c-2.1,0.5-3.9,1.8-5,3.6
				c-0.1,0.1-0.1,0.2-0.2,0.3c-0.4,0.7-0.7,1.5-0.9,2.4c-0.2,1.1-0.2,2.3,0.1,3.4c0.9,3.6,4.1,6.1,7.8,6.2c0.6,0,1.2-0.1,1.9-0.2
				c1.6-0.4,2.9-1.2,4-2.3c0.4-0.4,0.7-0.8,1-1.3c0.2-0.3,0.3-0.5,0.4-0.8c0.4-0.8,0.6-1.7,0.7-2.6c0.6,0.4,1.3,0.8,1.9,1
				c-0.2,0.9-0.4,1.7-0.8,2.6c-0.1,0.3-0.3,0.6-0.5,0.9c-0.2,0.3-0.4,0.6-0.7,1c-1.6,2.1-4,3.5-6.7,3.8c-2.7,0.3-5.3-0.4-7.4-2
				C9,29.5,7.6,25.3,8.8,21.3c0.2-0.7,0.5-1.4,0.8-2.1c0.9-1.7,2.2-3,3.9-3.9c0.8-0.5,1.7-0.8,2.6-1l0.3,0C17,14,17.7,14,18.5,14
				C19,14,19.6,14,20.2,14.1z M51.7,19.9c0.2,1,0.1,2-0.3,2.9c-0.1,0.2-0.1,0.3-0.3,0.5c-0.3,0.4-0.6,0.8-1,1.2
				c-0.5,0.4-1.1,0.7-1.8,0.9c-1.2,0.3-2.5,0.1-3.5-0.6c-0.8-0.5-1.4-1.1-1.7-2c0.5-0.5,0.9-1,1.3-1.5c0.5-0.6,0.9-1.4,1.3-2.1
				c0.5-0.9,0.8-1.9,1-3C49,16.1,51.2,17.5,51.7,19.9z M40.4,25c0.7,1.1,1.6,2.1,2.7,2.8c1.3,0.8,2.7,1.2,4.2,1.2c0,0,0.1,0,0.1,0
				c0.6,0,1.2-0.1,1.8-0.2c1.5-0.4,2.9-1.2,4-2.3c0.4-0.4,0.7-0.8,1-1.3c0.2-0.3,0.3-0.5,0.4-0.8c0.5-1,0.7-2.2,0.7-3.3
				c0-0.7-0.1-1.3-0.2-1.9c-0.1-0.5-0.3-0.9-0.5-1.4c-1.3-3-4.3-4.8-7.5-4.8c0-0.7-0.1-1.3-0.2-1.9c0.1,0,0.3,0,0.5,0
				c0.6,0,1.3,0.1,1.9,0.2c1.2,0.2,2.3,0.6,3.3,1.3c0.6,0.4,1.1,0.8,1.6,1.3c1,0.9,1.7,2,2.3,3.2c0.3,0.6,0.5,1.2,0.6,1.8
				c0.1,0.4,0.2,0.8,0.2,1.2c0.2,1.9-0.1,3.8-1,5.5c-0.1,0.3-0.3,0.6-0.5,0.9c0,0.1-0.1,0.1-0.1,0.2l-6.8,4.4l0,0
				c-4.2,0.7-8.3-1.3-10.3-5C39.1,25.6,39.7,25.3,40.4,25z M65.3,23.7l3,4.6l-3.1,1.5c-0.5-0.3-1-0.4-1.5-0.4
				c-1.5,0-2.7,1.1-2.9,2.6L28.5,47.5L65.3,23.7z"/>
			<path class="st3" d="M114.3,54.9c0,0,0.1,0,0.1,0l0.1,0c0,0,0,0,0,0l2.3,4.8c0,0,0,0.1,0,0.1c0,0.1,0,0.1-0.1,0.2l-11.3,5.4v3.4
				l0,0v0l12.5-6.1c0.3-0.1,0.6-0.4,0.8-0.6c0.1,0,0.1-0.1,0.2-0.1c0,0,0.1-0.1,0.1-0.1c0.2-0.3,0.4-0.5,0.5-0.9
				c0.3-0.8,0.3-1.6-0.1-2.4l-2.4-5c-0.7-1.5-2.6-2.2-4.2-1.5l-12.3,5.9l0,0l0,0l1.4,0.7c0.1,0.1,0.2,0.1,0.3,0.2l0.2,0.2
				c0.3,0.2,0.5,0.4,0.7,0.6l0.3,0.2l0,0l0.1,0.1L114.3,54.9z"/>
			<path class="st3" d="M91.8,88.2L91.8,88.2C91.8,88.2,91.8,88.2,91.8,88.2c-1.7,0-3.3,0.7-4.5,1.8c-1.2,1.2-1.8,2.8-1.8,4.4
				c0,1.7,0.6,3.3,1.8,4.4c1.2,1.2,2.8,1.8,4.4,1.8c0,0,0,0,0,0c1.7,0,3.2-0.7,4.4-1.8c1.2-1.2,1.8-2.8,1.8-4.4
				c0-1.7-0.6-3.3-1.8-4.4C95,88.8,93.5,88.2,91.8,88.2z M88.5,94.5c0-1.8,1.5-3.3,3.3-3.3s3.3,1.5,3.3,3.3c0,1.8-1.5,3.3-3.3,3.3
				C89.9,97.8,88.5,96.3,88.5,94.5z M91.8,88.7L91.8,88.7L91.8,88.7L91.8,88.7z"/>
		</g>
		<g>
			<path class="st4" d="M114.5,83.9H106V64.5c0-2-0.8-3.8-2.3-5.1c-0.3-0.2-0.6-0.5-0.9-0.7c0,0-0.1-0.1-0.1-0.1
				c-0.1-0.1-0.3-0.2-0.4-0.2l0,0l-0.5-0.3l0,0c-0.9-0.4-1.8-0.6-2.7-0.5H5.7c-1,0-1.9-1-2.3-2.3c-0.1-0.3-0.1-0.6-0.2-0.9v-0.1
				c0-0.3,0.1-0.6,0.2-0.9C3.8,51.9,4.7,51,5.7,51h11.8l1.6-1l1.7-1.1H5.7c-2,0-3.8,1.8-4.3,4.4c-0.1,0.3-0.1,0.7-0.1,1h0V62l0,0
				v67.8c0,3.8,3.1,6.9,6.9,6.9h90.9c3.8,0,6.9-3.1,6.9-6.9v-24.6h8.5V83.9z M104.1,129.8c0,2.8-2.2,5-5,5H8.2c-2.8,0-5-2.2-5-5
				V58.7c0,0.1,0.4,0.3,0.5,0.4c0.1,0.1,0.2,0.1,0.3,0.2H4l0.2,0.1c0.5,0.1,1,0.2,1.4,0.2h93.4c0.5,0,1,0.1,1.5,0.3
				c0.4,0.1,0.8,0.3,1.1,0.5c1.4,0.9,2.3,2.5,2.3,4.2v19.4H86.9c-3.2,0-5.8,2.6-5.9,5.8c0,0,0,0,0,0v9.7c0,3.2,2.6,5.8,5.8,5.8H104
				L104.1,129.8z M112.5,103.3H86.9c-2.1,0-3.9-1.8-3.9-3.9v-9.7c0-2.2,1.7-3.9,3.9-3.9h25.7L112.5,103.3z"/>
			<path class="st4" d="M8.2,138c-4.5,0-8.2-3.7-8.2-8.2L0.2,53c0,0,0,0,0,0c0.6-3.1,2.9-5.4,5.5-5.4H23l-7.1,4.6H5.7
				c-0.3,0-0.8,0.5-1.1,1.4c-0.1,0.2-0.1,0.4-0.1,0.6c0,0.2,0.1,0.4,0.1,0.7c0.3,0.9,0.8,1.4,1.1,1.4h93.4c1.1,0,2.2,0.2,3.2,0.7
				l0.6,0.3c0.2,0.1,0.3,0.2,0.5,0.3c0.1,0,0.2,0.1,0.2,0.1c0.3,0.2,0.7,0.5,0.9,0.7c1.7,1.6,2.7,3.8,2.7,6.1v18.1h8.5v23.8h-8.5
				v23.3c0,4.5-3.7,8.1-8.1,8.2H8.2z M4.4,60.7v69.1c0,2.1,1.7,3.8,3.8,3.8h90.9c2.1,0,3.8-1.7,3.8-3.7l0-23.3h-16
				c-3.9,0-7.1-3.2-7.1-7.1v-9.7c0-1.9,0.8-3.7,2.1-5s3.1-2,5-2h16V64.5c0-1.3-0.7-2.4-1.7-3.1c-0.3-0.2-0.5-0.3-0.8-0.4
				c-0.4-0.1-0.8-0.2-1.1-0.2H5.7C5.3,60.8,4.9,60.8,4.4,60.7z M86.9,87c-1.5,0-2.6,1.2-2.6,2.7v9.7c0,1.4,1.2,2.6,2.6,2.6h24.4
				l0-15H86.9z M4.2,58.7h0.2c0,0,0-0.1,0-0.1c0,0-0.1,0-0.1-0.1L4.2,58.7z M2.5,58.7H4v-0.4c-0.6-0.4-1.1-1.1-1.5-1.9V58.7z"/>
		</g>
	</g>
</g>
</svg>
