<?xml version="1.0" encoding="utf-8"?>
<!-- Generator: Adobe Illustrator 23.0.2, SVG Export Plug-In . SVG Version: 6.00 Build 0)  -->
<svg version="1.1" id="Layer_1" xmlns="http://www.w3.org/2000/svg" xmlns:xlink="http://www.w3.org/1999/xlink" x="0px" y="0px"
	 viewBox="0 0 171.7 170" style="enable-background:new 0 0 171.7 170;" xml:space="preserve">
<style type="text/css">
	.st0{fill:#F08080;}
	.st1{fill:#161821;}
</style>
<title>courts</title>
<path class="st0" d="M169.9,71.7h-3.8l-11-38.1c-0.3-0.9-1.3-1.5-2.2-1.2c-0.7,0.2-1.2,0.9-1.2,1.6l-11.2,37.7h-3.9
	c-1,0-1.8,0.8-1.8,1.8V80c0,10.1,8.3,18.4,18.4,18.4c10.1,0,18.4-8.2,18.4-18.4v-6.5C171.7,72.5,170.9,71.7,169.9,71.7z M153.5,40.5
	l9,31.3h-18.3L153.5,40.5z M168.2,80c0,8.2-6.7,14.9-14.9,14.9c-8.2,0-14.9-6.7-14.9-14.9v-4.7h29.8V80z"/>
<path class="st0" d="M35.1,71.7h-3.8L20.4,33.6c-0.3-0.9-1.3-1.5-2.2-1.2c-0.6,0.2-1,0.7-1.2,1.2L5.6,71.7H1.8c-1,0-1.8,0.8-1.8,1.8
	V80c0,10.1,8.3,18.4,18.4,18.4c10.1,0,18.4-8.2,18.4-18.4v-6.5c0,0,0,0,0,0C36.8,72.5,36,71.7,35.1,71.7z M18.7,40.4l9,31.4H9.3
	L18.7,40.4z M33.3,80c0,8.2-6.7,14.9-14.9,14.9c-8.2,0-14.9-6.7-14.9-14.9v-4.7h29.8V80z"/>
<g>
	<path class="st1" d="M106.3,154.1h-40c-1.1,0.1-2,0.9-2,2c-0.1,1.2,0.8,2.3,2,2.3h40c0.1,0,0.2,0,0.3,0c1.2-0.1,2.1-1.1,2-2.3
		C108.5,155,107.5,154,106.3,154.1z"/>
	<path class="st1" d="M121.5,154.1h-5.2c-1.1,0.1-2,0.9-2,2c-0.1,1.2,0.8,2.3,2,2.3h5.2c0.1,0,0.2,0,0.3,0c1.2-0.1,2.1-1.1,2-2.3
		C123.8,155,122.7,154,121.5,154.1z"/>
	<path class="st1" d="M55.7,154.1h-5.2c-1.1,0.1-2,0.9-2,2c-0.1,1.2,0.8,2.3,2,2.3h5.2c0.1,0,0.2,0,0.3,0c1.2-0.1,2.1-1.1,2-2.3
		S57,154,55.7,154.1z"/>
	<path class="st1" d="M110.8,135.5h5.2c1.1-0.1,2-0.9,2-2c0.1-1.2-0.8-2.3-2-2.3h-5.2c-0.1,0-0.2,0-0.3,0c-1.2,0.1-2.1,1.1-2,2.3
		C108.5,134.7,109.6,135.6,110.8,135.5z"/>
	<path class="st1" d="M61.7,131.1h-5.2c-1.1,0.1-2,0.9-2,2c-0.1,1.2,0.8,2.3,2,2.3h5.2c1.1-0.1,2-0.9,2-2
		C63.9,132.3,63,131.2,61.7,131.1z"/>
	<path class="st1" d="M70.1,133.2c-0.1,1.2,0.8,2.3,2,2.3h28c1.1-0.1,2-0.9,2-2c0.1-1.2-0.8-2.3-2-2.3h-28
		C71.1,131.2,70.2,132.1,70.1,133.2z"/>
	<path class="st1" d="M152.7,17.2c-1.7,0-3.3,0.4-4.7,1.2c-5.5-0.7-10.3-3.8-15.3-7.1c-1.6-1.1-3.2-2.1-4.8-3.1
		c-7.9-4.7-20-7.1-28.5-1.6C96.7,2.6,92,0,86.8,0H85c-5.2,0-9.7,2.5-12.6,6.4c-8.5-5.1-20.3-2.7-28.1,1.9c-1.6,1-3.2,2.1-4.8,3.1
		c-5.2,3.4-10.1,6.6-15.8,7.2c-1.4-0.8-3-1.3-4.7-1.3c-5.3,0-9.6,4.3-9.6,9.6c0,5.3,4.3,9.6,9.6,9.6c2.7,0,5.2-1.1,6.9-3
		c7.1-1.1,13.7-4,20-6.9l3.7-1.7c7-3,14.9-2.5,21.5,1.3c0.4,0.2,0.8,0.3,1.1,0.3c0.1,0.1,0.2,0.3,0.3,0.4c-0.1,0.3-0.2,0.6-0.2,0.9
		v91.9h-14c-9.6,0-17.3,7.8-17.3,17.3v5.7c-9,0.6-16.1,8.1-16.1,17.3v7.8c0,1.2,1,2.2,2.2,2.2h118.3c1.2,0,2.2-1,2.2-2.1v-7.1
		c0-9.3-7.1-17-16.2-18v-5c0-10-8.1-18.1-18.1-18.1H100V27.8c0-0.5-0.2-1-0.6-1.3c0,0,0-0.1,0.1-0.1c0.6,0.2,1.2,0.1,1.7-0.2
		c6.6-3.8,14.5-4.3,21.5-1.3l3.7,1.7c6.1,2.7,12.4,5.6,19.3,6.7c1.7,1.9,4.2,3,7,3c5.3,0,9.6-4.3,9.6-9.6
		C162.3,21.5,158,17.2,152.7,17.2z M85,4.4h1.7c6.2,0,11.3,5,11.3,11.3v1.8c0,6.2-5,11.2-11.3,11.3H85c0,0,0,0,0,0
		c-6.2,0-11.3-5-11.3-11.3v-1.8c0,0,0,0,0,0C73.7,9.4,78.8,4.4,85,4.4z M13.8,26.8c0-2.9,2.3-5.2,5.2-5.2c2.9,0,5.2,2.3,5.2,5.2
		c0,0,0,0,0,0c0,2.9-2.3,5.2-5.2,5.2S13.8,29.7,13.8,26.8z M47.8,20.8c-1.2,0.5-2.5,1.1-3.8,1.7c-5.3,2.4-10.3,4.7-15.7,5.9
		c0.1-0.5,0.2-1.1,0.2-1.7c0-1.6-0.4-3.1-1.1-4.5C32.8,21,37.5,18,42,15c1.6-1.1,3.1-2.1,4.6-3c6.9-4.1,17.1-5.9,23.7-1.8
		c-0.6,1.7-1,3.5-1,5.4v1.8c0,1.1,0.1,2.2,0.3,3.2C62.7,17.8,54.8,17.8,47.8,20.8z M143.2,160.7v4.9H29.3V160c0-7.2,5.8-13,12.9-13
		h1h86h0.3C137,147,143.2,153.2,143.2,160.7z M113.3,124c7.6,0,13.7,6.1,13.7,13.7v4.9H45.4V137c0-7.2,5.8-13,12.9-13h39.5h0H113.3z
		 M76.7,119.7v-89c2.4,1.5,5.2,2.4,8.3,2.4h1.7c3.3,0,6.4-1,8.9-2.8v89.4H76.7z M128.3,22.6c-1.2-0.6-2.5-1.1-3.8-1.7
		c-7.2-3.1-15.4-3-22.6,0.1c0.3-1.1,0.4-2.3,0.4-3.5v-1.8c0-1.8-0.3-3.5-0.9-5.2c6.6-4.6,17.2-2.7,24.2,1.5c1.5,1,3,1.9,4.6,3
		c4.4,2.9,8.8,5.8,14,7.2c-0.8,1.4-1.2,3-1.2,4.6c0,0.5,0.1,1.1,0.1,1.6C138.2,27,133.3,24.9,128.3,22.6z M152.7,32
		c-1.1,0-2.2-0.4-3.1-1c-0.2-0.7-0.7-1.4-1.4-1.6c-0.4-0.8-0.7-1.6-0.7-2.5c0-1.6,0.7-2.9,1.8-3.9c0.7,0,1.3-0.4,1.7-1
		c0.5-0.2,1.1-0.3,1.7-0.3c2.9,0,5.2,2.3,5.2,5.2c0,0,0,0,0,0C157.9,29.7,155.6,32,152.7,32z"/>
</g>
</svg>
