<svg xmlns="http://www.w3.org/2000/svg" viewBox="0 0 103.83 163.77"><defs><style>.cls-1{fill:#f08080;}.cls-2,.cls-3{fill:#161821;}.cls-2{stroke:#161821;stroke-miterlimit:10;}</style></defs><title>decision_1</title><g id="Layer_2" data-name="Layer 2"><g id="Layer_1-2" data-name="Layer 1"><path class="cls-1" d="M84.54,38.31l-2.33-1.65-5.48-3.9L66,25.07a1.9,1.9,0,0,0-3.22,1.65c0,1.63,0,3.25,0,4.88-.76.11-1.38.22-2,.35A24.14,24.14,0,0,0,57.07,33c-.36.15-2.28,1-3.49,1.58l0-11.68h5.52a2,2,0,0,0,2.07-1,1.87,1.87,0,0,0-.35-2.23q-1.23-1.77-2.49-3.51l-1.52-2.12-1.75-2.43L50.89,5.75l-.07-.11C49.73,4.1,48.64,2.57,47.56,1a2.11,2.11,0,0,0-1.73-1A2.14,2.14,0,0,0,44.1,1C42.57,3.18,41,5.34,39.48,7.51L35,13.86q-1.76,2.46-3.5,4.94l-.25.32a5.63,5.63,0,0,0-.87,1.4l-.7,1.78,1.82.52a1.8,1.8,0,0,0,.59.1h6V34.61c-.82-.43-1.61-.82-2.38-1.14a26.93,26.93,0,0,0-6.77-1.87V26.46A1.83,1.83,0,0,0,26.5,24.6v0l-.11.07a2.22,2.22,0,0,0-.44.25l-.23.15-1.43,1-2.53,1.81Q14.34,33.17,7,38.43A2,2,0,0,0,6,40.09a2,2,0,0,0,.93,1.66l2.75,2L27.63,56.47l1-1.56a2.29,2.29,0,0,0,.33-1.37v-6a11.7,11.7,0,0,1,2.64,1.25,13.51,13.51,0,0,1,6.09,8.07c.15.54.27,1,.35,1.39l0,.59c0,.44,0,.88,0,1.32a1.38,1.38,0,0,0,.72,1.21,2,2,0,0,0,1,.25,2.05,2.05,0,0,0,1-.26,1.4,1.4,0,0,0,.71-1.22c0-.49,0-1,0-1.49l0-.07a2.35,2.35,0,0,0,.11-.4,2.28,2.28,0,0,0,.06-.39v-.21a8.24,8.24,0,0,0,0-.86,29,29,0,0,1,.77-3.59c.31-1,.69-2.07,1.16-3.15l.33-.72.76-1.44,2.43-3.59a35.08,35.08,0,0,1,2.86-3c.69-.62,1.43-1.18,2.22-1.78l.62-.47.45-.27L54.42,38c.33-.19,3.37-1.58,3.92-1.8a21,21,0,0,1,3.16-.92c.86-.19,1.73-.32,2.77-.45a2.06,2.06,0,0,0,1.9-2.19c0-1.07,0-2.15,0-3.23l8.58,6.13,5.49,3.9.87.62L66.16,50.73c0-1.64,0-3.29,0-4.94a2.07,2.07,0,0,0-.75-1.72,2.1,2.1,0,0,0-1.85-.35,17,17,0,0,0-5.92,2.52,17.42,17.42,0,0,0-6.12,7.29,18.61,18.61,0,0,0-.77,2.15l-.14.44a7.12,7.12,0,0,0-.18,1c0,.32-.13.9-.16,1a3.89,3.89,0,0,0-.12,1.13,2.31,2.31,0,0,0,1,2.06,1.48,1.48,0,0,0,1.48,0,2.28,2.28,0,0,0,.94-2.16c0-.06,0-.16,0-.1a14.79,14.79,0,0,0,.25-1.51l0-.14c0-.19,0-.34,0-.37L54,56.7a18.24,18.24,0,0,1,.63-1.77,13.9,13.9,0,0,1,4.93-5.86,13,13,0,0,1,3.15-1.56q0,2.43,0,4.86v1.1a2.1,2.1,0,0,0,.54,1.67l1,1,1.27-.78a1.85,1.85,0,0,0,.33-.21L84.55,41.83a2.13,2.13,0,0,0,1.1-1.76A2.15,2.15,0,0,0,84.54,38.31ZM41,58.38Zm-15.5-7.63-15-10.66,12.63-9,.58-.41,1.75-1.26v.1c0,1,0,2.08,0,3.11a2.09,2.09,0,0,0,1.93,2.22,24.74,24.74,0,0,1,6.93,1.76A32.81,32.81,0,0,1,38.79,39a29.82,29.82,0,0,1,4.82,4.21l-.32.44-.17.25-.35.52-.19.29c-.1.16-.21.32-.3.48l-.64,1.09-.3.54-.12.24-.27.53-.12.25q-.19.39-.36.78c-.5,1.13-.89,2.27-1.22,3.26a17.52,17.52,0,0,0-5.84-6A16.46,16.46,0,0,0,28,43.71a2.15,2.15,0,0,0-.56-.07,1.93,1.93,0,0,0-1.24.43,2.08,2.08,0,0,0-.74,1.72C25.49,47.44,25.49,49.1,25.49,50.75ZM40.91,20.07a2.12,2.12,0,0,0-1.6-.57H35.15l2.39-3.37L45.82,4.52c.73,1,1.46,2.07,2.2,3.1q2.13,3,4.27,6c.58.82,1.17,1.64,1.76,2.45l1.51,2.11.95,1.32h-4a2.08,2.08,0,0,0-2.37,2.35l0,14.86h0c-.8.62-1.64,1.25-2.44,2a24.66,24.66,0,0,0-1.87,1.85A32.33,32.33,0,0,0,41.5,36.7V21.59A2.08,2.08,0,0,0,40.91,20.07Z"/><path class="cls-2" d="M59.26,69l-.09-.18h4.71l-1.34-2.28a14.52,14.52,0,0,0-7.47-6l.32-.2,3.91-2.47-4.61-.32c-17.95-1.25-24.1,7.66-24.36,8a4.43,4.43,0,0,0-.23.42,16.37,16.37,0,1,0,30.21,8.75A16.76,16.76,0,0,0,59.88,71,18,18,0,0,0,59.26,69ZM55,68.32a12.49,12.49,0,0,1,1.47,1.84,13.43,13.43,0,0,1,.45,1.53,13,13,0,0,1,.35,3,13.35,13.35,0,1,1-24.54-7.27l.33-.5c1-1.24,5.34-5.68,15.32-6.43l-2.71,1.32,5.1.61a15,15,0,0,1,7.27,3.28H52.51Z"/><path class="cls-3" d="M103.14,84.69A8.08,8.08,0,0,0,88.21,85l-7.06,18.13C74.5,100.51,64,96.38,62.85,96c-4.35-2.33-13.21-2.68-18.11-2.68a70.62,70.62,0,0,0-12.18.89,19,19,0,0,0-5.74,1.7c-.57.31-1.15.58-1.72.84a13.91,13.91,0,0,0-3.9,2.4c-.5.48-1,1-1.56,1.54l-6.5,6.42-5.37,5.31-5.38,5.32a8.08,8.08,0,0,0-1.46,9.5,8,8,0,0,0,1.86,2.91l18.82,18.8a7.84,7.84,0,0,0,2.64,1.76l0,3.86c0,2.56,0,4.81,0,6.62,0,.83,0,1.71,0,2.63h4c0-.92,0-1.8,0-2.63,0-2.66-.11-28.3-.11-28.3,0-4.27-.05-8.55-.07-12.55l-.08-10.9L13.58,123.71l10.6,10.6.05,11.53L5.64,127.25a4.16,4.16,0,0,1-1-1.61l-.05-.1A4,4,0,0,1,4,123.41a4,4,0,0,1,1.2-2.86l17-16.79c6-6,14.43-6.46,22.53-6.46a69.73,69.73,0,0,1,11.35.81c.62.1,1.19.21,1.7.32A21.72,21.72,0,0,1,62,99.87l21.46,8.49L92,86.48a4,4,0,0,1,5.25-2.31,4,4,0,0,1,2.24,2.14,4,4,0,0,1,.07,3.11l-9.65,24.79a4.27,4.27,0,0,1-1,1.51l-.19.22a4.08,4.08,0,0,1-4.75,1.34L61.46,108.8l0,52.35c0,.82,0,1.7,0,2.62h4c0-1.38,0-2.66,0-3.84v-45.6L82.42,121a7.87,7.87,0,0,0,3,.57,9.93,9.93,0,0,0,8.23-5.91l9.66-24.8A8.05,8.05,0,0,0,103.14,84.69Zm-83.86,39L24.1,119l0,9.62Z"/></g></g></svg>