<svg xmlns="http://www.w3.org/2000/svg" xmlns:xlink="http://www.w3.org/1999/xlink" viewBox="0 0 103.83 237.6"><defs><style>.cls-1{fill:none;}.cls-2{clip-path:url(#clip-path);}.cls-3{fill:#f08080;stroke:#f08080;}.cls-3,.cls-4{stroke-miterlimit:10;}.cls-4{fill:#161821;stroke:#161821;}</style><clipPath id="clip-path" transform="translate(-1.4 -0.07)"><rect class="cls-1" width="106.2" height="163.84"/></clipPath></defs><title>decision</title><g id="Layer_2" data-name="Layer 2"><g id="Layer_1-2" data-name="Layer 1"><g class="cls-2"><path class="cls-3" d="M85.65,38.79l-2.33-1.65-5.49-3.9-6.28-4.49L67,25.51h0a1.41,1.41,0,0,0-1.6-.31,1.43,1.43,0,0,0-.8,1.58V32.1c-.84.12-1.6.24-2.36.41a21.88,21.88,0,0,0-3.62,1.06c-.48.19-3.34,1.47-4.17,1.91q0-6.49,0-13h6.07a1.46,1.46,0,0,0,1.59-.73A1.42,1.42,0,0,0,61.82,20c-.82-1.17-1.65-2.34-2.48-3.5l-1.52-2.12L56.06,12,51.8,6q-1.63-2.3-3.25-4.61A1.66,1.66,0,0,0,47.23.57h0a1.63,1.63,0,0,0-1.31.8L41.29,7.86l-4.54,6.36q-1.76,2.46-3.5,4.93c-.08.12-.17.23-.26.34a5.47,5.47,0,0,0-.8,1.29L31.69,22l1.31.37a1.13,1.13,0,0,0,.44.08H40c0,3.43,0,6.87,0,10.3v2.71A33.59,33.59,0,0,0,36.89,34a27.34,27.34,0,0,0-7.08-1.89c0-.83,0-1.67,0-2.51V26.52a1.33,1.33,0,0,0-2.22-1.11v0h0l-.21.13-1.42,1-2.54,1.82Q16,33.64,8.63,38.9a1.54,1.54,0,0,0-.73,1.26,1.49,1.49,0,0,0,.73,1.25l2.74,2,13.88,9.89L27,54.49l1.88,1.33.68-1.1a1.87,1.87,0,0,0,.25-1.11V52.53c0-1.87,0-3.74,0-5.63a13,13,0,0,1,3.42,1.5,14,14,0,0,1,6.29,8.37c.16.54.28,1,.38,1.5,0,.18,0,.36,0,.55,0,.45,0,.91,0,1.37,0,1.29,2.44,1.29,2.43,0,0-.5,0-1,0-1.47v-.16a.59.59,0,0,1,0-.08.08.08,0,0,1,0,0,2,2,0,0,0,.08-.26.43.43,0,0,1,0-.05,1.66,1.66,0,0,0,0-.33l0-.21a7.77,7.77,0,0,0,0-.86A28.2,28.2,0,0,1,43.37,53c.31-1,.7-2.09,1.18-3.19.1-.25.22-.49.34-.74s.09-.19.14-.29l.23-.45.17-.31c.07-.14.15-.28.23-.42s.13-.23.2-.35l.23-.39c.07-.12.15-.24.23-.36s.15-.25.24-.37.16-.25.25-.37l.24-.37.28-.37.26-.36c.09-.13.19-.26.29-.38s.17-.24.27-.35a37.87,37.87,0,0,1,2.9-3c.7-.63,1.46-1.2,2.25-1.8l.67-.5.44-.27,1.15-.69c.39-.23,3.48-1.64,4-1.84a21.72,21.72,0,0,1,3.24-.94c.87-.19,1.76-.32,2.82-.46a1.57,1.57,0,0,0,1.45-1.69v-4.2l3.08,2.2,6.28,4.49,5.49,3.9,1.45,1L69.26,50.2l-2.2,1.57c0-2,0-3.94,0-5.91a1.53,1.53,0,0,0-2-1.59,16.46,16.46,0,0,0-5.75,2.45,16.8,16.8,0,0,0-5.95,7.08,19,19,0,0,0-.75,2.1l-.14.44a6,6,0,0,0-.16.94c0,.33-.14.95-.18,1.1a2.93,2.93,0,0,0-.09.93v.06c0,2.22,2.42,2.51,2.43,0V59.3a1.78,1.78,0,0,1,0-.25,12.13,12.13,0,0,0,.24-1.43c0-.25.07-.48.09-.6l.13-.39a15.1,15.1,0,0,1,.65-1.83,14.35,14.35,0,0,1,5.1-6.07,13.64,13.64,0,0,1,3.93-1.83v6.67a1.64,1.64,0,0,0,.41,1.3l.68.73.93-.57.29-.19,3.74-2.67,15-10.68a1.47,1.47,0,0,0,0-2.7Zm-40,4.42,0,0c-.18.24-.35.48-.52.73l-.17.24-.35.51L44.4,45c-.11.16-.21.31-.3.47s-.13.2-.19.3l-.27.47c-.06.1-.12.2-.17.3s-.18.32-.26.48l-.15.28-.27.53-.12.24c-.12.25-.24.51-.35.77-.52,1.19-.93,2.39-1.26,3.41a3.82,3.82,0,0,0-.12.42v0l-.06.25v0c0,.09,0,.18-.07.27h0a16.82,16.82,0,0,0-6.26-6.9,16.46,16.46,0,0,0-5.23-2.09,1.8,1.8,0,0,0-.44,0,1.51,1.51,0,0,0-.93.31,1.63,1.63,0,0,0-.55,1.34c0,2,0,4,0,5.92l-.72-.51L12.79,41.39l-1.73-1.23,13.78-9.81,2.54-1.83V29.6c0,1,0,2.08,0,3.11a1.58,1.58,0,0,0,1.48,1.72,25.3,25.3,0,0,1,7.07,1.8,32.52,32.52,0,0,1,4.54,2.39,30.15,30.15,0,0,1,5.18,4.58Zm8.29-23.14c-1.32,0-1.87.53-1.87,1.85q0,7.54,0,15.1l-.21.16c-.8.61-1.63,1.23-2.41,1.93a30.71,30.71,0,0,0-2.2,2.22A32.17,32.17,0,0,0,42.39,37V32.8q0-5.58,0-11.14a1.49,1.49,0,0,0-1.65-1.59H35.58c1-1.49,2.1-3,3.15-4.44l4.54-6.36,3.95-5.55C48.08,5,49,6.17,49.82,7.4l4.27,6c.58.82,1.17,1.63,1.76,2.45L57.37,18l1.5,2.12H53.93Z" transform="translate(-1.4 -0.07)"/><path class="cls-4" d="M60.65,69l-.08-.18h4.7l-1.34-2.28a14.51,14.51,0,0,0-7.47-6l.33-.2,3.91-2.46-4.62-.32c-17.95-1.25-24.1,7.66-24.35,8a3.81,3.81,0,0,0-.24.42A16.37,16.37,0,1,0,61.7,74.81a16.75,16.75,0,0,0-.42-3.74A17.39,17.39,0,0,0,60.65,69Zm-4.24-.64a13.93,13.93,0,0,1,1.46,1.85,12,12,0,0,1,.46,1.52,13.68,13.68,0,0,1,.35,3.06,13.35,13.35,0,1,1-24.54-7.27l.32-.5c1-1.24,5.35-5.68,15.33-6.43l-2.71,1.32,5.1.61a15.08,15.08,0,0,1,7.26,3.27H53.91Z" transform="translate(-1.4 -0.07)"/><path class="cls-4" d="M104.08,85a7.6,7.6,0,0,0-10-3.89,7.63,7.63,0,0,0-4,4.19l-7.24,18.59S64.31,96.53,64,96.47c-4.29-2.31-13.34-2.63-17.89-2.63a70,70,0,0,0-12.1.88,18.7,18.7,0,0,0-5.58,1.65c-1.95,1-3.88,1.61-5.51,3.16-.53.5-1,1-1.56,1.53l-6.5,6.42q-5.37,5.33-10.74,10.64a7.57,7.57,0,0,0-1.35,9,7.43,7.43,0,0,0,1.74,2.72l18.82,18.81a7.21,7.21,0,0,0,2.79,1.76v-1l0,4.79,3-.06-3,.06c0,2.75,0,5.17,0,7.09,0,18.69-2,63-2,63.57v.1c0,6.78,3.06,12.29,9.06,12.29s10.85-5.51,10.85-12.27L45,168.76c0-.13,0-.21,0-.22l1.84,0a.33.33,0,0,1,.09.23l1.15,56.13c0,6.78,4.88,12.29,10.86,12.29s9.67-5.51,9.66-12.37c0-.59-2.2-46.11-2.2-64.8V113.66l17.59,7a7.54,7.54,0,0,0,2.78.53,9.48,9.48,0,0,0,7.77-5.59l9.65-24.8A7.55,7.55,0,0,0,104.08,85Zm-78,44.91L20,123.79l6-6C26,121.61,26,125.71,26.05,129.87Zm3-4.08,0,11.4s.06,10.6.05,10.6Zm72.33-36.12-9.65,24.8a4.61,4.61,0,0,1-1.12,1.65l-.18.19a4.54,4.54,0,0,1-5.32,1.5L63.37,109.6l0,2.33v49.28c.07,10,.91,28.76,1.74,45.14s.45,18.29.46,18.53c0,5.11-2.31,9.26-6.64,9.26s-7.84-4.15-7.84-9.28L50,168.69a3.12,3.12,0,0,0-3-3.17H45a3.11,3.11,0,0,0-3,3.19l-.91,56.17c0,5.11-3.52,9.26-7.83,9.26s-6-4.12-6-9.21c.13-2,2-45.18,2-63.72,0-2.66-.12-28.3-.12-28.3,0-6.31-.07-12.63-.1-18q0-2.23,0-4.23l-3,3-8.13,8-2.14,2.12,10.39,10.39L26.13,147a4.43,4.43,0,0,1-.63-.53L6.69,127.67a4.55,4.55,0,0,1-1.11-1.8,4.41,4.41,0,0,1-.66-2.39,4.53,4.53,0,0,1,1.35-3.22l3.43-3.38,13.56-13.41c6.13-6.07,14.74-6.6,22.88-6.6a69.73,69.73,0,0,1,11.43.81c.63.1,1.2.22,1.73.33a24.16,24.16,0,0,1,4.43,1.54l2.68,1.06,18.14,7.17,8.34-21.42a4.58,4.58,0,0,1,2.41-2.52,4.57,4.57,0,0,1,6,2.34A4.45,4.45,0,0,1,101.38,89.67Z" transform="translate(-1.4 -0.07)"/></g></g></g></svg>