<?xml version="1.0" encoding="utf-8"?>
<!-- Generator: Adobe Illustrator 23.0.2, SVG Export Plug-In . SVG Version: 6.00 Build 0)  -->
<svg version="1.1" id="Layer_1" xmlns="http://www.w3.org/2000/svg" xmlns:xlink="http://www.w3.org/1999/xlink" x="0px" y="0px"
	 viewBox="0 0 182.8 172.7" style="enable-background:new 0 0 182.8 172.7;" xml:space="preserve">
<style type="text/css">
	.st0{fill:#161821;stroke:#161821;stroke-miterlimit:10;}
	.st1{fill:#F08080;stroke:#F08080;stroke-miterlimit:10;}
</style>
<title>EMPOWER</title>
<g>
	<g id="Layer_3">
		<path class="st0" d="M71.2,172c0.3-5.5,0.5-10.8,0.8-16.1c0.4-6.9,0.8-13.8,1.2-20.7c0.3-4.6-0.9-9.2-3.4-13.1
			c-5.7-8.9-11.4-17.8-17.2-26.7c-3-4.7-2.4-8.8,2-12.4c4.7-3.8,9.4-7.7,14.2-11.5c0.3-0.2,0.6-0.6,0.9-0.7c4.5-1.1,5.3-5,6.6-8.6
			c0.2-0.6,0.4-1.2,0.6-1.8c1.3-4.2,3.9-7.1,8.5-7.5c4.3-0.4,7.4,1.7,9.5,5.7c3.3-2,6.8-2.8,10.4-0.8s5,5.2,4.9,9.4
			c3.7-0.5,7.1-0.1,9.7,2.7s2.9,6,2.1,9.7c0.9,0,1.6,0.1,2.3,0.1c4.6,0.3,8,4.3,7.7,8.8c0,0.7-0.2,1.3-0.4,1.9
			c-1.2,3.9-2.9,7.6-4.1,11.4c-1,3.4-2.2,6.9-2.2,10.4c-0.1,9-4,15.9-10.4,21.7c-1.1,1.1-1.8,2.5-2,4c-1.5,10.9-0.5,21.7,1.9,32.3
			c0.1,0.5,0.2,1,0.3,1.6c-2.2,0.5-3.7,0.5-4.2-2.3c-2.1-11.2-3.4-22.4-1.3-33.7c0.3-1.6,1.2-3,2.3-4.1c7.2-6.1,10.8-13.6,9.6-23.3
			c-4.2,0.7-7.7-0.5-9.6-3.9c-3.1,0.3-6,1.2-8.5,0.5s-4.5-2.8-6.7-4.3l0.4-0.7l-5,2.1c0.4,0.6,0.9,1.3,1.3,1.9
			c3.8,5,5.9,11.1,5.9,17.5c0,0.8-1.2,1.7-1.8,2.5c-0.6-0.8-1.7-1.6-1.7-2.4c-0.3-15.1-12.4-24.2-23.8-27.8
			c-0.9-0.3-1.8-0.5-3.1-0.9c3-3.3,5.7-6.5,8.6-9.5c0.4-0.4,1.8,0,2.7,0.3c5.5,1.9,9.4,0.4,12.2-4.8c-4.8-2.2-9.5-4.4-14.3-6.4
			c-2.3-0.9-4.9-0.4-6.7,1.3c-5,4-9.9,8-14.8,12c-2.5,2.1-2.7,4.1-0.8,7.1c5.7,8.9,11.4,17.8,17.2,26.7c2.5,3.8,3.9,8.2,4.1,12.7
			c0.1,1.5,0,2.9-0.1,4.4c-0.7,11.6-1.4,23.1-2.1,34.9L71.2,172z M97,77.5c-1.5,5-4.2,8.6-9,10.4c-0.6,0.2-1.4,0.4-1.6,0.8
			c-1.1,2.1-1.8,4.3-0.6,6.6c0.9,2,2.9,3.2,5.1,3.2c2.4,0.1,4.6-1.4,5.3-3.7c3.4-9,6.8-18,10.1-27.1c1-2.8-0.4-5.9-3.2-7
			c-2.6-1.2-5.7-0.1-7,2.5c-1.7,3.7-3,7.7-4.5,11.6L97,77.5z M100,95.8c0,3.2,1.7,5.5,4.3,6.1c2.7,0.7,5.5-0.7,6.6-3.3
			c2.6-6.7,5.1-13.4,7.5-20.1c1.1-2.9-0.4-6.2-3.3-7.3s-6.2,0.4-7.3,3.3c-2.5,6.5-4.9,13.1-7.4,19.6C100.2,94.6,100.1,95.2,100,95.8
			z M120,105.1c0.7-0.5,2.5-1.3,3.1-2.6c1.9-4.4,3.6-8.8,5.1-13.3c0.6-2.5-0.8-5-3.3-5.7c-2.2-0.6-4.5,0.5-5.4,2.6
			c-1.8,4.3-3.4,8.7-4.9,13.1C113.6,102.2,115.9,105.1,120,105.1z M88.1,73.3l3-8c0.2-0.5,0.4-1,0.5-1.6c0.8-2.9-0.7-5.9-3.5-7
			c-2.6-1.1-5.6,0-6.9,2.5c-1.4,3-2.5,6.3-3.7,9.4L88.1,73.3z M82.3,88.5c-4-1.2-4.5-1-6.5,3l5.5,2.5L82.3,88.5z"/>
		<path class="st1" d="M92.7,43.7c-1.1,0-2-0.9-2-2V2.5c0-1.1,0.9-2,2-2s2,0.9,2,2v39.2C94.7,42.8,93.8,43.7,92.7,43.7z"/>
		<path class="st1" d="M142.9,63.3c-1.1,0-2-0.9-2-2c0-0.5,0.2-1,0.6-1.4l27.7-27.7c0.8-0.8,2.1-0.8,2.8,0s0.8,2.1,0,2.8l-27.7,27.7
			C143.9,63.1,143.4,63.3,142.9,63.3z"/>
		<path class="st1" d="M43.7,64c-0.5,0-1-0.2-1.4-0.6L14.6,35.7c-0.8-0.8-0.8-2,0-2.8s2-0.8,2.8,0l27.7,27.7c0.8,0.8,0.8,2,0,2.8
			C44.8,63.8,44.3,64,43.7,64z"/>
		<path class="st1" d="M180.3,112.8h-39.2c-1.1,0-2-0.9-2-2s0.9-2,2-2h39.2c1.1,0,2,0.9,2,2S181.4,112.8,180.3,112.8z"/>
		<path class="st1" d="M41.7,112.5H2.5c-1.1,0-2-0.9-2-2s0.9-2,2-2h39.2c1.1,0,2,0.9,2,2S42.8,112.5,41.7,112.5z"/>
		<path class="st1" d="M64.3,50.1c-0.8,0-1.5-0.4-1.8-1.1l-6.7-14.7c-0.5-1-0.1-2.2,0.9-2.7c1-0.5,2.2-0.1,2.7,0.9
			c0,0.1,0.1,0.1,0.1,0.2l6.8,14.7c0.5,1,0,2.2-1,2.7c0,0,0,0,0,0C64.8,50.1,64.5,50.1,64.3,50.1z"/>
		<path class="st1" d="M31,89.9c-0.2,0-0.4,0-0.6-0.1l-12.2-4.2c-1.1-0.3-1.7-1.4-1.4-2.5c0.3-1.1,1.4-1.7,2.5-1.4
			c0.1,0,0.1,0,0.2,0.1L31.7,86c1.1,0.3,1.7,1.4,1.3,2.5C32.8,89.4,31.9,90,31,89.9z"/>
		<path class="st1" d="M141.3,90.5c-1.1,0-2-0.9-2-2c0-0.8,0.5-1.5,1.2-1.8l11.8-5.3c1-0.5,2.2,0,2.7,1c0.5,1,0,2.2-1,2.7l0,0
			l-11.8,5.3C141.8,90.5,141.6,90.5,141.3,90.5z"/>
		<path class="st1" d="M122.1,48.2c-0.3,0-0.6-0.1-0.8-0.2c-1-0.5-1.5-1.6-1-2.6c0,0,0,0,0,0l6.7-14.7c0.5-1,1.6-1.4,2.7-1
			s1.4,1.6,1,2.7l-6.8,14.7C123.6,47.8,122.9,48.2,122.1,48.2z"/>
		<path class="st1" d="M17,146.2c-1.1,0-2-0.9-2-2c0-0.8,0.5-1.5,1.2-1.8l24.7-11c1-0.4,2.2,0.2,2.6,1.2c0.3,0.9-0.1,2-0.9,2.4
			l-24.7,11C17.6,146.1,17.3,146.2,17,146.2z"/>
		<path class="st1" d="M172.4,142c-0.2,0-0.5-0.1-0.7-0.1l-25.2-9.6c-1-0.4-1.5-1.6-1.2-2.6c0.4-1,1.6-1.5,2.6-1.2l25.2,9.7
			c1,0.4,1.6,1.5,1.2,2.6C174,141.5,173.2,142,172.4,142L172.4,142z"/>
	</g>
</g>
</svg>
