<svg xmlns="http://www.w3.org/2000/svg" viewBox="0 0 152.38 162.91"><defs><style>.cls-1,.cls-2{fill:#161821;}.cls-2{stroke:#161821;stroke-miterlimit:10;}.cls-3{fill:#f08080;}.cls-4{fill:#635555;}</style></defs><title>family-icon</title><g id="Layer_2" data-name="Layer 2"><g id="Layer_1-2" data-name="Layer 1"><path class="cls-1" d="M67.19,88.39l.3,0,.24,0,.13,0,.1,0,.1-.06.23,0,.41-.11-.13-.4a5.1,5.1,0,0,1-.23-1.5v-.12l0-.54-.52.15a7.88,7.88,0,0,1-2,.29h-.4v.4a7.44,7.44,0,0,0,.26,1.79v.36h.4l.27,0Z"/><path class="cls-1" d="M125.25,88.89l-.23-.32a3,3,0,0,0-.36-.93c0-.17.06-.33.1-.5l0-.24-.06-.21a3.59,3.59,0,0,1-.08-.35l-.32-2.07,0,0-1.56-8.19h.06l-3-17.31a2.23,2.23,0,0,0-2.35-1.8h0a2.21,2.21,0,0,0-2,2.2V77.86l.22,4.25h0l1.85,35.72,1.38-7.84c.19-1.09.37-2,.48-2.6a3.34,3.34,0,0,1,.6-1.4v0l.12-.11h.71l-1.12-21.94-.12-2.18-.16-3.37,0,0,1.42,9,.17.62a4.07,4.07,0,0,0,.26.74,9.67,9.67,0,0,0,.71,1.48l.26.38A7.88,7.88,0,0,0,124.43,93c.64.36.9-1.48.77-3.17a.69.69,0,0,1,.13-.11l.41-.27-.36-.37A1.24,1.24,0,0,1,125.25,88.89Z"/><path class="cls-1" d="M81,90A7.25,7.25,0,0,0,82.27,87c.16-.88.31-1.76.46-2.64L83.48,80l.39-2.24-1.29,22.79L82.14,108v.06c.13.67.23,1.26.31,1.74l.1.55a18.53,18.53,0,0,0,.48,2l1.54,7L87,78.28V59.67a1.8,1.8,0,0,0-1.64-1.79,1.78,1.78,0,0,0-1.94,1.48l0,.21-.3,1.71-.54,3.07-.69,4-.78,4.47c-.26,1.5-.52,3-.79,4.51s-.47,2.72-.71,4.08c-.19,1.08-.37,2.16-.56,3.24-.11.64-.23,1.29-.34,1.93a4.56,4.56,0,0,1-1.48,2.31,6.1,6.1,0,0,1-2.36,1.4,10,10,0,0,1-4,.21h0a10,10,0,0,0-1.06-.1h-.2c-.62,0-1.21-.09-1.7-.1l-1.45-.51c.06,0,.15.4.17.46s.12.36.19.53a4.8,4.8,0,0,0,2.07,2.42,2.41,2.41,0,0,0,.83.42,1.34,1.34,0,0,0,.66,0c.11,0,0,0,.19,0a1.44,1.44,0,0,1,.24.09l.34.11.73.19,0-.17c.56.07,1.18.16,1.78.28l.06,0h.06a8.48,8.48,0,0,0,3.68-1,8.59,8.59,0,0,0,1-.62,14.9,14.9,0,0,0,1.48-1.26A8.79,8.79,0,0,0,81,90Z"/><path class="cls-1" d="M121.57,141.25h-2.95l.57,11.28a6.48,6.48,0,1,1-13-.05l-1-53.32a3.28,3.28,0,0,0-3.31-3.22h-1.76a3.28,3.28,0,0,0-3.29,3.25L96,152.53a6.47,6.47,0,0,1-12.94.12L84.55,127l.24-4.16-1.28.46a2.11,2.11,0,0,1-.38.1l-.12,0a2.09,2.09,0,0,1-.42,0,4,4,0,0,1-.83,0l-1-.1-.22,4.73-1.41,24.43a10.37,10.37,0,0,0,20.74,0l.81-52.73h.59l1,52.7a10.37,10.37,0,0,0,19,5.73,10.53,10.53,0,0,0,1.73-5.81l-.56-11.2Z"/><path class="cls-1" d="M137.3,81.19,135.2,71l-.1-.38a29,29,0,0,1-.65-3L134,65c-.26-1.59-2.61-15.66-3.43-19.79-1.06-5.29-3.54-6.82-4.21-7.13-7.82-5.19-22-5.31-24.84-5.28s-16.91.42-24.93,5.75c-.75.37-3.25,2-4.28,7.17-.65,3.16-2.18,12.18-3.36,19.19l-.11.61-.2,1.21-.09.62.55.3.26.16.26.15a7.5,7.5,0,0,1,1.23.93L72.09,70l.24-1.67c.07-.49.18-1.17.32-2,.86-5.17,2.75-16.31,3.46-19.87S78.3,42,78.32,42l.26-.15c4.85-3.23,12.87-4.44,17.53-4.88l0,.12c.12.46.21.95.31,1.57l.12.61a2.67,2.67,0,0,0,1,1.72v.31a3.54,3.54,0,0,0-.46,1.22c0,.13,0,.27-.07.42l-.05.41a1,1,0,0,1,0,.28L95.84,59.12l-.19,2.57c0,.37,0,.75-.08,1.12A3,3,0,0,0,97.44,66a3,3,0,0,1,.66.35l1.76,1.16.48.32a1.79,1.79,0,0,0,2.12,0c.78-.53,1.57-1,2.36-1.56a3.92,3.92,0,0,1,.64-.34,3,3,0,0,0,1.84-2.89l0-.47c0-.32,0-.65-.07-.94l-.53-7.38c0-.39,0-.79-.07-1.2l-.24-3c-.07-.87-.13-1.73-.2-2.58L106,45.31c-.06-.84-.12-1.68-.2-2.48a2.29,2.29,0,0,0-.48-1.46.72.72,0,0,1,0-.15,1.79,1.79,0,0,0,0-.23,2.91,2.91,0,0,0,.93-1.71c.14-.76.3-1.5.47-2.29a1,1,0,0,0,0-.16c4.71.32,12.77,1.34,17.59,4.55l.13.06c.16.1,1.56,1,2.24,4.48.64,3.17,2.27,12.81,3.24,18.57l.64,3.77a30.57,30.57,0,0,0,.66,3.11c.05.21.11.43.15.56l1.91,9.31a6.76,6.76,0,0,1,0,3.14,15,15,0,0,0,3.43.14C137.58,84.31,137.3,81.19,137.3,81.19ZM102.82,37.27l0,.23a2.37,2.37,0,0,0-.53,0l-.82.12-.85-.12a2.22,2.22,0,0,0-.37,0h-.13l0-.23Zm.41,25.57-.8.54-1,.67L99.84,63a4.93,4.93,0,0,0-.46-.23l0-.38c0-.5.06-1,.11-1.55s.07-1.23.12-1.85l.91-12.07c0-.63.08-1.25.13-1.86l0-.61.3.09v.24l.43-.12.36.1v-.21l.34-.09,1.34,18.25Z"/><path class="cls-1" d="M120.84,131.12c-.54,1.46-1.2,3.28-1.86,5l.09-4.24-.1-1.66,0,0,.06-.1a4.21,4.21,0,0,0,2-1.41l.06,1.32,0,.41Z"/><path class="cls-2" d="M40.27,26.08,40,26c-6.5-1.36-12.76-7.33-13.65-10a1.06,1.06,0,0,0-2.07.34c0,4.35-3.28,5.29-3.42,5.32a1,1,0,0,0-.8,1v.27a10.85,10.85,0,0,0,20.68,4.59A1,1,0,0,0,40.27,26.08Zm-9.34,5.55a8.78,8.78,0,0,1-8.74-8.28,7.06,7.06,0,0,0,3.75-4.07,26.31,26.31,0,0,0,12.28,8.43A8.79,8.79,0,0,1,30.93,31.63Z"/><path class="cls-2" d="M21.64,71.28,20.43,71,19,70.65c1.1-6.33-1.69-14.91-1.82-15.3a1,1,0,0,0-1.08-.71,1,1,0,0,0-.95.88l-2.4,14.82a1,1,0,0,0,.8,1.19l4,.94,1.48.36.9.22,1.09.47,1.76-1.75ZM17,70.16l-2-.47,1.41-8.82A27.05,27.05,0,0,1,17,70.16Z"/><path class="cls-2" d="M48.17,70.34v0l-2.38-14.8a1.07,1.07,0,0,0-1-.88,1,1,0,0,0-1.08.71,47.33,47.33,0,0,0-1.87,8.71c-.05.41-.09.83-.12,1.25a10.92,10.92,0,0,0-.09,1.62l4,4,1.7.6a1.17,1.17,0,0,0,.42-.2A1.05,1.05,0,0,0,48.17,70.34ZM44,69.16a7.79,7.79,0,0,1-.19-1.85c0-.44,0-.89,0-1.33a39.14,39.14,0,0,1,.7-5.11l1.12,6.92.26,1.64,0,.26Z"/><path class="cls-2" d="M59.39,68.29c-.06-.28-.11-.59-.15-.92s-.09-.52-.14-.8c-.88-5.76-2.4-15.3-3-18.46-.91-4.8-3-6.22-3.57-6.52a25.63,25.63,0,0,0-7.39-3.4c6.54-17.93-1.72-27.93-2.7-29A14.44,14.44,0,0,0,31,4.3c-4.56.13-8.27,2.12-9.95,4.05C8.8,16,15.11,33.42,17,37.87a26.24,26.24,0,0,0-8.55,3.7c-.62.32-2.71,1.76-3.63,6.55l-.23,1.39c-.14.78-.3,1.72-.46,2.72a1.23,1.23,0,0,0,0,.13c-.11.61-.21,1.25-.31,1.91l-.23,1.37C2.74,60.86,1.77,67,1.38,69.52c-.16,1-.38,2.09-.68,3.29A7.15,7.15,0,0,0,.5,74.5a6.47,6.47,0,0,0,5,6.46l3.12.74,3.39.8-.13.37c-.23.61-.5,1.35-.81,2.17-.15.43-.31.86-.48,1.32l-.76,2c-.54,1.45-1.11,3-1.69,4.62L6.4,97.62c-.16.45-.32.89-.49,1.32l-3.52,9.64a1.49,1.49,0,0,0,.18,1.33,1.46,1.46,0,0,0,1.18.61h8.68v42.69a8.14,8.14,0,1,0,16.27,0V110.52h3.6v42.69a8.14,8.14,0,1,0,16.28,0V122.53l-.31-.06a2.42,2.42,0,0,1-1.45-.91,2.12,2.12,0,0,1-.28-.5,1.52,1.52,0,0,1-.09-.26l-.12-.47L48,112.74c.09-.34.19-.69.29-1s.15-.7.22-1a1,1,0,0,1,0-.15l.1-.5c.08-.54.19-1.2.34-2l.09-.47h-2a1.37,1.37,0,0,0-.43.08l-.23.08,0,.23c-.1.52-.18,1-.26,1.4s-.11.59-.16.82a5.9,5.9,0,0,1-.15.8l0,.21c0,.11-.06.21-.1.33l0,.08,0,41.58a5.24,5.24,0,1,1-10.47,0V109.05a1.46,1.46,0,0,0-1.45-1.45H27.26a1.46,1.46,0,0,0-1.47,1.45v44.16a5.24,5.24,0,1,1-10.47,0V109.05a1.46,1.46,0,0,0-1.45-1.45h-8c.68-1.86,1.79-4.86,3-8.19.32-.9.67-1.83,1-2.77.5-1.35,1-2.71,1.48-4,.3-.83.59-1.63.88-2.41l.36-1c.92-2.51,1.73-4.67,2.24-6l13.27,3.14.16,0a5.51,5.51,0,0,0,1,.14h.19a1.23,1.23,0,0,0,.29,0h.1l.44,0h.45l.13,0a1.83,1.83,0,0,0,.66,0l.34,0a1.15,1.15,0,0,0,.26,0,3.16,3.16,0,0,0,.72-.12l12.87-3,.42-.1c.58,1.54,1.53,4.1,2.63,7l1.61,4.31,0,.08.33.88.32.87.23.62.44-.48A2.33,2.33,0,0,1,52,96.2a1,1,0,0,1,.16-.08l.33-.18a5.7,5.7,0,0,1,.89-.45l.33-.15L53.59,95c-.11-.33-.24-.66-.36-1s-.17-.45-.25-.68l-2.09-5.59-2-5.22L55.51,81a7.48,7.48,0,0,0,1.26-.43l.22-.13,0-.24a1,1,0,0,1,.16-.39l-.24-.58a1.49,1.49,0,0,0-.76,0,1.23,1.23,0,0,0-.39.21,1.22,1.22,0,0,0-.7-.09s-.1,0-.29-.22a1.92,1.92,0,0,1-.31-.54l-.14-.3L35.83,82.62c.1-.22.19-.43.28-.67s.13-.43.19-.7c0,0,0-.12,0-.18s0-.17,0-.22a6.41,6.41,0,0,0,.11-1.11,6.83,6.83,0,0,0-2-4.75l6.87-1.63,2.66-.63-2.26-2.26-.26-.2-.21.13-2.15.51-8.7,2-1.9-.45-2.46-.57-2.4,2.41,2.55.61,4.34,1a3.63,3.63,0,0,1,1.82,1,3.88,3.88,0,0,1,1.16,2.73,3.71,3.71,0,0,1-.12.89v.07a1.87,1.87,0,0,1-.08.28l-.08.19c0,.12-.09.24-.13.33a3.92,3.92,0,0,1-2.85,2.07h-.09a3.94,3.94,0,0,1-.7,0,3,3,0,0,1-.72-.12l-17.15-4L6.1,78.13A3.59,3.59,0,0,1,3.4,74.5a4.77,4.77,0,0,1,.11-1A35.11,35.11,0,0,0,4.23,70c.15-.88.36-2.21.61-3.79l.7-4.44c.28-1.82.57-3.72.86-5.5.54-3.37,1-6.2,1.28-7.59.64-3.37,1.9-4.37,2.09-4.5A1.5,1.5,0,0,0,10,44c3.71-2.68,9.41-3.9,13.59-4.45A8.54,8.54,0,0,0,31.11,44a8.38,8.38,0,0,0,7.38-4.33,39.66,39.66,0,0,1,7.18,1.71A20.39,20.39,0,0,1,50.92,44l.19.11c.06,0,1.45.89,2.16,4.54.54,2.94,1.95,11.89,3,18.67l.16.89c0,.35.1.66.16,1l.1.57.49-.31.32-.17a8,8,0,0,1,.85-.3l1.11-.29ZM42.33,37.48C41,37.19,40,37,38.92,36.84l-.2,0a1.47,1.47,0,0,0-.41.07.67.67,0,0,0-.12-.06,1.45,1.45,0,0,0-1.89.81,5.55,5.55,0,0,1-5.19,3.51,5.64,5.64,0,0,1-5.25-3.63,1.48,1.48,0,0,0-1.37-1,1.31,1.31,0,0,0-.5.1l-.14.06a1.26,1.26,0,0,0-.6-.07c-1.08.15-2.24.34-3.37.56-1.28-2.91-8.09-19.88,2.94-26.5a1.62,1.62,0,0,0,.35-.33c1.18-1.46,4.37-3.07,8-3.18a11.63,11.63,0,0,1,9.19,3.91C41.18,12.07,48.5,20.9,42.33,37.48Z"/><path class="cls-3" d="M32.22,87l-.69.06h-.17a2.83,2.83,0,0,1-.65,0h-.57l-.45,0-.55,0L30.7,91a1.48,1.48,0,0,1-.07,1.28,1.51,1.51,0,0,1-1.07.78,1.61,1.61,0,0,1-1.73-1l-2.35-5.73-2.77-.65-.06.43a2.1,2.1,0,0,0,.12,1.19l2.38,5.85A4.56,4.56,0,0,0,29.31,96a4.09,4.09,0,0,0,.8-.08,4.47,4.47,0,0,0,3.08-2.25,4.38,4.38,0,0,0,.19-3.77Z"/><path class="cls-3" d="M45.87,84.07l-.15-.25-3,.72.36.48a6.22,6.22,0,0,1,.78,1.25l-2.39,5.85a1.56,1.56,0,0,1-.95.88,1.48,1.48,0,0,1-1.29-.17,1.63,1.63,0,0,1-.52-2L40.24,87a2.24,2.24,0,0,0,.06-1.53l-.11-.36L37,85.9l.44.38L36,89.73a4.56,4.56,0,0,0,1.67,5.56,4.36,4.36,0,0,0,3.72.47,4.38,4.38,0,0,0,2.74-2.53l2.44-6C46.89,86.45,46.65,85.38,45.87,84.07Z"/><path class="cls-3" d="M49.47,71.62l-3.83-3.83L43.82,66,42.1,64.25a1.13,1.13,0,0,0-.15-.14s0,0-.07,0A11.75,11.75,0,0,0,39,62.3a7.28,7.28,0,1,0-8.77,0,12.73,12.73,0,0,0-3.08,1.94L20.43,71l-.63.63a4.08,4.08,0,0,0-.8,1.21,3.43,3.43,0,0,0,3.13,4.81h0a3.61,3.61,0,0,0,2.53-1.12L26.26,75l1.45-1.45,1.2-1.41-.3-.08,1.31.31V70.75A1.51,1.51,0,0,0,29,69.39a1.6,1.6,0,0,0-1.61.32l-4.84,4.86a.6.6,0,0,1-.41.16.61.61,0,0,1-.42-.18.68.68,0,0,1,.11-.87l1.91-1.91,5.44-5.45a9,9,0,0,1,2.49-1.45h6a8.31,8.31,0,0,1,2.41,1.43l1.62,1.63,4,4,1.74,1.75a.66.66,0,0,1,.11.86.54.54,0,0,1-.38.19.64.64,0,0,1-.44-.16l-5.86-5.85a.81.81,0,0,0-.31-.24,1.54,1.54,0,0,0-1-.18,1.43,1.43,0,0,0-.95.61,1,1,0,0,0-.15.82,2.32,2.32,0,0,0,.36.72l0,.06s.06.1.07.1l.21.3a4.23,4.23,0,0,0,.31.38.57.57,0,0,0,.11.14c.3.36.61.71.92,1s.5.53.78.8l.1.09.25.25c.23.22.45.42.66.65l2.29,2.29a3.47,3.47,0,0,0,5.08,0A3.58,3.58,0,0,0,49.47,71.62ZM34.64,60.87A4.38,4.38,0,1,1,39,56.5,4.38,4.38,0,0,1,34.64,60.87Z"/><path class="cls-1" d="M84.52,118.64l-1.38-6.29a19,19,0,0,1-.48-2l-.1-.57c-.08-.47-.19-1.06-.31-1.72v0l.44-7.46L84,78.19V73.6L81.55,87.44A7.37,7.37,0,0,1,77.35,93a8.4,8.4,0,0,1-3.63,1h-.1c-.62-.12-1.26-.21-1.87-.3l0,.15-.62-.14-.35-.12-.1,0a6.81,6.81,0,0,1-.94-.4l-.59-.31.54-.37a7.32,7.32,0,0,0,1.24-1.06l.19-.21.26.11a2.81,2.81,0,0,0,.49.16,2.88,2.88,0,0,0,.4.09l.44.06H73a5.89,5.89,0,0,0,1.23-.1A5.64,5.64,0,0,0,78.4,88a5,5,0,0,0,.29-1l4.8-27.56a1.7,1.7,0,0,1,3.37.29V78.28ZM83,108c.12.64.22,1.21.3,1.67l.11.57a19.64,19.64,0,0,0,.46,1.92l.16.7.21-3.58,1.79-31V59.67a.9.9,0,0,0-.82-.9.89.89,0,0,0-1,.75L79.47,87.07a5.75,5.75,0,0,1-.32,1.18,6.46,6.46,0,0,1-4.82,4,6.08,6.08,0,0,1-1.38.11,2,2,0,0,1-.34,0,3.12,3.12,0,0,1-.51-.07,3.28,3.28,0,0,1-.49-.1l-.32-.1a6.89,6.89,0,0,1-.63.57l.18.06.17.06.23.08.05-.08.24,0c.7.09,1.45.2,2.2.34a7.71,7.71,0,0,0,6.63-4.41,8.46,8.46,0,0,0,.41-1.48L84,69l.79.07v9.2Z"/><path class="cls-1" d="M71.74,91.5c-.73-.09-1.43-.16-2.08-.21a1.5,1.5,0,0,0,0,.22,3.64,3.64,0,0,1-.16,1,7.25,7.25,0,0,1-1.7-1.38,5.85,5.85,0,0,1-.45-.54,7.28,7.28,0,0,1-1.24-2.53,9.1,9.1,0,0,0,2.1-.31A5.44,5.44,0,0,0,69,89.36a5.09,5.09,0,0,0,1.26,1.19,4.63,4.63,0,0,0,1.45.7A1,1,0,0,1,71.74,91.5Z"/><path class="cls-1" d="M69.71,93.15l-.43-.25a7.39,7.39,0,0,1-1.79-1.46,5.17,5.17,0,0,1-.48-.57A7.82,7.82,0,0,1,65.7,88.2l-.13-.49h.5a9,9,0,0,0,2-.29l.37-.1.11.36a4.76,4.76,0,0,0,.75,1.45,4.35,4.35,0,0,0,1.16,1.1,4.25,4.25,0,0,0,1.34.64l.22.07.06.22a1.34,1.34,0,0,1,0,.35v.44l-.44,0L70,91.72a4.41,4.41,0,0,1-.17,1Zm-3.09-4.68a6.93,6.93,0,0,0,1,1.93c.13.18.28.34.42.5a7.24,7.24,0,0,0,1.14,1,2.69,2.69,0,0,0,0-.4,2.48,2.48,0,0,1,0-.29l.07-.36.36,0,.41,0L70,90.87a5.27,5.27,0,0,1-1.35-1.27,6,6,0,0,1-.74-1.34A10.06,10.06,0,0,1,66.62,88.47Z"/><path class="cls-3" d="M87.75,119l-1.65-7.4a15.55,15.55,0,0,1-.43-1.73l0-.25c0-.13,0-.28-.07-.46s-.09-.46-.14-.73l0-.24c-.07-.36-.14-.75-.21-1.13-.36-2-.83-4.55-1.21-6.58-.27-1.44-.46-2.36-.58-2.9-.65-3-2.21-4-2.8-4.33a14.37,14.37,0,0,0-2.7-1.27l-.44-.15a26.36,26.36,0,0,0-3-.76c-.84-.16-1.7-.31-2.6-.43l-.42,0c-.6-.06-1.16-.12-1.77-.16l-.9.06v.84a1.55,1.55,0,0,0,0,.22,2.61,2.61,0,0,1-.12.79c0,.11-.08.23-.14.36a2.73,2.73,0,0,1-5.19-1.15,1.83,1.83,0,0,0,0-.42l-.19-.76-1.19.12-1.7.18a34.13,34.13,0,0,0-6.6,1.5,13.07,13.07,0,0,0-1.36.54c-.35.16-.66.31-.9.45l-.1,0-.74.41-.63.47a6.73,6.73,0,0,0-2,3.79c-.16.78-.44,2.22-.75,3.87l-.14.72c-.1.54-.21,1.09-.3,1.64l-.71,3.85c-.11.64-.22,1.21-.31,1.67l-.1.55c0,.25-.09.5-.15.78l0,.2a1.5,1.5,0,0,1-.08.3l0,.14a3.19,3.19,0,0,1-.09.31l-1.65,7.39a5.06,5.06,0,0,0,.91,4.12,5.27,5.27,0,0,0,1.22,1.19.42.42,0,0,0,.14.08,5,5,0,0,0,2.22.86,2.32,2.32,0,0,0,.38.06l.14,0A6.06,6.06,0,0,0,53.94,123l-2.08,33.2a6.76,6.76,0,0,0,13.49,0l.07-4.34.09,4.33a6.57,6.57,0,0,0,6.74,6.37A6.85,6.85,0,0,0,77,160.72a6.33,6.33,0,0,0,2-4.6l-1.8-33.51a6,6,0,0,0,4.34,2.64,5.07,5.07,0,0,0,1.15,0h.19v.13l1.85-.6v0a5.64,5.64,0,0,0,1.66-1.14c.15-.15.29-.32.5-.57A5,5,0,0,0,87.75,119ZM75,103.43a1.91,1.91,0,0,0-1.76,1.91v10.23l2.18,40.66a3.21,3.21,0,0,1-6.37,0l-.61-29.05a2.53,2.53,0,0,0-2.58-2.46h-1a2.55,2.55,0,0,0-2.57,2.46l-.49,29.1a3.22,3.22,0,0,1-6.37.09L58,115.76V105.64a1.91,1.91,0,0,0-1.74-1.91,2,2,0,0,0-2.08,1.54l-2.82,15a2.35,2.35,0,0,1-2.6,1.76,2.13,2.13,0,0,1-.35-.06,1.92,1.92,0,0,1-1.14-.72,2,2,0,0,1-.24-.43,1.69,1.69,0,0,1,0-.82l1.58-7.14c.09-.33.19-.69.27-1.06s.17-.72.23-1l.28-1.55c0-.23.08-.47.13-.73l.26-1.38h0l.48-2.69c.12-.55.22-1.1.33-1.71l.13-.66c.28-1.49.53-2.77.66-3.44a4.55,4.55,0,0,1,.7-1.69l.2-.22.09-.07.14-.07.31-.19a8.24,8.24,0,0,1,.89-.43,7.41,7.41,0,0,1,1.12-.45A27.32,27.32,0,0,1,60,94.25a6.62,6.62,0,0,0,12.07,0l1.47.24.32.06,1,.23a13.83,13.83,0,0,1,3.82,1.45,1.17,1.17,0,0,0,.25.14,3.2,3.2,0,0,1,1,2c.41,1.87,1.43,7.52,1.86,9.88q.17.85.27,1.5l.14.79c.16.82.33,1.49.48,2l1.62,7.28A1.46,1.46,0,0,1,84,121a1.84,1.84,0,0,1-.5.46,3,3,0,0,1-.4.18,1.51,1.51,0,0,1-.38.1l-.21,0A2.38,2.38,0,0,1,79.9,120l-2.83-15A1.91,1.91,0,0,0,75,103.43Z"/><path class="cls-4" d="M121.34,135.45c-.64,1.78-1.32,3.61-1.85,5.05l-.2-4h0c.65-1.76,1.31-3.57,1.86-5l0,.64Z"/><path class="cls-3" d="M152.13,125.28,150.74,119a9.65,9.65,0,0,1-.34-1.47l0-.19c0-.07,0-.14,0-.2h0l-.06-.39c0-.22-.09-.45-.16-.79l-.15-.78c-.21-1.21-.47-2.64-.72-4l-.29-1.55c-.16-.83-.3-1.56-.41-2.08v0c0-.11,0-.21-.07-.35l-.07-.3a5.55,5.55,0,0,0-2-3.22l-1.28-.85V103c-.45-.21-.93-.41-1.44-.59l-.17,0-.16,0a17.82,17.82,0,0,0-2.58-.66c-.87-.17-1.55-.28-2.19-.37l-.48,0c-.46,0-.91-.1-1.35-.12h-.92v.84a1.79,1.79,0,0,0,0,.23,2,2,0,0,1-.12.68,1.1,1.1,0,0,1-.1.23,2.14,2.14,0,0,1-3.9,0,1.9,1.9,0,0,1-.21-.87l.08-.42-.19-.18-.3-.55-.62.06c-.55,0-1.16.11-1.76.2a27,27,0,0,0-5.56,1.25,5.58,5.58,0,0,0-1.11.44c-.24.1-.43.18-.7.31l-.16.1-.32.17-.18.1-.17.1a2.11,2.11,0,0,0-.27.17,4.37,4.37,0,0,0-1.23,1.41,6.82,6.82,0,0,0-.82,2.14l-.1.51-.06.25,0,.17c-.13.65-.28,1.45-.44,2.32-.13.62-.26,1.32-.38,2-.09.53-.19,1-.29,1.56l-.05.28c-.09.49-.18,1-.25,1.39s-.13.66-.21,1.05a1.29,1.29,0,0,1,0,.24l0,.16a2.86,2.86,0,0,0-.08.45c0,.22-.09.47-.17.78l0,.24a2.81,2.81,0,0,0-.1.31l-.06.2-1.36,6.13a4.37,4.37,0,0,0,.76,3.56,3.41,3.41,0,0,0,1,1,.75.75,0,0,0,.22.17,4.64,4.64,0,0,0,1.07.53l.11,0a3.79,3.79,0,0,0,.72.16l.34.06.12,0a4.15,4.15,0,0,0,1.13,0,.79.79,0,0,0,.26,0,5.13,5.13,0,0,0,1.12-.33,4.89,4.89,0,0,0,1.49-.94l-.53,1.42c-.23.61-.47,1.29-.73,2l-.06.16-1.07,2.88,0,.1-.77,2.14-.11.26c-1,2.63-1.3,3.58-1.33,3.68a1.68,1.68,0,0,0,1.56,2.29h2.57l-.75,12.12a5.63,5.63,0,0,0,.14,1.25,5.9,5.9,0,0,0,11.43-.33,5.85,5.85,0,0,0,11.57-1l-.64-12h2.77a1.64,1.64,0,0,0,1.4-.74,1.59,1.59,0,0,0,.19-1.48c-.19-.58-3.61-9.83-4.89-13.17a5.49,5.49,0,0,0,3.23,1.56,7.13,7.13,0,0,0,.92,0,2.25,2.25,0,0,0,.6-.07h.08a2.76,2.76,0,0,0,.39-.09l.16-.06a5,5,0,0,0,2-1.22c.09-.11.19-.21.27-.32l.13-.16A4.34,4.34,0,0,0,152.13,125.28Zm-12.5-11.47v8.64l.35,6.08.37,1.68.41,1.1c.29.76.65,1.69,1,2.72l1.14,3.09c.56,1.51,1.1,3,1.53,4.13h-2.18a1.57,1.57,0,0,0-1.15.5,1.49,1.49,0,0,0-.39,1.11l.74,13.87a2.57,2.57,0,0,1-5.1,0l-.28-14a1.52,1.52,0,0,0-1.54-1.46h-2.82a1.53,1.53,0,0,0-1.55,1.5l-.21,14a2.42,2.42,0,0,1-2.56,2.24,2.38,2.38,0,0,1-2.54-2.15l.81-13,.07-.93a1.47,1.47,0,0,0-.42-1.11,1.52,1.52,0,0,0-1.12-.48h-2c0-.14.1-.29.16-.44.53-1.44,1.2-3.27,1.84-5,.21-.52.4-1.05.57-1.54.62-1.67,1.17-3.14,1.54-4.15l.35-1.68.36-5.78v-8.55a1.72,1.72,0,0,0-1.57-1.74,1.76,1.76,0,0,0-1.92,1.41l-2.37,12.63a1.73,1.73,0,0,1-1.39,1.34,2.91,2.91,0,0,1-.73.05l-.18,0a2.08,2.08,0,0,1-.51-.2,1.3,1.3,0,0,1-.4-.37,1.19,1.19,0,0,1-.17-.3.62.62,0,0,1,0-.17.78.78,0,0,1,0-.43l1.32-6a17,17,0,0,0,.46-1.84v-.1a.81.81,0,0,0,0-.09l0-.24c.05-.32.12-.71.21-1.19l.18-1c0-.22.07-.46.11-.67s0-.17.06-.29l.05-.28c.09-.49.18-1,.28-1.47.07-.32.12-.64.19-1s.12-.67.2-1a1,1,0,0,1,.05-.26c.19-1.07.37-2,.49-2.61a3.26,3.26,0,0,1,.6-1.39v0l.15-.13.37-.22c.23-.13.47-.25.73-.37s.63-.26,1-.38a21.91,21.91,0,0,1,4.29-1,5.74,5.74,0,0,0,10.35,0c.39,0,.78.11,1.16.19s.74.15,1.1.24a10.92,10.92,0,0,1,3.29,1.27l.09,0a1.48,1.48,0,0,1,.42.55,4.36,4.36,0,0,1,.33,1c.21.88.59,2.91.95,4.89l.09.5.5,2.73,0,.2c.09.44.16.84.22,1.18v.09l.09.51,0,.13a13.18,13.18,0,0,0,.41,1.7l1.35,6.16a1,1,0,0,1-.2.89,1.36,1.36,0,0,1-.41.36l-.36.16-.25.08-.16,0a1.85,1.85,0,0,1-2-1.38l-2.39-12.66a1.81,1.81,0,0,0-1.91-1.43A1.77,1.77,0,0,0,139.63,113.81ZM147.9,107Z"/><path class="cls-1" d="M101.57,30.08a15,15,0,1,1,15-15A15.05,15.05,0,0,1,101.57,30.08Zm0-26.08a11,11,0,1,0,11,11A11,11,0,0,0,101.57,4Z"/><path class="cls-3" d="M65.43,88.61A11.12,11.12,0,1,1,76.55,77.49,11.13,11.13,0,0,1,65.43,88.61Zm0-18.24a7.12,7.12,0,1,0,7.12,7.12A7.12,7.12,0,0,0,65.43,70.37Z"/><path class="cls-3" d="M150.59,85.77c-3.36-3.72-8.23-2.53-10.76-1.18a9.91,9.91,0,1,0,3.42,7.48,10,10,0,0,0-.1-1.34,31.4,31.4,0,0,1,3.31,8.17,1.75,1.75,0,0,0,1.43,1.3l.27,0a1.73,1.73,0,0,0,1.48-.82C149.86,99.05,155,90.66,150.59,85.77Zm-10.84,6.3a6.34,6.34,0,0,1-.11,1.16c-3.75-.66-6.22-5.06-7.31-7.5a6.53,6.53,0,0,1,1-.08A6.43,6.43,0,0,1,139.75,92.07Zm-6.42,6.42a6.41,6.41,0,0,1-4.18-11.28c1.28,2.84,4.15,7.84,8.87,9.23A6.39,6.39,0,0,1,133.33,98.49Zm15.1-4.93a21.29,21.29,0,0,0-3.89-6.78A4.09,4.09,0,0,1,148,88.12C149.23,89.48,149,91.65,148.43,93.56Z"/></g></g></svg>