<svg xmlns="http://www.w3.org/2000/svg" viewBox="0 0 150.23 163.97"><defs><style>.cls-1,.cls-2{fill:#161821;}.cls-2{stroke:#161821;stroke-miterlimit:10;}.cls-3{fill:#f08080;}.cls-4{fill:#635555;}</style></defs><title>family</title><g id="Layer_2" data-name="Layer 2"><g id="Layer_1-2" data-name="Layer 1"><path class="cls-1" d="M120.84,132.18c-.54,1.46-1.2,3.28-1.86,5l.09-4.23-.1-1.67,0,0,.06-.09a4.35,4.35,0,0,0,2-1.41l.06,1.31,0,.42Z"/><path class="cls-1" d="M70,76a.18.18,0,0,0,.11,0l.36-1.73h-.12a10.83,10.83,0,0,0-1.29-.2c0-.07-.08-.21-.12-.37a1.19,1.19,0,0,0-.08-.2,5.55,5.55,0,0,0-.26-.58L68,75.69l.49,0C69,75.8,69.51,75.88,70,76Z"/><path class="cls-1" d="M70.53,76.51h-.41a.71.71,0,0,1-.26,0c-.44-.09-.89-.17-1.4-.23l-1-.11,1-4.75.64,1.33c.1.21.2.43.27.62a1.15,1.15,0,0,1,.1.28h0a8.85,8.85,0,0,1,1,.17h.61Zm-1.89-1.26c.39,0,.75.11,1.09.18l.15-.75-.71-.1-.38,0Z"/><path class="cls-1" d="M67.49,89.41l.24,0,.13,0,.1,0,.1-.06.23-.05.41-.1-.13-.41a5.1,5.1,0,0,1-.23-1.5v-.12l0-.54-.52.15a7.88,7.88,0,0,1-2,.29h-.4v.4a7.44,7.44,0,0,0,.26,1.79v.36h.4l.27,0,.83-.1A1.54,1.54,0,0,0,67.49,89.41Z"/><path class="cls-1" d="M65.93,87.51a6.6,6.6,0,0,0,.24,1.56l.14,0,.82-.09.27,0h0l.19,0,.47-.1a5.8,5.8,0,0,1-.22-1.55A8,8,0,0,1,65.93,87.51Z"/><path class="cls-1" d="M125.26,90l-.4-.52-.23.48-.1.06a1.23,1.23,0,0,0-.41,1.41v.33h.76l0-.35a.73.73,0,0,1,.09-.26v0l0,0a.84.84,0,0,1,.27-.27l.42-.27-.37-.36A1.62,1.62,0,0,1,125.26,90Z"/><path class="cls-1" d="M134.71,72.2l-.1-.35c-.29-1.1-.5-2.1-.66-3.07l-.45-2.68c-.44-2.61-2.65-15.84-3.43-19.78-1-5-3.35-6.51-4-6.81-7.64-5.07-21.73-5.23-24.46-5.2h-.1c-2.73,0-16.75.42-24.71,5.7-.69.35-3,1.87-4,6.82C72.14,50,70.61,59,69.43,66l-.08.48c-.08.47-.16.92-.22,1.33l0,.27.24.13.28.17.26.15a8.46,8.46,0,0,1,1.3,1l.56.5.1-.74c.08-.5.19-1.18.33-2,.86-5.18,2.75-16.35,3.46-19.89.78-3.87,2.43-4.76,2.46-4.78l.22-.12c5.08-3.38,13.42-4.58,18.26-5a2.33,2.33,0,0,0,.06.53c.13.49.23,1,.33,1.6l.12.63a2,2,0,0,0,1,1.54s0,.11,0,.22a4,4,0,0,0,0,.49.5.5,0,0,1-.07.11,2.93,2.93,0,0,0-.41,1.08c0,.12,0,.24-.06.37l-.05.36a1.08,1.08,0,0,1,0,.3l-1.08,15.5-.19,2.55c0,.38-.05.77-.08,1.16a2.54,2.54,0,0,0,1.55,2.7,3.09,3.09,0,0,1,.75.41l1.85,1.21.43.29a1.31,1.31,0,0,0,1.53,0c.79-.54,1.58-1,2.37-1.57a4.78,4.78,0,0,1,.71-.38,2.45,2.45,0,0,0,1.54-2.39l0-.48q0-.48-.06-.93l-.36-4.73c0-.31,0-.61-.07-.92s0-.63-.06-.93l0-.67c0-.44-.06-.88-.08-1.33l-.23-2.89c-.07-.89-.14-1.78-.21-2.65l-.14-2.12c-.06-.89-.13-1.78-.21-2.66a1.92,1.92,0,0,0-.4-1.23c-.06-.09-.1-.14-.08-.44,0-.14,0-.29,0-.42a2.43,2.43,0,0,0,.94-1.57c.14-.77.3-1.51.47-2.29a3.13,3.13,0,0,0,0-.6c4.88.3,13.28,1.3,18.29,4.63l.16.08c.29.18,1.76,1.22,2.47,4.81.65,3.22,2.3,13,3.28,18.81.28,1.62.49,2.9.61,3.56a27.29,27.29,0,0,0,.64,3v0c.05.21.1.41.15.58l1.82,8.87.41-.1a2.44,2.44,0,0,1,.36-.06,7.4,7.4,0,0,1,1.63,0l.54.07Zm-35.8-8.8c0-.51.06-1,.11-1.54s.08-1.24.12-1.87l.91-12.05c0-.63.08-1.26.13-1.88l.08-1.22,1,.3V42.23l-.48-.09c0-.13,0-.26,0-.39v-.06l.5-.09V39.19l-.79-.11a1.79,1.79,0,0,0-.83.05c-.09-.43-.17-.87-.25-1.3h4l-.23,1.3a2,2,0,0,0-.87-.05l-.78.11v2.43l.48.08c0,.15,0,.3,0,.45v0a.53.53,0,0,0-.16.13,1.09,1.09,0,0,0-.35.91v1.95l1.09-.31,1.33,18.26c0,.31,0,.63.07,1a1.79,1.79,0,0,0-.5.25l-.81.54-1.27.85-.08,0c-.57-.39-1.15-.79-1.76-1.19a4.46,4.46,0,0,0-.73-.32Z"/><path class="cls-1" d="M133.34,82.38,131.41,73c0-.13-.1-.35-.15-.56a31,31,0,0,1-.66-3.1L130,65.55c-1-5.76-2.6-15.4-3.24-18.57-.68-3.46-2.08-4.38-2.24-4.48l-.13-.06c-4.82-3.21-12.88-4.23-17.59-4.55a.88.88,0,0,1,0,.16c-.17.79-.33,1.53-.47,2.29a2.91,2.91,0,0,1-.93,1.71,1.79,1.79,0,0,1,0,.23.72.72,0,0,0,0,.15,2.29,2.29,0,0,1,.48,1.46c.08.81.14,1.64.2,2.48l.15,2.28c.07.85.13,1.71.2,2.58l.24,3c0,.42,0,.81.07,1.2l.53,7.38c0,.29,0,.62.07.94l0,.48a3,3,0,0,1-1.84,2.88,6.48,6.48,0,0,0-.64.34c-.79.51-1.58,1-2.36,1.56a1.79,1.79,0,0,1-2.12,0l-.48-.32L98.1,67.46a2.72,2.72,0,0,0-.66-.36,3,3,0,0,1-1.87-3.22c0-.38.07-.75.08-1.13l.19-2.57,1.08-15.49a1,1,0,0,0,0-.28L97,44c0-.15,0-.29.07-.42a3.54,3.54,0,0,1,.46-1.22v-.31a2.67,2.67,0,0,1-1-1.72l-.12-.61a15.9,15.9,0,0,0-.31-1.56l0-.12c-4.66.44-12.68,1.64-17.53,4.88l-.26.14s-1.49.88-2.21,4.44-2.6,14.71-3.46,19.88c-.14.81-.25,1.49-.32,2L72.09,71,70.84,69.9A7.5,7.5,0,0,0,69.61,69l-.26-.15-.26-.16-.55-.3.09-.62.2-1.21.11-.61c1.18-7,2.71-16,3.36-19.19,1-5.17,3.53-6.79,4.28-7.17,8-5.32,22.17-5.72,24.93-5.75s17,.1,24.84,5.28c.67.31,3.15,1.84,4.21,7.13.82,4.13,3.17,18.2,3.43,19.8l.46,2.68a29,29,0,0,0,.65,3l.1.38,2.1,10.15-1.25-.15a6.35,6.35,0,0,0-1.51,0l-.29,0ZM105.76,36.82l.56,0c4.71.29,13.39,1.29,18.53,4.71l.12.06c.48.28,2,1.45,2.73,5.15C128.34,50,130,59.62,131,65.38l.64,3.78a25.48,25.48,0,0,0,.63,3c.06.26.12.46.16.62l1.73,8.4.31,0a7.94,7.94,0,0,1,1.61,0L134.13,72c-.29-1.12-.51-2.14-.67-3.12L133,66.18c-.26-1.59-2.6-15.65-3.43-19.76-1-5-3.26-6.25-3.71-6.46-7.8-5.17-22.59-5.16-24.25-5.15-2.8,0-16.69.42-24.53,5.61-.69.36-2.86,1.78-3.8,6.51-.64,3.14-2.18,12.15-3.36,19.16l-.1.61c-.07.4-.13.77-.19,1.12l.24.14.24.15a8.5,8.5,0,0,1,1.26.92c.07-.48.17-1.1.3-1.82.85-5.17,2.75-16.33,3.46-19.91.81-4,2.52-5,2.71-5.12l.22-.12C83.24,38.61,91.85,37.4,96.51,37l.55,0v.55a1.75,1.75,0,0,0,0,.4,16.13,16.13,0,0,1,.34,1.64l.12.61a1.59,1.59,0,0,0,.75,1.21l.24.14v.28s0,.13,0,.27a2.79,2.79,0,0,0,0,.41v.13l0,.12a1.43,1.43,0,0,1-.13.2,2.42,2.42,0,0,0-.32.88c0,.12,0,.23-.06.34l0,.35a1.68,1.68,0,0,1-.06.37l-1.25,18c0,.37-.05.77-.09,1.17a2.06,2.06,0,0,0,1.26,2.19,4.17,4.17,0,0,1,.84.46l1.75,1.15.52.35a.81.81,0,0,0,.94,0l2.41-1.59a5.77,5.77,0,0,1,.78-.42,2,2,0,0,0,1.24-1.92l0-.46c0-.31,0-.62-.06-.9l-.54-7.41c0-.4,0-.8-.07-1.21l-.23-2.87c-.07-.94-.14-1.81-.21-2.66L105,46.44c-.06-.83-.12-1.66-.19-2.49a1.57,1.57,0,0,0-.29-1,1,1,0,0,1-.2-.78c0-.15,0-.27,0-.39v-.25l.2-.16a1.88,1.88,0,0,0,.75-1.24c.15-.79.31-1.54.48-2.33a1.83,1.83,0,0,0,0-.47Zm-4.34,29.49-.28-.19-1.83-1.23a3.6,3.6,0,0,0-.61-.26l-.36-.13.07-1.13c0-.51.06-1,.11-1.55s.08-1.24.12-1.87l.91-12.05c0-.62.08-1.25.13-1.88l.13-1.83,1,.29V42.64l-.46-.08,0-.39c0-.14,0-.28,0-.42v-.41l.5-.16V39.62l-.36,0a1.44,1.44,0,0,0-.62,0l-.52.15-.11-.53c-.09-.44-.17-.88-.25-1.31l-.1-.59H104l-.43,2.43-.53-.15a1.62,1.62,0,0,0-.66,0l-.35,0V41.2l.47.08v.41c0,.15,0,.3,0,.46v.29l-.33.24a.59.59,0,0,0-.18.5v1.31l1-.29,1.47,20.23-.37.12a1.35,1.35,0,0,0-.38.19l-.8.53-1.28.86Zm-2-2.5a4.93,4.93,0,0,1,.46.23l1.59,1.07,1-.67.8-.54.26-.15L102.15,45.5l-.34.1v.2l-.36-.1-.43.12v-.24l-.3-.09,0,.61c-.05.62-.1,1.23-.13,1.86L99.64,60q-.08.93-.12,1.86c0,.53-.08,1-.11,1.54Zm.83-25.26a2.22,2.22,0,0,1,.37,0l.85.12.82-.12a3.17,3.17,0,0,1,.53,0l0-.23H100l0,.23Z"/><path class="cls-1" d="M81.07,90.18A8.73,8.73,0,0,0,81.78,88l2.59-14.89v6.21l-1.3,22.39-.43,7.4c.18,1,.32,1.76.41,2.29.13.68.3,1.36.48,2L83.9,115l.4,1.83.38-6.43,1.79-31V60.73a1.29,1.29,0,0,0-1.18-1.29,1.28,1.28,0,0,0-1.4,1.07L79.08,88.06a5,5,0,0,1-.3,1.1L78.41,89a5.67,5.67,0,0,1-5.51,3.14,4.81,4.81,0,0,1-1.07-.21H71.3v.2h0l-.57-.07h0c-.34,0-.69-.07-1-.09h-.21c-.61,0-1.19-.09-1.67-.1l-.92,0,.61.69c.13.14.26.28.41.42l.42.37a5.2,5.2,0,0,0,.47.35l.29.2.18.12.43.23.1,0H70l.22-.16.06,0c.16.06.31.14.47.19h0a3.81,3.81,0,0,0,.44.15h0l.19,0a.3.3,0,0,1,0-.1c.73.09,1.47.2,2.22.35a8.19,8.19,0,0,0,3.47-.94A8.09,8.09,0,0,0,80.71,90Z"/><path class="cls-1" d="M84.58,120.44l-1.54-7a18.53,18.53,0,0,1-.48-2l-.1-.55c-.08-.48-.18-1.07-.31-1.73v-.07l.44-7.46,1.29-22.79-.39,2.24-.75,4.28c-.15.88-.3,1.77-.46,2.65A7.36,7.36,0,0,1,81,91.09a9.32,9.32,0,0,1-1.16,1.19,13.68,13.68,0,0,1-1.48,1.26,8.52,8.52,0,0,1-4.67,1.62H73.6c-.6-.12-1.22-.22-1.78-.29l0,.17-.73-.19-.34-.11a1.44,1.44,0,0,0-.24-.09c-.14,0-.08,0-.19,0a1.34,1.34,0,0,1-.66,0,2.63,2.63,0,0,1-.83-.43,4.82,4.82,0,0,1-2.07-2.41c-.07-.18-.13-.36-.19-.54s-.11-.44-.17-.46l1.45.51c.49,0,1.08,0,1.7.1h.2c.34,0,.7,0,1.06.1h0a10,10,0,0,0,4-.2,6.25,6.25,0,0,0,2.36-1.41,4.56,4.56,0,0,0,1.48-2.31L79,85.7l.56-3.23.71-4.09.79-4.5.78-4.47.69-4,.54-3.07.3-1.71,0-.2a1.78,1.78,0,0,1,1.94-1.49A1.8,1.8,0,0,1,87,60.73V79.34ZM83.15,109c.12.65.22,1.22.3,1.68l.1.55a17.13,17.13,0,0,0,.46,1.92h0l2-33.88V60.73a.8.8,0,0,0-1.59-.13L79.57,88.15a5.67,5.67,0,0,1-.32,1.19l-.19.48-.42-.18a6.21,6.21,0,0,1-5.78,3,5.92,5.92,0,0,1-1.06-.19v.17l-.63,0-.43,0-.08,0-.1,0c-.3,0-.61-.07-.91-.08l-.21,0c-.51,0-1-.07-1.41-.08l.21.2c.13.13.27.24.4.36s.29.22.43.32l.28.19.18.12.34.18.31-.22.49.14.2.09.18.06.14,0,0-.07.3,0c.66.09,1.43.19,2.2.34a7.45,7.45,0,0,0,3.19-.87,7.61,7.61,0,0,0,3.33-3.47l.2-.44.36.16a8.21,8.21,0,0,0,.46-1.65L83.88,73l1,.09v6.21Z"/><path class="cls-1" d="M117.53,58.51A1.72,1.72,0,0,0,116,60.22V78.9l.23,4.25,0,1.07,0,0,.07,1.21h0l1.49,29,.62-3.48c.19-1.12.38-2.08.49-2.64a3.77,3.77,0,0,1,.67-1.56l.07-.1a2.43,2.43,0,0,1,.25-.23l.09,0h.31l-.92-18.1-.14-2.85h-.66a3,3,0,0,1-1.21-.4,4,4,0,0,0,.85-.71c.1-.12.19-.22.3-.37a4.43,4.43,0,0,0,.55-1.16l0-.08-.18-3.91V74.19l.73,4.13.55-.7a2.32,2.32,0,0,1,1.21-.85,3,3,0,0,1,.45-.07l.43,0L119.35,59.9A1.72,1.72,0,0,0,117.53,58.51Z"/><path class="cls-1" d="M117.51,118.88l-1.85-35.72,0,0h0l-.22-4.25V60.22a2.2,2.2,0,0,1,2-2.2h0a2.22,2.22,0,0,1,2.35,1.79l3,17.31-1,.08a2.08,2.08,0,0,0-.36,0,1.86,1.86,0,0,0-1,.67l-1.14,1.48.16,3.37,0,.18a4.81,4.81,0,0,1-.62,1.29c-.13.18-.23.29-.33.42l-.24.24.26,0a.57.57,0,0,0,.22,0h.87l1.12,22h-.71a.56.56,0,0,0-.11.11l0,0a3.64,3.64,0,0,0-.59,1.4c-.12.58-.3,1.52-.49,2.6Zm-.73-33.6v.1L118.06,110c.13-.73.25-1.35.33-1.76a4.55,4.55,0,0,1,.79-1.83l0-.06a4.31,4.31,0,0,1,.36-.34l.18-.09-1-20a1.23,1.23,0,0,1-.26,0,3.33,3.33,0,0,1-1.39-.47ZM117.57,59a1.22,1.22,0,0,0-1.1,1.21V78.9l.3,5.9.32-.19a3.48,3.48,0,0,0,.74-.61l.27-.34a3.76,3.76,0,0,0,.47-1l-.18-3.81V74.19l1-.09.53,3a2.82,2.82,0,0,1,1.34-.85,3.43,3.43,0,0,1,.42-.08L118.86,60A1.23,1.23,0,0,0,117.57,59Z"/><path class="cls-1" d="M124.27,88l0-.1c0-.14-.08-.28-.11-.44l-.21-1.38-.56.79a1.34,1.34,0,0,1-.9.53l-.14,0H122l-.07.3c0,.21-.1.42-.14.64a.38.38,0,0,0-.13.06l-.24.16.08.28a3.34,3.34,0,0,0,.24.69,8.05,8.05,0,0,0,.66,1.38l.12.18.2,0h.09a1.13,1.13,0,0,0,.73-.28A1.27,1.27,0,0,0,124,90s0-.1,0-.14a10.72,10.72,0,0,1,.27-1.65Z"/><path class="cls-1" d="M122.82,91.64l-.57,0-.26-.38a10.17,10.17,0,0,1-.71-1.48A5,5,0,0,1,121,89l-.17-.62.5-.34c0-.14.07-.29.1-.43l.17-.68h.66l.19,0a.84.84,0,0,0,.49-.32l1.29-1.79.39,2.6c0,.12,0,.24.08.36l.06.2,0,.25a10.11,10.11,0,0,0-.27,1.65,1.23,1.23,0,0,1,0,.18,1.73,1.73,0,0,1-.59,1.2A1.63,1.63,0,0,1,122.82,91.64ZM122,88.82a3.24,3.24,0,0,0,.19.52,8.84,8.84,0,0,0,.61,1.3.63.63,0,0,0,.41-.16.8.8,0,0,0,.26-.55v-.15a10.34,10.34,0,0,1,.28-1.71v0c0-.17-.08-.32-.11-.48l0-.2a1.86,1.86,0,0,1-1.08.54l-.13,0c0,.18-.09.36-.12.54l-.06.28Z"/><path class="cls-1" d="M122.53,78.78l-.88.93a3.52,3.52,0,0,0-.78,1.29,6.25,6.25,0,0,0-.25,2.1v.49a.71.71,0,0,1,0,.14v.15l.16,1.12.64-.75.24-.29a3.87,3.87,0,0,0,.64-1.64,8.69,8.69,0,0,0,0-1.12v-.29a4.17,4.17,0,0,1,0-.87Z"/><path class="cls-1" d="M122.15,144.9l-.11-2.09h-2.89l.54,10.78a7,7,0,1,1-14,0l-1-53.32a2.79,2.79,0,0,0-2.81-2.74h-1.76a2.79,2.79,0,0,0-2.79,2.75l-.82,53.34a7,7,0,0,1-13.94.09l1.48-25.62.19-3.4-.56.2a1.83,1.83,0,0,1-.46.12l-.11,0a2.15,2.15,0,0,1-.47.06,4.16,4.16,0,0,1-.93,0l-.44,0-.19,4.21-1.41,24.4a9.87,9.87,0,0,0,19.74,0l.81-53.23h1.58l1,53.2a9.88,9.88,0,1,0,19.75-.06l-.33-6.8Z"/><path class="cls-1" d="M112.71,164a10.38,10.38,0,0,1-10.38-10.38l-1-52.7h-.59l-.81,52.73a10.37,10.37,0,0,1-20.74,0l1.41-24.43.22-4.73,1,.1a3.38,3.38,0,0,0,.83,0,2.09,2.09,0,0,0,.42,0l.12,0a2.11,2.11,0,0,0,.38-.1l1.28-.46-.24,4.16-1.48,25.62A6.47,6.47,0,0,0,96,153.59l.82-53.34A3.28,3.28,0,0,1,100.12,97h1.76a3.29,3.29,0,0,1,3.31,3.22l1,53.33a6.48,6.48,0,1,0,13,0l-.57-11.28h3.9l.56,11.2A10.39,10.39,0,0,1,112.71,164Zm-13-64.08h2.56l1,53.69a9.37,9.37,0,0,0,17.19,5.19,9.5,9.5,0,0,0,1.56-5.24l-.51-10.22h-1.89l.51,10.26a7.48,7.48,0,1,1-15,0l-1-53.31A2.29,2.29,0,0,0,101.88,98h-1.76a2.29,2.29,0,0,0-2.29,2.27L97,153.6a7.47,7.47,0,0,1-14.94.08l1.63-28.3-.4.1h-.1a2.45,2.45,0,0,1-.56.07,4.5,4.5,0,0,1-.89,0l-.17,3.67-1.41,24.41a9.37,9.37,0,0,0,18.74,0Z"/><path class="cls-2" d="M40.27,27.14,40,27c-6.5-1.36-12.76-7.33-13.65-10a1.06,1.06,0,0,0-2.07.34c0,4.35-3.28,5.29-3.42,5.33a1,1,0,0,0-.8,1V24a10.85,10.85,0,0,0,20.68,4.58A1,1,0,0,0,40.27,27.14Zm-9.34,5.55a8.78,8.78,0,0,1-8.74-8.27,7.08,7.08,0,0,0,3.75-4.08,26.31,26.31,0,0,0,12.28,8.43A8.79,8.79,0,0,1,30.93,32.69Z"/><path class="cls-2" d="M21.64,72.34l-1.21-.29L19,71.71c1.1-6.33-1.69-14.91-1.82-15.3a1,1,0,0,0-1.08-.71,1,1,0,0,0-.95.88L12.76,71.4a1,1,0,0,0,.8,1.2l4,.93,1.48.36.9.22,1.09.48,1.76-1.76ZM17,71.23l-2-.47,1.41-8.82A27.05,27.05,0,0,1,17,71.23Z"/><path class="cls-2" d="M48.17,71.4h0L45.79,56.58a1.07,1.07,0,0,0-1-.88,1,1,0,0,0-1.08.71,47.57,47.57,0,0,0-1.87,8.71c-.05.41-.09.83-.12,1.25A11,11,0,0,0,41.67,68l4,4,1.7.61a1.38,1.38,0,0,0,.42-.21A1.05,1.05,0,0,0,48.17,71.4ZM44,70.23a7.9,7.9,0,0,1-.19-1.85c0-.45,0-.9,0-1.34a38.75,38.75,0,0,1,.7-5.1l1.12,6.91.26,1.64,0,.27Z"/><path class="cls-1" d="M60.37,74.41,60.28,74l-.38.08c-.4.08-.83.2-1.26.33l-.46.15-.68.22,0,.34a3.36,3.36,0,0,1-.17,1.74l-.3.82.82-.31a13.73,13.73,0,0,1,1.49-.51l.5-.14.56-.16,0-.27A5.72,5.72,0,0,0,60.37,74.41Z"/><path class="cls-2" d="M59.39,69.35c-.06-.28-.11-.59-.15-.92s-.09-.52-.14-.79c-.88-5.77-2.4-15.31-3-18.47-.91-4.8-3-6.22-3.57-6.52a25.63,25.63,0,0,0-7.39-3.4c6.54-17.92-1.72-27.93-2.7-29A14.47,14.47,0,0,0,31,5.36c-4.56.13-8.27,2.12-9.95,4.05C8.8,17,15.11,34.48,17,38.94a26,26,0,0,0-8.55,3.69c-.62.33-2.71,1.76-3.63,6.55-.06.38-.14.85-.23,1.4-.14.78-.3,1.71-.46,2.71a1.13,1.13,0,0,0,0,.14c-.11.6-.21,1.24-.31,1.9L3.56,56.7c-.82,5.22-1.79,11.37-2.18,13.88-.16,1-.38,2.09-.68,3.29a7.15,7.15,0,0,0-.2,1.69,6.47,6.47,0,0,0,5,6.46l3.12.74,3.39.81-.13.36c-.23.61-.5,1.35-.81,2.17-.15.43-.31.86-.48,1.32l-.76,2c-.54,1.45-1.11,3-1.69,4.63L6.4,98.68c-.16.45-.32.89-.49,1.32l-3.52,9.65a1.44,1.44,0,0,0,1.36,1.93h8.68v42.69a8.14,8.14,0,1,0,16.27,0V111.58h3.6v42.69a8.14,8.14,0,1,0,16.28,0V123.59l-.31-.06a2.37,2.37,0,0,1-1.45-.91,1.78,1.78,0,0,1-.28-.5,1.72,1.72,0,0,1-.09-.25l-.12-.48L48,113.8c.09-.34.19-.68.29-1s.15-.7.22-1a1.31,1.31,0,0,1,0-.15l.1-.5c.08-.53.19-1.2.34-1.94l.09-.47h-2a1.37,1.37,0,0,0-.43.08l-.23.07,0,.24c-.1.51-.18,1-.26,1.39s-.11.59-.16.82a5.9,5.9,0,0,1-.15.8l0,.21c0,.11-.06.22-.1.33l0,.08,0,41.58a5.24,5.24,0,1,1-10.47,0V110.12a1.45,1.45,0,0,0-1.45-1.45H27.26a1.46,1.46,0,0,0-1.47,1.45v44.15a5.24,5.24,0,1,1-10.47,0V110.12a1.45,1.45,0,0,0-1.45-1.45h-8c.68-1.87,1.79-4.87,3-8.2.32-.9.67-1.83,1-2.77.5-1.35,1-2.71,1.48-4,.3-.83.59-1.62.88-2.4l.36-1c.92-2.52,1.73-4.68,2.24-6l13.27,3.14.16,0a4.73,4.73,0,0,0,1,.14h.19a1.23,1.23,0,0,0,.29,0h.1l.44,0h.58a1.63,1.63,0,0,0,.66,0h.34l.26,0a3.16,3.16,0,0,0,.72-.12l12.87-3,.42-.1c.58,1.54,1.53,4.1,2.63,7.05l1.61,4.31,0,.08.33.89c.11.28.21.57.32.86l.23.62.44-.48a3.46,3.46,0,0,1,.33-.31l.16-.07.33-.19a6.73,6.73,0,0,1,.89-.45l.33-.14-.12-.35c-.11-.34-.24-.67-.36-1s-.17-.44-.25-.68L50.89,88.8l-2-5.23L55.51,82a7.48,7.48,0,0,0,1.26-.43l.22-.12,0-.25a1,1,0,0,1,.16-.39l-.24-.57a1.37,1.37,0,0,0-.76,0,1.47,1.47,0,0,0-.39.21,1.31,1.31,0,0,0-.7-.09s-.1,0-.29-.22a1.92,1.92,0,0,1-.31-.54l-.14-.29L35.83,83.68c.1-.22.19-.43.28-.67s.13-.43.19-.69l0-.19c0-.09,0-.17,0-.22a6.41,6.41,0,0,0,.11-1.11,6.85,6.85,0,0,0-2-4.75l6.87-1.63,2.66-.63-2.26-2.25-.26-.21-.21.13L39.17,72l-8.7,2-1.9-.45L26.11,73l-2.4,2.41,2.55.61,4.34,1a3.63,3.63,0,0,1,1.82,1,3.88,3.88,0,0,1,1.16,2.73,3.71,3.71,0,0,1-.12.89v.07a1.87,1.87,0,0,1-.08.28l-.08.2-.13.32a3.92,3.92,0,0,1-2.85,2.07h-.09a3.94,3.94,0,0,1-.7,0,3,3,0,0,1-.72-.12l-17.15-4L6.1,79.19a3.58,3.58,0,0,1-2.7-3.63,4.84,4.84,0,0,1,.11-1A35.11,35.11,0,0,0,4.23,71c.15-.88.36-2.21.61-3.78l.7-4.45c.28-1.82.57-3.71.86-5.5.54-3.37,1-6.2,1.28-7.59.64-3.37,1.9-4.37,2.09-4.5a1.5,1.5,0,0,0,.26-.15c3.71-2.68,9.41-3.89,13.59-4.45a8.52,8.52,0,0,0,7.49,4.49,8.38,8.38,0,0,0,7.38-4.33,39.66,39.66,0,0,1,7.18,1.71,20.39,20.39,0,0,1,5.25,2.59l.19.1c.06,0,1.45.89,2.16,4.54.54,2.94,1.95,11.89,3,18.67l.16.9c0,.34.1.65.16.94l.1.58.49-.31.32-.18a8,8,0,0,1,.85-.3l1.11-.29ZM42.33,38.54c-1.3-.29-2.37-.49-3.41-.64h-.2a1.45,1.45,0,0,0-.41.06l-.12-.06a1.45,1.45,0,0,0-1.89.81,5.55,5.55,0,0,1-5.19,3.51,5.64,5.64,0,0,1-5.25-3.63,1.48,1.48,0,0,0-1.37-1,1.31,1.31,0,0,0-.5.1l-.14.06a1.39,1.39,0,0,0-.6-.07c-1.08.15-2.24.34-3.37.56-1.28-2.91-8.09-19.88,2.94-26.5a1.62,1.62,0,0,0,.35-.33c1.18-1.46,4.37-3.07,8-3.18a11.63,11.63,0,0,1,9.19,3.91C41.18,13.13,48.5,22,42.33,38.54Z"/><path class="cls-3" d="M32.22,88.08l-.69.06h-.17a2.36,2.36,0,0,1-.65,0h-.57l-.45,0-.55,0,1.56,3.85a1.5,1.5,0,0,1-.07,1.29,1.52,1.52,0,0,1-1.07.77,1.61,1.61,0,0,1-1.73-1l-2.35-5.73-2.77-.65-.06.43a2.15,2.15,0,0,0,.12,1.2l2.38,5.84A4.56,4.56,0,0,0,29.31,97a3.45,3.45,0,0,0,.8-.08,4.47,4.47,0,0,0,3.08-2.25,4.38,4.38,0,0,0,.19-3.77Z"/><path class="cls-3" d="M45.87,85.13l-.15-.25-3,.72.36.49a6,6,0,0,1,.78,1.24l-2.39,5.85a1.56,1.56,0,0,1-.95.88,1.48,1.48,0,0,1-1.29-.16,1.64,1.64,0,0,1-.52-2l1.56-3.82a2.23,2.23,0,0,0,.06-1.53l-.11-.35L37,87l.44.38L36,90.8a4.55,4.55,0,0,0,1.67,5.55A4.48,4.48,0,0,0,40,97a4.19,4.19,0,0,0,1.35-.22,4.38,4.38,0,0,0,2.74-2.53l2.44-6C46.89,87.51,46.65,86.44,45.87,85.13Z"/><path class="cls-3" d="M49.47,72.68l-3.83-3.83L43.82,67,42.1,65.31,42,65.18l-.07-.06A12.06,12.06,0,0,0,39,63.36a7.28,7.28,0,1,0-8.77,0,12.73,12.73,0,0,0-3.08,1.94l-6.74,6.74-.63.63a3.25,3.25,0,0,0-.26.3,3.53,3.53,0,0,0-.54.91,3.46,3.46,0,0,0,.6,3.68,3.42,3.42,0,0,0,2.53,1.13h0a3.61,3.61,0,0,0,2.53-1.12L26.26,76l1.45-1.45,1.2-1.41-.3-.07,1.31.31V71.81A1.51,1.51,0,0,0,29,70.45a1.6,1.6,0,0,0-1.61.32l-4.84,4.86a.57.57,0,0,1-.83,0,.68.68,0,0,1,.11-.87l1.91-1.91,5.44-5.45a9,9,0,0,1,2.49-1.45h6a8.55,8.55,0,0,1,2.41,1.43L41.67,69l4,4,1.74,1.75a.66.66,0,0,1,.11.86.59.59,0,0,1-.38.2.7.7,0,0,1-.44-.17l-5.86-5.85a.92.92,0,0,0-.31-.24,1.62,1.62,0,0,0-1-.18,1.43,1.43,0,0,0-.95.61,1,1,0,0,0-.15.83,2.26,2.26,0,0,0,.36.71l0,.07s.06.09.07.09.14.2.21.3.2.27.31.39a.75.75,0,0,0,.11.13c.3.36.61.71.92,1s.5.53.78.8l.1.09.25.25c.23.22.45.42.66.65l2.29,2.29a3.5,3.5,0,0,0,2,1,3.44,3.44,0,0,0,3.12-1.08A3.58,3.58,0,0,0,49.47,72.68ZM34.64,61.94A4.38,4.38,0,1,1,39,57.56,4.39,4.39,0,0,1,34.64,61.94Z"/><path class="cls-1" d="M84.52,119.7l-1.38-6.28a19.12,19.12,0,0,1-.48-2l-.1-.57c-.08-.47-.19-1.06-.31-1.71v-.05l.44-7.45L84,79.26v-4.6L81.55,88.5a7.37,7.37,0,0,1-4.2,5.57,8.4,8.4,0,0,1-3.63,1h-.1c-.62-.13-1.26-.22-1.87-.3l0,.14-.62-.14-.35-.12-.1,0a6.81,6.81,0,0,1-.94-.4l-.59-.31.54-.37a7.32,7.32,0,0,0,1.24-1.06l.19-.21.26.11a2.81,2.81,0,0,0,.49.16,2.88,2.88,0,0,0,.4.09l.44.06H73a5.29,5.29,0,0,0,1.23-.1A5.64,5.64,0,0,0,78.4,89a5,5,0,0,0,.29-1l4.8-27.56a1.7,1.7,0,0,1,3.37.29V79.34ZM83,109.05c.12.64.22,1.21.3,1.67l.11.57c.11.61.27,1.26.46,1.93l.16.69.21-3.57,1.79-31V60.73a.9.9,0,0,0-.82-.9.89.89,0,0,0-1,.75L79.47,88.13a5.58,5.58,0,0,1-.32,1.18,6.46,6.46,0,0,1-4.82,4,5.56,5.56,0,0,1-1.38.11,2,2,0,0,1-.34,0,3.12,3.12,0,0,1-.51-.07,3.28,3.28,0,0,1-.49-.1l-.32-.1a6.89,6.89,0,0,1-.63.57l.18.07.17,0,.23.08.05-.08.24,0c.7.1,1.45.2,2.2.35A7.88,7.88,0,0,0,77,93.37a7.7,7.7,0,0,0,3.38-3.53,8.22,8.22,0,0,0,.41-1.48L84,70l.79.06v9.2Z"/><path class="cls-1" d="M71.74,92.56c-.73-.08-1.43-.16-2.08-.21a1.5,1.5,0,0,0,0,.22,3.59,3.59,0,0,1-.16,1,7.25,7.25,0,0,1-1.7-1.38,5.72,5.72,0,0,1-.45-.53,7.41,7.41,0,0,1-1.24-2.54,9.1,9.1,0,0,0,2.1-.31A5.44,5.44,0,0,0,69,90.42a4.74,4.74,0,0,0,1.26,1.19,4.63,4.63,0,0,0,1.45.7A1.07,1.07,0,0,1,71.74,92.56Z"/><path class="cls-1" d="M69.71,94.21,69.28,94a7.39,7.39,0,0,1-1.79-1.46,5.17,5.17,0,0,1-.48-.57,7.82,7.82,0,0,1-1.31-2.67l-.13-.49h.5a9,9,0,0,0,2-.29l.37-.1.11.36a4.76,4.76,0,0,0,.75,1.45,4.35,4.35,0,0,0,1.16,1.1,4.25,4.25,0,0,0,1.34.64L72,92l.06.22a1.34,1.34,0,0,1,0,.35V93L71.7,93,70,92.78a4.41,4.41,0,0,1-.17,1Zm-3.09-4.68a6.93,6.93,0,0,0,1,1.93c.13.18.28.34.42.5a7.24,7.24,0,0,0,1.14,1,2.6,2.6,0,0,0,0-.4,2.48,2.48,0,0,1,0-.29l.07-.36.36,0,.41,0-.07,0a5.49,5.49,0,0,1-1.35-1.28,5.81,5.81,0,0,1-.74-1.34A10.06,10.06,0,0,1,66.62,89.53Z"/><path class="cls-1" d="M115.77,14.42a3.88,3.88,0,0,0,.34-.38,4.79,4.79,0,0,0,1-1.76c.34-1.16.29-2.56-.87-3A23.25,23.25,0,0,1,110,5c-.9-.79-1.92-1.68-3-2.46a11,11,0,0,0-6.62-2A10,10,0,0,0,92,4.92a6.91,6.91,0,0,0-4.86,2.84c-1.64,2.32-1.67,5.39-1.39,7.62a6,6,0,0,0-1.18,4.9C85,23,86.77,25,88.81,25l.4,0a14.09,14.09,0,0,0,24.41,0l.4,0c2.06,0,3.86-2,4.3-4.76S117.65,15.08,115.77,14.42ZM88.85,16.54c-.33-1.26-.88-5,.61-7.11a4.39,4.39,0,0,1,3.42-1.71,1.45,1.45,0,0,0,.94-.44s.1-.13.19-.25l.18-.24a7.19,7.19,0,0,1,6.21-3.38,8.29,8.29,0,0,1,4.89,1.44c1,.72,1.9,1.52,2.84,2.34a27.22,27.22,0,0,0,6.15,4.38,2,2,0,0,1-.41.62A6.54,6.54,0,0,1,112,13.7c-1.86,1-4.67.83-6.69.55A24.59,24.59,0,0,1,94.6,10.08a1.44,1.44,0,0,0-2,.38l0,.08a5.9,5.9,0,0,1-2.52,2,1.46,1.46,0,0,0-.84.74,1.43,1.43,0,0,0-.08,1.11,1.51,1.51,0,0,0,.74.85,1.43,1.43,0,0,0,1.09.07,8.12,8.12,0,0,0,3.16-2.11,27.5,27.5,0,0,0,10.83,3.92,16,16,0,0,0,7.65-.48c0,.13,0,.26,0,.39A1.44,1.44,0,0,0,114,18.36h.13a1.47,1.47,0,0,0,1.08-.67,3.76,3.76,0,0,1,.23,2.14,4.37,4.37,0,0,1-.41,1.25,1.47,1.47,0,0,0-1-1.18,1.44,1.44,0,0,0-1.09.14,1.48,1.48,0,0,0-.71.88,11.18,11.18,0,0,1-21.58,0,1.46,1.46,0,0,0-1.4-1.07,1.58,1.58,0,0,0-.38.05,1.49,1.49,0,0,0-1.06,1.19,4.51,4.51,0,0,1-.39-1.27,3.72,3.72,0,0,1,0-1.45,1.18,1.18,0,0,0,.41-.05A1.45,1.45,0,0,0,88.85,16.54Z"/><path class="cls-1" d="M101.42,32.55a14.65,14.65,0,0,1-12.48-7h-.13c-2.28,0-4.29-2.18-4.78-5.17a6.62,6.62,0,0,1,1.15-5.15C84.92,13,85,9.86,86.68,7.47a7.35,7.35,0,0,1,5-3A10.44,10.44,0,0,1,100.4,0a11.41,11.41,0,0,1,6.92,2.14,38.64,38.64,0,0,1,3,2.48,22.55,22.55,0,0,0,6.06,4.17c1.23.49,1.67,1.88,1.15,3.63a5.22,5.22,0,0,1-1,1.83c1.72,1,2.64,3.45,2.22,6.1-.47,3-2.49,5.18-4.79,5.18h-.13A14.58,14.58,0,0,1,101.42,32.55ZM89.48,24.46l.17.29a13.59,13.59,0,0,0,23.54,0l.16-.28.33,0,.34,0c1.81,0,3.41-1.82,3.8-4.33s-.54-4.72-2.21-5.31l-.74-.26.54-.56a3.49,3.49,0,0,0,.32-.35,4.36,4.36,0,0,0,.88-1.58c.1-.33.53-2-.57-2.42a23.54,23.54,0,0,1-6.33-4.34c-.9-.78-1.9-1.66-3-2.44A10.46,10.46,0,0,0,100.4,1a9.52,9.52,0,0,0-8,4.21l-.12.17-.21,0A6.41,6.41,0,0,0,87.5,8.05c-1.56,2.2-1.57,5.17-1.3,7.26l0,.23-.16.17A5.57,5.57,0,0,0,85,20.2c.41,2.51,2,4.33,3.8,4.33l.34,0Zm11.94,5.19A11.7,11.7,0,0,1,90.15,21a1,1,0,0,0-1.86.11l-.24,1.55-.7-1.4a4.52,4.52,0,0,1-.44-1.42,4.41,4.41,0,0,1,0-1.62l.09-.42.43,0a.68.68,0,0,0,.22,0,1,1,0,0,0,.72-1.17c0-.16-1.22-4.83.68-7.53a4.87,4.87,0,0,1,3.79-1.92,1,1,0,0,0,.62-.29l.15-.2.18-.24a7.63,7.63,0,0,1,6.61-3.58,8.76,8.76,0,0,1,5.19,1.54c1,.72,1.92,1.53,2.87,2.37a26.69,26.69,0,0,0,6,4.3l.42.2-.17.43a2.6,2.6,0,0,1-.51.78,7.23,7.23,0,0,1-2,1.62c-2,1-4.9.89-7,.59a24.76,24.76,0,0,1-10.93-4.26,1,1,0,0,0-.73-.16.94.94,0,0,0-.61.41l-.06.1A6.62,6.62,0,0,1,90.14,13a1,1,0,0,0-.61,1.21,1,1,0,0,0,.49.56.88.88,0,0,0,.71,0,7.48,7.48,0,0,0,3-2l.28-.29.35.21A27.08,27.08,0,0,0,105,16.62a15.63,15.63,0,0,0,7.4-.46l.58-.22.09.62c0,.13,0,.27,0,.41a1,1,0,0,0,1,.89h.12a1,1,0,0,0,.67-.44l.49-.77.39.83A4.46,4.46,0,0,1,116,19.9a5.23,5.23,0,0,1-.46,1.4l-.7,1.35-.24-1.5a.94.94,0,0,0-1.4-.69.94.94,0,0,0-.46.58A11.71,11.71,0,0,1,101.42,29.65ZM89.23,19.34a2,2,0,0,1,1.88,1.43,10.69,10.69,0,0,0,20.62,0,2,2,0,0,1,.94-1.19,1.92,1.92,0,0,1,1.48-.18,2,2,0,0,1,.79.46l0-.13a4,4,0,0,0,0-1.14,2,2,0,0,1-.78.25H114a2,2,0,0,1-1.92-1.56,17.46,17.46,0,0,1-7.31.31,28.33,28.33,0,0,1-10.68-3.78,8.28,8.28,0,0,1-3.07,1.94,1.84,1.84,0,0,1-1.47-.1,1.77,1.77,0,0,1-.45-.3,10.09,10.09,0,0,0,.21,1.05h0A2,2,0,0,1,88,18.79l-.11,0a3.34,3.34,0,0,0,0,.89l0,.13a2,2,0,0,1,.79-.44A1.81,1.81,0,0,1,89.23,19.34Zm4.52-10a1.93,1.93,0,0,1,1.14.36,23.93,23.93,0,0,0,10.49,4.08c2,.28,4.65.42,6.39-.49a6.25,6.25,0,0,0,1.71-1.39l.09-.1a29.13,29.13,0,0,1-5.76-4.2C106.83,6.72,106,6,105,5.25a7.84,7.84,0,0,0-4.6-1.34,6.71,6.71,0,0,0-5.8,3.17l-.19.25a2.48,2.48,0,0,1-.22.28,2,2,0,0,1-1.28.61,3.89,3.89,0,0,0-3,1.5A5.66,5.66,0,0,0,89,12.59a1.94,1.94,0,0,1,.81-.53,5.45,5.45,0,0,0,2.27-1.81,2,2,0,0,1,1.31-.91A2,2,0,0,1,93.75,9.31Z"/><path class="cls-3" d="M87.26,120.13l-1.64-7.36a14.21,14.21,0,0,1-.44-1.8l0-.25c0-.13,0-.28-.07-.45s-.1-.53-.16-.83-.15-.83-.23-1.27c-.36-2-.83-4.55-1.21-6.57-.27-1.43-.46-2.35-.58-2.9-.61-2.76-2-3.74-2.58-4a13,13,0,0,0-2.59-1.21l-.43-.15a24,24,0,0,0-3-.74c-.81-.17-1.66-.31-2.55-.43l-.43,0c-.59-.06-1.15-.12-1.68-.16l-.43,0v.43a.81.81,0,0,0,0,.16,3.17,3.17,0,0,1-.14.93,2.56,2.56,0,0,1-.17.43,3.23,3.23,0,0,1-6.14-1.36,1.08,1.08,0,0,0,0-.3l-.08-.34L62,92c-.55,0-1.14.11-1.75.19a33.68,33.68,0,0,0-6.51,1.47c-.38.13-.8.29-1.31.52q-.49.22-.9.45c-.2.1-.39.21-.58.32v0l-.24.16-.07,0-.28.2a6.09,6.09,0,0,0-2,3.67c-.16.77-.44,2.21-.75,3.86l-.12.64c-.11.56-.22,1.13-.32,1.71l-.24,1.3-.42,2.29h0l-.05.25c-.11.65-.22,1.23-.31,1.69l-.09.52c0,.27-.1.54-.16.82l-.05.19a1.89,1.89,0,0,1-.09.34l0,.1c0,.13-.07.26-.12.43l-1.62,7.27a4.58,4.58,0,0,0,.82,3.72,4.72,4.72,0,0,0,1.11,1.08.49.49,0,0,0,.13.08,4.65,4.65,0,0,0,2.07.79,3.18,3.18,0,0,0,.43.06,5.38,5.38,0,0,0,5.81-4.24l.4-2.1-2.35,37.48a6.26,6.26,0,0,0,12.49,0l.46-28.52h.1l.6,28.51a6.24,6.24,0,0,0,12.47-.08l-2-37.9.44,2.32a5.33,5.33,0,0,0,4.71,4.19,4.85,4.85,0,0,0,1.07,0,2.18,2.18,0,0,0,.52-.06.59.59,0,0,0,.2,0v0l.55-.16h0l.25-.09h0A5.06,5.06,0,0,0,86,124.36c.14-.15.27-.3.44-.52A4.51,4.51,0,0,0,87.26,120.13ZM51.6,97.66l.24-.26a1.21,1.21,0,0,1,.16-.14l.16-.07a3.54,3.54,0,0,0,.31-.19,8.76,8.76,0,0,1,.92-.45,8.58,8.58,0,0,1,1.17-.47,28.54,28.54,0,0,1,5.73-1.32,6.12,6.12,0,0,0,11.45,0c.71.1,1.32.2,1.89.3l.2,0c.38.08.78.16,1.16.26a14.23,14.23,0,0,1,4,1.53l.2.11s.8.44,1.2,2.27,1.53,8.06,1.86,9.89c.12.64.22,1.21.3,1.67l.11.62a20,20,0,0,0,.48,2l1.62,7.28a2,2,0,0,1-.38,1.65,2.1,2.1,0,0,1-.66.59,2,2,0,0,1-.47.22,2.23,2.23,0,0,1-.46.13l-.27,0a2.88,2.88,0,0,1-3.11-2.17l-2.83-15A1.44,1.44,0,0,0,75.05,105a1.41,1.41,0,0,0-1.3,1.41v10.21l2.18,40.68a3.71,3.71,0,0,1-7.37,0l-.61-29a2,2,0,0,0-2.08-2h-1a2,2,0,0,0-2.07,2l-.49,29.08a3.71,3.71,0,0,1-7.37.06l2.54-40.53V106.7a1.42,1.42,0,0,0-2.82-.28l-2.83,15a2.84,2.84,0,0,1-3.11,2.17,1.91,1.91,0,0,1-.43-.07,2.28,2.28,0,0,1-1.72-1.4,2.12,2.12,0,0,1-.09-.27,2,2,0,0,1,0-.9l.13-.62h0L48,113.8c.09-.33.18-.68.26-1v0c.08-.35.16-.7.22-1l0-.26.24-.69H48.7l.24-1.32h0l.05-.26v-.06l.09-.47h0l.59-3.3c.12-.56.23-1.14.33-1.69l.13-.67c.28-1.48.53-2.77.67-3.45A4.7,4.7,0,0,1,51.6,97.66Z"/><path class="cls-3" d="M72.25,163.66a6.57,6.57,0,0,1-6.74-6.37L65.42,153l-.07,4.35a6.76,6.76,0,0,1-13.49,0l2.08-33.2a6.06,6.06,0,0,1-5.48,2.56l-.14,0a2.32,2.32,0,0,1-.38-.06,5.15,5.15,0,0,1-2.22-.85l-.14-.09a5.27,5.27,0,0,1-1.22-1.19,5.06,5.06,0,0,1-.91-4.12l1.65-7.39a2.54,2.54,0,0,0,.09-.31l0-.14a1.35,1.35,0,0,0,.08-.3l0-.2c.06-.28.12-.53.15-.78l.1-.54c.09-.46.2-1,.31-1.68l.71-3.85c.09-.55.2-1.1.3-1.63l.14-.73c.31-1.65.59-3.09.75-3.86a6.77,6.77,0,0,1,2-3.8l.63-.47.74-.41.1,0c.24-.14.55-.29.9-.45a13.07,13.07,0,0,1,1.36-.54,34.13,34.13,0,0,1,6.6-1.5l1.7-.18,1.19-.12.19.76a1.83,1.83,0,0,1,0,.42,2.75,2.75,0,0,0,.26,1.15A2.7,2.7,0,0,0,66,95.29a2.74,2.74,0,0,0,2.46-1.57c.06-.13.1-.25.14-.36a2.61,2.61,0,0,0,.12-.79,1.55,1.55,0,0,1,0-.22v-.84l.9-.06c.61,0,1.17.1,1.77.17l.42,0c.9.12,1.76.27,2.6.43a26.4,26.4,0,0,1,3,.77l.44.14a14.37,14.37,0,0,1,2.7,1.27c.59.29,2.15,1.35,2.8,4.33.12.54.31,1.47.58,2.9.38,2,.85,4.55,1.21,6.58.07.38.14.77.21,1.13l0,.25c0,.26.1.5.14.72s0,.33.07.46l0,.25a15.55,15.55,0,0,0,.43,1.73L87.75,120a5,5,0,0,1-.89,4.11c-.21.25-.35.42-.5.57a5.29,5.29,0,0,1-1.66,1.14v0l-1.85.6v-.12h-.19a4.55,4.55,0,0,1-1.15,0,5.94,5.94,0,0,1-4.34-2.64L79,157.18a6.32,6.32,0,0,1-2,4.6A6.85,6.85,0,0,1,72.25,163.66Zm-7.43-35.38h1l.11.49.6,28.51a5.57,5.57,0,0,0,5.74,5.38,5.84,5.84,0,0,0,4.06-1.61A5.29,5.29,0,0,0,78,157.21l-2-37.87,1-.12.44,2.31a4.82,4.82,0,0,0,4.27,3.79,4,4,0,0,0,1,0,1.64,1.64,0,0,0,.45,0h.12l.69-.23v0l.14,0a4.53,4.53,0,0,0,1.63-1c.14-.13.25-.28.42-.47a4,4,0,0,0,.7-3.29h0l-1.64-7.36a15,15,0,0,1-.44-1.82l0-.26c0-.14,0-.28-.07-.44s-.08-.46-.13-.73l0-.24c-.07-.36-.14-.74-.21-1.13-.37-2-.84-4.55-1.21-6.57-.27-1.42-.46-2.33-.58-2.87-.58-2.63-1.91-3.48-2.31-3.68a13.5,13.5,0,0,0-2.54-1.2l-.42-.13a23.5,23.5,0,0,0-2.89-.73c-.81-.17-1.66-.31-2.52-.43l-.41,0-1.57-.15v.11a3.49,3.49,0,0,1-.17,1.08,2.34,2.34,0,0,1-.2.51,3.71,3.71,0,0,1-6.72,0,3.61,3.61,0,0,1-.36-1.57.31.31,0,0,0,0-.1l-.25,0c-.6.06-1.16.11-1.74.18a33.09,33.09,0,0,0-6.41,1.45c-.37.13-.77.29-1.27.5-.3.15-.59.29-.85.44s-.4.21-.58.31l-.55.36a5.58,5.58,0,0,0-1.83,3.37c-.15.76-.44,2.2-.75,3.85l-.12.64c-.12.61-.22,1.16-.32,1.71l-.71,3.88c-.11.63-.22,1.2-.31,1.65l-.09.52c0,.26-.1.53-.16.81l-.05.21c0,.12-.06.24-.09.37l0,.12c0,.09-.06.21-.11.37l-1.62,7.29a4,4,0,0,0,.73,3.31,4.13,4.13,0,0,0,1,1l.13.08a4.14,4.14,0,0,0,1.85.7,1.73,1.73,0,0,0,.29,0h.15a4.86,4.86,0,0,0,5.25-3.83l.4-2.11,1,.13-2.35,37.48a5.76,5.76,0,0,0,11.49,0Zm7.43,32.81a4,4,0,0,1-4.19-3.84l-.61-29a1.54,1.54,0,0,0-1.58-1.49h-1a1.56,1.56,0,0,0-1.57,1.49l-.49,29.08a4.21,4.21,0,0,1-8.37,0L57,116.79V106.7a.92.92,0,0,0-.83-.92.91.91,0,0,0-1,.73l-2.82,15a3.35,3.35,0,0,1-3.65,2.58,3,3,0,0,1-.52-.09,2.89,2.89,0,0,1-1.72-1.09,3.64,3.64,0,0,1-.33-.59A1.83,1.83,0,0,1,46,122a2.27,2.27,0,0,1,0-1.13l1.59-7.16c.1-.35.19-.69.26-1s.17-.71.22-1l.09-.36h0l.1-.58.24-1.33.73-4.08c.12-.56.22-1.1.32-1.63l.14-.74c.28-1.49.53-2.77.67-3.46a5.28,5.28,0,0,1,.9-2.11l.21-.24,0-.11.41-.19.18-.08.22-.14a9.33,9.33,0,0,1,1-.5,11.73,11.73,0,0,1,1.2-.49,29.81,29.81,0,0,1,5.83-1.33l.4-.06.14.37a5.62,5.62,0,0,0,10.51,0l.14-.37.39.06c.73.09,1.34.19,1.92.3l.32.07c.36.07.72.14,1.07.23a14.6,14.6,0,0,1,4.14,1.6l.13.07s1,.48,1.49,2.62c.42,1.89,1.45,7.56,1.87,9.91.11.57.2,1.09.28,1.52l.13.78c.16.77.31,1.4.47,1.92l1.63,7.31a2.48,2.48,0,0,1-.46,2,2.6,2.6,0,0,1-.81.73,3.25,3.25,0,0,1-.57.27,2.66,2.66,0,0,1-.54.14l-.32,0a3.35,3.35,0,0,1-3.63-2.58l-2.84-15a.92.92,0,0,0-1.83.16v10.21l2.18,40.66A4,4,0,0,1,72.25,161.09Zm-7.41-35.36h1a2.53,2.53,0,0,1,2.58,2.47l.61,29a3.21,3.21,0,0,0,6.37,0l-2.18-40.66V106.4a1.93,1.93,0,0,1,3.82-.35l2.83,15a2.38,2.38,0,0,0,2.59,1.76l.21,0a1.51,1.51,0,0,0,.38-.1,3,3,0,0,0,.4-.18,1.81,1.81,0,0,0,.5-.45,1.49,1.49,0,0,0,.29-1.25l-1.62-7.28c-.15-.5-.32-1.17-.48-2l-.14-.79c-.07-.42-.16-.93-.27-1.5-.43-2.36-1.45-8-1.86-9.88a3.09,3.09,0,0,0-1-1.94,1.18,1.18,0,0,1-.25-.15,13.83,13.83,0,0,0-3.82-1.45l-1-.22-.32-.07-1.47-.24a6.62,6.62,0,0,1-12.07,0,27.32,27.32,0,0,0-5.25,1.24,8.63,8.63,0,0,0-1.12.45,8.24,8.24,0,0,0-.89.43l-.31.2-.14.06-.09.07L52,98a4.55,4.55,0,0,0-.7,1.69c-.13.67-.38,2-.66,3.44l-.13.66c-.11.61-.21,1.16-.33,1.71l-.48,2.69h0l-.26,1.38c0,.26-.09.5-.13.73L49,111.83c-.06.32-.14.68-.23,1s-.18.73-.27,1.07l-1.58,7.13a1.69,1.69,0,0,0,0,.82,2.41,2.41,0,0,0,.24.44,2,2,0,0,0,1.14.71,2.13,2.13,0,0,0,.35.06,2.35,2.35,0,0,0,2.6-1.76l2.82-15a2,2,0,0,1,2.08-1.54A1.91,1.91,0,0,1,58,106.7v10.12l-2.54,40.56a3.22,3.22,0,0,0,6.37-.09l.49-29.09A2.56,2.56,0,0,1,64.84,125.73Z"/><path class="cls-3" d="M78.79,75.68h0a2.67,2.67,0,0,0-1.74-1.11,1.25,1.25,0,0,0-.77.11l-.08-.58a10.31,10.31,0,0,0-1.3-3.93A11,11,0,0,0,72,66.91a15.34,15.34,0,0,0-1.4-.9l-.25-.12L70,65.71a8.85,8.85,0,0,0-1.28-.47,1.53,1.53,0,0,0-.26-.08l-.11,0A10.86,10.86,0,0,0,59.11,67a1,1,0,0,0-.26.19l-.12.11-.09,0a11.93,11.93,0,0,0-2,.61h-.34v.15a2.79,2.79,0,0,0-.34.18l-.2.11v0a5.28,5.28,0,0,0-1.24,1,4.44,4.44,0,0,0-1,1.89,4,4,0,0,0-.16,1.19,7.11,7.11,0,0,0,.39,2.33,1.32,1.32,0,0,0-.79.27,4.39,4.39,0,0,0-1.24,4.13,5.06,5.06,0,0,0,1.18,2.64,3.74,3.74,0,0,0,.58.5,2.72,2.72,0,0,0,2,.54l.18,0a10.7,10.7,0,0,0,9.94,6.74,2.43,2.43,0,0,0,.49,0,10,10,0,0,0,2.19-.31,10.42,10.42,0,0,0,3.65-1.74,10.29,10.29,0,0,0,2.18-2.14,11.07,11.07,0,0,0,1.41-2.51l.2,0,.38,0a3,3,0,0,0,2.21-1.08,5.27,5.27,0,0,0,1.17-2.61A4.76,4.76,0,0,0,78.79,75.68Zm-2.7,1.73A1.41,1.41,0,0,0,76.3,77a1.21,1.21,0,0,0,.32.11.25.25,0,0,1,.11.09A2.45,2.45,0,0,1,77,78.81h0a2.66,2.66,0,0,1-.57,1.32,1,1,0,0,1-.27.23,1,1,0,0,0-.35,0,1.2,1.2,0,0,0-.73-.5,1.27,1.27,0,0,0-1.54.94,8.15,8.15,0,0,1-4,5.21,9.68,9.68,0,0,1-1.73.71,8.49,8.49,0,0,1-2,.3h-.22a8.16,8.16,0,0,1-7.84-5.9,1.19,1.19,0,0,0-.85-.87,1,1,0,0,0-.36,0,1.82,1.82,0,0,0-.38,0,1.18,1.18,0,0,0-.4.21,1.14,1.14,0,0,0-.7-.08.83.83,0,0,1-.29-.23,2.14,2.14,0,0,1-.32-.54,3.72,3.72,0,0,1-.24-.79,2.1,2.1,0,0,1,.31-1.71,1.07,1.07,0,0,0,.19-.18c.17.29.32.5.4.62l.07.11a1.32,1.32,0,0,0,1,.49,1.09,1.09,0,0,0,.7-.23.51.51,0,0,0,.19-.15c.22-.11.51-.24.79-.35a13.31,13.31,0,0,1,1.49-.51l.5-.15.29-.08a21.36,21.36,0,0,1,5.71-.7h.27a14.94,14.94,0,0,1,1.77.12H68l.46.06a12.76,12.76,0,0,1,1.4.22l.14,0,.09,0a21,21,0,0,1,2.18.6l.68.26.46.18.11.05a3.57,3.57,0,0,0,1.22.48,1.56,1.56,0,0,0,1-.22m-2.1-3-.49-.18c-.87-.28-1.71-.52-2.51-.7h0l-.17,0c-.34-.07-.7-.12-1.06-.17a1,1,0,0,0,0-.1,1.11,1.11,0,0,0-.09-.25,4.48,4.48,0,0,0-.25-.59,1.86,1.86,0,0,0-.1-.2,11.4,11.4,0,0,0-1.4-2.19,9.24,9.24,0,0,0-3.09-2.54l-.67-.27a8,8,0,0,1,4,.05l.18,0a6.24,6.24,0,0,1,1.4.59,3.3,3.3,0,0,1,.51.29,9,9,0,0,1,1.31,1,8.28,8.28,0,0,1,1.51,1.92,7.55,7.55,0,0,1,1,3l0,.23,0,.17ZM63.27,70.14a7.3,7.3,0,0,1,3.07,3.11,1,1,0,0,1,.1.17l-.53,0a24,24,0,0,0-6,.72c-.41.09-.83.2-1.24.33l-.62.2-.21.07c-.41.14-.8.28-1.16.43A5.37,5.37,0,0,1,56,72v0a2.3,2.3,0,0,1,1.11-1.38l.12-.07a3.24,3.24,0,0,1,.32-.17,8,8,0,0,1,.85-.31l.73-.19A6.28,6.28,0,0,1,63.27,70.14Z"/><path class="cls-3" d="M65.61,90.08A11.11,11.11,0,0,1,55.37,83.4a3.21,3.21,0,0,1-2.19-.65,4.23,4.23,0,0,1-.65-.55,5.74,5.74,0,0,1-1-1.7,5.58,5.58,0,0,1-.32-1.23,4.89,4.89,0,0,1,1.43-4.58,1.93,1.93,0,0,1,.46-.26,7.53,7.53,0,0,1-.25-2A4.3,4.3,0,0,1,53,71.15a5,5,0,0,1,1.07-2.07,6,6,0,0,1,1.12-1v0l.46-.27.08,0v-.34h.76a12.94,12.94,0,0,1,2-.59l0,0a1.27,1.27,0,0,1,.33-.24,11.37,11.37,0,0,1,9.63-1.93l.12,0a3,3,0,0,1,.31.11,8.54,8.54,0,0,1,1.3.48l.39.18.24.12a15.59,15.59,0,0,1,1.49,1,11.74,11.74,0,0,1,3,3.41A10.89,10.89,0,0,1,76.7,74h0a2.07,2.07,0,0,1,.43,0,3.21,3.21,0,0,1,2.07,1.31h0A5.27,5.27,0,0,1,80,79.3a5.67,5.67,0,0,1-1.29,2.86,3.51,3.51,0,0,1-2.85,1.24,11.13,11.13,0,0,1-1.32,2.26,11.35,11.35,0,0,1-6.1,4.06,10.46,10.46,0,0,1-2.31.33A2.05,2.05,0,0,1,65.61,90.08ZM56,82.21l.18.45a10.12,10.12,0,0,0,9.47,6.42,2.36,2.36,0,0,0,.39,0,9.7,9.7,0,0,0,2.17-.3,10.31,10.31,0,0,0,5.55-3.7,10.5,10.5,0,0,0,1.35-2.4l.18-.44.56.17a1.42,1.42,0,0,0,.3,0,2.43,2.43,0,0,0,1.83-.91A4.75,4.75,0,0,0,79,79.14,4.28,4.28,0,0,0,78.39,76h0A2.19,2.19,0,0,0,77,75.06a.77.77,0,0,0-.47.07l-.63.32-.16-1.29a10.08,10.08,0,0,0-1.24-3.74,10.39,10.39,0,0,0-2.75-3.11,13,13,0,0,0-1.36-.87l-.21-.1-.36-.17a9.29,9.29,0,0,0-1.22-.45,2.16,2.16,0,0,0-.24-.08l-.13,0a10.28,10.28,0,0,0-8.78,1.78l-.66.41a12.11,12.11,0,0,0-2,.58l-.29.13-.33.17L56,68.8a5.3,5.3,0,0,0-1.13.93A4.17,4.17,0,0,0,54,71.4a3.76,3.76,0,0,0-.14,1.08,6.58,6.58,0,0,0,.36,2.17l.22.65h-.69a.83.83,0,0,0-.49.17,3.9,3.9,0,0,0-1,3.65,4.78,4.78,0,0,0,.26,1,4.85,4.85,0,0,0,.81,1.38,3.23,3.23,0,0,0,.48.4,2.16,2.16,0,0,0,1.67.46l.09,0Zm9.65,5.3a8.65,8.65,0,0,1-8.32-6.25.71.71,0,0,0-.5-.53,1,1,0,0,0-.52,0,.84.84,0,0,0-.18.11l-.23.19-.28-.12a.65.65,0,0,0-.41,0l-.12,0-.12,0a1.39,1.39,0,0,1-.5-.35A2.71,2.71,0,0,1,54,79.8a4,4,0,0,1-.27-.89,2.47,2.47,0,0,1,.5-2.2.57.57,0,0,0,.11-.11l.45-.52.36.59c.16.27.3.47.38.58l.08.12a.88.88,0,0,0,1,.16l.29-.22c.24-.11.54-.25.84-.37a14.66,14.66,0,0,1,1.53-.52l.49-.15.29-.08a22.59,22.59,0,0,1,5.86-.72h.26A18,18,0,0,1,68,75.6h0l.55.07a12.59,12.59,0,0,1,1.42.22l.23.05c.83.19,1.56.39,2.23.61l.68.27.63.26a3.15,3.15,0,0,0,1,.42,1.07,1.07,0,0,0,.64-.14l.54.84a2,2,0,0,1-1.29.29A3.86,3.86,0,0,1,73.3,78l-.5-.2-.69-.27c-.61-.2-1.3-.39-2.1-.57a1.21,1.21,0,0,1-.29-.07,10.56,10.56,0,0,0-1.28-.19,3.52,3.52,0,0,0-.45-.06h-.06a16.09,16.09,0,0,0-1.78-.12h-.26a21.19,21.19,0,0,0-5.59.69l-.28.08-.46.13a13.82,13.82,0,0,0-1.47.51c-.25.09-.49.2-.68.29a.89.89,0,0,1-.21.16A1.83,1.83,0,0,1,54.81,78l-.07-.11a2.34,2.34,0,0,0,0,.89,3.34,3.34,0,0,0,.19.65,1.83,1.83,0,0,0,.26.44l0,0a1.67,1.67,0,0,1,.5.05,1.69,1.69,0,0,1,1.35-.14A1.7,1.7,0,0,1,58.25,81a7.66,7.66,0,0,0,7.36,5.51h.22a7.54,7.54,0,0,0,1.87-.27,9.63,9.63,0,0,0,1.63-.67,7.65,7.65,0,0,0,1.84-1.45A7.76,7.76,0,0,0,73,80.68a1.75,1.75,0,0,1,2.14-1.3,1.57,1.57,0,0,1,.83.46l0,0a2.1,2.1,0,0,0,.45-1.06,2.27,2.27,0,0,0-.07-1.11l-.21-.15-.11,0v0l-.4-.29a.83.83,0,0,0,.12-.27l.16-.57.54.25a.66.66,0,0,0,.2.06.75.75,0,0,1,.43.31,2.79,2.79,0,0,1,.32,2,3.22,3.22,0,0,1-.68,1.57,1.7,1.7,0,0,1-.2.19l-.06.29L76,80.85h-.2l-.3.05-.17-.26a.75.75,0,0,0-.42-.29.77.77,0,0,0-1,.56,8.81,8.81,0,0,1-2.1,3.89,8.52,8.52,0,0,1-2.1,1.65A10,10,0,0,1,68,87.2a8.78,8.78,0,0,1-2.14.31ZM56.43,75.79l-.21-.41a5.75,5.75,0,0,1-.76-3.5,2.87,2.87,0,0,1,1.35-1.76L57,70l.34-.19c.31-.13.63-.24.91-.33l.75-.19a6.8,6.8,0,0,1,4.53.36h0A7.89,7.89,0,0,1,66.78,73l.52.93h-.89l-.69,0a23.37,23.37,0,0,0-5.71.7c-.41.1-.81.2-1.21.33-.19,0-.37.11-.56.18l-.26.08c-.4.14-.77.28-1.12.42Zm4.36-5.68a6.89,6.89,0,0,0-1.59.19l-.72.19c-.22.07-.51.17-.78.28l-.25.14L57.3,71a1.78,1.78,0,0,0-.85,1.07,4.37,4.37,0,0,0,.46,2.46q.36-.15.75-.27l.21-.07.64-.21c.41-.13.84-.24,1.27-.34a24.33,24.33,0,0,1,5.77-.73,6.41,6.41,0,0,0-2.49-2.3A5.26,5.26,0,0,0,60.79,70.11Zm13.54,5.43-.79-.25.08-.45h0l-.16.42.16-.42h0l-.17.42L73,75.07c-.83-.26-1.66-.49-2.44-.67l-.17,0c-.34-.07-.7-.12-1-.17l-.29,0-.16-.43a.87.87,0,0,0-.07-.17,5.24,5.24,0,0,0-.24-.56.67.67,0,0,0-.09-.19A10.75,10.75,0,0,0,67.1,70.7a8.49,8.49,0,0,0-2.92-2.41c-.2-.09-.41-.18-.62-.25L62,67.46l1.62-.38a8.8,8.8,0,0,1,4.3,0l.17.05a6.61,6.61,0,0,1,1.52.63,4.27,4.27,0,0,1,.56.33,9.57,9.57,0,0,1,1.35,1,9,9,0,0,1,1.6,2,8.3,8.3,0,0,1,1,3.18Zm-4.59-2.29.78.14.16,0c.81.18,1.61.4,2.42.66a7.13,7.13,0,0,0-.85-2.37,7.74,7.74,0,0,0-1.42-1.8A7.36,7.36,0,0,0,69.6,69a2.5,2.5,0,0,0-.45-.26,5.67,5.67,0,0,0-1.33-.56l-.18-.05a7.47,7.47,0,0,0-2.22-.26,10.1,10.1,0,0,1,2.46,2.23,12,12,0,0,1,1.46,2.28,1.15,1.15,0,0,1,.12.25,5.22,5.22,0,0,1,.25.59Z"/><path class="cls-4" d="M121.34,136.52c-.64,1.77-1.32,3.6-1.85,5l-.2-4h0c.65-1.76,1.31-3.57,1.86-5l0,.64Z"/><path class="cls-3" d="M149.63,126.45l-1.38-6.21a8.55,8.55,0,0,1-.35-1.53l0-.19c0-.11,0-.23-.07-.35a.7.7,0,0,0,0-.16l-.39.09h0l.38-.17c0-.24-.1-.5-.15-.78l-.16-.79c-.21-1.21-.47-2.64-.72-4l-.29-1.56c-.16-.85-.3-1.59-.41-2.11h0c0-.09,0-.19-.06-.27l0-.06a1.6,1.6,0,0,0,0-.21s0,0,0-.08a5,5,0,0,0-1.77-2.93l-.57-.41v.07a12.55,12.55,0,0,0-2-.9l-.14,0-.2-.07a17.81,17.81,0,0,0-2.51-.64c-.86-.16-1.54-.28-2.15-.36l-.48,0c-.45-.05-.89-.1-1.29-.12h-.42v.42a.88.88,0,0,0,0,.16,2.51,2.51,0,0,1-.13.79,1.2,1.2,0,0,1-.13.33,2.66,2.66,0,0,1-2.39,1.54,2.63,2.63,0,0,1-2.41-1.55,2.18,2.18,0,0,1-.25-1.18l0-.15-.13-.13-.12-.25-.27,0c-.54,0-1.14.11-1.74.19a27.72,27.72,0,0,0-5.49,1.24,5.69,5.69,0,0,0-1.07.43,6.79,6.79,0,0,0-.63.28l-.19.11-.27.15-.22.12-.07,0-.08.05-.22.13a3.9,3.9,0,0,0-1.1,1.28,6.14,6.14,0,0,0-.76,2l-.1.53c0,.08,0,.15,0,.22s0,.1,0,.18c-.13.64-.28,1.44-.43,2.33-.13.61-.26,1.31-.38,2s-.2,1.06-.29,1.56-.22,1.16-.31,1.67c-.06.34-.12.66-.19,1l0,.23a1.43,1.43,0,0,0,0,.22,3.67,3.67,0,0,0-.07.42c0,.24-.1.51-.18.82l-.07.33a.9.9,0,0,0-.08.23,1.62,1.62,0,0,1-.06.19L113,126.69a3.89,3.89,0,0,0,.69,3.17,3.46,3.46,0,0,0,.92.91.74.74,0,0,0,.16.11,3.8,3.8,0,0,0,1,.47l.08,0a3.77,3.77,0,0,0,.7.16,1.47,1.47,0,0,0,.26.05h.11a3.41,3.41,0,0,0,1,0,.82.82,0,0,0,.22,0,6,6,0,0,0,1-.3,4.48,4.48,0,0,0,2.17-1.88,4.3,4.3,0,0,0,.51-1.38l.16-.85-.14,2.36a.34.34,0,0,0,0,.11l-.44,1.17-.59,1.59c-.25.66-.52,1.39-.8,2.15-.34.93-.7,1.91-1.07,2.88l0,.08c-.27.77-.53,1.49-.79,2.17l-.1.24c-.85,2.34-1.29,3.57-1.33,3.7a1.18,1.18,0,0,0,.13,1.1,1.15,1.15,0,0,0,1,.5h3.1l-.79,12.62a5.07,5.07,0,0,0,.13,1.13,5.24,5.24,0,0,0,5.19,3.9,5.18,5.18,0,0,0,5.33-5l.21-12.65h.38l.26,12.62a5.33,5.33,0,0,0,10.65-.07l-.67-12.55h3.3a1.18,1.18,0,0,0,1-.52,1.16,1.16,0,0,0,.12-1.05c-.21-.64-4.6-12.49-5.23-14.06l0,0-.15-2.77.19,1a4.59,4.59,0,0,0,4.06,3.6,8.62,8.62,0,0,0,.88,0,2,2,0,0,0,.52-.07h.07a1.52,1.52,0,0,0,.33-.08l.17,0a4.53,4.53,0,0,0,1.79-1.09,3.58,3.58,0,0,0,.26-.29l.11-.15A3.81,3.81,0,0,0,149.63,126.45Zm-4.87-12.16c.17.94.33,1.85.5,2.73l0,.19c.1.52.18,1,.25,1.35l.1.57a14.18,14.18,0,0,0,.41,1.68L147.4,127a1.55,1.55,0,0,1-.29,1.33,1.72,1.72,0,0,1-.56.49.88.88,0,0,1-.19.1l-.21.08a2,2,0,0,1-.35.11,1.42,1.42,0,0,1-.24,0,2.37,2.37,0,0,1-2.54-1.78l-2.38-12.66a1.3,1.3,0,0,0-1.37-1,1.28,1.28,0,0,0-1.16,1.26v8.61l.34,6,.35,1.61.4,1,1,2.78,1,2.64,1.94,5.25h-2.9a1,1,0,0,0-.77.34,1,1,0,0,0-.26.75l.73,13.89a3.07,3.07,0,0,1-6.1,0l-.26-13,0-1a1,1,0,0,0-1-1h-2.82a1,1,0,0,0-1,1l-.22,14a2.92,2.92,0,0,1-3.06,2.74,2.88,2.88,0,0,1-3-2.68l.81-13,.06-.92a1,1,0,0,0-.28-.75,1.07,1.07,0,0,0-.76-.32h-2.74l.41-1.11c.53-1.44,1.2-3.27,1.84-5,.2-.52.39-1,.57-1.54L123.8,131l.33-1.61.36-5.75v-8.55a1.26,1.26,0,0,0-2.49-.23l-2.38,12.63a2.21,2.21,0,0,1-1.75,1.72,3,3,0,0,1-.85.07,1.24,1.24,0,0,1-.31,0,3.36,3.36,0,0,1-.66-.26,2,2,0,0,1-.53-.5,1.45,1.45,0,0,1-.22-.38,1.21,1.21,0,0,1-.07-.24,1.24,1.24,0,0,1,0-.69l1.32-6.06a14.76,14.76,0,0,0,.45-1.75v-.12a.49.49,0,0,0,0-.12l0-.19c0-.34.13-.75.21-1.21l.18-1,.12-.7c0-.08,0-.16.05-.25l0-.2,0-.08c.09-.5.18-1,.29-1.5l.18-1c.06-.35.12-.68.19-1,0-.08,0-.16.07-.29.19-1.11.38-2.07.49-2.64a3.93,3.93,0,0,1,.67-1.56l.07-.1a1.28,1.28,0,0,1,.25-.22l.09,0,.1,0,.19-.12a7.91,7.91,0,0,1,.77-.39c.32-.14.65-.28,1-.4a23.81,23.81,0,0,1,4.77-1.09,5.23,5.23,0,0,0,9.73,0c.54.07,1.06.15,1.56.25s.76.15,1.14.24a11.64,11.64,0,0,1,3.43,1.33l.08,0a1.72,1.72,0,0,1,.61.75,4.62,4.62,0,0,1,.37,1.14c.22.91.61,3,1,5.05Zm-1.86-7.66Z"/><path class="cls-3" d="M136.91,163.32a5.76,5.76,0,0,1-5.75-4.61,5.9,5.9,0,0,1-11.43.33,5,5,0,0,1-.15-1.25l.76-12.12h-2.57a1.69,1.69,0,0,1-1.38-.7,1.73,1.73,0,0,1-.19-1.59l1.33-3.68.11-.26c.25-.66.51-1.38.78-2.14l0-.1c.36-1,.72-1.94,1.06-2.87l.06-.17.74-2,.53-1.42a4.76,4.76,0,0,1-1.5.94,5,5,0,0,1-1.12.33.54.54,0,0,1-.26,0,4.08,4.08,0,0,1-1.12,0l-.13,0a1.45,1.45,0,0,1-.33-.06,3.88,3.88,0,0,1-.73-.16l-.1,0a4.27,4.27,0,0,1-1.07-.53.87.87,0,0,1-.23-.16,3.72,3.72,0,0,1-1-1,4.39,4.39,0,0,1-.76-3.56l1.36-6.13a.73.73,0,0,0,.06-.2c0-.11.07-.21.11-.3l0-.25a6.64,6.64,0,0,0,.17-.78c0-.13.05-.29.08-.45l0-.16c0-.1,0-.17,0-.24.08-.39.14-.71.2-1s.16-.9.26-1.39l0-.28c.09-.5.19-1,.29-1.56s.25-1.37.38-2c.15-.87.3-1.67.43-2.32l0-.17c0-.09,0-.17,0-.25l.1-.5a6.87,6.87,0,0,1,.82-2.14,4.55,4.55,0,0,1,1.23-1.42l.27-.17.18-.1.17-.1.32-.17.17-.09a5.72,5.72,0,0,1,.69-.31,5.23,5.23,0,0,1,1.11-.45,27.13,27.13,0,0,1,5.56-1.25c.61-.08,1.22-.15,1.76-.2l.62-.06.3.55.19.19-.07.41a1.68,1.68,0,0,0,.21.87,2.13,2.13,0,0,0,1.95,1.27,2.17,2.17,0,0,0,2-1.25,1.63,1.63,0,0,0,.09-.23,2,2,0,0,0,.12-.68,1.79,1.79,0,0,1,0-.23v-.84h.91c.45,0,.89.07,1.36.12l.47,0c.64.09,1.33.21,2.2.37a17.38,17.38,0,0,1,2.57.66l.16,0,.18,0c.51.18,1,.38,1.43.59v-.13l1.28.86a5.43,5.43,0,0,1,2,3.21l.07.31a2.73,2.73,0,0,1,.08.34v0c.11.52.25,1.25.4,2.08l.29,1.56c.25,1.33.52,2.76.73,4l.15.77c.06.34.11.57.15.8l.07.38h0a1.3,1.3,0,0,1,0,.21l0,.18a8.63,8.63,0,0,0,.33,1.48l1.4,6.24a4.34,4.34,0,0,1-.76,3.58l-.13.16-.28.32a5,5,0,0,1-2,1.22l-.16.06-.4.1h-.08a2.67,2.67,0,0,1-.6.07c-.28,0-.6,0-.91,0a5.4,5.4,0,0,1-3.23-1.56c1.27,3.34,4.7,12.59,4.88,13.17a1.61,1.61,0,0,1-.18,1.48,1.64,1.64,0,0,1-1.4.74h-2.77l.64,12A5.72,5.72,0,0,1,136.91,163.32Zm-6.46-18.65h1.36l.27,13.11a4.83,4.83,0,0,0,9.65-.06l-.7-13.05h3.83a.66.66,0,0,0,.57-.29.65.65,0,0,0,.08-.58c-.23-.7-4.62-12.57-5.23-14.07l-.06-.21-.15-2.77,1-.12.19,1a4.09,4.09,0,0,0,3.63,3.2,6.77,6.77,0,0,0,.79,0,1.35,1.35,0,0,0,.4-.05l.12,0a1.74,1.74,0,0,0,.3-.07l.14-.05a4,4,0,0,0,1.61-1c0-.06.13-.14.2-.24l.12-.15a3.28,3.28,0,0,0,.58-2.74h0l-1.38-6.21a9.31,9.31,0,0,1-.36-1.57l0-.16h0l-1.26.27,0,.17a13.67,13.67,0,0,0,.4,1.62l1.36,6.17a2.06,2.06,0,0,1-.37,1.73,2.44,2.44,0,0,1-.74.64.75.75,0,0,1-.27.13l-.18.07a1.62,1.62,0,0,1-.44.14,1.87,1.87,0,0,1-.32,0,2.85,2.85,0,0,1-3-2.19l-2.38-12.66a.78.78,0,0,0-.85-.62.78.78,0,0,0-.69.76v8.61l.34,6,.34,1.53.37,1c.31.81.67,1.75,1.05,2.77l1.14,3.09,1.78,4.81.24.67h-3.61a.59.59,0,0,0-.4.17.49.49,0,0,0-.13.38l.73,13.91a3.56,3.56,0,0,1-7.1,0l-.28-14a.52.52,0,0,0-.54-.49h-2.82a.53.53,0,0,0-.54.51l-.22,14A3.41,3.41,0,0,1,125.4,161a3.37,3.37,0,0,1-3.53-3.18l.87-14a.46.46,0,0,0-.14-.36.53.53,0,0,0-.4-.17h-3.45l.24-.67.41-1.11,1.84-5c.2-.53.39-1.05.57-1.54.62-1.68,1.17-3.15,1.52-4.09l.31-1.53.35-5.68v-8.52a.73.73,0,0,0-.67-.74.74.74,0,0,0-.83.59l-2.38,12.65a2.7,2.7,0,0,1-2.13,2.11,3.48,3.48,0,0,1-1,.08.9.9,0,0,1-.44-.08,2.43,2.43,0,0,1-.76-.31,2.48,2.48,0,0,1-.69-.63,2.27,2.27,0,0,1-.27-.48,1.91,1.91,0,0,1-.1-.33,1.6,1.6,0,0,1,0-.92l1.32-6a16,16,0,0,0,.43-1.75l.09-.45c0-.29.11-.69.2-1.15l.18-1c0-.22.07-.47.12-.7,0-.08,0-.15,0-.21s0-.19,0-.26c.11-.57.2-1.06.31-1.57.06-.31.12-.62.17-.93s.13-.72.2-1.06c0-.08,0-.17.07-.33.18-1,.36-1.94.48-2.52l0-.1a4.23,4.23,0,0,1,.77-1.76l0-.06c.2-.21.31-.3.34-.33l.4-.23a8.9,8.9,0,0,1,.87-.44c.33-.15.67-.28,1-.41a24,24,0,0,1,4.87-1.11l.39-.05.14.36a4.74,4.74,0,0,0,8.81,0l.14-.36.38,0c.55.06,1.08.15,1.6.25s.78.15,1.16.25a12.09,12.09,0,0,1,3.57,1.39l.18.12a.24.24,0,0,0-.09-.07,2.34,2.34,0,0,1,.78,1,4.79,4.79,0,0,1,.42,1.26c.21.88.59,2.93,1,4.92l.09.51.5,2.71,0,.2c.08.38.14.73.2,1l1.21-.53-.06-.3-.17-.87c-.21-1.22-.47-2.65-.72-4l-.29-1.56c-.16-.84-.3-1.58-.41-2.1l-.11-.5.46-.23-.49.12a4.5,4.5,0,0,0-1.58-2.65l-.27-.19-.25-.12a13.21,13.21,0,0,0-1.93-.86l-.3-.09a16.93,16.93,0,0,0-2.47-.63c-.86-.17-1.53-.28-2.14-.37l-.46,0-1.17-.11v.08a2.92,2.92,0,0,1-.16,1,2,2,0,0,1-.15.4,3.15,3.15,0,0,1-5.71,0,2.82,2.82,0,0,1-.3-1.36l0,0c-.51,0-1.08.11-1.64.19a26.6,26.6,0,0,0-5.39,1.21,4.85,4.85,0,0,0-1,.4,6.63,6.63,0,0,0-.64.29l-.17.09-.28.15-.23.13-.11.07a1.73,1.73,0,0,0-.21.13,3.41,3.41,0,0,0-1,1.1,5.74,5.74,0,0,0-.7,1.84l-.1.52c0,.09,0,.15,0,.21s0,.12,0,.2c-.12.63-.27,1.42-.43,2.31-.13.62-.26,1.31-.38,2s-.19,1.06-.29,1.57l-.05.28-.26,1.38c-.06.34-.12.67-.19,1,0,0,0,.12,0,.21l0,.22c0,.16-.06.28-.08.4a7.57,7.57,0,0,1-.19.89l-.07.31c0,.14-.06.2-.08.25a1.19,1.19,0,0,1-.07.23l-1.34,6.07a3.36,3.36,0,0,0,.6,2.76,2.83,2.83,0,0,0,.79.79l.17.11a3.48,3.48,0,0,0,.84.42l.11,0a3.12,3.12,0,0,0,.58.12,1.54,1.54,0,0,0,.26.05H117a3,3,0,0,0,.85,0l.15,0H118a4.51,4.51,0,0,0,.93-.27,3.86,3.86,0,0,0,1.93-1.67,3.62,3.62,0,0,0,.46-1.21l.16-.86,1,.13-.2,2.55c-.1.24-.22.56-.37,1l-.69,1.82c-.23.61-.47,1.28-.73,2l-.06.16c-.34.94-.71,1.92-1.07,2.88s-.56,1.57-.81,2.25l-.1.26c-.75,2.05-1.29,3.53-1.33,3.66a.74.74,0,0,0,.08.69.65.65,0,0,0,.55.26h3.63l-.82,13.15a4,4,0,0,0,.12,1,4.75,4.75,0,0,0,4.7,3.52,4.68,4.68,0,0,0,4.83-4.5Zm-.73-2.36h2.82a1.52,1.52,0,0,1,1.54,1.46l.28,14a2.57,2.57,0,0,0,5.1,0l-.73-13.87a1.51,1.51,0,0,1,.39-1.11,1.54,1.54,0,0,1,1.14-.5h2.18c-.42-1.15-1-2.62-1.52-4.13l-1.15-3.09c-.38-1-.74-2-1-2.72l-.41-1.1-.37-1.68-.35-6.07v-8.64a1.78,1.78,0,0,1,1.6-1.76,1.82,1.82,0,0,1,1.92,1.43l2.38,12.67a1.86,1.86,0,0,0,2,1.37l.15,0a1,1,0,0,0,.26-.08l.36-.16a1.34,1.34,0,0,0,.4-.36,1,1,0,0,0,.21-.89l-1.36-6.16a15.07,15.07,0,0,1-.41-1.7l0-.13-.09-.51,0-.09c-.06-.34-.13-.74-.22-1.18l0-.2c-.17-.88-.34-1.79-.5-2.73l-.1-.5c-.36-2-.73-4-.94-4.89a3.94,3.94,0,0,0-.34-1,1.52,1.52,0,0,0-.41-.55l-.09,0a11,11,0,0,0-3.29-1.27l-1.11-.24c-.38-.07-.77-.14-1.16-.19a5.74,5.74,0,0,1-10.35,0,22.54,22.54,0,0,0-4.28,1c-.34.12-.66.25-1,.38s-.49.24-.72.37l-.38.22a.79.79,0,0,0-.14.13l0,0a3.47,3.47,0,0,0-.59,1.4c-.12.61-.3,1.53-.49,2.6a2.45,2.45,0,0,0-.06.26c-.08.37-.14.71-.2,1.05s-.12.67-.18,1c-.11.5-.2,1-.29,1.47l0,.28c0,.12,0,.21,0,.29s-.08.45-.12.67l-.17,1c-.09.48-.17.87-.21,1.2l-.06.23a.81.81,0,0,1,0,.09v.1a17,17,0,0,1-.46,1.84l-1.31,6a.7.7,0,0,0,0,.43c0,.14,0,.17,0,.17a1.19,1.19,0,0,0,.17.3,1.42,1.42,0,0,0,.4.37,1.87,1.87,0,0,0,.51.2l.19,0a2.83,2.83,0,0,0,.72,0,1.73,1.73,0,0,0,1.39-1.34l2.38-12.63a1.73,1.73,0,0,1,1.91-1.4,1.7,1.7,0,0,1,1.57,1.73v8.55l-.36,5.78-.34,1.68c-.37,1-.92,2.48-1.54,4.15-.17.49-.37,1-.57,1.55-.64,1.76-1.31,3.59-1.85,5,0,.15-.1.3-.16.44h2a1.52,1.52,0,0,1,1.12.48,1.47,1.47,0,0,1,.42,1.11l-.06.93-.82,13A2.39,2.39,0,0,0,125.4,160a2.42,2.42,0,0,0,2.56-2.24l.22-14A1.53,1.53,0,0,1,129.72,142.31Z"/><path class="cls-3" d="M114.2,85c0,.08.07.15.09.18l0,.1a7,7,0,0,0,1.1,1.23,1.16,1.16,0,0,0,.15.13l.29.2a4.11,4.11,0,0,0,.73.43,5,5,0,0,0,1.8.5,2.28,2.28,0,0,0,.51,0H119a4.58,4.58,0,0,0,.63,0,3.84,3.84,0,0,0,1.08-.3,2.62,2.62,0,0,0,.53-.3A4.27,4.27,0,0,0,123,83.64V83.1a4.43,4.43,0,0,1,.13-1.36.93.93,0,0,1,.36-.47,3.6,3.6,0,0,1,1,1.48,11.39,11.39,0,0,0-2.58,5c0,.21-.1.42-.14.64h0a2.51,2.51,0,0,0-.85.35,2.83,2.83,0,0,0-.9.86l-.15.24a3.93,3.93,0,0,0-.42,1.19,4,4,0,0,0,0,1.38,3.5,3.5,0,0,0,3.17,3.06,10.59,10.59,0,0,0,9.61,6.53A10.14,10.14,0,0,0,139,99.31a9.63,9.63,0,0,0,1.43-1.52,11.81,11.81,0,0,0,1.38-2.34,3,3,0,0,0,1.83-.76,3.71,3.71,0,0,0,1.25-2.29,3.81,3.81,0,0,0-.41-2.56h0a3.19,3.19,0,0,0-.87-1,2.78,2.78,0,0,0-1-.46,11.09,11.09,0,0,0-.4-1.56,11.56,11.56,0,0,0-3.22-5,10.83,10.83,0,0,0-1.77-1.27,8,8,0,0,0-1.1-.56,8.76,8.76,0,0,0-2.34-.67,3.19,3.19,0,0,0-.62-.09,1.92,1.92,0,0,0-.32,0h-.66a10.81,10.81,0,0,0-1.29.08l-.41.07a10.6,10.6,0,0,0-2.25.68L127,77.56a7.1,7.1,0,0,0-1.49-1.78,5.53,5.53,0,0,0-4-1.44,7,7,0,0,0-.71.12,3.91,3.91,0,0,0-1.46.72,3,3,0,0,0-.61.5,2.2,2.2,0,0,0-.36.38h0a1.47,1.47,0,0,1-.1.13l-.07.11a6.22,6.22,0,0,0-.77,1.28A6.74,6.74,0,0,0,117,79a4.09,4.09,0,0,0-.13.78c0,.15,0,.29,0,.41q0,.45,0,.84c0,.11,0,.22,0,.33a4.9,4.9,0,0,1,0,.68,1.43,1.43,0,0,1-.48.85.8.8,0,0,1-.24.18.39.39,0,0,1-.3,0l-.15,0a1.21,1.21,0,0,0-1.66.36,1.18,1.18,0,0,0,.12,1.42Zm4.85-2.21v0l0-.15a3.2,3.2,0,0,0,.07-.33,8.53,8.53,0,0,0,0-.86v-.54c0-.17,0-.34,0-.5a3.46,3.46,0,0,1,0-.46,5.77,5.77,0,0,1,.26-1.09l.14-.33.06-.12,0-.08h0a3.53,3.53,0,0,1,.41-.64s0,0,.05,0l.13-.15h0a2.4,2.4,0,0,1,1.11-.71,3.34,3.34,0,0,1,.42-.07,3.11,3.11,0,0,1,2.14.87,5.83,5.83,0,0,1,1,1.15l.64,1.25a2.74,2.74,0,0,0-2-1.1,2.47,2.47,0,0,0-1.89.84,3.52,3.52,0,0,0-.78,1.29,6.25,6.25,0,0,0-.25,2.1v.49a.71.71,0,0,1,0,.14v.13a2.17,2.17,0,0,1-.37,1,1.36,1.36,0,0,1-1,.53,1.21,1.21,0,0,1-.43,0h-.36Zm18.55,6.62h-.24c-.5,0-1.05,0-1.62,0h0a12,12,0,0,1-2.58-.42L133,89h0a8.71,8.71,0,0,1-1.91-.79.05.05,0,0,0,0,0,8,8,0,0,1-2.44-2.1l-.07-.09h0a1.16,1.16,0,0,0-1.17-.43,1.18,1.18,0,0,0-.92.88c0,.12,0,.23-.08.35l0,.22c-.25,1.19-.49,2.3-1.51,2.86l0,0h0l-.16.11a1.21,1.21,0,0,0-.49,1,1.31,1.31,0,0,0,.08.43v.33h.19a1.18,1.18,0,0,0,.9.41,1,1,0,0,0,.52-.12,4.69,4.69,0,0,0,1.51-1.16l.61-.73h-.14a5.18,5.18,0,0,0,.45-1,9.45,9.45,0,0,0,1.09.8,1.18,1.18,0,0,0,.19.11,10.11,10.11,0,0,0,2.16,1.06,12.78,12.78,0,0,0,1.74.48,14.22,14.22,0,0,0,1.41.21h0c.19,0,.39,0,.63.06l.37,0h0q.71,0,1.44,0h.15c.45,0,.9,0,1.4-.11a17.69,17.69,0,0,0,2.45-.42,2,2,0,0,0,1-.55.67.67,0,0,1,.15.14.71.71,0,0,1,.1.14,1.6,1.6,0,0,1-.31,1.87.82.82,0,0,1-.28.15.78.78,0,0,0-.35-.18,1.2,1.2,0,0,0-1.5.76,9.27,9.27,0,0,1-1.57,2.92,7.63,7.63,0,0,1-1.27,1.27,7.78,7.78,0,0,1-4.95,1.8,8.36,8.36,0,0,1-7.77-6,1.18,1.18,0,0,0-.6-.68,1.16,1.16,0,0,0-.54-.13,1.21,1.21,0,0,0-.34,0,1.27,1.27,0,0,0-.4.21.94.94,0,0,1-.61-.54,1.39,1.39,0,0,1-.17-.51,1.41,1.41,0,0,1,.09-.9s0,0,0,0l0-.06a1,1,0,0,1,.12-.15,1.21,1.21,0,0,0,.69.28,1.17,1.17,0,0,0,.82-.28A1.27,1.27,0,0,0,124,90s0-.1,0-.14a9.63,9.63,0,0,1,.28-1.65A8.54,8.54,0,0,1,131,81.66a2.52,2.52,0,0,1,.35-.06,8.17,8.17,0,0,1,1.64,0,3.92,3.92,0,0,1,.41.07,7.7,7.7,0,0,1,3.18,1.26,8.18,8.18,0,0,1,1.61,1.44,9.06,9.06,0,0,1,2.13,4.69A16.71,16.71,0,0,1,137.6,89.44ZM117.35,85a4,4,0,0,0,.85-.71l.14-.17.06,1.26A3.07,3.07,0,0,1,117.35,85Z"/><path class="cls-3" d="M132.21,102.49a11.09,11.09,0,0,1-9.94-6.56,4.09,4.09,0,0,1-3.34-3.45,4.77,4.77,0,0,1,0-1.56,4.34,4.34,0,0,1,.48-1.33l.15-.26a3.31,3.31,0,0,1,1.08-1,2.91,2.91,0,0,1,.71-.34c0-.1,0-.21.08-.31a3.13,3.13,0,0,1-.57.3,4.2,4.2,0,0,1-1.2.34,3.66,3.66,0,0,1-1.4,0,4.84,4.84,0,0,1-1.91-.54,4.76,4.76,0,0,1-.8-.47,2.79,2.79,0,0,1-.32-.23.67.67,0,0,1-.16-.14,6.59,6.59,0,0,1-1.16-1.31l-.17-.31.44-.25-.45.22-.09-.18a1.7,1.7,0,0,1-.13-2,1.73,1.73,0,0,1,2.3-.56l.08,0s0,0,0-.08a1.06,1.06,0,0,0,.34-.58,5.31,5.31,0,0,0,0-.58V81c0-.24,0-.55,0-.87,0-.1,0-.26,0-.43a5.33,5.33,0,0,1,.14-.86,7,7,0,0,1,.48-1.45,6.44,6.44,0,0,1,.82-1.38l0-.07,0,0v0l.13-.14a6.23,6.23,0,0,1,1.1-1,4.07,4.07,0,0,1,1.59-.77,5.08,5.08,0,0,1,.79-.14,6,6,0,0,1,4.38,1.56,7.88,7.88,0,0,1,1.59,1.9l1.07,2.08a11.09,11.09,0,0,1,1.93-.54,3.13,3.13,0,0,1,.44-.07,10.13,10.13,0,0,1,1.35-.09h.67a2.65,2.65,0,0,1,.42.06,2.55,2.55,0,0,1,.62.1,9,9,0,0,1,2.43.69,8.43,8.43,0,0,1,1.17.6,10.33,10.33,0,0,1,1.83,1.32,12,12,0,0,1,3.37,5.2c.13.41.25.85.35,1.32a3.3,3.3,0,0,1,.87.46,3.59,3.59,0,0,1,1,1.15,4.29,4.29,0,0,1,.47,2.91A4.2,4.2,0,0,1,144,95.07a3.57,3.57,0,0,1-1.81.85,12.9,12.9,0,0,1-1.32,2.18,10.2,10.2,0,0,1-1.51,1.6A10.63,10.63,0,0,1,132.21,102.49ZM123.5,80.68l.26.16a4,4,0,0,1,1.21,1.7l.14.3-.22.24a10.92,10.92,0,0,0-2.46,4.76c-.05.21-.1.41-.14.62l-.05.26-.39.16a1.71,1.71,0,0,0-.66.27,2.19,2.19,0,0,0-.76.72l-.14.22a3.19,3.19,0,0,0-.35,1,3.55,3.55,0,0,0,0,1.22A3,3,0,0,0,122.61,95h.32l.13.29a10.11,10.11,0,0,0,9.15,6.23A9.64,9.64,0,0,0,138.69,99a9.77,9.77,0,0,0,1.38-1.46,11.54,11.54,0,0,0,1.31-2.24l.13-.28h.3a2.63,2.63,0,0,0,1.53-.65,3.25,3.25,0,0,0,1.09-2,3.35,3.35,0,0,0-.36-2.24,2.55,2.55,0,0,0-.73-.83,2.22,2.22,0,0,0-.82-.39l-.31-.08-.06-.31a11.72,11.72,0,0,0-.38-1.5,11.1,11.1,0,0,0-3.08-4.76A9.8,9.8,0,0,0,137,81a9,9,0,0,0-3.27-1.17,2.49,2.49,0,0,0-.58-.09,2.2,2.2,0,0,0-.33,0h-.63a9.88,9.88,0,0,0-1.22.08l-.35,0a10.17,10.17,0,0,0-2.18.66l-.42.19-1.48-2.87a6.5,6.5,0,0,0-1.38-1.63,5,5,0,0,0-3.64-1.32,4,4,0,0,0-.63.11,3.32,3.32,0,0,0-1.25.61,2.72,2.72,0,0,0-.57.46,3.62,3.62,0,0,0-.34.34l-.18.25a5.92,5.92,0,0,0-1.11,2.45,3.86,3.86,0,0,0-.12.72,2.73,2.73,0,0,0,0,.37q0,.45,0,.81v.35a6.09,6.09,0,0,1,0,.76,2,2,0,0,1-.65,1.16,1.5,1.5,0,0,1-.34.25.92.92,0,0,1-.65.06l-.31-.11a.71.71,0,0,0-1,.22.69.69,0,0,0,.08.81l.08.11.12.24-.45.22.47-.19.09.21,0,0a6,6,0,0,0,1,1.09l.17.13a.94.94,0,0,0,.22.15,3.14,3.14,0,0,0,.66.4,4.39,4.39,0,0,0,1.63.46,2.48,2.48,0,0,0,1.11,0,3.1,3.1,0,0,0,.94-.26,2.09,2.09,0,0,0,.46-.26,3.77,3.77,0,0,0,1.56-3.16V83.1a4.94,4.94,0,0,1,.15-1.52,1.46,1.46,0,0,1,.59-.74Zm.06,1.39a5.39,5.39,0,0,0-.06,1v.1l.42-.53A4.47,4.47,0,0,0,123.56,82.07Zm8.65,18A8.87,8.87,0,0,1,124,93.77a.7.7,0,0,0-.85-.44.51.51,0,0,0-.23.12l-.17.14-.22,0a1.41,1.41,0,0,1-1-.81,1.78,1.78,0,0,1-.23-.67,1.89,1.89,0,0,1,.15-1.2l.06-.11a.93.93,0,0,1,.21-.27l.33-.32.34.3a.64.64,0,0,0,.85,0,.8.8,0,0,0,.26-.55v-.15a10.53,10.53,0,0,1,.29-1.74,9.51,9.51,0,0,1,3.52-5.33l-2.11-2.41a2.23,2.23,0,0,0-1.65-.93,2,2,0,0,0-1.53.68,3.16,3.16,0,0,0-.67,1.12,5.77,5.77,0,0,0-.22,1.93v.49a1,1,0,0,1,0,.17v.14a2.74,2.74,0,0,1-.47,1.3,1.83,1.83,0,0,1-1.31.74,1.59,1.59,0,0,1-.39,0v0l-.6-.09-.21,0-.17,0a3.29,3.29,0,0,1-.86-.37l-.71-.43.71-.42a3.48,3.48,0,0,0,.74-.61l.61-.76.15-.69a1.59,1.59,0,0,0,.06-.3,7.09,7.09,0,0,0,0-.79v-.53c0-.17,0-.34,0-.51a4.45,4.45,0,0,1,0-.53,5.73,5.73,0,0,1,.27-1.18l.17-.38.06-.12.49.13-.45-.22a3.59,3.59,0,0,1,.48-.75l.18-.22a2.75,2.75,0,0,1,1.35-.86,2.36,2.36,0,0,1,.5-.08,3.67,3.67,0,0,1,2.52,1,6.35,6.35,0,0,1,1.09,1.25l2.1,4.15a8.36,8.36,0,0,1,3.45-1.43l.35-.06a7.55,7.55,0,0,1,1.78,0,2.76,2.76,0,0,1,.45.07,8.06,8.06,0,0,1,3.36,1.34A8.54,8.54,0,0,1,138.56,84,9.68,9.68,0,0,1,140.8,89l.07.46-.45.1a18.36,18.36,0,0,1-2.78.39h-.24c-.52,0-1.08,0-1.68,0A12.36,12.36,0,0,1,133,89.5l-.15,0a9.06,9.06,0,0,1-2-.83,8.59,8.59,0,0,1-2.63-2.25l-.09-.11a.64.64,0,0,0-.65-.24.7.7,0,0,0-.56.52l-.06.28-.06.27c-.27,1.24-.54,2.52-1.76,3.19l-.16.1a.7.7,0,0,0-.29.57.74.74,0,0,0,0,.25l.11.19a.68.68,0,0,0,.52.23.64.64,0,0,0,.24,0,4.47,4.47,0,0,0,1.41-1.08l.21-.25.21-.38a5.91,5.91,0,0,0,.41-.95l.23-.7.56.47a8.37,8.37,0,0,0,1,.75l.16.1a10.12,10.12,0,0,0,2.11,1,12.67,12.67,0,0,0,1.66.46,13,13,0,0,0,1.35.2l.66.07.35,0c.46,0,.92,0,1.4,0h.15c.44,0,.88,0,1.36-.1a18.16,18.16,0,0,0,2.38-.41,1.61,1.61,0,0,0,.74-.42l.29-.3.35.24a1.6,1.6,0,0,1,.24.22.91.91,0,0,1,.16.24,2.11,2.11,0,0,1-.42,2.48,1.46,1.46,0,0,1-.47.25l-.26.08-.2-.18a.35.35,0,0,0-.14-.07.7.7,0,0,0-.92.44,9.57,9.57,0,0,1-1.65,3.06,7.84,7.84,0,0,1-1.35,1.35A8.25,8.25,0,0,1,132.21,100.11ZM123.3,92.3a1.74,1.74,0,0,1,.77.18,1.69,1.69,0,0,1,.84,1,7.86,7.86,0,0,0,7.3,5.65,7.22,7.22,0,0,0,4.63-1.69A6.7,6.7,0,0,0,138,96.23a8.6,8.6,0,0,0,1.49-2.76,1.7,1.7,0,0,1,2.13-1.09.69.69,0,0,1,.21.08,1.12,1.12,0,0,0,.23-.54,1.13,1.13,0,0,0,0-.45,2.77,2.77,0,0,1-.73.31,19.65,19.65,0,0,1-2.52.43c-.5.06-1,.09-1.43.11l-.17-.49,0,.5c-.35,0-.7,0-1,0v0l-.83-.06a6.28,6.28,0,0,1-.67-.07,12.82,12.82,0,0,1-1.46-.21,13.68,13.68,0,0,1-1.8-.5,10.54,10.54,0,0,1-2.28-1.11L129,90.3l-.41-.27-1,1.13A5.06,5.06,0,0,1,126,92.45a1.43,1.43,0,0,1-.74.17,1.73,1.73,0,0,1-1.11-.41h-.46l0-.73s0,0,0,0a1.59,1.59,0,0,1-.9.2,1.33,1.33,0,0,1-.45-.08.88.88,0,0,0,0,.36.74.74,0,0,0,.1.33,1,1,0,0,0,.17.25,1.69,1.69,0,0,1,.28-.12A1.79,1.79,0,0,1,123.3,92.3Zm8.89-10.24a7.39,7.39,0,0,0-.8,0l-.27,0a8.08,8.08,0,0,0-6.37,6.15,8.87,8.87,0,0,0-.21,1l0,0h0a3.65,3.65,0,0,0,1.13-2.44l0-.23c0-.15.06-.26.09-.37a1.69,1.69,0,0,1,3-.63l.08.11a7.39,7.39,0,0,0,2.3,2,7.94,7.94,0,0,0,1.83.76l.19.06a11.39,11.39,0,0,0,2.46.4c.61,0,1.14,0,1.61,0l.21,0h0l.09,0,0,0a17.59,17.59,0,0,0,2.05-.26,8.74,8.74,0,0,0-1.94-4,8.1,8.1,0,0,0-1.51-1.35,7.36,7.36,0,0,0-3-1.18l-.39-.06A6,6,0,0,0,132.19,82.06Zm-13.14.76.48.11-.45,2h.08a.89.89,0,0,0,.66-.33,1.76,1.76,0,0,0,.29-.82v-.7a6.83,6.83,0,0,1,.27-2.25,4.16,4.16,0,0,1,.9-1.49,3,3,0,0,1,2.27-1,2.69,2.69,0,0,1,.53.06,5.43,5.43,0,0,0-.48-.48,2.08,2.08,0,0,0-2.1-.7,1.7,1.7,0,0,0-.76.46l-.23.26a2.76,2.76,0,0,0-.38.58l-.23.5a5.25,5.25,0,0,0-.22,1,2.61,2.61,0,0,0,0,.4c0,.15,0,.31,0,.48v.56c0,.29,0,.59,0,.91,0,.14-.05.26-.08.4l0,.13Z"/></g></g></svg>