<svg xmlns="http://www.w3.org/2000/svg" viewBox="0 0 321.41 214.9"><defs><style>.cls-1{fill:#60c6ea;}.cls-2{fill:#635555;}</style></defs><title>First Session</title><g id="Layer_2" data-name="Layer 2"><g id="Layer_3" data-name="Layer 3"><path class="cls-1" d="M62.27,149.48a1.5,1.5,0,0,0-1.23-.64H32c-2.18,0-4-2.17-5.22-4a31.89,31.89,0,0,1-3.11-6.6,42.13,42.13,0,0,1-1.74-6.67s0,0,0-.06l-2.44-14.14-.52-3a1.52,1.52,0,0,0-.49-.88,5.58,5.58,0,0,1-1.84-4.26,6.76,6.76,0,0,1,.17-1.5c.19-.75.37-1.51.53-2.27v0s0,0,0-.05a.75.75,0,0,0,0-.21,2.11,2.11,0,0,0,0-.25L15.83,96l-3-17.3A6.47,6.47,0,0,0,1.18,76.09,6.43,6.43,0,0,0,.09,80.92l9.08,52.77a59.14,59.14,0,0,0,3.91,12.9,29.44,29.44,0,0,0,8.1,11.29l-9.1,39.69a6.47,6.47,0,0,0,12.62,2.9l8.87-38.68h21l.32,1.32.11.43a1.48,1.48,0,0,0,1.38,1.14,1.5,1.5,0,0,0,1.49-1l4.54-12.85A1.49,1.49,0,0,0,62.27,149.48Zm-6.47,9.31H32.38A1.51,1.51,0,0,0,30.91,160l-9.14,39.84a3.44,3.44,0,0,1-4.16,2.61A3.49,3.49,0,0,1,15,198.24l9.32-40.63a1.48,1.48,0,0,0-.58-1.55c-3.1-2.23-5.77-5.83-7.92-10.69a55.35,55.35,0,0,1-3.69-12.18L3.05,80.41a3.46,3.46,0,0,1,2.83-4,3.92,3.92,0,0,1,.59-.05,3.48,3.48,0,0,1,3.42,2.88l4.45,25.85c-.14.62-.28,1.25-.45,1.9a9.79,9.79,0,0,0-.25,2.21c0,.32,0,.64,0,1a3.62,3.62,0,0,0,.06.46c0,.16.05.31.08.46s.07.31.11.46.08.29.13.44a3.12,3.12,0,0,0,.15.43.85.85,0,0,0,.09.22,6.43,6.43,0,0,0,.32.71A7.84,7.84,0,0,0,15,114s0,0,0,0a6.38,6.38,0,0,0,.49.67s0,0,0,0c.14.17.29.34.45.5l.08.09L19,132s0,0,0,0h0a41.92,41.92,0,0,0,5.29,14.41c2.31,3.57,4.91,5.37,7.74,5.37H58.92l-2.5,7.08A1.6,1.6,0,0,0,55.8,158.79Z"/><path class="cls-1" d="M76.61,197.49l-3.16-13-.1-.43A1.49,1.49,0,0,0,72,182.9a1.52,1.52,0,0,0-1.49,1l-6,16.92a1.5,1.5,0,0,0,.08,1.19,6.33,6.33,0,0,0,1.89,2.21,6.44,6.44,0,0,0,3.85,1.27,6.66,6.66,0,0,0,1.53-.18,6.47,6.47,0,0,0,4.76-7.82Zm-3.32,3.33a3.47,3.47,0,0,1-5.72.31l4.06-11.48,2.07,8.55A3.44,3.44,0,0,1,73.29,200.82Z"/><path class="cls-1" d="M249.5,187.66l-.9-5.86-1.92,7.87c0,.21,0,.42,0,.63h0a1.46,1.46,0,0,0-.08,1.16h0a16.12,16.12,0,0,0,1.84,3.56l1.06-4.36.17-.65v0A17,17,0,0,0,249.5,187.66Zm0,0-.9-5.86-1.92,7.87c0,.21,0,.42,0,.63a1.48,1.48,0,0,1,.84-.75,1.51,1.51,0,0,1,1.91.92c0,.07.05.15.08.22l.17-.65v0A17,17,0,0,0,249.5,187.66Z"/><path class="cls-1" d="M321.31,80.92l-9.08,52.77a59.14,59.14,0,0,1-3.91,12.9,29.45,29.45,0,0,1-8.11,11.29l9.11,39.69a6.5,6.5,0,0,1-4.86,7.76,6.73,6.73,0,0,1-1.46.16,6.43,6.43,0,0,1-6.3-5l-8.87-38.68H266.78l-.52,2.14-1.3,5.33h0l-7.31,30.13-.28,1.14a6.2,6.2,0,0,1-.69,1.72,6.44,6.44,0,0,1-5.6,3.23,6.66,6.66,0,0,1-1.53-.18,6.41,6.41,0,0,1-4-2.93,6.94,6.94,0,0,1-.51-1,6.39,6.39,0,0,1-.26-3.87l.23-1,1.67-6.87c0,.21,0,.42,0,.63h0a1.46,1.46,0,0,0-.08,1.16h0a16.12,16.12,0,0,0,1.84,3.56l-.6,2.49a0,0,0,0,1,0,0l-.16.64a3.47,3.47,0,0,0,2.55,4.19,3.58,3.58,0,0,0,.85.1,3.44,3.44,0,0,0,3-1.73,3.23,3.23,0,0,0,.37-.92l.52-2.16,8.17-33.6,1-4.14a1.4,1.4,0,0,1,.47-.77,1.49,1.49,0,0,1,1-.38H289a1.49,1.49,0,0,1,1.46,1.16l9.14,39.85a3.43,3.43,0,0,0,4.17,2.6,3.49,3.49,0,0,0,2.61-4.16l-9.33-40.63a1.5,1.5,0,0,1,.59-1.55c3.1-2.23,5.76-5.83,7.92-10.69a56,56,0,0,0,3.69-12.18l9.08-52.78a3.47,3.47,0,1,0-6.84-1.18L302.43,132a0,0,0,0,0,0,0h0a41.92,41.92,0,0,1-5.29,14.41c-2.31,3.57-4.91,5.37-7.74,5.37H255.9a3.48,3.48,0,0,0-.37,6.93,1.53,1.53,0,0,1,1.06.63,1.51,1.51,0,0,1,.23,1.22L249.69,190a17,17,0,0,0-.19-2.35l-.9-5.86v0l5-20.43a6.47,6.47,0,0,1,2.34-12.51h33.49c2.17,0,4-2.17,5.22-4a38.6,38.6,0,0,0,4.85-13.27s0,0,0-.06l9.08-52.78a6.47,6.47,0,1,1,12.76,2.19Z"/><path class="cls-2" d="M20.69,114.58a5.12,5.12,0,0,1-2.21-1.13,1.52,1.52,0,0,1,.49.88l.52,3,.5.13,9.31,2.21h0a19.11,19.11,0,0,1,.81-1.75,1.51,1.51,0,0,1,1.5-.78Zm0,0a5.12,5.12,0,0,1-2.21-1.13,1.52,1.52,0,0,1,.49.88l.52,3,.5.13,9.31,2.21h0a19.11,19.11,0,0,1,.81-1.75,1.51,1.51,0,0,1,1.5-.78Zm38.37-4.46a5.88,5.88,0,0,0-.59-.53,8.55,8.55,0,0,0-3.56-1.78l-1-.23L38.43,103.9l-2.92-.7L33,102.6,34.84,91l.08-.48.13-.8a1.5,1.5,0,0,0-2-1.63h0c-.26.11-.51.21-.76.29-4.83,1.74-8.11.09-10.09-1.76a11,11,0,0,1-1.5-1.71l-.32-.47a1.49,1.49,0,0,0-1.57-.66A1.5,1.5,0,0,0,17.57,85s0,0,0,.07c0,.17,0,.34-.08.51-.56,3.5-1.15,7.19-1.65,10.44-.4,2.5-.74,4.74-1,6.42-.13.79-.27,1.58-.43,2.35,0,0,0,0,0,0s0,.15-.05.23c-.14.62-.28,1.25-.45,1.9a9.79,9.79,0,0,0-.25,2.21c0,.32,0,.64,0,1a3.62,3.62,0,0,0,.06.46c0,.16.05.31.08.46s.07.31.11.46.08.29.13.44a3.12,3.12,0,0,0,.15.43.85.85,0,0,0,.09.22,6.43,6.43,0,0,0,.32.71A7.84,7.84,0,0,0,15,114s0,0,0,0a6.38,6.38,0,0,0,.49.67s0,0,0,0c.14.17.29.34.45.5l.08.09.41.38a8.06,8.06,0,0,0,3,1.65l.5.13,9.31,2.21h0l3,.7,18.6,4.41a8.82,8.82,0,0,0,2,.24,9.06,9.06,0,0,0,1.27-.1,8.68,8.68,0,0,0,6.38-4.44,8.08,8.08,0,0,0,.62-1.37c.09-.26.17-.54.24-.83a8.42,8.42,0,0,0,.18-1,9.2,9.2,0,0,0,.06-1A8.77,8.77,0,0,0,59.06,110.12ZM53.72,122a5.57,5.57,0,0,1-2.15-.09l-19.76-4.68-.19,0-10.93-2.6a5.12,5.12,0,0,1-2.21-1.13,5.58,5.58,0,0,1-1.84-4.26,6.76,6.76,0,0,1,.17-1.5c.19-.75.37-1.51.53-2.27v0s0,0,0-.05c.17-.79.31-1.6.44-2.4.51-3.31,1.36-8.78,2.22-14.17a12.19,12.19,0,0,0,11.68,3l-1.91,11.8a1.51,1.51,0,0,0,1.14,1.7l5.37,1.27.19,0,17,4,.15,0,.14,0,.48.12a5.77,5.77,0,0,1,4.42,5.58,6.21,6.21,0,0,1-.16,1.34c0,.18-.1.37-.16.54A5.71,5.71,0,0,1,53.72,122Zm-33-7.41a5.12,5.12,0,0,1-2.21-1.13,1.52,1.52,0,0,1,.49.88l.52,3,.5.13,9.31,2.21h0a19.11,19.11,0,0,1,.81-1.75,1.51,1.51,0,0,1,1.5-.78Zm0,0a5.12,5.12,0,0,1-2.21-1.13,1.52,1.52,0,0,1,.49.88l.52,3,.5.13,9.31,2.21h0a19.11,19.11,0,0,1,.81-1.75,1.51,1.51,0,0,1,1.5-.78Z"/><path class="cls-2" d="M78.11,103.5,74.86,83.33A1.5,1.5,0,0,0,72,83.1c-.17.52-4,12.16-2.49,20.8l-15.52,3.68-.34.08a1.5,1.5,0,0,0-.15,2.87l.15,0,.14,0,.21,0a2.21,2.21,0,0,0,.35,0l4.17-1,13.1-3.11h0L77,105.2A1.5,1.5,0,0,0,78.11,103.5Zm-5.72-.3A37.58,37.58,0,0,1,73.05,91l1.88,11.6Z"/><path class="cls-2" d="M33,60.57c0,.65,0,1.34,0,2.09,0,.35,0,.71,0,1.07l-1,.36c-.68.26-1.33.52-1.95.8a24,24,0,0,0-4.2,2.38,1.69,1.69,0,0,1-.29.17s-2.1,1.18-3.09,6.45c-.32,1.67-.85,4.86-1.63,9.71-.07.43-.14.87-.21,1.33l0,.16-.08.43a1.57,1.57,0,0,1-.65,1,1.28,1.28,0,0,1-.47.2.35.35,0,0,1-.14,0l-.21,0a1.36,1.36,0,0,1-.29,0,.53.53,0,0,1-.18,0l-.07,0a1.51,1.51,0,0,1-.22-.11.8.8,0,0,1-.21-.15.77.77,0,0,1-.18-.18,1.37,1.37,0,0,1-.15-.21,1.51,1.51,0,0,1-.19-.94s0,0,0-.07l.07-.42c.05-.33.11-.66.16-1,.82-5.14,1.39-8.52,1.72-10.27,1.17-6.25,3.87-8.14,4.67-8.57A30,30,0,0,1,30,61.66l1-.38C31.6,61,32.29,60.79,33,60.57Z"/><path class="cls-2" d="M93.14,113.68a8.33,8.33,0,0,1-5.23,3.82l-.16,0-3.59.47-5,.66H79a1.5,1.5,0,0,1-1.48-1.3,1.51,1.51,0,0,1,1.18-1.67l.11,0,8.51-1.11A5.36,5.36,0,0,0,91.17,108l-.08-.32a48.64,48.64,0,0,1-1-4.77c-.85-5.49-3.69-23.8-4.67-29s-3.12-6.47-3.14-6.48a.72.72,0,0,1-.24-.14c-3.8-2.73-9.72-4.78-17.13-5.92a83.18,83.18,0,0,0-11-1c-.6,0-2.65,0-5.51.3L47,60.83,45.45,61q0-.8-.12-1.53c0-.49-.09-1-.16-1.45h0l1.5-.17,1.49-.14c3-.26,5.13-.3,5.79-.31a86,86,0,0,1,11.43,1c7.93,1.23,14.09,3.38,18.33,6.39.79.43,3.5,2.32,4.67,8.57,1,5.27,3.84,23.62,4.69,29.12a45.61,45.61,0,0,0,.92,4.48l.09.32A8.35,8.35,0,0,1,93.14,113.68Z"/><path class="cls-2" d="M38.43,103.9c-.08.51-.19,1-.31,1.49a1.51,1.51,0,0,1-1.45,1.13,1.65,1.65,0,0,1-.38,0,1.5,1.5,0,0,1-1.08-1.82c.12-.47.22-1,.3-1.45A37.14,37.14,0,0,0,34.84,91c0-.14-.05-.28-.08-.41l0-.16a1.42,1.42,0,0,1-.51.4.66.66,0,0,1-.21.08l-.13,0-.31,0a1.53,1.53,0,0,1-.3,0,1.66,1.66,0,0,1-.21-.06h0l-.23-.11a1.7,1.7,0,0,1-.22-.15.77.77,0,0,1-.18-.18,1.58,1.58,0,0,1-.24-.39h0a1.41,1.41,0,0,1-.12-.57,1.94,1.94,0,0,1,0-.24l.14-.85c.25-.08.5-.18.76-.29h0c.48-.21,1-.45,1.55-.75l.51-.28A14.14,14.14,0,0,0,36.76,86c.17.61.34,1.31.52,2.08.08.35.16.7.24,1.07C38.46,93.49,39.23,99.16,38.43,103.9Z"/><path class="cls-2" d="M34.81,44.9c-2.62,0-5-2.66-5.59-6.36-.47-2.93.35-5.71,2.07-7.09l.69-.53,1.84,2.36-.67.53c-.72.57-1.29,2.23-1,4.26.37,2.34,1.78,4,2.76,3.82l.47,3A4,4,0,0,1,34.81,44.9Z"/><path class="cls-2" d="M71.09,44.9a4.07,4.07,0,0,1-.61,0l.47-3c1,.16,2.39-1.48,2.76-3.82s-.45-4.33-1.44-4.49l.47-3c2.84.45,4.57,3.93,3.93,7.92C76.09,42.24,73.7,44.9,71.09,44.9Z"/><path class="cls-2" d="M35.15,43.21a1.5,1.5,0,0,1-.74-2.8,1.55,1.55,0,0,1,.44-.17c11.5-2.42,21.91-10.55,25.86-17a2.3,2.3,0,0,1,4.24.84,8.59,8.59,0,0,0,7.78,7.32,1.5,1.5,0,1,1-.2,3,11.65,11.65,0,0,1-10.18-8.21C57.49,33,47.16,40.71,35.5,43.17A1.34,1.34,0,0,1,35.15,43.21Z"/><path class="cls-2" d="M33.36,38.09a1.49,1.49,0,0,1-1.48-1.27,21.12,21.12,0,0,1-.25-3.28A21.34,21.34,0,0,1,53,12.22c12.15,0,21.32,8.65,21.32,20.13a1.5,1.5,0,1,1-3,0c0-9.77-7.88-17.13-18.32-17.13A18.34,18.34,0,0,0,34.63,33.54a18.92,18.92,0,0,0,.21,2.82,1.49,1.49,0,0,1-1.25,1.71Z"/><path class="cls-2" d="M53,54.86A20.88,20.88,0,0,1,33.39,42.44a1.5,1.5,0,1,1,2.75-1.19A17.92,17.92,0,0,0,53,51.86,18.3,18.3,0,0,0,69.83,40.67a1.5,1.5,0,1,1,2.76,1.17A21.3,21.3,0,0,1,53,54.86Z"/><path class="cls-2" d="M37,47.28a2.63,2.63,0,0,0-.38.3c-2.55,2.22-3.21,8.47-3.47,10.88-.07.66-.11,1.36-.13,2.11s0,1.34,0,2.09c0,.35,0,.71,0,1.07,0,1,.08,1.91.13,2.85a44.11,44.11,0,0,1-.3,10.62c-.71,3.56-2.3,6.16-4.74,7.75a11,11,0,0,1-6,1.69,12.68,12.68,0,0,1-2.24-.13h0a1.28,1.28,0,0,1-.47.2.35.35,0,0,1-.14,0l-.21,0a1.36,1.36,0,0,1-.29,0,.53.53,0,0,1-.18,0l-.07,0a1.51,1.51,0,0,1-.22-.11.8.8,0,0,1-.21-.15.77.77,0,0,1-.18-.18,1.34,1.34,0,0,1-.11-.14l0-.07c-.12-.18-.21-.33-.27-.43l-.08-.15a1.53,1.53,0,0,1,.19-1.64.93.93,0,0,1,.21-.19,1.48,1.48,0,0,1,1.37-.29l.26.06a10.57,10.57,0,0,0,1.41.22,8.89,8.89,0,0,0,5.61-1.16c1.74-1.14,2.89-3.09,3.44-5.81a41.7,41.7,0,0,0,.25-9.89l-.09-1.85c0-.72-.06-1.45-.08-2.18,0-.36,0-.71,0-1.05,0-1.3.07-2.43.18-3.52.53-5,1.51-10.43,4.68-13a3.27,3.27,0,0,1,.37-.28l.12-.09.08,0A1.5,1.5,0,0,1,37,47.28Z"/><path class="cls-2" d="M37.52,89.1l-1,.57L36,90c-.37.2-.72.38-1.07.54l-.16.07-.54.24-.08,0-.13,0-.13,0-.31,0a1.53,1.53,0,0,1-.3,0,1.66,1.66,0,0,1-.21-.06h0l-.23-.11a1.7,1.7,0,0,1-.22-.15.77.77,0,0,1-.18-.18,1.41,1.41,0,0,1-.24-.39h0a1.41,1.41,0,0,1-.12-.57,1.94,1.94,0,0,1,0-.24,1.49,1.49,0,0,1,.9-1.14h0c.48-.21,1-.45,1.55-.75l.51-.28A14.14,14.14,0,0,0,36.76,86c8.31-6.09,9.15-17.55,8.69-25q0-.8-.12-1.53c0-.49-.09-1-.16-1.45h0c-.18-1.6-.44-3.21-.77-4.8,0-.26-.1-.51-.15-.76a1.5,1.5,0,1,1,2.93-.64c.18.81.33,1.62.47,2.44Q48,56,48.16,57.7c.06.5.11,1,.16,1.5s.08,1,.11,1.49C49,69,48,82.33,37.52,89.1Z"/><path class="cls-2" d="M39.89,147.11c-3.15,0-7.31-.88-9.74-5-6.85-11.33-.31-23.66,0-24.17a1.5,1.5,0,1,1,2.63,1.43h0c-.06.11-6,11.35,0,21.2,3,5.11,10.28,3.2,10.58,3.11l.11,0,19.3-3.78a1.5,1.5,0,1,1,.58,2.94l-19.25,3.77A17.25,17.25,0,0,1,39.89,147.11Z"/><path class="cls-2" d="M84.47,142.55a12.27,12.27,0,0,0-22.42.53c-.09.22-.18.44-.26.67L60,148.84l-3.57,10.08-1.48,4.19-12.52,35.4a12.29,12.29,0,1,0,23.17,8.2l.88-2.49,1.1-3.09,4.06-11.48,1.82-5.18,8-22.68,1.32-3.72L85,151.94A12.2,12.2,0,0,0,84.47,142.55Zm-14,41.35-6,16.92-1.73,4.89a9.3,9.3,0,0,1-18.06-3.1,9.11,9.11,0,0,1,.54-3.1l12.67-35.82,4.54-12.85,2.16-6.09a9.2,9.2,0,0,1,4.75-5.29,9.21,9.21,0,0,1,7.1-.37,9.27,9.27,0,0,1,5.66,11.85Z"/><path class="cls-2" d="M104.59,189.5a12.33,12.33,0,0,1-10.67-6.14L79.85,159a1.5,1.5,0,0,1,2.6-1.5l14.07,24.37a9.29,9.29,0,0,0,17-2.25,9.2,9.2,0,0,0-.92-7.05l-28.85-50a8.36,8.36,0,0,1-.4-.79C81,116.7,70.58,119,70.48,119l-.12,0L60.05,120.6a1.5,1.5,0,1,1-.45-3l10.25-1.55c1.09-.25,12.87-2.74,16.23,4.43.09.2.18.4.28.58l28.85,50a12.3,12.3,0,0,1-10.62,18.44Z"/><path class="cls-1" d="M202.39,112.15H104.66a6.59,6.59,0,1,0,0,13.17h42.28v67h-4.5a6.59,6.59,0,0,0,0,13.17h22.17a6.59,6.59,0,0,0,0-13.17h-4.5v-67h42.28a6.59,6.59,0,1,0,0-13.17Zm0,10.17H158.61a1.5,1.5,0,0,0-1.5,1.5v70a1.5,1.5,0,0,0,1.5,1.5h6a3.59,3.59,0,0,1,0,7.17H142.44a3.59,3.59,0,0,1,0-7.17h6a1.5,1.5,0,0,0,1.5-1.5v-70a1.5,1.5,0,0,0-1.5-1.5H104.66a3.59,3.59,0,1,1,0-7.17h97.73a3.59,3.59,0,1,1,0,7.17Z"/><path class="cls-2" d="M261,148.84h-3.18l-.61-1.77-.35-1a1.51,1.51,0,0,1,.93-1.91,1.4,1.4,0,0,1,.49-.08,1.49,1.49,0,0,1,1.42,1l.69,2Z"/><path class="cls-2" d="M249.66,191.05a15.64,15.64,0,0,1-.89,4.44c-.11-.14-.21-.29-.31-.44a16.12,16.12,0,0,1-1.84-3.56h0a1.46,1.46,0,0,1,.08-1.16h0a1.48,1.48,0,0,1,.84-.75,1.51,1.51,0,0,1,1.91.92c0,.07.05.15.08.22Z"/><path class="cls-2" d="M265.51,202.52a13.79,13.79,0,0,1-4.53.78,10.43,10.43,0,0,1-4.3-1,6.2,6.2,0,0,0,.69-1.72l.28-1.14a7.61,7.61,0,0,0,3.33.9,10.58,10.58,0,0,0,10-14.1l-6-16.93h0l1.3-5.33.12.35,7.4,20.93A13.59,13.59,0,0,1,265.51,202.52Z"/><path class="cls-2" d="M220.85,123.65a1.47,1.47,0,0,1-.58-.12,1.5,1.5,0,0,1-.81-2,10.8,10.8,0,0,1,8.1-6.87,11.55,11.55,0,0,1,2.72-.18c3.86,0,12.18.4,24.74,1.17a1.5,1.5,0,0,1,1.41,1.59,1.47,1.47,0,0,1-1.59,1.4c-12.5-.77-20.76-1.16-24.56-1.16a12.49,12.49,0,0,0-1.95.08.65.65,0,0,1-.2,0,7.89,7.89,0,0,0-5.9,5.08A1.5,1.5,0,0,1,220.85,123.65Z"/><path class="cls-2" d="M244.71,105.65H200.35a9.15,9.15,0,0,1-9.14-9.14V95.38a9.15,9.15,0,0,1,9.14-9.14h37.2a2.78,2.78,0,0,0,2.3-1.21l5.29-7.69c2.94-4.28,5.73-8.74,8.28-13.26A1.5,1.5,0,1,1,256,65.56c-2.6,4.59-5.43,9.13-8.42,13.48l-5.29,7.69a5.8,5.8,0,0,1-4.77,2.51h-37.2a6.15,6.15,0,0,0-6.14,6.14v1.13a6.15,6.15,0,0,0,6.14,6.14h44.36a6.15,6.15,0,0,0,5.1-2.72l.16-.21.13-.17,22-32a1.5,1.5,0,1,1,2.47,1.7l-22,32-.24.32-.08.1A9.1,9.1,0,0,1,244.71,105.65Z"/><path class="cls-2" d="M283.93,144.92a13.59,13.59,0,0,1-7.32,2.15H243.26l5.34,34.71v0l.9,5.86a17,17,0,0,1,.19,2.35v0c0,.34,0,.68,0,1a15.64,15.64,0,0,1-.89,4.44,13.45,13.45,0,0,1-.91,2,0,0,0,0,1,0,0,14.91,14.91,0,0,1-2.82,3.8,13.82,13.82,0,0,1-7.27,3.78,13.45,13.45,0,0,1-10.29-2.37,15.4,15.4,0,0,1-6.13-10.18l-8.68-52.5a28.4,28.4,0,0,1-.57-4.16v-.1a15.42,15.42,0,0,1,7.29-13.28,13.53,13.53,0,0,1,3.76-1.56,13.13,13.13,0,0,1,3.21-.39h28.42l-.14-1.93-.21-3-.21-3.06-1-8.51-.31-3.32h0l-.38-4.11a1.45,1.45,0,0,1,.2-.9.47.47,0,0,1,.06-.09,1.46,1.46,0,0,1,1.09-.64,1.49,1.49,0,0,1,1.63,1.35l.05.54.64,6.86,1,8.55.67,9.69a1.51,1.51,0,0,1-1.49,1.6h-30c-6.19,0-11.24,5.46-11.26,12.17a24.12,24.12,0,0,0,.48,3.6.76.76,0,0,1,0,.16l8.7,52.59a12.39,12.39,0,0,0,4.92,8.21,10.48,10.48,0,0,0,8,1.86,11.26,11.26,0,0,0,7.77-5.65,12.92,12.92,0,0,0,1.61-5h0c0-.38.06-.77.07-1.17h0c0-.21,0-.42,0-.63a13.72,13.72,0,0,0-.15-1.56L240,145.8a1.49,1.49,0,0,1,1.48-1.73h35.1a10.55,10.55,0,0,0,5.76-1.72l.14-.08c7-3.5,11.13-15.17,10.18-23.27l-6.85-57.67a19,19,0,0,0-7.07-12.78,16.13,16.13,0,0,0-12.16-3.31,16.51,16.51,0,0,0-8.54,3.89,1.33,1.33,0,0,1-.19.14L232.19,65.22a7.33,7.33,0,0,1-6,.81L198,57.58a5.6,5.6,0,0,0-4.43.51,6.55,6.55,0,0,0-3.1,4.14,6.81,6.81,0,0,0,4.29,8.31l32.82,9.84.18.06a5.65,5.65,0,0,0,5.38-.35L250,69.62a.91.91,0,0,1,.22-.11h0a1.5,1.5,0,0,1,1.35,2.66l-5.06,3.14-11.8,7.32a8.55,8.55,0,0,1-8.09.59l-32.73-9.81c-4.82-1.44-7.66-6.79-6.33-11.93a9.64,9.64,0,0,1,4.53-6,8.65,8.65,0,0,1,6.76-.77l28.22,8.46a4.3,4.3,0,0,0,3.54-.49L256.2,46.78a19.51,19.51,0,0,1,10-4.51,19.08,19.08,0,0,1,14.4,3.91A22,22,0,0,1,288.82,61l6.85,57.68C296.74,127.72,292.18,140.71,283.93,144.92Z"/><path class="cls-2" d="M264.69,12.51a1.39,1.39,0,0,0,.16-.51c.07-.51.6-5-2.28-6.57a1.52,1.52,0,0,0-1.76.26,1.33,1.33,0,0,0-.23.3C254.08,1.39,244-.67,231.67.19A1.5,1.5,0,0,0,231,3c.38.24.86.52,1.37.8-3.35,1.12-8,3.44-10.71,8.11a1.5,1.5,0,0,0,1.29,2.26h3.68c-.15.22-.3.45-.44.69a2,2,0,0,0-.13.25,21,21,0,0,0-.81,2.66A21.28,21.28,0,0,0,246,43.86a21.29,21.29,0,0,0,18.74-31.35Zm-8.75,25.38a18.28,18.28,0,0,1-27.79-19.48,17.08,17.08,0,0,1,.65-2.14,18.15,18.15,0,0,1,2-2.59,1.5,1.5,0,0,0-1.07-2.55h-3.85c4.22-4.51,10.79-5.37,10.86-5.38A1.5,1.5,0,0,0,237.42,3c10.18.06,18.27,2.41,23.12,6.8a2,2,0,0,0,1.39.64h0a1.5,1.5,0,0,0-.65,2.19,18.29,18.29,0,0,1-5.34,25.25Z"/></g></g></svg>