<svg xmlns="http://www.w3.org/2000/svg" viewBox="0 0 649.9 215.06"><defs><style>.cls-1{fill:#f5fbff;}</style></defs><title>fma-light</title><g id="Layer_2" data-name="Layer 2"><g id="Layer_1-2" data-name="Layer 1"><g id="Layer_1-2-2" data-name="Layer 1-2"><path class="cls-1" d="M123,0c2.81,1.4,5.84,2.49,8.39,4.26,8.26,5.73,11.39,16,8.16,25.69-3,9.07-12,15.23-21.91,15.09-9.52-.15-18.38-6.54-20.93-15.68-3.21-11.5,1.21-21.9,11.38-27C109.71,1.54,111.36.78,113,0Z"/><path class="cls-1" d="M0,88c.55-1.19,1.14-2.37,1.64-3.59,4-9.76,14.53-15.86,24.46-14.11,10.63,1.87,18.54,10.53,19,20.81.54,11.42-6.13,20.72-16.86,23.52a23,23,0,0,1-26.62-13.5L0,97Z"/><path class="cls-1" d="M49.8,77.18,41.88,67.13c1.37-.69,3-1.65,4.73-2.36A166.32,166.32,0,0,1,92.34,52.94c23.75-2.57,47.19-.52,70.33,4.88,10.66,2.49,21.07,6,31.59,9.15a18.4,18.4,0,0,1,2.44,1.2l-8.16,9.35c-2.06-.67-4.27-1.35-6.45-2.09a192.66,192.66,0,0,0-44.77-9.6c-7.11-.63-14.25-1.75-21.35-1.59C93.56,64.73,71.54,67.62,50.82,77A5.89,5.89,0,0,1,49.8,77.18Z"/><path class="cls-1" d="M96.54,213.57H83.39c-.12-1.94-.35-3.85-.35-5.77,0-20-.32-40,.06-59.91.4-20.4-12.76-35.16-30.95-40.12-1.42-.39-2.85-.8-4.5-1.27a20.12,20.12,0,0,1,1-2.46c1.61-2.89,3.27-5.75,5.1-8.93C70.85,101,86,109.18,93.64,126.59a36.7,36.7,0,0,1,3.23,13.94c.31,23,.13,45.93.09,68.9A33.74,33.74,0,0,1,96.54,213.57Z"/><path class="cls-1" d="M156,213.57H142.46a40.58,40.58,0,0,1-.46-4.25q-.06-34.23,0-68.45c0-9.4,3.73-17.55,9.52-24.68,7.87-9.68,20.84-17.5,34-20.84.93,1.71,1.93,3.57,2.94,5.42l3,5.47c-3.65,1.24-7.1,2.25-10.43,3.57-16,6.33-25,19.51-25,36.66Q156,177,156,207.42Z"/><path class="cls-1" d="M140.92,99.21c-.49,13-10.41,22.31-22.83,22.34-12.85,0-22.18-10.24-22.39-23.12-.17-10.18,8.44-22.24,22.42-22.09C133.27,76.51,140.76,88.12,140.92,99.21Z"/><path class="cls-1" d="M215.93,115.14A22.4,22.4,0,0,1,193,93.28c0-.23,0-.46,0-.69A22.81,22.81,0,0,1,215.62,70a22.55,22.55,0,0,1,22.51,22.52,22,22,0,0,1-21.37,22.61Z"/><path class="cls-1" d="M110.37,133.42c5.12,2.39,9.65,1.86,14.3.36v81H113c-1.82,0-2.71-1-2.76-2.82V137.11C110.19,136.08,110.28,135.11,110.37,133.42Z"/><path class="cls-1" d="M354.32,90.92h-7.5c.47-3.38.8-6.45,1.34-9.47,2-11,4-21.94,6-32.91.15-.81.42-1.61.55-2.43.26-1.56.6-3,2.64-3,1.84,0,2.63,1.13,3.09,2.71q2.81,9.59,5.63,19.16l2.63,9c.65-1.78,1.08-2.77,1.37-3.79q2.85-9.84,5.65-19.69c.32-1.12.66-2.23,1-3.34.59-1.87.74-4.21,3.56-4,2.52.21,2.41,2.38,2.76,4.12.48,2.45.9,4.91,1.36,7.37q3,16.44,6.06,32.89c.17.94.19,1.91.31,3.26h-7.48q-2.12-11.39-4.22-22.8l-.64.06q-3.07,9.21-6.16,18.41a10.63,10.63,0,0,1-1,2.8,18.65,18.65,0,0,1-2.63,2.55c-.71-.83-1.73-1.54-2.08-2.5-1.59-4.38-3-8.83-4.48-13.25A38.21,38.21,0,0,0,358.66,68Z"/><path class="cls-1" d="M296,135l6-21a71,71,0,0,1,2.17-7.15,2.56,2.56,0,0,1,4.88.19,47.09,47.09,0,0,1,1.31,6.33c2.16,11.44,4.34,22.87,6.47,34.31.27,1.44.33,2.92.54,4.78h-7.14c-1.48-7.81-2.94-15.57-4.41-23.33l-.67-.09-6,17.83a30.24,30.24,0,0,1-1.47,4.23c-.39.78-1.31,1.74-2,1.77s-1.71-.9-2.08-1.66a47.19,47.19,0,0,1-1.83-5.16,141.56,141.56,0,0,0-6.49-16.9q-1.59,8.37-3.17,16.75c-.09.49-.12,1-.21,1.49-1.07,5.66-1.56,6-8.21,4.83.16-1.54.21-3.14.5-4.69q3.39-18.65,6.87-37.28a7.46,7.46,0,0,1,.54-2.42c.61-1,1.35-2.35,2.33-2.68,1.75-.59,2.65.8,3.12,2.39Q290.5,119.27,294,131l1.14,3.79Z"/><path class="cls-1" d="M531.82,104.77c5.74,0,11.2-.32,16.61.09,5.61.42,9.86,3.36,11.18,9.11s.31,11.28-4.64,15.37c-.75.62-1.54,1.2-2.55,2,4,6.81,7.93,13.49,11.89,20.21-6.09,2.43-8,1.83-10.95-3.14-2.55-4.3-5.1-8.59-7.56-12.94-1.26-2.22-2.81-3.17-6-1.57v14.5c-.06,4-.71,4.55-4.74,4.4-3.24-.12-3.82-.5-3.83-3.78-.06-13.82,0-27.64,0-41.46A19,19,0,0,1,531.82,104.77Zm8.26,20.86c4.42-.12,8.33.45,10.95-3.3a7.16,7.16,0,0,0-.25-7.57c-1.84-2.46-6.11-3.17-10.7-1.69Z"/><path class="cls-1" d="M571.11,190.28c.33-6.24,1.53-12,5-17.16,7.48-11.1,24-10.81,30.17,1.06a32.66,32.66,0,0,1-.51,32c-3.72,6.71-10.22,9.36-17.78,8.67-7.18-.65-12-4.82-14.2-11.53C572.44,199.15,572,194.65,571.11,190.28Zm30.55-.21c-.69-3.69-1-7.18-2-10.46-1.24-4-4.41-6.11-8.62-6.4a8.74,8.74,0,0,0-9,5.86,28.49,28.49,0,0,0,.45,23.21c1.68,3.7,5.09,5.15,9.1,4.54a9.14,9.14,0,0,0,7.73-6.26c1.17-3.4,1.61-7,2.34-10.49Z"/><path class="cls-1" d="M379.19,190.5c.34-7.15,1.88-13.64,6.45-19.19,7.21-8.76,21.64-8,28,1.4,5.92,8.78,5.86,25.5-.12,34.21-4.28,6.22-10.37,8.74-17.67,7.93-7.13-.8-11.9-5-14-11.79C380.59,199,380.05,194.7,379.19,190.5Zm30.67,0c-.6-3.76-.78-6.79-1.61-9.63-1.48-5.13-5.1-7.79-9.77-7.72-4.07.06-7.45,2.7-9,7.41a30.16,30.16,0,0,0,.2,19.59c1.57,4.62,4.22,6.65,8.23,6.75,4.51.12,7.86-2,9.39-6,1.33-3.56,1.85-7.39,2.56-10.38Z"/><path class="cls-1" d="M625.65,213.81h-7.48c-.15-1.67-.39-3.1-.39-4.54V170.83a7.44,7.44,0,0,1,0-2c.26-.88.6-2.25,1.18-2.4a4.33,4.33,0,0,1,3.14.59,9.76,9.76,0,0,1,2.14,2.72q7.54,10.56,15.07,21.13c.55.77,1.15,1.51,2.47,3.25V166.45h7.59c.15,1.74.42,3.34.42,5v38.44c0,1.72.72,4.07-1.55,4.79-2.53.8-3.33-1.66-4.43-3.22-4.8-6.79-9.54-13.63-14.31-20.44-1-1.49-2.11-2.93-3.87-5.35Z"/><path class="cls-1" d="M523.72,129.14c-.88,3.93-1.43,8.61-3,12.91-2.77,7.53-9.25,11.29-17.75,11.12-7.49-.14-13-4.09-15.61-11.75-3.07-9-3.18-18,.9-26.78,4.25-9.09,13.28-12.8,22.49-9.62,5.86,2,9.38,6.31,11,12C522.76,120.71,523,124.58,523.72,129.14Zm-8.14-1.37c-.74-3.16-1.22-7-2.56-10.45-1.41-3.66-4.45-5.5-8.63-5.5s-7,1.69-8.61,5.45a28.69,28.69,0,0,0,.1,23.16c2.53,6,9.82,7.17,14.48,2.65a13.22,13.22,0,0,0,3.36-5.38c.93-3,1.19-6.13,1.86-9.93Z"/><path class="cls-1" d="M360.14,153V105.21c6.2-.51,12.19-1.34,18,.35,8.74,2.57,12.64,9.25,13.66,17.86a36.18,36.18,0,0,1-1.8,16.25c-2.58,7.33-7.9,11.42-15.5,12.33C369.94,152.59,365.31,152.67,360.14,153Zm7.7-8.81c7,1.53,11.78-.79,14.2-7a25.17,25.17,0,0,0,.87-16.6,11.37,11.37,0,0,0-11.48-8.53c-3.54,0-4.06.59-4.05,4v25.36a15.26,15.26,0,0,0,.46,2.77Z"/><path class="cls-1" d="M324.22,152.67V105.25h27.07v7.15H332.18v10.95h13.44v7.51H332.24v13.86H350.7c.15,2.74.28,4.94.43,7.74C342,153.07,333.31,152.81,324.22,152.67Z"/><path class="cls-1" d="M306.66,90.9a22.11,22.11,0,0,1,.63-3.12c4.8-13.45,9.59-26.9,14.52-40.31.68-1.83.57-4.7,3.62-4.66s2.9,2.84,3.58,4.7c4.58,12.47,9.05,25,13.54,37.48.61,1.69,1.12,3.42,1.78,5.44-3.26.8-6.5,2-8.59-.53-1.71-2-2.13-5.14-3.23-8.05H320.65a3.14,3.14,0,0,0-3.27,2.5c-.3,1-.6,1.9-.92,2.84-1.37,3.94-1.37,4-5.64,4C309.53,91.14,308.24,91,306.66,90.9Zm19.11-31.07c-1.82,4.86-4.23,9.35-4.65,14.49h9Z"/><path class="cls-1" d="M478.62,213.2c1.32-3.77,2.6-7.5,3.93-11.22q5.81-16.23,11.64-32.44a15.52,15.52,0,0,1,1.09-2.79,2.45,2.45,0,0,1,3.24-1.22,2.42,2.42,0,0,1,1.19,1.15,8.67,8.67,0,0,1,.75,1.84q7.83,21.61,15.63,43.23a10.82,10.82,0,0,1,.24,1.8c-2.9.64-6.23,1.72-8.28-.54-1.88-2.07-2.37-5.39-3.67-8.64-3.87,0-7.84-.11-11.79.08-.92.05-1.92,1-2.63,1.8a6.54,6.54,0,0,0-.9,2.3C486.92,214.8,486.32,215.09,478.62,213.2Zm23.74-15.75c-1.64-5.43-3.05-10.1-4.45-14.76h-.83c-1.39,4.79-2.77,9.57-4.28,14.78Z"/><path class="cls-1" d="M452.12,152.5c-2.2.13-3.68.18-5.14.3-2.37.18-3.51-.94-4.32-3.17-2.42-6.71-2.52-6.67-9.67-6.67h-2.5c-4.59.06-4.59.06-6,4.22-2.1,6.16-2.48,6.36-9.71,5a6.64,6.64,0,0,1,.11-1.78c5-14,9.9-27.92,15-41.83.62-1.68.5-4.42,3.32-4.33s2.64,2.68,3.28,4.43q7.41,20.14,14.66,40.35C451.44,149.9,451.65,150.84,452.12,152.5ZM433.6,120.85c-2.12,5-4.44,9.61-4.79,14.91H438C436.41,130.48,435,125.66,433.6,120.85Z"/><path class="cls-1" d="M284.84,204.32c-.8,2.45-1.55,4.29-2,6.21-.64,2.73-2.15,3.95-5,3.56-1.45-.19-2.92-.19-4.81-.3.51-1.8.83-3.22,1.32-4.58q7.11-19.94,14.28-39.86a12.75,12.75,0,0,1,.91-2.31c1.29-2.16,3.31-2.17,4.62,0a12.92,12.92,0,0,1,1,2.29q7.45,20.61,14.88,41.23a26.69,26.69,0,0,1,.73,3.06c-1.19.18-2.14.42-3.09.46-5.2.19-5.16.16-6.95-4.89-1.72-4.83-.59-4.87-7-4.85Zm7.57-21.56-1-.07-4.23,14.61h9.45Z"/><path class="cls-1" d="M347.37,210.79l2.75-6.93a26.09,26.09,0,0,0,3.86,1.81,22.12,22.12,0,0,0,6.3,1.16c4.92-.17,7-4.3,4.32-8.41a19.38,19.38,0,0,0-4.67-4.41c-2-1.47-4.32-2.51-6.36-3.94-5.8-4.07-7.8-10.44-5.37-16.66,2.29-5.86,8.64-9.21,15.57-7.93a78.9,78.9,0,0,1,8.36,2.54c-1,3-1.74,5.27-2.45,7.43a81.53,81.53,0,0,0-8-2.35,4.86,4.86,0,0,0-5.73,3,4.64,4.64,0,0,0,1.41,5.85,68.55,68.55,0,0,0,8.11,5.73c4.18,2.55,7.21,5.84,8.16,10.79A12.88,12.88,0,0,1,368.42,212C362.6,216.42,353.49,215.91,347.37,210.79Z"/><path class="cls-1" d="M453.48,202.49c1.31,2.46,2.39,4.47,3.41,6.37-7.13,8.71-21.81,8.16-28.35-1.11a25,25,0,0,1-4-9.55c-1.69-8.88-1.18-17.51,4.36-25.32,5.94-8.35,19.23-10.3,26.76-3.58l-2.9,6.3c-1-.41-1.74-.69-2.46-1-7.08-3.06-12.9-1-16.08,6a23.27,23.27,0,0,0-.67,18.47c3.11,8.2,10.59,10.31,17.68,5.11C451.78,203.81,452.29,203.41,453.48,202.49Z"/><path class="cls-1" d="M317.55,204.46c3.76.95,6.75,2.24,9.78,2.35,5.26.19,7.51-3.95,4.74-8.46a16.79,16.79,0,0,0-4.61-4.4c-2.15-1.55-4.63-2.65-6.8-4.17a13.6,13.6,0,0,1-5.38-15c1.54-5.57,5.47-8.61,11.08-9.38a19.27,19.27,0,0,1,5.92.19c7.46,1.31,8,2.37,4.68,9.89a24.42,24.42,0,0,0-3-1.21,23.86,23.86,0,0,0-5.79-1.2c-4.3,0-6.42,4.06-4.1,7.72a13.55,13.55,0,0,0,3.5,3.46c1.88,1.36,3.93,2.48,5.94,3.65,8.63,5,8.63,12.49,7.2,17.92-1.58,6-9.16,10-16.63,9-3.28-.41-6.5-1.24-9.24-4C315.83,208.51,316.82,206.19,317.55,204.46Z"/><path class="cls-1" d="M285.41,51.38V61.62c2.49.1,4.91.23,7.33.28s4.56,0,7.16,0V69l-14.57.6V90.76l-8,.36V43.44c9.41-.72,18.74-.27,28.38-.34v7.59C299.2,51.71,292.57,50.67,285.41,51.38Z"/><path class="cls-1" d="M589.87,113.81a71,71,0,0,0-7.11-2.3,5.45,5.45,0,0,0-6.31,2.86,5.16,5.16,0,0,0,1.37,6.38,79.29,79.29,0,0,0,8.63,5.91c4.93,3,7.6,7.18,7.69,13.1s-2.64,10.05-7.91,12.09c-6.16,2.37-12.32,2.19-18.28-2.18.87-2.29,1.67-4.41,2.61-6.87,2.27.86,4.21,1.72,6.21,2.34,4,1.23,7.79.25,9-2.18,1.26-2.63.24-6.23-3-8.78-2.6-2.05-5.55-3.65-8.34-5.47A13.22,13.22,0,0,1,568,116.52c.2-5.9,3.69-10.89,9.46-11.94a29.09,29.09,0,0,1,10.8.5c3.78.8,4.11,2,2.88,5.82C590.81,111.82,590.35,112.7,589.87,113.81Z"/><path class="cls-1" d="M548.86,166.7v7.13H535.19c-.5,7.09-.19,13.68-.25,20.24s0,12.87,0,19.65h-8.06c-.29-13,0-25.88-.19-39.43H513.36v-7.37C516.82,165.79,542.75,165.54,548.86,166.7Z"/><path class="cls-1" d="M460,63.06c2.79-5.42,5.17-10,7.5-14.58,3.09-6.06,3.07-6.07,10.52-4.79a26.18,26.18,0,0,1-1.24,3.55c-3.42,6.67-6.81,13.35-10.41,19.91a18.49,18.49,0,0,0-2.37,10c.18,4.44,0,8.89,0,13.65h-8c0-4.65-.15-9.09,0-13.52a19.1,19.1,0,0,0-2.49-10.48c-3.6-6.56-6.94-13.27-10.37-19.93-.44-.86-.79-1.76-1.19-2.65,6-2.37,7.64-1.78,10.34,3.54C454.77,52.63,457.23,57.49,460,63.06Z"/><path class="cls-1" d="M470.24,112.29v39.76a22.75,22.75,0,0,1-3.75.71c-3.78.05-4.25-.36-4.28-4.31-.06-10,0-19.95,0-29.92v-5.94H449.14v-7.34c11.7-.77,23.35-.18,35.35-.36v7.4Z"/><path class="cls-1" d="M415.37,90.67c-.11-1.85-.28-3.47-.29-5.1V49.12c0-6.4.61-6.82,8.19-5.24V83.09h19.45v7C439.41,91.35,423.73,91.72,415.37,90.67Z"/><path class="cls-1" d="M556.12,166.25h6.51c1.49,3.92,1.69,42.32.24,47.51H556.2C554.86,210.05,554.7,171.5,556.12,166.25Z"/><path class="cls-1" d="M472.79,213.69c-2,.2-3,.35-4,.36s-2.29-.1-3.94-.19c-1.4-7.94-.48-15.86-.65-23.72s0-15.54,0-23.7h8c1.17,7.76.38,15.68.52,23.54S472.79,205.52,472.79,213.69Z"/><path class="cls-1" d="M397.43,43.4h7.34V90.65a33.45,33.45,0,0,1-3.46.47,29.37,29.37,0,0,1-3.38-.23C396.79,87.28,396.39,52,397.43,43.4Z"/><path class="cls-1" d="M407.47,152.19a8.39,8.39,0,0,1-1.77.53c-4.92.41-5.58-.14-5.6-5v-38c0-1.45.23-2.9.38-4.58h6.62C408.23,108.9,408.5,146.28,407.47,152.19Z"/></g></g></g></svg>