<svg xmlns="http://www.w3.org/2000/svg" viewBox="0 0 203.06 247"><defs><style>.cls-1{fill:#472e8b;}</style></defs><title>fmc</title><g id="Layer_2" data-name="Layer 2"><g id="Layer_1-2" data-name="Layer 1"><path class="cls-1" d="M0,193V2.5C0,0,0,0,2.5,0H203c0,1.83-.09,3.66-.09,5.49q0,60,0,120c0,13.69-5,25.28-14.76,34.8-10.63,10.41-23.77,15.84-38.3,17.49a89.61,89.61,0,0,1-45-6.25c-4.28-1.78-8.58-3.56-12.94-5.16a72.1,72.1,0,0,0-43.6-1.88A96.66,96.66,0,0,0,8.66,185.69C5.81,188.17,2.89,190.57,0,193ZM44.93,42.53h0c0,2.17,0,4.33,0,6.5.07,2.88.44,3.3,3,3.4,2.37.1,2-1.66,2-3.09,0-3.5,0-7,0-10.5,0-2.44.87-3.25,3.2-3.32S56.94,36.63,57,39c.14,3.66.1,7.33.07,11,0,1.81,1,2.22,2.54,2.24s2.49-.51,2.47-2.28c0-3.83,0-7.66,0-11.49a3.52,3.52,0,0,1,.31-1.89c1.47-2,5.78-1.5,6.77.92a11.38,11.38,0,0,1,.59,3.88c.09,3.16,0,6.33.11,9.49a2.22,2.22,0,0,0,.82,1.65c1.29.71,4.09-.84,4.12-2.3.1-3.33.12-6.67,0-10-.18-7.33-4.39-10.57-11.46-8.9a23.94,23.94,0,0,1-2.38.72A5.3,5.3,0,0,1,58.26,32c-3.8-1.85-7.49-.71-11.21.18A2.54,2.54,0,0,0,44.91,35C45,37.53,44.93,40,44.93,42.53ZM12.77,79.32h0c0,2.67-.07,5.33,0,8,0,1.47,1.5,2.35,3.25,2.14,1.5-.18,1.13-1.42,1.14-2.3.05-3.82-.07-7.65.05-11.48.07-2.23.63-2.62,3.17-3,2.25-.32,3.91.45,4.34,2.25A15.39,15.39,0,0,1,25,78.42c0,3-.07,6,0,9,.07,1.92.64,2.15,2.56,2s2.47-1.16,2.43-3c-.08-3.66,0-7.32-.06-11-.05-1.65.53-2.36,2.16-2.65,3.5-.63,5.36.63,5.54,4.36.16,3.46.06,7-.1,10.42-.05,1.12.34,1.5,1.27,1.63,2.54.36,3.35-.25,3.39-2.84.07-3.49-.08-7,0-10.48.13-5-2.06-7.59-8-7.8-1.29,0-2.59.52-3.9.63-1.63.13-3.45.55-4.89,0-3.37-1.21-6.54-.42-9.79.2-1.9.37-2.93,1.34-2.85,3.4C12.84,74.66,12.77,77,12.77,79.32ZM88,73.74c0-4.49,0-9,0-13.48,0-2.07-1-2.84-3.16-2.76-2,.07-1.79,1.58-1.82,2.89,0,1.16,0,2.33,0,3.49-.07,1.47.11,3.12-.53,4.31-.25.48-2.4-.13-3.69-.12a11.33,11.33,0,0,0-2.45.36A10.21,10.21,0,0,0,68,78.76c-.08,5.46,2.66,9.2,7.89,10.65a20.64,20.64,0,0,0,9.85,0c2-.4,2.3-1.44,2.28-3.13C87.92,82.07,88,77.9,88,73.74Zm59,5c0,6.45,4.19,11.26,10.79,11.18,6.78-.08,10.37-3.91,10.94-11.12.44-5.72-4.73-10.65-10.88-10.66C152,68.1,147.36,71.9,147,78.71ZM57.47,80.16v0c1.66,0,3.33.07,5,0,2.17-.11,2.6-.56,2.42-2.75-.35-4.28-2.39-7.94-6.6-8.89a10.37,10.37,0,0,0-11,4c-2,2.84-2.28,11,.82,14.14,3.27,3.33,10.27,4.45,14.42,2.09,1.25-.71,2.08-2.87,1.19-3.81-.41-.43-1.69-.13-2.56,0s-1.59.47-2.41.64a7.38,7.38,0,0,1-6.46-1.75c-.67-.56-.87-1.68-1.28-2.54a9.81,9.81,0,0,1,2.44-1A31.19,31.19,0,0,1,57.47,80.16Zm60.66.37h0a41,41,0,0,0-.08-6.47,8.27,8.27,0,0,0-2-4.35c-2.21-2.2-8.88-2.37-11.32-.32a4.16,4.16,0,0,0-1,3.47c.3,1.38,1.61.37,2.5.22,1.14-.19,2.36-.73,3.41-.5a6.9,6.9,0,0,1,3.26,1.88c.85.87.07,2.28-1.16,2.49a44.12,44.12,0,0,0-6.33,1.14c-2.73.89-3.71,2.84-3.49,5.87.19,2.57,1.5,4.49,4,5a27.9,27.9,0,0,0,7.36.82c4.75-.27,4.92-.63,4.95-5.3C118.14,83.19,118.13,81.86,118.13,80.53Zm54-.83h0c0,2.66-.08,5.32.07,8a2.4,2.4,0,0,0,1.32,1.79,2.78,2.78,0,0,0,3.6-2.74c.06-3.66,0-7.31,0-11,0-.78.23-2.17.56-2.23a18.14,18.14,0,0,1,5.33-.43c1.65.15,2.54,1.54,2.74,3.13a37.9,37.9,0,0,1,.08,4c0,2.49,0,5,.1,7.47,0,1.3,1,1.55,2.09,1.52s2.69.17,2.69-1.43c0-4.79-.12-9.6-.51-14.37-.2-2.5-2-3.87-4.46-4.73-4.25-1.45-8.2,0-12.21.75-.61.12-1.34,1.48-1.4,2.31C172,74.37,172.08,77,172.08,79.7ZM40.86,44.53H40.7a44.61,44.61,0,0,0-.06-6.94c-1-6.09-8.57-8.94-13.55-5.24a2.87,2.87,0,0,0-.92,3.54c.11.31,1.61.21,2.46.14A15.74,15.74,0,0,1,31,35.56a8.76,8.76,0,0,1,3.66,1,3.36,3.36,0,0,1,.89,2.54c0,.3-1.25.72-2,.89-2.07.48-4.31.51-6.2,1.35A5.37,5.37,0,0,0,24,46.85c.19,2.68,1.84,4.14,4.08,5.11a15.73,15.73,0,0,0,8.31.89c4.24-.52,4.47-.85,4.49-5.33C40.87,46.52,40.86,45.53,40.86,44.53Zm63.42,16.38c2.25,0,2.41,0,3.32-2.23,1.22-2.91,2.33-5.86,3.46-8.81,2-5.27,4.07-10.53,6-15.82.68-1.84-.15-2.83-2-2.56a3.38,3.38,0,0,0-3,2.29c-.75,2.2-1.5,4.39-2.3,6.58-.73,2-1.51,4-2.26,6-.9-2.07-1.81-4.12-2.67-6.2-1.08-2.61-2-5.29-3.21-7.83-.64-1.36-2.59-1.54-4-.65-1.16.76-.6,1.68-.23,2.61,1.71,4.32,3.3,8.69,5.13,13,1.62,3.77,2.41,7.37.24,11.25C101.84,60.39,102.34,60.91,104.28,60.91ZM13.1,43.81h0c0,2.16-.1,4.33,0,6.48s1.3,2.75,3.42,2.06c1.45-.47,1.57-1.47,1.57-2.7,0-3.83,0-7.65,0-11.48,0-1.36.38-2.26,1.92-2.25a6.72,6.72,0,0,0,1.49-.06,2,2,0,0,0,1.46-3A3.46,3.46,0,0,0,21,31.79c-2.77-.8-3.26-1.41-2.93-4,.3-2.28.95-2.81,3.73-2.89.5,0,1,.18,1.49.16a1.51,1.51,0,0,0,1.52-2,3.76,3.76,0,0,0-1.48-2.27A6.79,6.79,0,0,0,14.13,24a19.73,19.73,0,0,0-1,5.33,2.63,2.63,0,0,1-1.68,2.58c-2.09,1-2.08,3,0,3.89a2.3,2.3,0,0,1,1.65,2.54ZM123.87,79.38h0a31.73,31.73,0,0,1,0,4.47c-.69,4.79,5.84,7.83,10.15,5.12.68-.44.84-2,.9-3,0-.29-1.19-.88-1.87-.93-4.08-.33-4.1-.29-4.16-4.07,0-2,.07-4,0-6,0-1.48.65-2.1,2.08-2.06.49,0,1,0,1.49,0,2-.06,1.85-1.68,1.93-2.89.1-1.52-1.28-1.25-2.15-1.2-2.06.1-3.67-.08-3.41-2.8.17-1.73-.9-2.28-2.49-2.25s-2.55.49-2.45,2.28c.06,1.35,0,2.37-1.78,3s-1.92,3.28-.3,3.65c2.22.52,2,1.75,2.06,3.23C123.88,77.06,123.87,78.22,123.87,79.38ZM89.17,36h0c0,4.66,0,9.33,0,14,0,1.79,1,2.25,2.53,2.24s2.52-.47,2.51-2.26q0-13.48,0-27c0-1.79-1-2.23-2.53-2.25s-2.52.49-2.5,2.26C89.19,27.38,89.17,31.71,89.17,36ZM50,115.88a9.73,9.73,0,0,0-10.36-10.14c-5.89.35-9.64,4.13-9.7,10.28-.07,7.77,5.63,11,10.29,10.92C45.76,126.81,50.05,121.91,50,115.88ZM84.17,42h0c0-2.82.07-5.65,0-8.47a2.35,2.35,0,0,0-3.78-2,3.57,3.57,0,0,0-1.17,2.5c-.11,5.32,0,10.64-.07,16,0,1.74.93,2.28,2.53,2.25s2.54-.5,2.51-2.28C84.13,47.32,84.17,44.66,84.17,42Zm58.94,36.92c0-3,0-6,0-9a1.85,1.85,0,0,0-.51-1.32c-1.15-.85-4.38.8-4.4,2.28-.07,5.3-.05,10.6-.06,15.9a4.13,4.13,0,0,0,0,.5,3,3,0,0,0,3.7,2.22c.56-.12,1.19-1.41,1.23-2.19C143.2,84.55,143.11,81.73,143.11,78.92ZM97.91,79h0c0-2.82,0-5.65,0-8.47,0-1.65-1.18-1.76-2.41-1.71S93,68.75,93,70.45c0,5.65-.06,11.3,0,16.94,0,1.41,1.47,2.27,3.27,2.14,1.27-.09,1.62-1,1.63-2.06C97.94,84.64,97.91,81.82,97.91,79ZM69,115.79h0c0-2.66,0-5.32,0-8,0-.53-.51-1-.78-1.57a8,8,0,0,0-1.1,1.79,7.27,7.27,0,0,0,0,2c0,4.16-.08,8.31,0,12.46,0,1.64-.52,2.52-2.26,2.46-.83,0-1.66,0-2.49,0-5.34-.12-7.14-1.92-7.21-7.22-.05-3.48,0-7-.1-10.46,0-.35-.48-.7-.73-1.05-.34.29-1,.57-1,.87-.06,4.64-.21,9.3,0,13.93a5.44,5.44,0,0,0,3.33,4.69,15.66,15.66,0,0,0,10.22.81,2.43,2.43,0,0,0,2.17-2.78C68.93,121.11,69,118.45,69,115.79Zm5.06.87h.07c0,2.66,0,5.33,0,8,0,.39.46.77.7,1.15.39-.39,1.11-.77,1.12-1.17.1-4,.11-8,.1-12,0-4.57,0-4.57,4.4-5.3,5.07-.83,7.57,1.2,7.64,6.24,0,3,0,6,0,9a8.81,8.81,0,0,0,.11,2.47c.16.54.82.93,1.26,1.38.21-.43.61-.85.61-1.28,0-4.66,0-9.32,0-14,0-2.66-1.62-4.26-4-5.09-3.46-1.19-6.86-.39-10.23.45a2.36,2.36,0,0,0-1.78,2.64C74.12,111.67,74.08,114.17,74.08,116.66ZM104.94,127c.82-.31,2.5-.92,4.15-1.6.24-.09.34-.52.51-.8-.4-.19-.79-.52-1.19-.52a5.85,5.85,0,0,0-1.4.45c-6.73,1.88-10.29-1.41-11.43-7.4a8,8,0,0,1,10.3-9.31,20,20,0,0,0,2.37.69c.36.05.79-.36,1.19-.57-.23-.35-.38-.86-.71-1a10.21,10.21,0,0,0-11.55,1A10.71,10.71,0,0,0,94.08,120C95.54,124.09,99.59,127,104.94,127ZM11.77,116.12c-.87,7.64,7.4,13.41,15.15,9.49.37-.19.52-.78.78-1.18a3.84,3.84,0,0,0-1.33-.36c-.64.09-1.25.46-1.89.6-5.15,1.12-9.36-1.16-10.5-5.78-1.53-6.17,1-9.67,5.89-11.35,2.32-.8,4.22.06,6.22.87.21.09.77-.09.78-.19a3.2,3.2,0,0,0-.11-1.38,1.21,1.21,0,0,0-.73-.61C17.44,103.35,11.07,109.15,11.77,116.12ZM122.12,111h0c0-4.13,0-8.27,0-12.41a22.26,22.26,0,0,0-.21-2.95c0-.2-.44-.47-.69-.48a.88.88,0,0,0-.76.4,6.52,6.52,0,0,0-.31,1.91q0,12.92,0,25.82a2.5,2.5,0,0,0,0,1,12.36,12.36,0,0,0,1,1.48c.33-.45.95-.9.95-1.35C122.15,120,122.12,115.51,122.12,111Zm-6.22,4.82h0c0-2.83,0-5.65,0-8.48a1.35,1.35,0,0,0-.77-1c-.26-.07-1,.43-1,.68q-.07,9,0,17.93c0,.29.61.57.94.85.28-.33.8-.65.81-1C115.92,121.84,115.9,118.85,115.9,115.86ZM98.18,62.53a2.92,2.92,0,0,0-2.55-3.09,3.62,3.62,0,0,0-3.45,2.9,3,3,0,0,0,3.24,2.88C97.24,65.19,98.17,64.28,98.18,62.53ZM82,22.79a2.86,2.86,0,0,0-3,2.67c-.06,1.52,1.74,3.33,3.18,3.2a3.71,3.71,0,0,0,2.78-3.11A2.93,2.93,0,0,0,82,22.79Zm58.65,36.67a3.46,3.46,0,0,0-2.75,3.07,2.84,2.84,0,0,0,3,2.66,3.1,3.1,0,0,0,3.07-2.61A3.53,3.53,0,0,0,140.64,59.46ZM116.46,100.1c-.83-.49-1.4-1.08-1.76-1-.51.15-.87.82-1.29,1.27.44.37.89,1,1.33,1S115.65,100.77,116.46,100.1Z"/><path class="cls-1" d="M0,221c9.84-10.07,20.83-18.55,33.78-24.3a91.38,91.38,0,0,1,24.82-6.89c14.87-2.05,28.71,1.17,42.13,7.13a95.9,95.9,0,0,0,43.14,8.35c13.68-.51,26.19-4.33,37.35-12.17,10.88-7.64,18.33-17.73,20.9-31,.1-.48.23-1,.34-1.44a8.23,8.23,0,0,1,.37,1.73c0,7.16.54,14.37-.07,21.48A45.37,45.37,0,0,1,192,209.64c-10.46,12.47-24.09,19-39.88,21.44-18,2.84-35-.34-51.49-7.68-12.67-5.66-25.88-8.49-39.75-7.34a83.91,83.91,0,0,0-36.58,12.1A107.32,107.32,0,0,0,1.61,245.92,9.63,9.63,0,0,1,0,247Z"/><path class="cls-1" d="M83,79.28c0,1.16,0,2.33,0,3.49-.07,2.92-.73,3.52-3.63,2.78-2-.51-4.29-.72-5.47-3a7.15,7.15,0,0,1,0-7.13c1.4-2.52,4-2.78,6.45-3,1.56-.16,2.54,1.09,2.63,2.88.06,1.33,0,2.66,0,4Z"/><path class="cls-1" d="M163.44,79.26c0,3.5-2.48,6.36-5.53,6.4S152.45,83.36,152,80c-.35-2.91.9-5.81,3-6.86C159.35,71,163.44,73.92,163.44,79.26Z"/><path class="cls-1" d="M55.26,76.92a4.57,4.57,0,0,1-1,0c-1-.22-2.05-.49-3.07-.75.67-1,1.12-2.36,2-3.09a3.75,3.75,0,0,1,5.32.45,9.05,9.05,0,0,1,1.19,2.57,22.72,22.72,0,0,1-2.54.81A9.85,9.85,0,0,1,55.26,76.92Z"/><path class="cls-1" d="M113.17,82.34c0,3.29-.34,3.67-2.34,3.66-2.67,0-3.83-.83-3.94-2.76s1.71-2.9,5-2.57C112.53,80.74,113,82.14,113.17,82.34Z"/><path class="cls-1" d="M33.36,49c-2.87,0-4.45-1-4.31-2.82.11-1.5,2.26-2.86,4.59-2.9,1.62,0,2.2.8,2.19,3.07S35.51,49,33.36,49Z"/><path class="cls-1" d="M47.92,116.24c-.11,5.42-3.22,8.8-8.07,8.76s-8-3.67-7.85-9.45c.11-4.84,3.52-8.56,8-8.39C44,107.31,48.08,110.4,47.92,116.24Z"/></g></g></svg>