<?xml version="1.0" encoding="utf-8"?>
<!-- Generator: Adobe Illustrator 23.0.2, SVG Export Plug-In . SVG Version: 6.00 Build 0)  -->
<svg version="1.1" id="Layer_1" xmlns="http://www.w3.org/2000/svg" xmlns:xlink="http://www.w3.org/1999/xlink" x="0px" y="0px"
	 viewBox="0 0 210.7 160.4" style="enable-background:new 0 0 210.7 160.4;" xml:space="preserve">
<style type="text/css">
	.st0{clip-path:url(#SVGID_2_);}
	.st1{fill:#161821;}
	.st2{fill:#F08080;}
</style>
<title>future</title>
<g>
	<g id="Layer_3">
		<g>
			<defs>
				<rect id="SVGID_1_" x="-5.3" y="-6.1" width="223.1" height="167.6"/>
			</defs>
			<clipPath id="SVGID_2_">
				<use xlink:href="#SVGID_1_"  style="overflow:visible;"/>
			</clipPath>
			<g class="st0">
				<path class="st1" d="M84.1,120.4l-0.7-9.6c-0.1-1.3-0.2-2.5-0.3-3.8s-0.2-2.7-0.3-4l-0.4-5.3c-0.2-2-0.3-4-0.5-6
					c-0.1-1.4-0.2-2.8-0.3-4.3c-0.1-1.8-0.3-3.7-0.4-5.5c0-0.7-0.2-1.5-0.7-2.1c-0.3-0.4-0.4-0.9-0.3-1.4c0-0.4,0-0.8,0-1.2
					c1.1-0.6,1.8-1.7,2-2.9c0.3-1.6,0.6-3.1,0.9-4.6c0.4-1.4-0.1-2.9-1.3-3.9c-0.4-0.3-0.8-0.6-1.2-0.8c-0.2-0.1-0.3-0.2-0.5-0.3
					l-0.3-0.1H68.8l-0.9,0.3c-2,0.7-3.1,2.8-2.7,4.8c0.3,1.1,0.5,2.2,0.7,3.3l0.2,1.3c0.1,1.1,0.7,2.1,1.6,2.6
					c0.3,0.2,0.4,0.3,0.4,1.2c0,0.3,0,0.6,0,0.8c0,0.3-0.1,0.6-0.3,0.8c-0.4,0.6-0.6,1.2-0.7,1.9c-0.1,0.4-0.1,0.7-0.2,1.1
					c0,0.3-0.1,0.7-0.2,1l-1.6,23.8l-0.5,7.5l-0.3,4l0,0l-0.1,1.1c0,0.8-0.1,1.6-0.2,2.4c-0.3,2,0.8,3.9,2.6,4.7
					c0.6,0.2,1.2,0.5,1.7,0.9c1.6,1,3.1,2.1,4.7,3.1c0.3,0.2,0.6,0.3,1,0.3c0.4,0,0.8-0.1,1.1-0.4c1.6-1.1,3.2-2.2,4.8-3.2
					c0.5-0.3,1-0.6,1.6-0.8c1.6-0.7,2.7-2.3,2.6-4.1C84.2,122.3,84.2,121.4,84.1,120.4z M80.1,123.6c-0.5,0-0.9,0.2-1.2,0.5
					l-4.7,3.1c-1.4-0.9-2.8-1.9-4.1-2.8c-0.6-0.4-1.2-0.6-1.9-0.8l0.1-2c0.1-1.1,0.1-2.2,0.2-3.3c0.1-1.3,0.2-2.5,0.3-3.8l1.8-24.5
					c0.1-1.9,0.3-3.8,0.4-5.7l0.1-1.6l2,0.6v-4.2l-0.8-0.2c0,0-0.1,0-0.1-0.1v-0.1c0-0.4,0-0.8,0-1.3v-0.8c0,0,0.1,0,0.1,0l0.9-0.2
					v-3.5L72.2,73c-0.7-0.1-1.5,0-2.2,0.4c-0.3-1.5-0.6-3-0.8-4.6h0.1c3.3,0,6.5,0,9.8,0h0.1c0,0,0,0.1,0,0.1l-0.8,4.4
					c-0.7-0.4-1.5-0.5-2.2-0.4l-0.9,0.1v3.6l1,0.2c0,0.5,0,1,0,1.6V79c-0.2,0.1-0.4,0.2-0.6,0.3c-0.3,0.3-0.5,0.8-0.4,1.3v2.9
					l2.1-0.6c0,0.1,0,0.1,0,0.2l2.7,36.6c0.1,1.2,0.2,2.3,0.3,3.5c0,0.2,0,0.4,0,0.4H80.1z M65.2,107.7l-0.5,7.5"/>
				<path class="st1" d="M169.8,49.1c-2.8-6.4-10.2-9.3-16.6-6.5c-3.1,1.3-5.5,3.9-6.7,7l-12,30.9c0,0-30.8-12.2-31.2-12.3
					c-7.2-3.9-22.2-4.3-29.7-4.3c-6.7-0.1-13.5,0.4-20.1,1.5c-3.2,0.4-6.3,1.3-9.3,2.8c-3.2,1.7-6.5,2.7-9.2,5.2
					c-0.9,0.8-1.7,1.7-2.6,2.6L21.6,86.5c-5.9,5.9-11.9,11.8-17.8,17.7c-4,3.9-4.9,10-2.3,14.9c0.6,1.7,1.6,3.2,2.9,4.5l31.3,31.3
					c1.3,1.3,2.9,2.3,4.6,2.9c0,7.2,0,13.4,0,18c0,31.1-6.3,124.7-6.3,125.6v0.2c0,11.3,8.1,20.4,18,20.4s18-9.1,18-20.4l1.5-113.3
					c0-0.2,0.1-0.4,0-0.4h3c0.1,0.1,0.2,0.2,0.2,0.4l2,113.2c0,11.3,8.1,20.4,18.1,20.4s18-9.1,18-20.5c0-1-5.7-96.6-5.7-127.6v-77
					l29.2,11.6c1.5,0.6,3,0.9,4.6,0.9c3.9,0,7.6-1.8,10-4.9c1.3-1.2,2.3-2.8,2.9-4.4L170,58.7C171.2,55.6,171.1,52.1,169.8,49.1z
					 M165.3,56.9l-16,41.2c-0.4,1-1.1,2-1.9,2.8l-0.3,0.3c-2.1,2.7-5.7,3.7-8.8,2.5L102.1,90v3.9v81.9c0.1,16.6,1.5,47.8,2.9,75
					s2.8,50.4,2.8,50.8c0,8.5-5.8,15.4-13,15.4s-13-6.9-13-15.4l-1.9-113.3c0-2.8-2.2-5.2-5-5.3h-3.3c-2.8,0.1-5.1,2.5-5,5.3
					l-1.5,113.3c0,8.5-5.8,15.4-13,15.4s-13-6.9-13-15.3c0.2-3.3,6.3-95.1,6.3-125.9c0-4.4,0-10.4,0-17.3c3-0.2,5.9-1.5,8.1-3.6
					c4.9-4.9,4.9-12.9,0-17.8l-8.3-8.3c0-10.5-0.1-21-0.2-30c0-2.5,0-4.8,0-7l-5,4.9l-13.5,13.3l-3.6,3.5l27,27c3,2.9,3,7.7,0,10.7
					c-2.6,2.6-6.7,3-9.7,0.9c-0.4-0.3-0.7-0.6-1.1-0.9L7.9,120c-0.8-0.8-1.5-1.9-1.8-3c-0.7-1.2-1.1-2.6-1.1-4c0-2,0.8-3.9,2.2-5.3
					l5.7-5.6l22.5-22.2c10.2-10.1,24.5-11,38-11c6.4-0.1,12.7,0.4,19,1.4c1,0.2,2,0.3,2.9,0.5c2.5,0.6,5,1.5,7.4,2.6l4.4,1.8
					L137.3,87l13.9-35.6c0.7-1.9,2.2-3.4,4-4.2c3.8-1.7,8.3,0.1,10,3.9C165.9,53,166,55,165.3,56.9z M40.1,123.7L30,113.6l10-9.9
					C40.1,110,40.1,116.8,40.1,123.7z"/>
				<path class="st2" d="M208.9,17c-0.4-1.2-1.5-2-2.7-2.1h-0.1h-0.2h-37.3c-1.5,0-3.5,0.7-4.8,4.1h-23.9c-1.8,0-3.3,1.1-4,2.7
					h-19.7c-0.7-1.8-1.7-3-3.3-3c-3.2,0-4.3,5.2-4.3,9.6s1.1,9.6,4.3,9.6c1.5,0,2.6-1.2,3.3-3h19.7c0.7,1.6,2.2,2.7,4,2.7h23.8
					c0.9,2.3,2.4,4.1,4.8,4.1h37.3h0.2h0.1c1.2-0.1,2.3-0.9,2.7-2c1.6-3,1.8-8.5,1.8-11.3S210.5,20,208.9,17z M140.5,32.6h-0.2
					c-1-1.6-1-7,0-8.6h22.3c-0.2,1.4-0.3,2.8-0.3,4.3c0,1.4,0.1,2.9,0.3,4.3H140.5z M167.5,25.5c0.3-3,0.9-5,1.4-5.5h33.5
					c-0.6,2.7-0.8,5.5-0.8,8.3c0,2.8,0.2,5.6,0.8,8.4h-33.6c-0.5-0.6-1.1-2.5-1.4-5.6L167.5,25.5z M205.3,28.3
					c0-2.5,0.2-5.1,0.7-7.6c0.5,2.5,0.8,5,0.8,7.6c0,2.5-0.2,5.1-0.8,7.6C205.5,33.4,205.2,30.9,205.3,28.3L205.3,28.3z M117.2,29.9
					h-1.5c-0.3-1-0.3-2.1,0-3.1h19c0,0.5,0,1,0,1.5s0,1.1,0.1,1.6L117.2,29.9z"/>
				<path class="st1" d="M72.2,56c-15,0-27.2-12.2-27.2-27.2c0-5.2,1.5-10.2,4.2-14.6c0.1-0.2,0.2-0.5,0.4-0.7
					C50,12.9,60.2-1.9,90,0.2l7.7,0.5l-6.5,4.1l-0.5,0.3c4.1,1.6,9.2,4.5,12.4,9.9l2.2,3.7h-7.8l0.1,0.3c0.4,1.1,0.7,2.2,1,3.4
					c3.4,14.6-5.6,29.3-20.2,32.7C76.3,55.8,74.3,56,72.2,56z M54.1,15.9l-0.5,0.8c-6.7,10.3-3.8,24,6.5,30.7s24,3.8,30.7-6.5
					c3.8-5.9,4.6-13.2,2.2-19.7c-0.7-1.1-1.5-2.1-2.4-3.1l-4.1-4.2h9.2C92.1,11,88,9.1,83.5,8.4l-8.5-1l4.5-2.2
					C63,6.5,55.8,13.9,54.1,15.9z"/>
			</g>
		</g>
	</g>
</g>
</svg>
