<svg xmlns="http://www.w3.org/2000/svg" viewBox="0 0 1851.13 871"><defs><style>.cls-1{fill:#dcf1ff;}</style></defs><title>lotus-bg</title><g id="Layer_2" data-name="Layer 2"><g id="Layer_1-2" data-name="Layer 1"><path class="cls-1" d="M1784.91,744.4l-11.64,6.82v31.22l17.54-5.59.9,1.84-16.46,9v10.1l19.6-5.76.81,2.45-20.05,9.38v26.09l28.49-14.13c6.87,10.08,9.2,22.57,7.91,36-.48,5-.91,10.1-1.37,15.15h-4.71l2.13-16.92-1.88-.34q-2.49,8.63-5,17.26h-2.36q3-15,6-30.07l2.61.25-5-17.65c-3.77,5.72-7.09,8.83-8,12.55-2.94,11.52-5,23.26-7.37,34.92h-4.71l6.78-39.7c-5.68,4.41-9.73,7.55-13.85,10.73v29H1773c-.3-3.51-.77-7-.87-10.54-.58-19.94-.87-39.9-1.68-59.83-.48-12-1.72-24-2.8-38.38l-9.85,10.42c1.19,34.18,2.31,66.26,3.42,98.33h-4.71V851c-10.88,1.49-14.45,9.19-18.84,16h-4.71c-.21-3.86-.43-7.71-.64-11.64L1718,848.44c-1.2-4.23-2.13-7.48-3.27-11.5-16.51-.43-33.57,1.37-46.41-15-1.25-4.82-3-11.67-5.07-19.63-24.94,16-33.59,40-41,64.7h-4.71c9.22-16.16,5.34-32.1-.36-48.25-13.68-38.71-25.65-78.08-44.19-114.92-2.46-4.89-5.06-9.71-7.47-14.32-8.58-5.63-16.81-11.1-28-7.7l-16.68,8.37c-3.76-12.7-.19-21.27,9.94-25.27,4.27-1.69,9.09-2.1,13.7-2.82,4.07-.64,8.19-.91,14.13-1.53-7.13-16.36-13.28-31-19.89-45.5C1517,567.42,1495.21,519.75,1473,472.3c-6.78-14.47-14.45-28.62-24.27-38.87l-30-6.67c-2.08,16.21-11.32,27.72-25.22,35.68-3,1.73-6.27,3.87-9.57,4.15-26.53,2.27-51.25-.34-66.11-26.94-.34-.62-1.16-1-4-3.74-1.23,2.32-2,5.09-3.79,6.89-6.64,6.76-14.7,10.25-24.32,8.46a119.57,119.57,0,0,1-18.21-4.38c-9.56-3.42-16.73-8.44-18-20.48-1.14-10.6-5.65-20.84-9.23-33.15-18.54-2.34-33.28-15.31-44.73-31.37-8.71-12.22-5.88-27.67-6.5-41.65,1.12-.8,1.81-1.69,2.34-1.61,14,2.21,22.73-4.71,29.68-16.05,2.12-3.46,7-5.23,10.63-7.77l-.32-.27c-8.84,12.28-13.93,28.82-32.75,29,6,11.45,12.22,22.63,17.79,34.12,5,10.43,13.23,16.23,24.34,17.89,7.24,1.08,14.6,1.32,22,1.94.91-6.14,1.63-11.07,2.28-15.48-14-15.51-27.25-30.51-26.45-53.84L1258,319.45l1-1.75-23.62-20,1.44-1.28c9,6.86,17.79,14.05,27.15,20.39,2.89,2,7.33,1.63,12.38,2.6-7.83-6.65-14.67-11.22-19.87-17.2-6.64-7.63-12-16.35-17.83-24.7-4.76-6.86-9.32-13.86-14-20.8l-3.6,1.75q4.37,14.25,8.72,28.49l-1.58,1.34c-2.75-5.52-6.53-10.78-8-16.62-2.22-8.88-2.84-18.16-4.2-27.71l21.17,1.9c1.37-16.21,2.62-30.9,3.9-46,12-.3,24.26,7,36.36-.11l31,8c1.26-15.8,9.13-27.47,19.07-38.45,4.19-4.61,5.72-11.64,9.33-19.48L1376.9,170c5.37-19.26,24.39-27.18,36.25-44.26,17.5,15.65,41.92,20.89,53.27,45.27,4.79-4.42,8.94-8.23,13.93-12.84,13.83,19.13,18,41.51,21.58,63.7,3.13.68,6.61.39,8.4,2,17.11,15.28,30.77,32.32,28.47,57.44-.45,4.91.81,10.12,2,15,4,16.14-.83,29.34-12.88,40.19-5.49,4.95-11.3,9.54-17.81,15,11.58,18.22,3.92,37.94,4.31,58.52-17.23-2.08-30.49,8.08-46.17,17.06,39.44,73.45,78,147.38,109,227.81l8.2-11.94c11.78-17.06,25.85-30.72,48.3-30.87,5.33,0,10.67,1.47,17,2.41A52.56,52.56,0,0,0,1652,607c1-30.15,2.33-60.25-3.82-90.19-3.54-17.23-11.17-32.35-19.55-47.48-24.46-44.2-41.79-90.33-44.72-141.8-2-34.63,0-68.91,1.1-103.34.12-3.51-.64-7.08-.3-10.55,1.39-14.27-7.5-21.4-18.54-26.93a31,31,0,0,0-9-2.58c-19-3-30-15-38.23-34.1,14,8.23,27,13.62,42.83,12.41-1.49-2.06-2.38-3.59-3.55-4.88-16.91-18.65-14.71-40.8-4.69-61.26.41-.83,1.77-1.21,2.68-1.8-1.15,4-2.14,8.14-3.47,12.13-7,21.09-3.25,39.33,14.21,54,2.39,2,5.1,3.65,7.39,5.76,4.54,4.19,8.94,8.54,13.32,12.91,1.57,1.58,2.91,3.39,3.44,4-3.2-15.29-5.94-31.32-10-47-4.66-18.09,5.73-31.47,11.47-42.21-.51-11.47-.78-19.18-1.23-26.87-.47-7.87-1.14-15.73-5.76-23.27L1572.82,64c2.69-12.65,8.9-23.46,17.56-33.28l-3.29-15.21c-20.76,30.6-22,43.69-22.59,59.09l8.63-10.93c-2.45,8.12-4.91,16.25-6.76,22.39,5.05,26.21,9.72,50.41,14.39,74.65-6.52-8.92-10.41-18.95-10.42-30.43,0-14.36-4.46-27.7-8.47-41.84l-5.93,6.39c5-19.14,4.12-39.69,13.94-57.64,5-9.22,10.17-18.4,15.52-28.09l5.64,2.22L1601.54,0c3.27,7.54,7,13.2,8.11,19.33,2.26,13.05,11.47,22.43,16.22,34.06,3.52,8.64,6.75,17.39,10.71,27.62,9.62,4.38,10.06,15.71,11.21,25.57,1.75,15.1,2.16,30.54-6.52,44.39-.44.71.31,2.16.5,3.26l-.68-.14c-.66.28-.11,0,.44-.18l8-6.63c4.23,17.25-6.19,34.2-23.71,39-7,1.92-13.35,4.24-18.16,12-.45,3.65-1.5,8.67-1.62,13.71-1,40.75-2.68,81.52-2.26,122.26.33,30.85,9.6,60.07,22.86,87.89,5.89,12.35,11.58,24.84,18.33,36.72,17.44,30.72,24.24,64.34,26.68,98.88,1.86,26.18,1.66,52.5,2.54,78.75.18,5.22-1.09,11.56,6.64,13l23.32-9.55L1729.74,608c-5.25-26.68-10.75-56.58-17.1-86.31a368.57,368.57,0,0,1-8.59-72.19c-.41-30.54-1.23-61.07-2-91.6-.37-15.74-5.87-29.48-15-42.38-5.54-7.83-10.91-16.87-12.63-26.06-3.2-17.15-4-34.78-5.08-52.26-.26-4.34,2.33-8.86,3.46-12.81l49.06-22.14c18.57,4.14,38.23,8.62,57.94,12.9,9.06,2,14.73,7.1,19.37,15.32,13.22,23.39,6.08,43.1-10,61.09-17.73,19.88-36.7,38.67-54,58.86a49.36,49.36,0,0,0-11,24c-5.58,39.55-3.56,79,4.86,118.08,5.44,25.22,11.33,50.33,16.66,75.57,2.07,9.81,3.13,19.84,4.92,31.56,33-22.11,65.7-31.35,99.23-4.57-15.83-6.21-30.78-15.47-49.36-12.16A105,105,0,0,0,1752,604.93c1.55,14.85,3.2,30.68,5,47.78l18-10.53c-3.21-12.6-6.45-25.25-9.65-37.8,8.52,2.81,15.76,12.46,22.81,30.48l46.14-5.62,14-19.39,2.93,1.81c-2.88,7.38-12,12-10,21.76l8.9-14.28c-.64,7.72-1.11,13.38-1.67,20.09-19.63-8.05-40-4.87-59.81,1.83-6.71,2.26-12.64,7.11-18.59,11.26-7.36,5.14-14.06,11.29-21.63,16.08-8.13,5.13-17,5.85-25.52.29-5.64-3.69-11.09-3.9-17.77-2.18-27.64,7.11-37.45,1.5-46.85-25.68-2.28-6.6-4.19-13.33-6.28-20.05l-22.22-3.68c-3.83,5-8.06,10.32-12.16,15.77-4.92,6.54-8.86,14.1-14.77,19.53-9.34,8.58-20.07,13.3-34.08,12-11.65-1.1-23.89,1.71-35.59,4.14-6.89,1.44-10.71,7.17-10.45,15.52l22.75-8.6c22.46,8.36,39.08,20.59,46.37,43.22,3.56,11,10,20.7,20.54,26.25,21,11,31.91,29.29,38.54,51,.57,1.86,1.49,3.62,2.57,6.19l9.86-4c9.76,5.29,5.89,16.33,10.9,23.42-1.17-18,.7-36.24-7.59-53.11-1.88-3.83-3.79-7.86-4.51-12-2.83-16.4-10.95-29.83-22.29-41.58-8.72-9-13.56-19.85-15.81-32.14-1-5.19-3.3-10.13-5-15.18l2.42-2,5.1,7.85,2.06-.45V639.78c7.15,10.57,7.1,22,3,32.34-5,12.67-1.46,23.14,5.1,33.15,4.64,7.09,10.81,13.18,16.5,20,12.21-24.15-.22-47.62-.33-71l2.58-.38,6.83,35.06,9.09-9.63c0,2.53.61,4.43-.09,5.45-16,23.42-14.93,48.85-4.51,72.87,8.59,19.8,9.26,40.17,12.23,60.56a26.19,26.19,0,0,0,4.4,11.24c7.77-15.74,13.72-31.49,14.06-48.82a11.49,11.49,0,0,0-1-5.71c-11.76-20.66-6.69-44.51-12.57-66.3-1.13-4.18,1.08-9.22,1.64-13.88.53-4.48.93-9,1.67-16.16,4.8,11.21-.77,20.3.41,29.12,1.24,9.3,1.94,18.66,3.12,28,1.21,9.55,2.71,19,4.4,30.78,3.47-13,6.76-23.34,8.88-33.9s3.06-21.18,4.52-31.78l2.77.26c-.84,9.57-1.69,19.14-2.72,30.68,20-15.15,23.91-38.22,35.83-56.59-.75,3.14-.88,6.61-2.34,9.37-9.23,17.41-14,37.4-30.84,50.4a25.09,25.09,0,0,0-9.83,20.43c.42,25.88-2.11,51.27-12.46,75.41,10,3.37,17.6-1,23.19-6.81,9.14-9.51,18.67-19.44,24.76-30.93,10.88-20.53,26.33-36.77,42.74-52.44,6.63-6.33,14.6-10.91,24.22-10.15A63.09,63.09,0,0,0,1844,720.07a42.13,42.13,0,0,1,5.77-2.53c-4.17,7.5-9.17,10.54-29.35,18.11,7.89,9.78,19.42,12.33,29.2,19.25l-15.09-2.53-15.64,10.91c-4-7.67,2-12.72,4.15-18.6-5.88-.14-5.88-.14-11.5,13.46-6.34-7.16-1.2-14.92-1-22.28-5-3.13-6.82-1-6.9,3.67-.13,6.74,0,13.49,0,20.24l-2.3.17c-.93-7.81-1.86-15.63-2.9-24.29-5.58.89-11.36,1.93-13.77,9ZM1313.34,323.47c.6.33,1.19.65.36.2l-.61.14c.07-.58.14-1.15.14-1.09C1313.2,322.55,1313.27,323,1313.34,323.47Zm263.14,379.64c.23-.87.45-1.75.1-.37V703q5.25,8.89,10.52,17.78l2.37,5c.54,2.61.77,5.34,1.68,7.83,5.49,15,11.3,29.85,16.69,44.87,6.8,18.91,13.3,37.92,20.5,58.54l7.75-14.8c-8.58-36.35-21-69.61-46.91-96.18-.76-1.68-1.53-3.35-2.29-5C1585.43,713.81,1584.66,706.3,1576.48,703.11Zm198.32-83,.3-3.58-1.73.24,1.73,3.12c1.05,6.38,2.1,12.76,3.24,19.64l7.88-2.68Zm-348-313.55q-1-3.37-2-6.76l1.89-2.84c6.73-.75,8.29-4.67,6.53-10.62l6.8-8.13-1.36-1.35-6.29,4c-.63-2.13-1.06-3.62-1.49-5.1l3.08-2.44h11.66c-2.91,6.88-4.73,11.17-6.9,16.31,42.07-27.81,61.44-73.49,39.36-121.88-15.93,9.46-30.35,20.55-40.49,35.86-1.24,30.2-2.78,35.59-13.2,43.7,11.21-24.2,14.1-47-2.54-68.59.71,15.21,3.57,30.54,1.46,45.14a140.8,140.8,0,0,0-.87,37.3h11.73v12.36l-3,2.4-15-3c.23,3.85.45,7.54.66,11.18l12,2.9c-.73,4-1.3,7.1-1.88,10.25l-2.7,2-8.83-.56c-.92,3.16-1.76,6-2.58,8.85l10.43,5.74c1.15-2.33,2.26-4.62,3.38-6.91l6.09-3.87c-.75-.75-1.49-1.51-2.24-2.27C1429.23,302.32,1428,304.45,1426.8,306.58Zm11.61-157.71c-.26-.55-.52-1.1-.21-.45-.81-.4-.18-.09.45.23l16.81,29.16,6.24-5.87C1457,160.54,1449.91,152.47,1438.41,148.87Zm-37.8,249.72c-.11-.5-.21-1-.11-.52l.38.31,14.23,13.33c7.41-2.09,15.09-2.84,21.25-6.3a298.27,298.27,0,0,0,34.05-22.56c7.4-5.6,8.51-16.62,4.31-25.87-2.36,15-7,24.52-15.74,26.74-7.79,2-13.12,6.32-18.42,11.61-8.64,8.63-18.56,10.83-30,5.71C1407.49,399.67,1403.94,399.38,1400.61,398.59ZM1248,330.09l-.38-.68.68.41c4,19.19,23.39,34.26,37.51,35.26,17,1.2,35.86-1.57,42-21.88-3.73,1.36-6.27,2.41-8.87,3.22-8.07,2.48-16,6.35-24.27,7C1274.87,355,1259.25,346.5,1248,330.09Zm242.48-141.34c-.33-1.37-.65-2.73-1-4.1l-1.45.81,2.74,3c-.07,4.66-.56,9.36-.15,14,1.59,17.69-2.27,34.18-10.66,49.64-3.13,5.76-6.91,11.15-10.5,16.87,1.62,1.9,2.76,3.47,4.13,4.8,1.6,1.57,3.4,2.93,5.62,4.82C1502.21,250.4,1500.65,220.12,1490.46,188.75ZM1316.13,424.24c-.42-.53-.84-1.06-.33-.41-.6-.15,0,0,.56.13,2.63,14.23,11.17,24.23,22.59,32.46,10.79,7.79,23.32,5.08,35.12,6.32,20.2,2.12,43.16-20.76,40.76-44.88-.2-2-2-3.87-4.15-7.68-3.14,22-17,37-33.37,37.69l-6.73-6.4c-2.82,3.67-5.16,6.73-7.51,9.78-10.16.64-18.13-1.39-24.75-6.73C1330.54,438.24,1323.49,431,1316.13,424.24Zm40.35-146.32c-4.84,2.33-10.15,4-14.42,7.15-7.92,5.78-10.16,18.9-5.55,27.78,4.32,8.31,12.07,11,23.16,7.62,6.34-1.93,12.38-5,18.8-6.47,12.59-2.95,21.51-10.53,28.88-20.5l-10-4.38c-5.39,1.19-10.27,3.13-13.8-3.25,4.33-7.34,9.42-5.08,12.76-2.94l15.76-3.77c-3.57-13.32-11.8-19.32-24.61-15.21-10.87,3.49-21,9.45-31.38,14.31ZM1283,217.05c.22,24.43,8.45,45.21,26.55,61,16.59.6,21.81-15.38,33.74-19.91l3.12-8.53c8,3.36,15.08,4.75,19.84-2.92h11.2v-51c-5.27-6.19-11-13.52-17.39-20.27-5.23-5.56-14.29-7.57-15.13-17.31-.11-1.28-4.18-2.23-4.63-2.45-7.21,10.19-13.65,19.25-20,28.33-5.31,7.54-7.42,16-7.63,24.84,16.19,7.29,24.84,19.7,28.71,36.32-10.94-27-32.08-37.79-60.32-38.88.59,3.82,1.15,7.49,1.71,11.16Zm50.07,98.53-4.61-11.85-16.34.81c7.48,4.29,13.18,7.6,18.94,10.8.58.32,1.52,0,2.3,0-5.21,7.43-11.17-2.87-16.68.27.1,5.06,8.66,9.26-.61,15.41l-10.44-11.54,8.35-6.24c-1.69-3.8-3.09-7-4.44-10,2.21-5.34,4.3-10.39,6.38-15.45l5-2.85-4-4.18c-.31,3.18-.52,5.25-.72,7.31-9.53-7.26-18.16-15.14-24.89-25.42-5-7.67-13.57-12-23-12.32-15.19-.42-30.39-.11-45.41-.11,4.67,5.82,9.6,11.33,13.79,17.34,4.47,6.42,8,13.51,12.39,19.95,10.75,15.59,23,28.85,44.3,28.43,3-.06,6,2.29,8.93,3.53-6.13,1-12.26-1.27-17.08.36-12.31,4.16-24.19,5.58-36.79-.11,10,31,46.51,37.28,70.13,22.81V331.26c11.89,9.07,26.45,0,38.54,9.36-8.32,7.66-18.22,6.54-26.57,9.57-13.73,19.56-26.51,22.74-61.59,14.73,1.19,7.67,1.81,14.77,9.59,19.37l9-8.23c9.77,24.76,30.48,29.8,49.28,13-1.11-19.51,7.15-35.73,19.76-38.83-20.3,27.7-21.26,32.37-8.19,39.91,9-2.34,12-10.44,16-17.47L1382.26,387c10.93-10.77,10.84-25.32.91-46.47l-22.91,2.79-2.53-9.68-1.52,1.23Zm446.26-19.86c9.7-7,14.55-17.23,20.64-28.68-18.23,3.73-33,15.13-50.23,5.54-2.06,9.34-3.37,17-5.49,24.46-4.35,15.26-4.53,15.21-11.27,20.41,5.87-14,11.47-27.22,11.48-42.59-19.18-.36-36.94-3.68-52.37-16-5,16.28,4.62,29.34,4.42,43.57-7.81-13.38-10.16-28.16-10.87-41.36L1674.4,245.2c0,6.84-.44,14.55.09,22.2,1.16,16.55,4.4,32.69,15.29,45.89,10.63,12.89,16,27.74,16.82,44,.83,16,.17,32.13.29,48.19.24,32.87.1,65.68,6.62,98.21,8.44,42.14,16.08,84.43,23.37,126.78,1.23,7.11,4.54,15.29-1.61,22.26l-4.62-34.91-3.32-1-16,20.72c5.5,4.41,9.38,8.06,13.79,10.86,3.08,1.95,6.91,2.72,10.4,4l15.85,3.32c0-7.41.69-12.92-.12-18.19-4.86-31.7-8.27-63.77-15.56-94.92-12.21-52.1-21.74-104.18-17.08-158,1.22-14.11,3-27.7,13.83-38.74,16.13-16.4,31.4-33.64,47-50.52ZM1670.5,636c-1.2-27.7-1.61-55.46-3.82-83.07-2.47-30.94-8.62-61.17-23.86-88.86-5.47-9.94-10.21-20.28-15.69-30.22C1600,384.58,1597.27,331,1599.06,276.6c0-.78.25-1.55.28-2.33q1.67-36.85,3.31-73.77l-8.49-4.26,12.07-2.12c3.69-8.49,11.51-10.21,19.12-12.11,13.64-3.41,19-13.2,21.39-26-19,9.84-37.59,19.15-51.79,38-4.38-5.1-7.67-8.08-9.91-11.71-4.29-6.91-9.49-13-17.55-14.58-12-2.38-24.25-3.61-37-5.42,6.28,13.1,18.11,16.28,29.87,18.93,16.11,3.63,31.39,16.21,29,36.59-.67,5.82-.38,11.75-.83,17.6-3.28,42.72-3.75,85.61,3.77,127.73,6.41,35.86,20.33,69.78,38.29,101.67,8.06,14.32,16.76,28.11,20.41,44.55a288.53,288.53,0,0,1,5.74,85.21C1655.54,610.32,1657.37,623.87,1670.5,636Zm131.92-375.06c-1.25-7.38-1.87-13.88-3.5-20.11-3.33-12.78-10.62-20.87-24.87-22.68-9.92-1.27-19.37-5.92-29.26-7.84-8.31-1.61-17.75-4-25.28-1.57-15,4.75-29,12.53-45.18,19.9l10.23,25.93,2-1.59c6.55,3.3,12.82,7.46,19.72,9.71,10.64,3.47,21.78,8,32.58,7.64,9.1-.27,17.5-1.13,25.37,3.5Zm-412.19,76.65c8.23,18.58,16.08,35.57,10.32,55.81l22.64,7.95,15.43-9.73c5.83-3.66,11.9-7,17.44-11.07,4-2.92,8.46-6.18,10.54-10.37,4.74-9.53,7.33-19.75,1-30.4-22.6,13.73-40.83,5.6-56.69-12.87Zm90.23-55.28c8.12,19.62,7.07,37.81-6.81,53.22,1.35,3.05,2.09,4.85,2.95,6.59a21.58,21.58,0,0,0,2.07,2.65c20.08,2.2,32-11.13,43.27-23.12,5.44-19.12-6.51-32.84-10.42-48,11.39-15,8-37.9-7.34-44.82C1498,247.41,1496.76,268.27,1480.46,282.28Zm154-126.32c12-19.06,13.92-41.69,4.67-65.07-10.93,24.46-21.58,48.28-32.92,73.63,2.11-14.35,4.69-26.92,5.62-39.6,1-13.34-1.74-26.17-10.15-37.54-25,32.79-20.16,56.3-3.53,94.76ZM1419.18,418.77c2.25,1.89,4,3.94,6.17,5.07,15.15,7.82,29.94,3.69,43.88-2.92,13.25-6.29,25.45-14.84,40.24-16.38,1.17-17.73,7-34.9-3.2-49.68l-25,3.74c0,1.53-.08,3.47,0,5.4.62,12-4.07,20.81-14.29,27.49-14.37,9.38-27.81,20.33-45.25,23.86C1421.2,415.46,1420.84,416.52,1419.18,418.77Zm153.31,237.85C1558,611.08,1493.27,475.3,1463.8,428.69l-8.88,2.29c40.45,74.79,74.28,151.48,108.62,228.56ZM1394.76,398.81c-17.88,10.08-35.09,13.42-52.13,1.57l-24.54,16.72c9.87,21.45,29.81,33,45.72,26.1,1.47-4,2.93-7.94,5-13.62l10.75,16.27c16.43-8.28,26.15-19.42,25.45-37.36Zm6.6-237.3c-12.74,24.49-28.4,47-19.78,76.6l14.55,9.3,11.17-2.53V256.3l-9.66,2.54,13.2,5.81c.81-6.09.47-11.24,2.25-15.5,7-16.77,7.89-34.24,6.15-51.82C1417.89,183.68,1414.84,170.24,1401.36,161.51ZM1256.15,435.26c19.32,15.67,47.72,18.22,57.3-3.68l-6.16-13.67c-15.37-2.49-28.6-8.36-35.89-19.67L1245,394.8C1248.79,408.64,1252.36,421.55,1256.15,435.26Zm157.28-302.18c-8.06,7.65-16.14,15-23.83,22.71-8.84,8.88-9.84,17-2.86,26.49,4-9.08,7.7-17.49,12-27.17,18.87,8.72,29.33,24.17,38.6,41.42l13.74-15C1444.3,160.1,1431,144.84,1413.43,133.08Zm339.9,645.78-3.21-1.27c-9.16,20.82-21.54,39.18-39.46,53.79l9.73,4.89c.62,3.6,1.14,6.61,1.55,9l17.41,9.91,15.81-11.65v-23c-10,3.9-12.32,16.49-25.51,18.38,8.2-15.63,11.56-30.9,24.73-40.24C1754,791.74,1753.67,785.3,1753.33,778.86ZM1515.69,275c3,7.15,6.17,13.09,8,19.4,6.08,20.64,7.52,27.15-11.85,42.91a67.08,67.08,0,0,1-30.76,14c6.12,3.37,12.24,3.57,17.72.27,8.31-5,16.38-10.48,24.16-16.3,13-9.72,16.58-23,13.83-38.63-1.15-6.5-2.15-13.21-1.81-19.75.75-14.2-5.72-25.06-14.72-35.41C1525.42,253.52,1525.06,264.65,1515.69,275Zm-231.46-25.75c-2.84-14.25-5.55-27.84-8.3-41.61-5.76-.48-10.78-.93-15.81-1.32-4.81-.38-9.62-.71-16-1.17,3.31,14.46,6.15,26.87,8.91,38.9Zm131.53,70.3c12.39,10.32,25.64,8.21,38.61,3.61,3.1-1.1,6.8-5.28,7.16-8.4,1-8.54.34-17.27.34-25.92l-1.32.21,4.6-13.71-2.16-1.27c-3.67,3.92-7,8.27-11.11,11.64-4.4,3.61-9.54,6.31-15,9.81-.26,3.07-.59,6.88-.92,10.66l-10,11.13Zm5.39,11.69c13.23,18.21,41,11.25,52.07-1.62,12.47-14.57,10.87-41.26-3.22-52.48-1.75,4.27-3.49,8.56-4.19,10.27.69,8.69,1.88,14.86,1.53,20.95-.72,12.31-4.95,17.61-17.28,20.08C1440.65,330.35,1430.87,330.38,1421.15,331.25Zm198-279.8c-2.53,9.08-5,16.79-6.76,24.64-1.19,5.26-2.51,10.87-1.83,16.07,1.67,12.82,4.47,25.48,6.66,37.39C1635.29,108.34,1636.67,78.74,1619.15,51.45Zm-19-43.67c-6.63,7.54-7.86-.74-3.89,73.2,0,.5.78,1,1.2,1.46,1.26-1.38,2.47-2.68,3.85-4.18a16.77,16.77,0,0,0,2.86,2.53,5.64,5.64,0,0,0,2.21.43C1618.52,55.34,1611.12,31.63,1600.12,7.78Zm156.51,649.93c-17.28,3.28-30-.55-39.54-11.42-13.7-3.67-24.56,2.06-37,8.71l-18.32-15.41c1.79,4,2.93,6.82,4.29,9.52,7.32,14.58,12.87,17.5,29,15.07,4.63-.7,9.15-2.43,13.78-2.72,4.11-.25,9.34-.57,12.27,1.58C1733.72,672.26,1743.87,666.76,1756.63,657.71ZM1196.47,328.46l-2.67,1.37c-.16,11.73-.14,23.43,7.42,33.5,15.6,20.78,38.26,26.89,62.37,29.89.88.11,1.91-1,3.61-2l-2.66-9.52c-6.68-.53-12.46-1-18.24-1.44-18.25-1.29-30.26-10.4-36.94-27.61C1206.08,344.21,1200.83,336.51,1196.47,328.46Zm190.8,59.8c-10.48,3.75-14.59-5.44-20.24-7.93l-20.3,16c9.57,9.38,29.74,10.17,42.44.52,10.45-7.94,12.43-20.63,5.11-34.68C1393.15,371.51,1396.94,381.84,1387.27,388.26ZM1270,383.34c5,16.66,14.75,26.12,29.24,28.84,14.33,2.69,29.26-3.53,39.71-17.37-21.69,13-39.55,10.53-53.58-10l-7.68,3.89Zm371.17,432.33,7.86-8.43c-4.69-21.69-11.46-41.3-32.22-54.84Zm-230.33-516-2.1-1.3c-14.39,17.81-35.48,22.13-56,30l19,3c.67,1.85,1.62,4.46,2.87,7.92,5.13-4.42-.75-14,9.19-14.22a44.06,44.06,0,0,0,3.48,3.88c1.44,1.31,3.13,2.35,6.39,4.73L1390.51,317l19.18,6.5-5.32-8.49Zm166.61,360.52c24.86-4.31,33.28-23.71,43.84-42.1C1599.28,624.11,1591.56,644.07,1577.42,660.18Zm-227.9-499.06,30.79,29.39C1383,178.71,1375,170.69,1349.52,161.12Zm405.39,642c-7.7,6.85-12.06,14.23-13.46,23.45C1745.81,819.22,1757.45,816.39,1754.91,803.15Zm-510.75-579.4c-4.77,14.6-3.79,18.06,4.83,20.52Zm131.34,37.37,11-2.65-11-8.9ZM1359,253.87c-3,9.5-2.46,10.27,8.13,11.79Zm-31.46,45.21.22-2.81-9.37-4.31c-1,2.8-1.61,4.68-2.8,8.11Zm21.81-23.69,11.42-5.89-10.59-3.5C1349.91,269.47,1349.72,271.67,1349.39,275.39Zm-25.21,12.12c7.32-6.36,7.32-6.36.83-11.21C1324.75,279.71,1324.57,282.2,1324.18,287.51ZM1342.67,263l-3.1,1.33,3.9,9.09,3-1.3Zm88.13,3.41-3.38-2-2.88,7.66,2.7,1.16Q1429,269.78,1430.8,266.38Zm-96.12,13.46,2.07,3.29,6.92-5.18c-.48-.76-1-1.52-1.43-2.27Zm7.55,60.29h-10.85c2,2.89,3.15,4.59,4.72,6.9Zm21.35-2.92,1.75,2.28,3.88-3.44-1-1.45Zm20.53-92-1.66.86,2.18,4.15,1.63-.84ZM1403,288.64c2.08-1,3.45-1.29,3.66-1.92.3-.93-.22-2.13-.4-3.21l-1.76-.09Zm427,461.19-2.18-2.47-5.55,3.91,2.43,2.61Zm-427.54-422c-1.48-2.56-1.78-3.81-2.53-4.18s-2.11-.1-3.19-.1l-.21,1.49Zm-76.31-37,.66,1.67,5.56-2-.86-2.25Zm88.47,25-.21-2.12-5,.9.15,1.22Zm9.52-25.66-2.57-1.26q-.83,2.44-1.66,4.89l1.53.7ZM1392,256.26l1.45-.16c-.16-1.6-.33-3.2-.49-4.81l-1.57.17Zm24.83-4.45h-1v3.94h1Zm-.7,12.89c.38,1.67.19.83,0,0Zm-42.58-1.29,0-.64h-2.66l.08,1Zm-22.79-5.81h-1v3.45h1Zm32.67,73.61-.93.21.6,2.55c.26-.15.76-.32.75-.45C1383.74,332.74,1383.55,332,1383.4,331.21Zm-14.72-75.49Zm34.39-4.08a2.68,2.68,0,0,0,1,.25c.13,0,.2-.5.3-.78a2.59,2.59,0,0,0-.95-.21C1403.24,250.92,1403.17,251.38,1403.07,251.64Zm-55.79,88.82.2,1.05,2.75-.58c-.16-.28-.34-.8-.49-.79A23,23,0,0,0,1347.28,340.46Zm44.94-53.89Zm-58.07-14.2-.66-.7-.7.66,1,.71Z"/><path class="cls-1" d="M1450.33,867l5.68-4.59c-6.92-3.84-13.7-7.29-20.16-11.26-15.22-9.35-31.31-13.81-49.32-10.87a173.72,173.72,0,0,1-28,2.37,32.42,32.42,0,0,1-15.65-3.92c-15.66-9.14-32.5-10.4-49.95-9.72-11.34.45-22.73.79-34.06.26-13-.62-23-5.95-28-19.33-1.57-4.18-6.3-7.65-10.33-10.3-3.73-2.44-8.47-3.35-14.88-5.71,10.64-8,19.58-16.07,31.39-18.78a362.33,362.33,0,0,1,40.36-6.78c18.16-2,32.65-9.91,44-24.16,13.39-16.86,30.41-28.68,51.82-31.77,12.47-1.8,25.41-.33,38.15-.33l1.15-2.58-51.2-39.44c-10.17,20.24-19.72,39.06-40.37,46.22l14.55-40.72c-11.36,1.49-21.35,2.18-31.05,4.24s-17.72-.09-25.59-5.34c-7.45-5-14.75-10.39-22.78-14.23-16.37-7.81-27.23-20.51-35.33-37.24l10.44-2.09c-6.13-8.54-12-16.71-18.48-25.76,10.78-5.38,21.87-7.32,34.65-7.92l-11.39-7.58c13.23-5.16,26.09-.51,40.43-.87-3.34-3.51-5.51-5.8-8.52-9h23.31c14.65,0,26.59,5,35.05,17.69,2.46,3.68,6.67,6.42,10.52,8.91,12.1,7.84,20.55,17.94,21.88,32.87a108.35,108.35,0,0,1-5.85-9.57c-6-12.43-14.86-21.13-29.14-23.34a170.38,170.38,0,0,0,14.64,22.56c5,6.53,13.23,11.11,13.39,22-7-8.76-13.33-16.16-19.15-23.89-6.09-8.08-11.76-16.49-17.8-25l8.88-2.11c-12.21-14.67-27.06-19.51-44.2-14.77l37.41,41.58c-.42.43-.84.86-1.28,1.28-19-11.66-39.2-12.13-60.78-6.7,5,9.53,8.3,19.19,14.46,26.36s14.63,13,23.18,17.26c8,4,17.51,5,26.35,7.34-17-.06-31.11,1.87-40.1,7.17,18.92,15.76,39.32-1.13,58.59,4.27l4.47-8.74.64-.76,12.53-4.21c1.29-11.35,2.41-21.15,3.53-31L1390,589.74c7.45,22.58,3.54,50.62-17.26,69.5l70.45,58.46c25.94,4.23,51.74,12.78,73.29,32.3,7.56,6.85,17.82,10.93,27.24,15.48,8.29,4,17.13,3.78,26.19,1.58s17.52-.14,25.92,8c-4.32,1.2-7.07,2.26-9.92,2.71-13.33,2.09-23.78,8.68-33,18.49-6.8,7.2-15.34,12.77-22.37,18.47L1564.55,830l11.59-10.39c3-11.42.78-24,14.18-28.48C1607,808.2,1615,839.4,1598.69,867h-2.35c1.06-4.07,2.35-8.09,3.14-12.21,1.46-7.62,4.13-15.4,3.58-22.92-.94-13-4.38-25.65-15.25-37.63-2.46,6.22-5.18,10-5.27,13.9-.23,9.35-4.31,16.43-10.56,22.83a26.9,26.9,0,0,1-24.43-4.29c-3.15-2.26-6.66-4.81-10.3-5.42-5.48-.91-11.22-.23-16.26-.23l-6,11.65-23.73-2.87c-5.84,2.6-12,6.61-12.82,14.36-1.29,12-8.47,18.47-18.66,22.83ZM1299.68,605.5l.25.38-.46-.13-17.41-23.45H1248l20.18,23.2Zm164.94,129.59c-.53-1.35-1.06-2.7-2-5.2l-6.22,9.16,8.55-4.27-2.14,9.13,22.54,31.72,41.77,2.34c0,.36,0,.72-.08,1.08l11.72-3.94c-11.53,13.6-31.38,5.6-43.68,17.58l17.5,33.66,7.84-14.05a70.45,70.45,0,0,0,32.94-22.87c3.79-4.65,9.74-7.76,15.15-10.81,4.38-2.47,9.4-3.8,14.14-5.63-4.58-1.92-9.16-3.06-12.84-1.71-10.41,3.82-20.34,2.29-29.59-2.28a242.57,242.57,0,0,1-29-17.25c-11.23-7.68-21.12-17.45-34.87-21.5Zm-115.15,27.84,7.54,2.34,39.9-18.74c-3.24-8.62-5.05-18.12-.33-28.71L1413,749.4l24.69,8.32c.67-5.39,1.29-10.32,2-15.81l-20.85-24.22c-20.27-5.11-38.32-3.79-56.3,1.85s-30.37,18.72-42.52,32.07c-9.48,10.42-20.48,18-34.91,19.74-10.48,1.23-21,2.15-31.37,4.14-9.09,1.75-18.89,2.37-27.41,10.13,14.33,1.26,27,2.87,39.79,3.38,16,.64,32,.77,48,.38,16.37-.41,30-7.38,41.61-19.59l-7.1-5.78Zm82.65,81-.31-.21c11.69,7.2,22.37,17.65,39.09,12.08,1.8-11.67,5-22.84,16.28-29.58-19.06-11.48-25.77-20.25-31.09-37.47-8-26-38.94-41.4-66.22-34a65.16,65.16,0,0,0-27.56,14.88c-10.06,9.2-20,20.19-34.25,21.62a584.82,584.82,0,0,1-60.82,2.39c-14.42-.06-28.82-2.24-43.25-3.2-2.48-.16-5,1-7.57,1.61,11.19,4.64,17.67,12.62,22.61,23.12,2,4.15,8,8,12.74,8.88a103.54,103.54,0,0,0,27.9,1.4c22.57-2,44.51-2.14,65,9.9,8.58,5,17.89,4.15,27.71.73-4.23-3.34-7.82-6.18-11.42-9-9.05-1-18.06-1.59-26.87-3.2-5.58-1-10.88-3.63-16.3-5.52l1.44-1.55c3.66,1.13,7.24,2.67,11,3.31,11.07,1.88,22.2,3.41,32.63,5l16,11.54C1397.09,834.67,1415.31,834.56,1432.12,843.92Zm76.67-17.39c-14.83-24.3-28.08-46.87-42.17-68.9-19-29.78-43.93-54-72.62-74.51-9.4-6.72-17.81-14.83-27.44-23,18.17-15.71,25.5-34.6,21.26-60-15.93,18.91-35.77,33.46-25.46,60.67-22.25,11.12-29.94,22.5-29.6,46.13,5.73-7.49,10.45-13,14.43-19,4.2-6.33,7.7-13.11,12.39-21.23,66.86,37.05,104.88,96,137.64,159.48,1.8.35,3.31.76,4.84.9C1503.16,827.16,1504.29,826.91,1508.79,826.53ZM1228.38,627.62c7.65,21.07,26.8,27.88,43.91,37l17.79-5-28.52-21.25C1251.81,637.27,1243.3,623.17,1228.38,627.62Zm-10.51-32,18.24,25.91,26.72,13.35L1248,607l13.67-2.48-9-11.45Zm253.39,192.59c-7.11-11-14-21.61-20.86-32.23l-3.13,1.59c5.43,12.71,10.87,25.42,16.78,39.24Zm2.19,23.36,12.43,8.84,2-2.11c-3.19-5.09-6.37-10.19-10.47-16.74ZM1511,780.79H1489.7c1.43,3.63,2.31,5.84,3,7.61Zm-49.34-54.14-16.72-5,9.75,11.11Zm-54.16,20.93q-4.41-8.12-8.84-16.23C1399.62,738,1397.45,746.33,1407.49,747.58Zm68.82,48-2.51-1.45c-5.42,4.58-5.42,4.58-2.61,12.62C1473.16,802.48,1474.74,799,1476.31,795.6ZM1445,749.33l-3.72.25q.63,4.81,1.27,9.63L1445,759Z"/><path class="cls-1" d="M1824.77,867c-.32-19.17.47-38.57-9.58-56-3.66-6.35-7.83-12.41-11.29-17.86,7.27.7,16.43,14.08,22.69,34.12-.46-14.62-6.45-27.87-11.8-42.82,15.34-2.47,23.44,10.81,35.89,12.34-.47,1.17-.94,2.33-1.42,3.5l-28.92-13.73c3.15,10.31,7.33,19.24,8.4,28.53,1.87,16.2,1.85,32.62,2.49,49,0,1-1.14,2-1.75,3Zm3.2-26.37.34,1,.34-1Z"/><path class="cls-1" d="M1636.37,867l8.19-14.37,2,.78q-1.53,6.8-3.07,13.59Z"/><path class="cls-1" d="M1546.88,867V852.13l2.42-.32q1.14,7.59,2.29,15.19Z"/><path class="cls-1" d="M1574.35,679.35l21.21,23.85,2.08-.94q-4.83-13.86-9.65-27.73c10.8,10.54,13.21,24,13.51,38.43,5.72,9.07,13.16,15.88,23.64,19.82,4.73,1.78,9.75,5.71,12.2,10,7.46,13.15,13.79,26.94,20.41,40.55,1.81,3.71,3.08,7.69,4.59,11.54l-2.2,1.27c-1.74-3.28-3.58-6.52-5.2-9.86-6.25-12.92-12.3-26-18.69-38.81-3.25-6.54-8.83-10.08-15.55-13.3a62.48,62.48,0,0,1-19-14.79c-9.56-10.76-18-22.52-26.8-33.94C1574.34,684.8,1574.65,683.48,1574.35,679.35Z"/><path class="cls-1" d="M1843.49,664.38l-11.93,26.36,17.6-5.76c-.16,2.88-.31,5.85-.51,9.52-13.55-4.11-23.09,2.57-30.37,14.59-1.72,2.83-4.73,6-7.72,6.75-15.25,3.82-26.64,14.27-39.63,21.95-.29-.29-.57-.58-.85-.88,9.61-6.87,18.51-15.23,29-20.16,9.6-4.5,16.78-9.38,22-19,6.35-11.7,15-22.16,22.62-33.15Z"/><path class="cls-1" d="M1753.41,725c1.87-1.87,3.42-4.64,5.68-5.46,10.82-3.94,16-11.95,17.52-22.8,1.24-8.89,2.5-17.78,3.23-26.72.63-7.78,2.46-14.77,8.71-20.61-2.52,12.24-4.88,23.76-7.25,35.28L1784,686c8.35-13.79,15.22-28.92,30.82-36.14L1816,651a122,122,0,0,0-30.1,39.64c-.85,1.76-2.33,3.32-2.79,5.15-3.93,15.42-14.45,24.54-28.57,30.3Z"/><path class="cls-1" d="M1824.51,776.74c2.42-9.47,11.16-14.41,26.17-14.1l-23.47,10.42,22.89,8c-.21.8-.43,1.59-.64,2.38Z"/><path class="cls-1" d="M1754.52,726.07q-13.12,28.27-26.31,56.53c-.39.81-1.66,1.21-2.51,1.8l.23.19c5.81-14.68,11.32-29.49,17.59-44,2.41-5.59,6.54-10.44,9.89-15.62Z"/><path class="cls-1" d="M1725.7,784.4c-3.09,17.43-16.31,38.25-28.59,43.29,14.52-11.21,18.48-29.2,28.82-43.1Z"/><path class="cls-1" d="M1766.37,742.71l-16.58,21-.67-.6c4.8-7.61,7.05-17.19,16.42-21.28C1765.82,742.12,1766.1,742.41,1766.37,742.71Z"/><path class="cls-1" d="M1792.21,774.27l-14.4-16.71C1786.21,759.93,1790.14,766.28,1792.21,774.27Z"/><path class="cls-1" d="M1784.66,744.6c6.64,3.9,12,8.85,14.28,16.25l-2,1.49-12-17.94Z"/><path class="cls-1" d="M1742.49,775.29l6.63-12.17.67.6q-3.76,5.65-7.52,11.33Z"/><path class="cls-1" d="M1231.58,294.8l-3.42-6.47,1.58-1.34q3.51,4.72,7,9.47l-1.44,1.28-4-3.21Z"/><path class="cls-1" d="M1843.72,664.6l2.66-5,1.42,1.15-4.31,3.59Z"/><path class="cls-1" d="M1767.87,739.45l2.22-2.54c.27.3.55.59.84.88l-2.07,2.61Z"/><path class="cls-1" d="M1742.27,775.05l-.53.65.75-.41Z"/><path class="cls-1" d="M1814.84,649.83l1.79-1.69.78.68c-.47.72-1,1.44-1.43,2.16Z"/><path class="cls-1" d="M1768.86,740.4l-2.49,2.3c-.27-.29-.55-.58-.83-.86.78-.8,1.55-1.6,2.33-2.39Z"/><path class="cls-1" d="M1543.23,839.39l3,.14c0,.46,0,.93-.08,1.39l-3-.22C1543.17,840.26,1543.2,839.83,1543.23,839.39Z"/><path class="cls-1" d="M1707.23,308.56q-1.73-18-3.44-36l3.11-.26q1.51,18,3,36Z"/><path class="cls-1" d="M1756.22,301.59l7-21.23,2.7,1c-1.44,7.54-3.84,14.7-9,20.8Z"/><path class="cls-1" d="M1779.76,289.78q2.61-4.81,5.2-9.64l2.54,1.77-7.37,8.22Z"/><path class="cls-1" d="M1754.18,306.56l-2.7,6-1.89-1.27,4.44-4.85Z"/><path class="cls-1" d="M1757,302.2l-2.78,4.36-.14-.12,2.19-4.85Z"/><path class="cls-1" d="M1779.48,295.45l.28-5.67.37.35c-.25,1.87-.51,3.73-.76,5.59Z"/><path class="cls-1" d="M1327.85,332.66l-4.07-8.27c3.84-5.45,8.86-2.85,14.09,7.18Zm3.61-4.66-.32-1.85-1.3.82Z"/><path class="cls-1" d="M1282.77,217.36c4.31-1.73,5.51,1.5,6.73,4.38,3,7.19,5.82,14.49,8.89,21.67,4.54,10.58,10.67,20,20,28.1-2.67-1.11-6.29-1.48-7.82-3.46-5.72-7.35-11.48-14.84-15.82-23-4.72-8.9-7.86-18.62-11.69-28Z"/><path class="cls-1" d="M1754.73,262.87l-12.19,4c-7.77-3.4-9.52-8.33-6.14-16.12H1753C1753.62,255,1754.11,258.44,1754.73,262.87Zm-4.92-3.08,1.38-2.56c-2.58-4.09-5.69-6.07-11.27-1.29Z"/><path class="cls-1" d="M1778.19,241l-2.84-9.89c8-7.42,11.84-5.27,18.57,10.27-2.19,4.23-4.83,6.39-9.17,1.81.58-1.17,1.16-2.35,1.75-3.52l-1.14-.43-.39,4.22-7.08-2.79Zm6.33-7.59-1.79-2.18-1.64,1.66Z"/><path class="cls-1" d="M1744.41,220.42c-5.07,6.25-5.07,6.25-14.76,5.49-2-2.49-4.36-5.42-6.68-8.32C1732,209.51,1736.37,210.12,1744.41,220.42Zm-14.71-4.81c-.16,1-.33,2-.49,3h8.34c0-.55.11-1.1.17-1.65Z"/><path class="cls-1" d="M1726.62,255.75c-11.4,2.72-12.18,2.32-19.51-9.49C1716.43,240.11,1723.58,243.33,1726.62,255.75Zm-10-5.5c.19-.84.37-1.68.56-2.51l-4.67-.26c-.08.62-.16,1.23-.23,1.84Zm6,3.34-.52-.39-.11.53Z"/><path class="cls-1" d="M1700.38,221.94c5.34-3.4,10.35-7.92,15.88-.79-2,11-4.53,12.36-15.88,8.28Zm5.19,4.58,0,1.43,3.78-.21-.05-1.22Zm5.18-4.66-.54,1.4,4.66.29Z"/><path class="cls-1" d="M1686,241c-7.69-5.14-3.45-8.3,1.48-11.51,13,7.73,13.81,9.24,8.77,19.15l-10.57-8c4.48-2.95,4.48-2.95,1.41-7.75C1686.64,236.25,1686.32,238.6,1686,241Zm8.28.26-.52.75.83.11Z"/><path class="cls-1" d="M1775.29,255.86c5.83-7.48,7.41-7.64,16.3-1.71C1787.71,263.47,1784.27,263.84,1775.29,255.86Z"/><path class="cls-1" d="M1756.37,229c-1-1.59-2-3.18-3.1-5,11.34-4.08,11.91-3.92,17.23,4.28-5.67,7.2-6.6,7.23-14.4.41l4.38-2.1-1.31-2Z"/><path class="cls-1" d="M1734.05,243.31c-6.68-1.53-12-2.51-12.7-10.09,7.13-4.25,12.36-3,16.81,4.31Zm-6.49-9.1-.9,0v2.73l.68,0Z"/><path class="cls-1" d="M1777.89,240.69l-3.27,7.47-14.89-3c2.94-3.92,4.66-6.2,6.89-9.19,4.14,1.81,7.86,3.44,11.57,5.08Zm-9.43,1c-1.17.35-.59.18,0,0C1767.82,241.56,1767.2,241.43,1768.46,241.69Z"/><path class="cls-1" d="M1768.67,266.11c-9.29-2.56-9.79-4-4.49-12.67C1773.94,257,1774.26,257.91,1768.67,266.11Z"/><path class="cls-1" d="M1741.88,232.88c3.85-.57,7.58-2.24,10.43-1.28,4.6,1.55,5.61,5.76,3.2,10.93C1748.32,244.78,1744.36,241.68,1741.88,232.88Zm8.88,7,.41-.65-.71-.05Z"/><path class="cls-1" d="M1365.24,288l11.48,3.61c-8.16,10-9.16,10-15.71,2.17l4.58-6.13Zm1.69,5.3,0,.61h2.65l-.06-.95Z"/><path class="cls-1" d="M1356.11,278.26l11.25,3c-1,3.38-1.59,5.08-2.12,6.79l.35-.35-13.88.69,4.77-10.45Zm5.64,5.93,0-.58h-2.5l.09,1Z"/><path class="cls-1" d="M1392,268.62l14.7,1.27c-1.55,3.66-2.35,5.54-3.72,8.76l-12.29-5.49Zm5.35,3.35,0,.66,2.47.16,0-.71Z"/><path class="cls-1" d="M1373,271l13.92.7c-2.2,6.23-4.36,10-9.53,8.64-2.49-.65-4.32-3.8-6.45-5.82Zm4.73,3.19.38,2.31,4.66-2.31Z"/><path class="cls-1" d="M1361.71,306.76c-1.52,2.53-2.66,6.72-4.65,7.17-2.63.6-5.92-1.73-8.93-2.8v-3.68l10.67-4Zm-7,3.86,1-.19-.44-2.4-1,.2Z"/><path class="cls-1" d="M1339.18,295l12.23-3C1348,303.28,1346.82,303.7,1339.18,295Zm6,4.32c.62-2.41.8-3.12,1-3.83l-1-.13Z"/><path class="cls-1" d="M1369.41,304.66l12.73-3.51C1378.35,312.55,1377.82,312.73,1369.41,304.66Zm7,1.5-.52-.06.2.81Z"/><path class="cls-1" d="M1386.92,300c3.38-6.3,7-7.33,12.74-4.05C1396.94,301.82,1394.14,305.3,1386.92,300Z"/><path class="cls-1" d="M1361,798.83l-6-8,1-1.44c2.34,1.93,4.81,3.71,7,5.8,6.12,5.83,11.71,12.28,18.27,17.54,6.28,5,13.79,7.5,22.07,4.69l-.14.15,18.45,14.46.24-.25-35.29-11.92a11,11,0,0,1-3.23-1.28c-7.56-5.78-15-11.66-22.55-17.5l.06-.08,1.43-1.48-1.63-1Z"/><path class="cls-1" d="M1429.3,810.29c-1.55-2-3.63-3.85-4.56-6.14-4-10-9.43-18.81-18.75-24.74l-.22.28,4.38-.47V762.53c5.58,13.31,11.5,27.31,17.3,41.36a45.08,45.08,0,0,1,1.64,6.57Z"/><path class="cls-1" d="M1452.06,838.38c-6.67-7.25-6.25-15.84-6.28-24.08,0-8,.69-16,1.21-26.44,6.44,9.45,1.73,17.88,2.77,25.6C1450.83,821.44,1451.27,829.52,1452.06,838.38Z"/><path class="cls-1" d="M1313.47,810.43l5.72,6.37-1.44,1.55c-5.17-3.27-10.06-7.17-15.59-9.62s-11.58-3.39-19-5.43c10-2.07,10-2.07,30.59,7.45Z"/><path class="cls-1" d="M1255.37,810l40.86,10.08c-7.19,1.71-36.12-5.24-41.73-9.16Z"/><path class="cls-1" d="M1429.09,810.46l12.1,23.3-.35.34c-8.39-5.73-11.15-14.2-11.54-23.81Z"/><path class="cls-1" d="M1421.62,832.07c5.73,1.84,11.27,3.84,10.19,11.64l.31.21-10.26-12.1Z"/><path class="cls-1" d="M1360.79,801.12h-15.56l.09-2.29H1361l-.32-.31.2,2.52Z"/><path class="cls-1" d="M1400.92,815.14l-6.53-9.06,3.33-1.67q1.54,5.42,3.1,10.83Z"/><path class="cls-1" d="M1384.1,787.21l-6.41-7.35,1.84-1.45,5.43,7.88C1384.67,786.6,1384.39,786.91,1384.1,787.21Z"/><path class="cls-1" d="M1395.57,771l5.84,5.83-.8,1-4.75-7Z"/><path class="cls-1" d="M1452.59,845.9l5.57,2.45-1.09,1.74c-1.43-1.46-2.87-2.91-4.3-4.36Z"/><path class="cls-1" d="M1254.5,810.89l-6-3.49,1.39-1.92,5.45,4.49Z"/><path class="cls-1" d="M1314.5,805.16c1.16,1.29,2.32,2.58,3.81,4.22l-4.84,1,.32.32-.63-4.43C1313.6,805.92,1314.05,805.54,1314.5,805.16Z"/><path class="cls-1" d="M1406,779.41l-5.38-1.6.8-1,4.36,2.84Z"/><path class="cls-1" d="M1313.16,806.32l-2.33-4.71,1-1c.88,1.52,1.76,3,2.65,4.57C1314.05,805.54,1313.6,805.92,1313.16,806.32Z"/><path class="cls-1" d="M1391.61,793.84l1.72,1.55-.87.75-1.21-1.94Z"/><path class="cls-1" d="M1310.83,801.61l-1.49-2,.77-.68,1.74,1.63Z"/><path class="cls-1" d="M1395.86,770.78l-.29.24Z"/><path class="cls-1" d="M1403.31,817.46c-.8-.77-1.6-1.54-2.39-2.32l-.1.1,2.35,2.37Z"/><path class="cls-1" d="M1441.19,833.76c.53,1,1.06,2,1.58,3l.31-.3-2.24-2.39Z"/><path class="cls-1" d="M1445.51,838.77l-2.43-2.28-.31.3,2.44,2.28Z"/><path class="cls-1" d="M1448.09,841l-2.58-2.2-.3.3,2.66,2.11Z"/><path class="cls-1" d="M1386.38,789.64l-2.28-2.43c.29-.3.57-.61.86-.92l2.22,2.53Z"/><path class="cls-1" d="M1447.87,841.18l2.37,2.35.16-.16-2.31-2.4Z"/><path class="cls-1" d="M1450.24,843.53l2.35,2.37.18-.17-2.37-2.36Z"/><path class="cls-1" d="M1387.18,788.82l2.37,2.35-.89.9-2.28-2.43Z"/><path class="cls-1" d="M1391.25,794.2l-2.59-2.13.89-.9c.69.89,1.37,1.79,2.06,2.67Z"/><path class="cls-1" d="M1348.53,764,1330,760.35c11-6.65,20.21-7.53,34.18-1.65h-18.07l3.41,4.23Z"/><path class="cls-1" d="M1341.6,665c-7.37-2.44-14.84-4.6-22.09-7.37-12.78-4.9-20.37-15-26.08-26.93,18.75-4.77,41.64,3.52,52.08,18.28-8.35-4.38-17.07-9.78-26.43-13.57-5.54-2.24-12.1-1.93-20.08-3,5.6,14.44,16.35,20,27.78,24.8,5.22,2.21,10.31,4.7,15.46,7.06Z"/><path class="cls-1" d="M1321.54,621.42l2,2.9-1.44.95-1.66-2.81C1320.79,622.11,1321.16,621.76,1321.54,621.42Z"/><path class="cls-1" d="M1316.71,616.71l2.43,2.26-1,1.11-2.66-2.09C1315.87,617.57,1316.29,617.14,1316.71,616.71Z"/><path class="cls-1" d="M1319.14,619l2.4,2.45c-.38.34-.75.69-1.12,1l-2.32-2.38Z"/><path class="cls-1" d="M88.59,482.75l7.74-9.64c-10.48-9.36-15.53-8.66-24.84,3.28C77.36,483.63,77.36,483.63,88.59,482.75Zm-.06-11.93.56,3.49H79.44c-.07-.63-.14-1.27-.2-1.9Z"/><path class="cls-1" d="M58.62,502c8.34,2.61,12.93-1,15.8-11.18-4.47-.65-8.79-2.59-12.08-1.48C57,491.14,55.83,496,58.62,502Zm5.86-3.85-.36.81-.46-.75Z"/><path class="cls-1" d="M92.1,517.33c13.21,3.15,14.11,2.68,22.61-11C103.91,499.21,95.62,502.94,92.1,517.33Zm4.71-2.51.59-.46.13.63Zm11.67-7.07.27,2.13-5,1.07c-.21-1-.42-1.94-.64-2.91Z"/><path class="cls-1" d="M30.41,556.86l.12-.11-6-11.17-2.95,2.06,8.54,9.52.16-.15-.16.15c.24,1.72.47,3.44.71,5.16l-.27-5.57Z"/><path class="cls-1" d="M712.37,590.17c-16.25,2.56-26.33-5.46-34.38-18.6-2.25-3.67-7.17-5.69-11.21-8.26,9.8,14.11,15.93,32.34,37.21,32.5-7,13.26-14.17,26.22-20.61,39.54-5.85,12.08-15.33,18.79-28.21,20.72-8.38,1.25-16.92,1.53-25.47,2.25-1.05-7.12-1.89-12.82-2.65-17.94,16.18-18,31.58-35.34,30.66-62.38l-22.62,13.13-1.11-2L661.35,566l4.35-3.45,3.94-7.45c-.62-.52-1.23-1-1.84-1.56l-8.12,11c-10.43,8-20.61,16.28-31.46,23.63-3.34,2.27-8.49,1.89-14.34,3,9.08-7.71,17-13,23-19.93,7.69-8.84,13.94-19,20.66-28.62,5.51-8,10.79-16.06,16.17-24.1l4.17,2-10.11,33c.61.53,1.22,1,1.84,1.56,3.18-6.39,7.56-12.49,9.25-19.25,2.58-10.29,3.29-21.05,4.86-32.11l-24.52,2.2c-1.59-18.78-3-35.8-4.52-53.3-13.85-.35-28.11,8.16-42.12-.13l-36,9.26c-1.47-18.32-10.58-31.83-22.1-44.55-4.85-5.36-6.62-13.49-10.81-22.58l-46.41,23.32c-6.22-22.31-28.25-31.49-42-51.28-20.27,18.14-48.56,24.2-61.71,52.46l-16.15-14.88c-16,22.16-20.9,48.09-25,73.81-3.62.79-7.65.45-9.73,2.31-19.82,17.7-35.65,37.45-33,66.55.52,5.69-.94,11.73-2.34,17.39-4.63,18.71,1,34,14.93,46.57,6.36,5.73,13.09,11,20.63,17.37-13.42,21.11-4.54,44-5,67.8,20-2.41,35.32,9.36,53.49,19.77C364,766.83,337,818.07,312,871h5.31c27.55-59.07,60-122.73,79.3-153.3l10.29,2.65C380.07,770,355.76,820.28,332.41,871h6Q362,819.54,386,768.23c7.85-16.76,16.75-33.16,28.12-45l34.83-7.72c2.4,18.78,13.11,32.11,29.21,41.34,3.49,2,7.27,4.48,11.09,4.8,30.74,2.63,59.38-.39,76.59-31.21.41-.72,1.35-1.14,4.67-4.34,1.44,2.7,2.35,5.91,4.4,8,7.69,7.83,17,11.87,28.17,9.8,7.11-1.32,14.32-2.66,21.1-5.08,11.09-4,19.39-9.78,20.89-23.73,1.33-12.28,6.55-24.14,10.7-38.41,21.49-2.71,38.56-17.73,51.83-36.34,10.09-14.16,6.81-32.06,7.53-48.25C713.79,591.11,713,590.07,712.37,590.17ZM602.86,644c-19.74,1.4-41.55-1.81-48.72-25.35,4.33,1.58,7.26,2.8,10.28,3.73,9.35,2.88,18.59,7.37,28.12,8.12,22.61,1.8,40.5-7.72,53.51-26.15C640.91,626,618.93,642.86,602.86,644Zm44.25-41.32h0l.2-.12Zm.14-.25Zm28.49-91.5c-5.42,6.74-11.12,13.12-16,20.09-5.18,7.43-9.22,15.65-14.36,23.11-12.45,18.06-26.7,33.43-51.32,32.94-3.42-.07-6.89,2.66-10.34,4.09,7.1,1.17,14.2-1.47,19.78.41,14.27,4.83,28,6.47,42.63-.12-11.53,35.89-53.89,43.19-81.25,26.43V604.81c-13.79,10.51-30.65,0-44.66,10.85,9.64,8.87,21.11,7.57,30.78,11.09,15.91,22.66,30.72,26.34,71.36,17.06-1.38,8.89-2.1,17.11-11.11,22.44l-10.46-9.53c-11.32,28.69-35.31,34.53-57.09,15,1.28-22.6-8.29-41.39-22.9-45,23.52,32.1,24.63,37.5,9.49,46.23-10.49-2.7-13.86-12.08-18.57-20.24l-20.65,16.66c-12.67-12.47-12.56-29.33-1.06-53.83l26.55,3.23c1.22-4.66,2.08-7.94,2.93-11.21l1.76,1.41L548,586.71c6,7.94,12.77-3.6,19.06,0-.11,5.86-10,10.73.71,17.85l12.1-13.37L570.15,584l5.15-11.6c-2.56-6.17-5-12-7.38-17.85,10.91-8.33,20.79-17.4,28.5-29.18,5.83-8.89,15.73-14,26.71-14.27C640.72,510.56,658.34,510.92,675.74,510.92ZM550,615.09c-2.28,3.35-3.63,5.32-5.46,8l-7.1-8Zm-18.42.38c-.07.41-.15.82-.22,1.22L528.2,616c.19-.32.39-.93.57-.92A27.24,27.24,0,0,1,531.61,615.47Zm-139.1-37.18c.84,14.27,5.74,20.4,20,23.27,10.9,2.2,22.24,2.23,33.5,3.24-15.33,21.1-47.55,13-60.33-1.88-14.46-16.88-12.6-47.8,3.73-60.8l4.86,11.9C393.48,564.08,392.1,571.24,392.51,578.29ZM433,546.4c.71-2.4,1.2-4.1,1.69-5.77l17.14-3.45c-.26,4.45-.51,8.72-.75,12.94l-13.93,3.37c.82,4.45,1.47,8,2.12,11.56-7.52-1-9.27-5.46-7.25-12.26q-3.94-4.71-7.88-9.41l1.57-1.58Zm1.8-16.76,3.92-2.35q1.68,4.44,3.34,8.87L439,537.51Zm86.23,13.62L521,543c5.61,2.71,11.76,4.67,16.71,8.28,9.18,6.7,11.78,21.9,6.44,32.19-5,9.63-14,12.74-26.84,8.83-7.35-2.24-14.34-5.76-21.78-7.5-14.59-3.41-24.93-12.2-33.47-23.75L473.57,556c6.24,1.37,11.9,3.62,16-3.77-5-8.5-10.91-5.89-14.77-3.41l-18.27-4.36c4.14-15.43,13.68-22.39,28.52-17.63C497.51,530.83,509.1,537.65,521.07,543.26ZM501.21,526.2l0-.74h3.08l-.09,1.21Zm5.61-8.91c.08-.45.14-.74.18-.93-.05.23-.11.58-.18.93Zm21.39,11.91c.36,4,.58,6.57,1,10.88l-13.23-6.82Zm-.59-5.74v-4h1.12v4Zm-19.05,5.35L518,515.15C521.43,526.16,520.84,527.05,508.57,528.81Zm27.46,9-3.5-1.52L537,525.69l3.59,1.54Q538.29,532.5,536,537.77Zm10.18,7.47q-1.19,1.9-2.39,3.81l-8-6,1.66-2.63ZM503.29,605,500,614.16c-5.95-5.12.87-16.18-10.65-16.47a51.08,51.08,0,0,1-4,4.49c-1.67,1.52-3.63,2.72-7.4,5.48,1.34-7.12,2.24-11.87,3.65-19.35l-22.23,7.53,6.17-9.85L458,568.2l2.44-1.51c16.67,20.64,41.11,25.64,64.89,34.79Zm9.44,6.73-2,2.64-4.5-4,1.23-1.68ZM490.84,605l-.69,3c-.31-.18-.88-.38-.87-.53.09-.9.31-1.78.48-2.67Zm-16.26-7.41-6.88,3.24c1.72-3,2.07-4.42,2.93-4.85s2.45-.12,3.7-.12C474.41,596.44,474.5,597,474.58,597.59ZM440.22,566l2.27,1.7,10.23-.65,3,10.26L443.63,584l-3.92-8-.13-.08q1.11-3.74,2.23-7.47Zm2.37-8.79,3-1.46,1.92,5.67-1.77.81Zm9.66-39.88h-1.18v-4.56h1.18Zm-.37,10.38,0,.19Zm-.09.41c-.05.2-.08.35-.11.46C451.71,528.45,451.75,528.29,451.79,528.11Zm-.13.55,0,.13Zm.64-.14Zm1.56,56,5.75,1-.18,1.41h-5.81Zm9.38-35,2-.11c.46,1.58.92,3.17,1.75,6-2.41-1.2-4-1.49-4.24-2.23C462.43,552.13,463,550.74,463.24,549.49Zm17.23,3.73-.93-.19.4-.23-.4.23Zm-.34-.53Zm-2-35c.19-1.86.38-3.71.56-5.57l1.83.19-.72,5.57Zm20.76,5.82-12.69-3.08,12.69-10.3Zm-12.47-13.62q1.24-2.42,2.5-4.83l1.92,1-2.52,4.81Zm5.43-13.05L475,507.66l-12.95-2.93V518l11.2,2.93L458,527.64c-1-7.07-.56-13-2.61-18-8.09-19.44-9.15-39.68-7.13-60.05,1.57-15.81,5.1-31.39,20.72-41.5C483.72,436.5,501.86,462.59,491.88,496.88ZM467,512.56a3.15,3.15,0,0,1-1.12.29c-.14,0-.23-.58-.34-.9a2.78,2.78,0,0,1,1.09-.25C466.78,511.73,466.86,512.26,467,512.56Zm-27.88,63-6.44-4.09,2.59-2.64Zm-10.24.21c4.07,4.52,8,8.87,11.61,12.91l11.81,2.58c-14.36,12-29.71,9.52-44.75,4.19-3.59-1.27-7.87-6.12-8.29-9.73-1.14-9.9-.39-20-.39-30l1.53.25Q397.71,548,395.05,540l2.5-1.47c4.25,4.54,8.11,9.57,12.87,13.48,5.1,4.18,11.05,7.3,17.38,11.37C428.11,567,428.49,571.38,428.86,575.76Zm-36.65,38.89c26.18,15.91,47.3,6.49,65.69-14.91l24,12.38c-9.55,21.52-18.64,41.21-12,64.66L443.67,686c-5.89-3.72-11.88-7.5-17.88-11.27-6.76-4.25-13.79-8.12-20.21-12.84-4.59-3.37-9.8-7.15-12.22-12C387.87,638.83,384.88,627,392.21,614.65Zm93.07,56.21c12.14,4.34,16.9-6.31,23.46-9.2l23.51,18.57c-11.09,10.86-34.46,11.78-49.17.6-12.1-9.2-14.4-23.9-5.92-40.18C478.47,651.45,474.08,663.41,485.28,670.86ZM470,682.23h0l0-.13Zm.22-.18Zm6.43,1c20.72,11.68,40.66,15.55,60.4,1.82l28.44,19.37c-11.44,24.85-34.54,38.24-53,30.25-1.69-4.61-3.39-9.21-5.81-15.78l-12.46,18.84c-19-9.6-30.29-22.5-29.49-43.28ZM565,559.27l3.24,9.4-13.84-1.14c-.08-1.09-.17-2.18-.25-3.26Zm-2.92-8.13,4.63-4.84c.33,3.41.56,5.72.78,7.93Zm-6,6.83-.78,1.93-6.43-2.29c.33-.87.66-1.74,1-2.6Zm1.29-16.84c.3,4,.51,6.84,1,13C549.9,546.76,549.9,546.76,557.42,541.13Zm-4,31.79,18.93.94c-8.67,5-15.27,8.79-21.94,12.5a4.2,4.2,0,0,1-2.24,0C549.93,581.78,551.72,577.17,553.38,572.92Zm17.69,22Zm-.54,1.11-.36-.09.36.09Zm-23.28-58.66-.42-.77.76-.82.81.76ZM645.5,504l5.6-23.78C656.63,497.16,655.49,501.18,645.5,504ZM614.29,461.6c6.67-.57,12.49-1.08,18.32-1.54,5.56-.44,11.14-.81,18.53-1.35-3.83,16.75-7.13,31.13-10.32,45.07l-36.15,6C608,493.3,611.1,477.55,614.29,461.6Zm-80-57.49c.13-1.48,4.84-2.58,5.37-2.84,8.36,11.81,15.81,22.3,23.22,32.82,6.15,8.74,8.6,18.53,8.84,28.78C553,471.32,542.94,485.71,538.46,505c12.66-31.32,37.16-43.79,69.88-45-.68,4.42-1.33,8.67-2,12.92l-.31-.35-.09.21.09,0c-.32,28.2-9.85,52.19-30.77,70.41-19.22.69-25.26-17.82-39.08-23.07-1.2-3.26-2.33-6.37-3.62-9.89-9.32,3.9-17.47,5.51-23-3.38h-13V447.66c6.1-7.18,12.78-15.67,20.15-23.49C522.83,417.73,533.32,415.4,534.29,404.11ZM529,407.68l-35.67,34.05C490.2,428.06,499.51,418.77,529,407.68Zm-74-32.49c9.34,8.86,18.71,17.36,27.61,26.31,10.24,10.3,11.41,19.68,3.32,30.69-4.64-10.51-8.93-20.26-13.87-31.47-21.87,10.1-34,28-44.73,48l-15.92-17.4C419.2,406.5,434.57,388.81,455,375.19ZM426.28,393Zm-.78.7L406.28,427l-7.24-6.8C404.42,407.19,412.49,397.92,425.5,393.67Zm-45.42,21.69c18.46,11,35.17,23.8,46.91,41.55,1.44,35,3.22,41.23,15.3,50.62-13-28-16.34-54.46,2.94-79.47-.83,17.63-4.14,35.38-1.7,52.31a162.44,162.44,0,0,1,1,43.22H431v14.08H417.68c3.38,8,5.48,12.94,8,18.9C376.94,524.35,354.5,471.42,380.08,415.36Zm-11.54,20.53L366,438.7c.3-1.25.59-2.5.89-3.76Zm-3.14,4.83c.14,4.95.57,9.92.13,14.82-1.83,20.49,2.63,39.6,12.36,57.51,3.62,6.67,8,12.92,12.16,19.54-1.88,2.21-3.2,4-4.78,5.56-1.85,1.82-3.94,3.41-6.51,5.59C352.35,511.43,353.89,476.7,365.4,440.72ZM349.83,486.1c7.17,21.57,8.59,45.74,27.48,62-9.41,22.74-8.19,43.81,7.88,61.67-1.56,3.52-2.41,5.61-3.41,7.63a24,24,0,0,1-2.4,3.07c-23.26,2.55-37.11-12.89-50.13-26.78-6.31-22.16,7.54-38.06,12.07-55.62C328.13,520.63,332.08,494.12,349.83,486.1ZM328,609.49c-15.08-11.27-19.21-26.66-16-44.76,1.33-7.53,2.49-15.31,2.09-22.88-.86-16.47,6.64-29,17.06-41-5.94,13.92-5.53,26.81,5.33,38.82-3.48,8.28-7.15,15.16-9.3,22.48-7,23.92-8.72,31.45,13.73,49.71a77.79,77.79,0,0,0,35.63,16.23c-7.09,3.89-14.18,4.13-20.53.31C346.39,622.57,337,616.22,328,609.49ZM441.16,712.08c-17.55,9.06-34.69,4.27-50.84-3.39-15.35-7.28-29.48-17.19-46.62-19-1.36-20.54-8.08-40.42,3.7-57.55l29,4.33c0,1.77.1,4,0,6.25-.72,13.88,4.71,24.12,16.55,31.85,16.65,10.88,32.22,23.57,52.43,27.65.64.13,1.06,1.36,3,4C445.7,708.39,443.7,710.77,441.16,712.08Zm-12.75-21.35A346.93,346.93,0,0,1,389,664.59c-8.57-6.49-9.86-19.26-5-30,2.74,17.34,8.16,28.42,18.24,31,9,2.3,15.21,7.33,21.35,13.46,10,10,21.51,12.54,34.76,6.62,3.33-1.49,7.14-1.88,10.78-2.68L453,698C444.44,695.6,435.54,694.73,428.41,690.73Zm112.86,59.1c-12.51,9-27,5.88-40.7,7.32-23.4,2.45-50-24-47.22-52,.23-2.33,2.36-4.48,4.81-8.9,3.64,25.46,19.74,42.88,38.66,43.67l7.8-7.41,8.7,11.33c11.78.74,21-1.61,28.67-7.8,8.88-7.15,16.92-15.33,25.3-23.1C564.08,729,554.3,740.44,541.27,749.83Zm26.82-37.76.25-.06-.25.06ZM541.3,678.44c25.13,15.11,45.82,12.21,62.08-11.58l8.91,4.51,8.9-6.22c-5.81,19.31-17.09,30.27-33.88,33.42C570.71,701.68,553.42,694.48,541.3,678.44Zm95.9,46.87c-22.39,18.16-55.28,21.11-66.39-4.26L578,705.2c17.81-2.87,33.13-9.67,41.58-22.78l30.63-4C645.73,694.47,641.6,709.42,637.2,725.31ZM700.84,642c-18.06,24.07-44.32,31.16-72.25,34.63-1,.13-2.22-1.16-4.19-2.28,1.05-3.76,2.09-7.47,3.08-11,7.75-.61,14.44-1.19,21.14-1.67,21.14-1.49,35.06-12,42.8-32,3.8-9.81,9.88-18.74,14.93-28.06l3.1,1.59C709.63,616.75,709.6,630.3,700.84,642Z"/><path class="cls-1" d="M61.5,511.54c-.69,4.86-1.25,8.9-2,14l14.13,4.64c9-3.94,11-9.65,7.12-18.68ZM65.22,522l-1.6-3c3-4.74,6.6-7,13.07-1.5Z"/><path class="cls-1" d="M57.61,486.29l0,0,.06-.1.25-.21-.09,0,3.37-5.4c-13.14-4.73-13.81-4.54-20,5C47.74,493.77,48.88,493.89,57.61,486.29Zm-3.23-5,2.82,4.38-4.33-2.08Z"/><path class="cls-1" d="M78.73,496.21c1.54,2.18,3,4.24,4.76,6.7,7.74-1.78,13.94-2.91,14.71-11.69C89.94,486.29,83.88,487.72,78.73,496.21Zm13.32-3.89v3.16l-.79,0c-.08-1.05-.16-2.09-.25-3.14Z"/><path class="cls-1" d="M122.5,486.83v-8.68c-6.19-3.94-12-9.18-18.4-.92C106.38,489.94,109.35,491.55,122.5,486.83Zm-10.39-3.38h4.38l-.06,1.66-4.38-.24Zm-1.63-5.39.63,1.61-5.4.34Z"/><path class="cls-1" d="M139.15,500.11v.08c8.91-6,4-9.62-1.71-13.34-15.1,9-16,10.71-10.16,22.19Zm-1.26-9.28c.49,3.58.84,6.17,1.18,8.69C134.36,496.4,134.46,496.22,137.89,490.83Zm-8.33,9.66.61.86-1,.13Z"/><path class="cls-1" d="M666.78,563.31c-.24-.36-.49-.71-.74-1.06l-.34.27,0,.05Z"/><path class="cls-1" d="M510.68,554.33l15.8.79c-2.58-5.66-4-8.72-5.32-11.65l-12.81,3.39Zm7.13-4.73-.11,1.17-2.84-.49c0-.23,0-.45,0-.68Z"/><path class="cls-1" d="M521.39,543.41l-.32-.15.09.21Z"/><path class="cls-1" d="M470.92,563.9c3.16,6.8,6.4,10.84,14.77,4.69C481.77,561.29,477.51,560.1,470.92,563.9Z"/><path class="cls-1" d="M510.73,554.75l.07,0-.12-.39h-.28Z"/><path class="cls-1" d="M515.71,561.43l-5-6.68-13.23,4.16C507,570.44,508.11,570.51,515.71,561.43Zm-9.91-1,3.05.4-.06.71h-3.07Z"/><path class="cls-1" d="M462.72,533.71c1.8,4.24,2.73,6.41,4.31,10.14l14.24-6.36q-.75-2.62-1.52-5.25Zm8,3.36-.05-.83,2.87-.13c0,.26,0,.51.05.77Z"/><path class="cls-1" d="M496.72,545.77c2.88-.75,5-4.4,7.48-6.74L501.8,535l-16.12.8C488.23,543,490.73,547.33,496.72,545.77Zm-.4-7.12c-.14.89-.29,1.78-.43,2.67l-5.41-2.67Z"/><path class="cls-1" d="M541,562.81l-14.17-3.51C530.79,572.39,532.15,572.88,541,562.81Zm-6.94.41v4.59c-.71-2.79-.93-3.61-1.14-4.43Z"/><path class="cls-1" d="M506,574l-14.74-4.08C495.62,583.13,496.24,583.34,506,574Zm-7.48,1.66-.24.94-.37-.87Z"/><path class="cls-1" d="M520.28,584.74c3.05.69,6.87-2,10.35-3.25v-4.27l-12.36-4.59-3.37,3.8C516.66,579.36,518,584.21,520.28,584.74Zm2.09-6.85,1.17.24-.54,2.76-1.14-.22Z"/><path class="cls-1" d="M14.12,500.7c2.5,4.82,5.49,7.3,10.37,2.35v.05L32.42,500c1.09-3.79,2.18-7.57,3.21-11.19C26.41,480.2,21.91,482.69,14.12,500.7Zm8.6-2,1.32-.49.36,3.87Zm4.37-9.77L29,490.86l-4,.61Z"/><path class="cls-1" d="M45.75,494.37l-13,5.69c1,2.32,2,4.68,3.7,8.47L53.73,505ZM44,501l.2,0Zm.41-.09Z"/><path class="cls-1" d="M48.57,514.65c-11.3,4.12-11.68,5.17-5.19,14.68C54.14,526.36,54.72,524.72,48.57,514.65Z"/><path class="cls-1" d="M16.82,515.47c4.5,10.8,8.48,11.22,18.88,2C29,508.79,27.12,508.6,16.82,515.47Z"/><path class="cls-1" d="M71.66,871H77.1q2-10.66,4.48-21.24c14.14-60.37,25.19-120.71,19.79-183-1.42-16.35-3.45-32.09-16-44.88C66.69,602.89,49,583,31,563.43l-.15-1.11c0,.34,0,.67.05,1l.13.32c-11.24-8.16-16.86-20-23.92-33.24,21.13,4.32,38.18,17.53,58.2,6.42,2.39,10.82,3.91,19.72,6.37,28.35,5,17.68,5.24,17.62,13.05,23.65-6.8-16.21-13.28-31.55-13.3-49.36,22.23-.41,42.8-4.26,60.67-18.55,5.82,18.86-5.34,34-5.12,50.47,9-15.49,11.78-32.62,12.61-47.92L152.6,505.1c0,7.92.51,16.86-.11,25.72C151.15,550,147.4,568.7,134.78,584c-12.32,14.93-18.5,32.14-19.48,51-1,18.57-.21,37.23-.34,55.84-.28,38.08-.12,76.1-7.67,113.79q-6.65,33.15-12.75,66.4H99c2.93-15,6-30.32,9.26-45.59,5.91-27.63,9.58-55.38,10-83.65.48-35.38,1.43-70.75,2.27-106.13.43-18.24,6.8-34.15,17.38-49.1,6.41-9.07,12.64-19.54,14.63-30.2,3.71-19.86,4.65-40.29,5.88-60.54.31-5-2.69-10.27-4-14.85L97.57,455.28c-21.52,4.81-44.3,10-67.14,15C19.94,472.52,13.36,478.46,8,488c-15.32,27.1-7,49.93,11.54,70.78,20.54,23,42.52,44.8,62.62,68.2a57.14,57.14,0,0,1,12.68,27.78c6.47,45.82,4.13,91.55-5.64,136.82C83.48,818.07,77.35,844.49,71.66,871ZM8.33,500c3.86-14.8,12.3-24.18,28.81-26.28,11.5-1.47,22.44-6.85,33.91-9.08,9.62-1.87,20.56-4.59,29.29-1.82,17.33,5.5,33.53,14.52,52.34,23.06l-11.86,30-2.34-1.84c-7.59,3.83-14.86,8.64-22.85,11.25-12.33,4-25.24,9.23-37.75,8.85-10.55-.32-20.28-1.3-29.39,4.05L4.27,523.3C5.72,514.75,6.44,507.22,8.33,500Z"/><path class="cls-1" d="M32.42,500l-.08.26.44-.19-.08-.18Z"/><path class="cls-1" d="M542.52,605.17l11.61,1.26,4.72-9.58C554.4,590.54,548.58,593.55,542.52,605.17ZM550,601c.13-.77.25-1.46.36-2.14l1.51.94Z"/><path class="cls-1" d="M598.57,477.91c-3.51,8.34-6.75,16.8-10.31,25.11-5.26,12.27-12.36,23.16-23.15,32.56,3.09-1.28,7.29-1.71,9.07-4,6.62-8.52,13.3-17.2,18.33-26.68,5.42-10.24,9.06-21.42,13.45-32.2C601.3,471.06,599.93,474.67,598.57,477.91Z"/><path class="cls-1" d="M115,536.51q-1.77,20.88-3.53,41.75l3.14.25,4-41.7Z"/><path class="cls-1" d="M63.29,583.15l2.19-1.48-5.15-5.62-.1.09.1-.09-2.53-5.61h0q-4.09-12.3-8.17-24.6L46.51,547c1.66,8.73,4.44,17,10.44,24.11q1.62,2.52,3.22,5h0Z"/><path class="cls-1" d="M207.89,710.09c-6.82,14.31-13.42,28.78-21.24,42.54-20.21,35.6-28.08,74.54-30.91,114.58-.09,1.26-.15,2.53-.24,3.79h5.37c.21-3.13.42-6.26.67-9.38,2.87-35.85,10-70.88,27.65-103,6.34-11.52,11.83-23.5,18.18-35,31.48-57.06,34.6-119.14,32.53-182.16,0-.91-.29-1.8-.33-2.71q-1.94-42.7-3.83-85.47l9.83-4.94-14-2.46c-4.27-9.83-13.34-11.83-22.16-14-15.8-3.95-22-15.29-24.78-30.08,22.06,11.39,43.55,22.18,60,44,5.07-5.91,8.88-9.37,11.48-13.57,5-8,11-15,20.33-16.89,13.91-2.76,28.09-4.18,42.89-6.27-7.27,15.17-21,18.85-34.6,21.92-18.67,4.21-36.37,18.79-33.64,42.4.77,6.74.44,13.61,1,20.39,3.81,49.5,4.35,99.2-4.37,148-7.42,41.56-23.55,80.85-44.36,117.81-9.34,16.59-19.42,32.57-23.65,51.61A325.56,325.56,0,0,0,172.19,871h5.5c.39-17.09,1.78-34.16,5.28-51.18,4.1-20,12.95-37.48,22.65-55C234,713.6,254,660.15,257.44,600.51c2.28-40.11,0-79.83-1.28-119.73-.14-4.07.75-8.2.35-12.22C254.9,452,265.2,443.77,278,437.35a35.86,35.86,0,0,1,10.39-3c22-3.48,34.8-17.43,44.3-39.52-16.28,9.54-31.33,15.78-49.63,14.38,1.73-2.39,2.77-4.16,4.12-5.65,19.59-21.61,17-47.28,5.43-71-.43-.88-1.76-1.32-2.8-1.9-5.7-22.12-4.75-45.85-16.1-66.59-5.84-10.68-11.78-21.32-18-32.54l-6.54,2.57c-3.44-3.73-7-7.52-12.16-13.14-3.79,8.74-8.17,15.29-9.4,22.4-2.61,15.12-13.29,26-18.79,39.46-4.08,10-7.83,20.15-12.41,32-11.14,5.07-11.66,18.21-13,29.63-2,17.49-2.51,35.38,7.54,51.43.45.71-.15,2.08-.46,3.27l-9.15-7.54c-4.9,20,7.17,39.62,27.48,45.17,8.16,2.23,15.45,4.91,21,13.9.52,4.22,1.75,10,1.88,15.88,1.11,47.21,3.1,94.45,2.61,141.65C234,644,223.25,677.86,207.89,710.09ZM191.2,399.54Zm57.56-100.67c.54-9.13,1.31-18.24,6.68-27,5.43,8.5,10.14,15.89,14.86,23.27C267.18,280.52,260,268,250,256.62c1.14-5.26,2.26-10.45,3.81-17.63,24.05,35.46,25.5,50.62,26.17,68.47l-10-12.67c2.84,9.42,5.68,18.84,7.83,25.94-5.85,30.37-11.26,58.42-16.67,86.5,7.55-10.34,12.06-22,12.07-35.26,0-16.63,5.16-32.09,9.82-48.48l6.52,7h0c1.33,4.68,2.49,9.43,4,14,8.11,24.45,3.77,45.58-16.46,62.53-2.77,2.32-5.91,4.23-8.56,6.67-5.27,4.86-10.36,9.9-15.43,15a57.71,57.71,0,0,0-4,4.64c3.7-17.72,6.88-36.29,11.55-54.47,5.4-21-6.64-36.46-13.29-48.91C247.93,316.7,248.23,307.78,248.76,298.87ZM238.67,230c7.68,8.74,9.11-.85,4.5,84.82,0,.58-.9,1.12-1.38,1.69l-4.47-4.85c-1.42,1.3-2.23,2.39-3.31,2.94a6.9,6.9,0,0,1-2.56.5C217.34,285.11,225.92,257.64,238.67,230Zm-22,50.6c2.93,10.53,5.78,19.45,7.83,28.56,1.38,6.08,2.91,12.59,2.12,18.61-1.94,14.85-5.18,29.53-7.72,43.32C197.92,346.53,196.31,312.23,216.62,280.61Zm-23.13,45.7,38.14,85.31c-2.45-16.63-5.44-31.19-6.51-45.89-1.13-15.44,2-30.31,11.76-43.49,28.93,38,23.36,65.23,4.09,109.8L198.9,401.7C185,379.62,182.77,353.39,193.49,326.31Z"/></g></g></svg>