<svg xmlns="http://www.w3.org/2000/svg" viewBox="0 0 184.93 194.15"><defs><style>.cls-1{fill:#4d4d4d;}.cls-2{fill:#60c6ea;}</style></defs><title>document</title><g id="Layer_2" data-name="Layer 2"><g id="Layer_3" data-name="Layer 3"><path class="cls-1" d="M146.57,190.1H4.05V4.05H127.56v17.6a2,2,0,0,0,2,2h17V155.11h4.05V21.53a2.05,2.05,0,0,0-.57-1.3L131.05.62a2.11,2.11,0,0,0-.7-.47,1.87,1.87,0,0,0-.76-.15H2A2,2,0,0,0,0,2V192.13a2,2,0,0,0,2,2H148.59a2,2,0,0,0,2-2V166h-4.05ZM131.61,7l12.21,12.61H131.61Z"/><path class="cls-2" d="M86.45,33.73H64.79a2,2,0,1,0,0,4H86.45a2,2,0,1,0,0-4Z"/><path class="cls-2" d="M71.33,68.89H64.79a2,2,0,1,0,0,4h6.54a2,2,0,0,0,0-4Z"/><path class="cls-2" d="M124.48,81.93a2,2,0,0,0,0-4.05h-8.39a2,2,0,0,0,0,4.05Z"/><path class="cls-2" d="M43.12,87.39H26.35a2,2,0,0,0,0,4H43.12a2,2,0,0,0,0-4Z"/><path class="cls-2" d="M124.68,87.39H98.51a2,2,0,0,0,0,4h26.17a2,2,0,0,0,0-4Z"/><path class="cls-2" d="M89.72,87.39H51.19a2,2,0,0,0,0,4H89.72a2,2,0,1,0,0-4Z"/><path class="cls-2" d="M124.48,52.49a2,2,0,0,0,0-4.05H98.72a2,2,0,1,0,0,4.05Z"/><path class="cls-2" d="M44.34,58.67h-18a2,2,0,1,0,0,4h18a2,2,0,1,0,0-4Z"/><path class="cls-2" d="M58.14,68.89H26.35a2,2,0,0,0,0,4H58.14a2,2,0,1,0,0-4Z"/><path class="cls-2" d="M106.9,77.88H26.35a2,2,0,0,0,0,4.05H106.9a2,2,0,0,0,0-4.05Z"/><path class="cls-2" d="M89.72,97.66H26.35a2,2,0,0,0,0,4H89.72a2,2,0,1,0,0-4Z"/><path class="cls-2" d="M91,48.44H26.35a2,2,0,0,0,0,4.05H91a2,2,0,1,0,0-4.05Z"/><path class="cls-2" d="M124.48,62.71a2,2,0,0,0,0-4H51.7a2,2,0,1,0,0,4Z"/><path class="cls-2" d="M78.19,68.89a2,2,0,0,0,0,4h46.29a2,2,0,0,0,0-4Z"/><path class="cls-1" d="M108.31,130.44a4.68,4.68,0,0,0-3.3,3.31l-.35,1-1-.4A10.3,10.3,0,0,1,101,132.5c-1.52-1.35-5.46-2.7-10.49,1a3.19,3.19,0,0,1-2.5.83,3.44,3.44,0,0,1-1.81-1.79A2,2,0,0,0,82.8,132c-.88,1.05-4.74,4.85-7.48,4.72a2.89,2.89,0,0,1-2.3-1.61,4.63,4.63,0,0,1-.7-2.24l-.06-.76.72-.26c7.48-2.71,12-5.68,13.09-8.57a4.7,4.7,0,0,0-.69-4.51c-2.19-3-5.75-3.32-9.28-.88a20.48,20.48,0,0,0-7.23,10.57l-.15.51-.51.17c-2.8.9-5.67,1.69-8.53,2.35a2,2,0,0,0-1.52,2.43,2,2,0,0,0,2.44,1.51c1.53-.35,3.93-.93,6.62-1.71l1-.31.22,1.07a8.22,8.22,0,0,0,1.15,2.85,6.92,6.92,0,0,0,5.44,3.43h.41c3,0,6-2,7.94-3.69l.64-.55.65.53a5.91,5.91,0,0,0,2.21,1.17c1.32.37,3.43.42,6-1.44,3.09-2.25,4.87-1.53,5.34-1.26l.18.14c.9.85,4.07,3.56,7.08,2.84a4.64,4.64,0,0,0,3.27-3.24l.39-1.08,1,.52a14.72,14.72,0,0,1,3.26,2.64,2,2,0,1,0,2.86-2.87C114.09,132.22,111.18,129.77,108.31,130.44Zm-33.11-6a13.07,13.07,0,0,1,3.2-3.32C80.11,120,81.25,120,82,121l.4.52-.31.57c-.22.41-.89,1.66-5.7,3.86l-3.34,1.52Z"/><path class="cls-2" d="M44.16,160.55a2,2,0,0,0,1.3,1.89l19.42,7.46a2.06,2.06,0,0,0,2.61-1.16,2,2,0,0,0-1.16-2.62l-14.5-5.57L66.33,155a2,2,0,0,0,1.16-2.62,2,2,0,0,0-1.06-1.12,2,2,0,0,0-.83-.18,2,2,0,0,0-.72.14l-19.42,7.46A2,2,0,0,0,44.16,160.55Z"/><path class="cls-2" d="M182.76,156.49h-5.41v7.58h5.41a2.17,2.17,0,0,0,2.17-2.17v-3.24A2.17,2.17,0,0,0,182.76,156.49Z"/><path class="cls-2" d="M138.63,173.86a2,2,0,0,0,0,4h24.23a5.25,5.25,0,0,0,5.24-5.25v-8.28a2,2,0,0,0-4,0v8.28a1.2,1.2,0,0,1-1.19,1.2Z"/><path class="cls-1" d="M178.36,160.55a9.49,9.49,0,0,0-9.47-9.49H110.11l-.13,0-.17,0-.23.05-.14,0-.25.11-.15.07c-4.8,2.73-8.79,2.79-12.13.13,0,0,0,0,0,0a1.06,1.06,0,0,0-.2-.12.83.83,0,0,0-.16-.09l-.17-.07c-.08,0-.14-.05-.21-.06l-.14,0-.26,0H65.6a2,2,0,0,0-2,2V168a2,2,0,0,0,2,2H95.65a2,2,0,0,0,1.34-.52c3.31-2.56,7.18-2.51,11.89.11l.09,0a2,2,0,0,0,1.14.36h59A9.51,9.51,0,0,0,178.36,160.55ZM73.29,165a1,1,0,0,1-1,1H68.63a1,1,0,0,1-1-1v-8.88a1,1,0,0,1,1-1h3.66a1,1,0,0,1,1,1Zm10.32,0a1,1,0,0,1-1,1H78.34a1,1,0,0,1-1-1v-8.88a1,1,0,0,1,1-1h4.27a1,1,0,0,1,1,1Zm10,0a1,1,0,0,1-1,1h-4a1,1,0,0,1-1-1v-8.88a1,1,0,0,1,1-1h4a1,1,0,0,1,1,1Zm7-6.69v4.55a1,1,0,0,1-.8,1c-.28.06-.56.12-.83.2a1.24,1.24,0,0,1-.27,0,1,1,0,0,1-.61-.2,1,1,0,0,1-.39-.8V158a1,1,0,0,1,.39-.8A1.06,1.06,0,0,1,99,157q.4.12.84.21a1,1,0,0,1,.79,1Zm7.51,5a1,1,0,0,1-.41.8,1,1,0,0,1-.89.15c-.47-.15-.93-.27-1.38-.37a1,1,0,0,1-.78-1v-4.71s0,0,0-.09a1,1,0,0,1,.78-1c.45-.1.91-.23,1.39-.38a1,1,0,0,1,.89.15,1,1,0,0,1,.41.81ZM139.83,165a1,1,0,0,1-1,1h-25.7a1,1,0,0,1-1-1v-8.87a1,1,0,0,1,1-1h25.7a1,1,0,0,1,1,1Zm29.37,1H144.88a1,1,0,0,1-1-1v-8.87a1,1,0,0,1,1-1h24A5.43,5.43,0,0,1,169.2,166Z"/></g></g></svg>