<?xml version="1.0" encoding="utf-8"?>
<!-- Generator: Adobe Illustrator 23.0.2, SVG Export Plug-In . SVG Version: 6.00 Build 0)  -->
<svg version="1.1" id="Layer_1" xmlns="http://www.w3.org/2000/svg" xmlns:xlink="http://www.w3.org/1999/xlink" x="0px" y="0px"
	 viewBox="0 0 152.5 182.5" style="enable-background:new 0 0 152.5 182.5;" xml:space="preserve">
<style type="text/css">
	.st0{fill:#161821;}
	.st1{fill:#F08080;}
</style>
<title>Quicker</title>
<g>
	<g id="Layer_3">
		<path class="st0" d="M73.3,45.3C38,45.3,9.3,73.9,9.3,109.2s28.6,63.9,63.9,63.9s63.9-28.6,63.9-63.9l0,0
			C137.2,73.9,108.6,45.3,73.3,45.3z M73.3,168.1c-32.5,0-58.9-26.4-58.9-58.9c0-32.5,26.4-58.9,58.9-58.9s58.9,26.4,58.9,58.9v0
			C132.2,141.7,105.8,168.1,73.3,168.1z"/>
		<path class="st0" d="M150.9,52.3l-19.8-19.8c-2.2-2.2-5.8-2.2-8,0l-13.2,13.2c-6.8-3.9-14.1-6.7-21.8-8.3V23.9h12.6
			c3.5,0,6.3-2.9,6.3-6.3V6.3c0-3.5-2.8-6.3-6.3-6.3H47c-3.5,0-6.3,2.8-6.3,6.3v11.2c0,3.5,2.8,6.3,6.3,6.3h13.3v13.2
			C20.4,44.3-6.1,82.4,1.1,122.2s45.3,66.3,85.1,59.2s66.3-45.3,59.2-85.1c-1.4-7.9-4.1-15.5-8-22.5l13.4-13.4
			C153.1,58.2,153.1,54.6,150.9,52.3z M45.7,17.5V6.3C45.7,5.6,46.3,5,47,5h53.7c0.7,0,1.3,0.6,1.3,1.3v11.2c0,0.7-0.6,1.3-1.3,1.3
			H47C46.3,18.9,45.7,18.3,45.7,17.5L45.7,17.5z M65.3,23.9h17.8v12.7c-3.2-0.4-6.5-0.7-9.8-0.7c-2.7,0-5.3,0.2-8,0.4L65.3,23.9z
			 M73.3,177.5C35.6,177.5,5,146.9,5,109.2s30.6-68.3,68.3-68.3s68.3,30.6,68.3,68.3c0,0,0,0,0,0C141.5,146.9,111,177.4,73.3,177.5
			L73.3,177.5z M147.3,56.8l-12.5,12.6c-5.4-8.3-12.4-15.4-20.5-20.9l12.4-12.4c0.3-0.3,0.7-0.3,1,0c0,0,0,0,0,0l19.8,19.8
			C147.6,56.2,147.6,56.6,147.3,56.8L147.3,56.8z"/>
		<path class="st1" d="M73.2,62.3c3.9,0,3.9-6,0-6S69.4,62.3,73.2,62.3z"/>
		<path class="st1" d="M97.9,68.8c3.9,0,3.9-6,0-6S94,68.8,97.9,68.8z"/>
		<path class="st1" d="M116.1,87.4c3.9,0,3.9-6,0-6S112.3,87.4,116.1,87.4z"/>
		<path class="st1" d="M123.2,112c3.9,0,3.9-6,0-6S119.3,112,123.2,112z"/>
		<path class="st1" d="M116.4,130.8c-3.9,0-3.9,6,0,6S120.2,130.8,116.4,130.8z"/>
		<path class="st1" d="M98.1,149.3c-3.9,0-3.9,6,0,6S102,149.3,98.1,149.3z"/>
		<path class="st1" d="M73,156.1c-3.9,0-3.9,6,0,6S76.9,156.1,73,156.1z"/>
		<path class="st1" d="M48.1,149.9c-3.9,0-3.9,6,0,6S51.9,149.9,48.1,149.9z"/>
		<path class="st1" d="M29.9,131.2c-3.9,0-3.9,6,0,6S33.8,131.2,29.9,131.2z"/>
		<path class="st1" d="M23.4,106.3c-3.9,0-3.9,6,0,6S27.3,106.3,23.4,106.3z"/>
		<path class="st1" d="M29.9,81.2c-3.9,0-3.9,6,0,6S33.8,81.2,29.9,81.2z"/>
		<path class="st1" d="M48.1,63.5c-3.9,0-3.9,6,0,6S52,63.5,48.1,63.5z"/>
		<path class="st0" d="M75.6,100.4V74c-0.2-1.3-1.4-2.1-2.6-2c-1,0.1-1.8,0.9-2,2v26.3c-4.4,1.3-6.9,5.9-5.6,10.3
			c0.8,2.7,2.9,4.8,5.6,5.6v4.3c0.1,1.3,1.2,2.2,2.5,2.2c1.2-0.1,2.1-1,2.2-2.2v-4.3c4.4-1.3,6.9-5.9,5.6-10.3
			C80.4,103.2,78.3,101.1,75.6,100.4L75.6,100.4z"/>
	</g>
</g>
</svg>
