<?xml version="1.0" encoding="utf-8"?>
<!-- Generator: Adobe Illustrator 23.0.2, SVG Export Plug-In . SVG Version: 6.00 Build 0)  -->
<svg version="1.1" id="Layer_1" xmlns="http://www.w3.org/2000/svg" xmlns:xlink="http://www.w3.org/1999/xlink" x="0px" y="0px"
	 viewBox="0 0 167.8 162.9" style="enable-background:new 0 0 167.8 162.9;" xml:space="preserve">
<style type="text/css">
	.st0{fill:#161821;}
	.st1{fill:#F08080;}
</style>
<title>Safe</title>
<g>
	<g id="Layer_3">
		<path class="st0" d="M8.7,53.6c-0.6,0-1.2-0.1-1.7-0.4v56.5c0.5-0.3,1.1-0.4,1.7-0.4c1.4,0,2.6,0.8,3.3,2V51.6
			C11.4,52.8,10.1,53.6,8.7,53.6z M152.3,0H22.5C13.9,0,7,6.9,7,15.4V35c0.5-0.3,1.1-0.4,1.7-0.4c1.4,0,2.6,0.8,3.3,2V15.4
			C12,9.7,16.7,5,22.5,5h129.9c5.8,0,10.4,4.7,10.4,10.4v132.1c0,5.8-4.7,10.4-10.4,10.4H22.5c-5.8,0-10.5-4.7-10.5-10.4l0,0v-21.4
			c-0.6,1.2-1.9,2-3.3,2c-0.6,0-1.2-0.2-1.7-0.4v19.8c0,8.5,6.9,15.4,15.4,15.4h129.9c8.5,0,15.4-6.9,15.4-15.4V15.4
			C167.7,6.9,160.8,0,152.3,0z M12,41.6H7v5h5V41.6z M7,116.2v5h5v-5H7z"/>
		<path class="st0" d="M138.1,55.8c-8.4-16.6-24.3-28-42.7-30.8c-1.7-0.2-3.3-0.4-5-0.5v5c1.7,0.1,3.3,0.3,5,0.6
			c16.2,2.7,30.2,12.8,37.9,27.3c0.8,1.5,1.5,3,2.1,4.6l4.8-1.5C139.5,58.9,138.8,57.3,138.1,55.8z M143.4,72.2
			c-0.3-1.7-0.6-3.3-1.1-4.9l-4.8,1.5c0.4,1.6,0.8,3.3,1,4.9c2.6,16.4-2.8,33-14.4,44.8c-1.2,1.2-2.4,2.3-3.7,3.4l2.9,4.1
			c1.3-1.1,2.5-2.2,3.7-3.4c10.9-10.8,17.1-25.5,17.1-40.8C144.2,78.6,144,75.3,143.4,72.2z M78.2,25C59.8,27.8,44,39.3,35.6,55.8
			c-0.7,1.5-1.4,3-2.1,4.6l4.7,1.6c0.6-1.6,1.3-3.1,2.1-4.5C48,42.9,62,32.8,78.2,30.1c1.7-0.3,3.3-0.5,5-0.6v-5
			C81.5,24.6,79.8,24.7,78.2,25z M49.4,118.6c-11.6-11.8-17-28.4-14.4-44.8c0.2-1.7,0.6-3.4,1-5l-4.7-1.6c-0.4,1.6-0.8,3.3-1.1,4.9
			c-3.2,18.5,2.9,37.3,16.2,50.5c1.2,1.2,2.4,2.3,3.7,3.4l3-4C51.8,120.9,50.6,119.7,49.4,118.6z M114.8,126.2
			c-1.4,0.9-2.9,1.7-4.4,2.5c-14.8,7.5-32.3,7.5-47.1,0c-1.5-0.8-3-1.6-4.4-2.5l-3,4c1.4,0.9,2.9,1.8,4.3,2.5
			c16.6,8.7,36.4,8.7,53.1,0c1.5-0.8,2.9-1.6,4.3-2.5L114.8,126.2z"/>
		<path class="st0" d="M86.8,65.3c-9.1,0-16.5,7.4-16.6,16.5s7.4,16.5,16.5,16.5s16.5-7.4,16.6-16.5l0,0
			C103.3,72.7,95.9,65.3,86.8,65.3z M86.8,93.3c-6.4,0-11.5-5.2-11.5-11.5c0-6.4,5.2-11.5,11.5-11.5c6.4,0,11.5,5.2,11.5,11.5l0,0
			C98.3,88.2,93.2,93.3,86.8,93.3z"/>
		<path class="st1" d="M95.3,21.4v29.3c0,1.4-1.1,2.5-2.5,2.5c-0.2,0-0.3,0-0.5,0c-1.2-0.2-2-1.3-2-2.5V21.4c-0.1-2-1.8-3.5-3.8-3.4
			c-1.8,0.1-3.3,1.6-3.4,3.4v29.3c0,1.2-0.8,2.2-2,2.5h-0.2h-0.3c-1.4,0-2.5-1.1-2.5-2.5V21.4c0.2-4.7,4.1-8.5,8.9-8.3
			C91.6,13.3,95.2,16.9,95.3,21.4z"/>
		<path class="st1" d="M152.1,66.8c-1.1,2-2.9,3.5-5.1,4.2l-3.6,1.1l-4.8,1.5l-17.8,5.6l-0.7,0.2l-1.1,0.3c-0.2,0.1-0.5,0.1-0.8,0.1
			c-0.8,0-1.6-0.4-2.1-1.2c-0.1-0.2-0.2-0.4-0.3-0.6c-0.4-1.3,0.3-2.7,1.6-3.1l0,0l2.5-0.8l17.5-5.5l4.8-1.5l3.1-1
			c0.9-0.3,1.7-0.9,2.1-1.8c0.9-1.8,0.2-3.9-1.5-4.8c-0.8-0.4-1.8-0.5-2.7-0.2l-3.3,1l-4.8,1.5l-17.6,5.5l-2.4,0.8
			c-0.3,0.1-0.6,0.1-0.9,0.1c-1-0.1-1.9-0.8-2.2-1.7c-0.4-1.3,0.3-2.7,1.6-3.1l0.7-0.2L115,63l18-5.7l4.8-1.5l3.8-1.2
			c4.5-1.4,9.3,1.1,10.8,5.6C153.4,62.4,153.1,64.8,152.1,66.8z"/>
		<path class="st1" d="M127.4,137.9c-1.5,1-3.2,1.6-5,1.6c-0.5,0-1,0-1.5-0.1c-2.2-0.4-4.2-1.6-5.6-3.5l-2.2-3.1l-2.9-4.1
			l-10.7-15.2l-1.1-1.5c-0.8-1.1-0.5-2.7,0.6-3.5c0.1-0.1,0.2-0.1,0.3-0.2l0,0c1.1-0.5,2.4-0.2,3.2,0.8l1.3,1.9l0.2,0.3l10.6,15
			l2.9,4.1l1.9,2.7c1.1,1.6,3.4,2,5,0.9s2-3.4,0.8-5l-2-2.8l-2.9-4.1l-10.6-15l-1.4-2c-0.8-1.1-0.5-2.7,0.6-3.5s2.7-0.5,3.5,0.6
			l0.8,1.2l10.8,15.3l2.9,4.1l2.3,3.3C132.2,129.8,131.3,135.2,127.4,137.9z"/>
		<path class="st1" d="M75.4,112.5l-0.9,1.2l-11.3,15l-3,4.1l-2.5,3.3c-2.9,3.8-8.3,4.5-12,1.7c-3.8-2.9-4.5-8.3-1.7-12l2.3-3l3-4
			l11.2-14.9l1.1-1.5c0.8-1.1,2.4-1.3,3.5-0.5s1.3,2.4,0.5,3.5l-1.6,2.1l-11,14.6l-3,4l-2,2.7c-1.2,1.6-0.9,3.8,0.7,5s3.8,0.9,5-0.7
			l2.1-2.7l3-4l10.9-14.5l0.2-0.2l1.5-2c0.8-1,2.2-1.3,3.3-0.6c0.1,0,0.2,0.1,0.3,0.1C76.1,109.8,76.3,111.4,75.4,112.5z"/>
		<path class="st1" d="M61.3,67.3c-0.3,0.9-1.1,1.6-2.1,1.7c-0.4,0-0.8,0-1.1-0.1L55.6,68l-17.4-6l-4.7-1.6l-3.1-1.1
			c-0.9-0.3-1.9-0.3-2.7,0.2c-1.8,0.9-2.5,3-1.7,4.8c0.4,0.9,1.2,1.5,2.1,1.8l3.2,1.1l4.8,1.6l17.4,6l2.3,0.8c1.3,0.4,2,1.9,1.6,3.2
			l0,0c0,0.1-0.1,0.3-0.2,0.4l-0.1,0.1l0,0l0,0l0,0l0,0l0,0l0,0c-0.5,0.7-1.2,1.1-2,1.1c-0.3,0-0.6,0-0.8-0.1L53.7,80l-0.8-0.3
			l-17.9-6L30.2,72l-3.8-1.3C22,69,19.8,64,21.6,59.6c1.6-4.1,6.1-6.3,10.4-5.1l3.6,1.2l4.8,1.7L58,63.5l0.7,0.2l1,0.4
			C61,64.6,61.7,66,61.3,67.3z"/>
		<path class="st0" d="M90.3,50.8v-2.9c-1.2-0.1-2.4-0.2-3.5-0.2c-1.2,0-2.4,0.1-3.6,0.2v2.9c0,1.2-0.8,2.2-2,2.5
			c1-0.2,2.1-0.4,3.1-0.4c0.8-0.1,1.7-0.1,2.5-0.1s1.7,0,2.5,0.1c1,0.1,2,0.2,3,0.4C91.2,53,90.3,51.9,90.3,50.8z M59.2,69
			c-0.4,0-0.8,0-1.1-0.1L55.6,68c-1,2.2-1.7,4.5-2.2,6.8l2.3,0.8c1.3,0.4,2,1.9,1.6,3.2l0,0c0,0.1-0.1,0.3-0.2,0.4L57,79.3l0,0l0,0
			l0,0l0,0l0,0l0,0h0.8c0.3-3.4,1.1-6.7,2.6-9.8L59.2,69z M59.2,69c-0.4,0-0.8,0-1.1-0.1L55.6,68c-1,2.2-1.7,4.5-2.2,6.8l2.3,0.8
			c1.3,0.4,2,1.9,1.6,3.2l0,0c0,0.1-0.1,0.3-0.2,0.4L57,79.3l0,0l0,0l0,0l0,0l0,0h0.8c0.3-3.4,1.1-6.7,2.6-9.8L59.2,69z M59.2,69
			c-0.4,0-0.8,0-1.1-0.1L55.6,68c-1,2.2-1.7,4.5-2.2,6.8l2.3,0.8c1.3,0.4,2,1.9,1.6,3.2l0,0c0,0.1-0.1,0.3-0.2,0.4L57,79.3l0,0l0,0
			l0,0l0,0l0,0h0.8c0.3-3.4,1.1-6.7,2.6-9.8L59.2,69z M120.9,81.3L120.9,81.3c0-0.7,0-1.3-0.1-2c-0.1-1.7-0.4-3.4-0.8-5
			c-0.5-2.3-1.3-4.6-2.3-6.8c-0.4-0.9-0.9-1.9-1.4-2.8c0-0.1-0.1-0.1-0.1-0.2c-0.1-0.1-0.2-0.3-0.2-0.4l0,0
			c-0.2-0.4-0.4-0.7-0.7-1.1c-2.9-4.4-6.8-8.1-11.3-10.7c-0.1-0.1-0.1-0.1-0.2-0.1l-0.2-0.1c0,0,0,0-0.1,0c-2.6-1.5-5.3-2.6-8.2-3.3
			c-2.8-0.7-5.7-1.1-8.5-1.1c-1.2,0-2.4,0.1-3.6,0.2c-1.7,0.2-3.4,0.5-5,0.9C69.8,51,62.6,56.3,58,63.5l-0.6,1
			c-0.2,0.3-0.3,0.6-0.5,0.8l0,0c-0.5,0.8-0.9,1.7-1.3,2.6c-1,2.2-1.7,4.5-2.2,6.8c-0.3,1.7-0.6,3.4-0.7,5.1c0,0.6,0,1.3,0,1.9
			c0,8,2.8,15.7,7.9,21.8c1.1,1.3,2.3,2.5,3.5,3.6c1.6,1.4,3.3,2.7,5.1,3.8l0,0l0.7,0.4c0.5,0.3,1,0.6,1.5,0.8l0,0
			c1,0.5,2,1,3.1,1.4c8.1,3.1,17,3,25-0.2c1.6-0.6,3.1-1.4,4.5-2.3c2.1-1.2,4-2.7,5.8-4.3c1.3-1.1,2.4-2.4,3.5-3.7
			c1.3-1.6,2.4-3.2,3.3-5l0,0l0.1-0.1c2.7-5,4.1-10.6,4.1-16.3C120.9,81.6,120.9,81.4,120.9,81.3z M103.7,105.5
			c-1.4,1-2.8,1.8-4.3,2.6c-3.1,1.5-6.4,2.4-9.8,2.7c-0.9,0.1-1.9,0.1-2.8,0.1c-0.7,0-1.5,0-2.2-0.1c-5-0.4-9.8-2.1-14-4.8
			c-3-2-5.7-4.7-7.8-7.7c-2.8-4.1-4.6-8.9-5-13.9c-0.1-0.9-0.1-1.7-0.1-2.6c0-0.8,0-1.6,0.1-2.4c0.3-3.4,1.1-6.7,2.6-9.8
			c0.7-1.5,1.5-3,2.5-4.3c1.9-2.8,4.3-5.2,7-7.1l0,0c1.4-1,2.8-1.8,4.3-2.6c2.1-1,4.4-1.8,6.8-2.3h0.2c1-0.2,2.1-0.4,3.1-0.4
			c0.8-0.1,1.7-0.1,2.5-0.1s1.7,0,2.5,0.1c1,0.1,2,0.2,3,0.4c3.9,0.8,7.7,2.3,11,4.6c2.8,1.9,5.2,4.3,7.2,7c1,1.4,1.8,2.8,2.6,4.3
			c1.5,3,2.4,6.3,2.8,9.6c0.1,1,0.2,2,0.2,3c0,0.7,0,1.3-0.1,2c-0.4,5-2,9.9-4.9,14.1C109,100.9,106.5,103.4,103.7,105.5z M59.2,69
			c-0.4,0-0.8,0-1.1-0.1L55.6,68c-1,2.2-1.7,4.5-2.2,6.8l2.3,0.8c1.3,0.4,2,1.9,1.6,3.2l0,0c0,0.1-0.1,0.3-0.2,0.4L57,79.3l0,0l0,0
			l0,0l0,0l0,0h0.8c0.3-3.4,1.1-6.7,2.6-9.8L59.2,69z M59.2,69c-0.4,0-0.8,0-1.1-0.1L55.6,68c-1,2.2-1.7,4.5-2.2,6.8l2.3,0.8
			c1.3,0.4,2,1.9,1.6,3.2l0,0c0,0.1-0.1,0.3-0.2,0.4L57,79.3l0,0l0,0l0,0l0,0l0,0h0.8c0.3-3.4,1.1-6.7,2.6-9.8L59.2,69z"/>
		<path class="st0" d="M12,30.3c-1-0.4-2.2-0.7-3.3-0.6c-4.8,0-8.7,3.9-8.7,8.7v11.5c0,4.8,3.9,8.7,8.7,8.7l0,0
			c1.1,0,2.2-0.2,3.3-0.7c3.3-1.3,5.4-4.5,5.4-8.1V38.4C17.4,34.8,15.3,31.6,12,30.3z M12.4,49.8c0,2.1-1.7,3.7-3.7,3.7l0,0
			c-0.6,0-1.2-0.1-1.7-0.4c-1.2-0.6-2-1.9-2-3.3V38.4c0-1.4,0.8-2.7,2-3.3c0.5-0.3,1.1-0.4,1.7-0.4c2.1,0,3.7,1.7,3.7,3.7l0,0V49.8z
			"/>
		<path class="st0" d="M86.8,59.7c-1.4,0-2.5-1.1-2.5-2.5l0,0v-7c0-1.4,1.1-2.5,2.5-2.5s2.5,1.1,2.5,2.5v7
			C89.3,58.6,88.2,59.7,86.8,59.7z"/>
		<path class="st0" d="M99,62.9c-0.4,0-0.9-0.1-1.2-0.3c-1.2-0.7-1.6-2.2-0.9-3.4l0,0l3.5-6.1c0.6-1.2,2.1-1.7,3.4-1.1
			c1.2,0.6,1.7,2.1,1.1,3.4c0,0.1-0.1,0.1-0.1,0.2l-3.5,6.1C100.7,62.4,99.9,62.9,99,62.9z"/>
		<path class="st0" d="M108,71.7c-1.4,0-2.5-1.1-2.5-2.5c0-0.9,0.5-1.7,1.2-2.2l6-3.6c1.2-0.7,2.7-0.4,3.4,0.8
			c0.7,1.2,0.4,2.7-0.8,3.4c0,0,0,0-0.1,0l-6,3.6C108.9,71.6,108.4,71.7,108,71.7z"/>
		<path class="st0" d="M111.4,83.9c-1.4,0-2.5-1.1-2.5-2.5s1.1-2.5,2.5-2.5l7-0.1l0,0c1.4,0,2.5,1.1,2.5,2.5s-1.1,2.5-2.5,2.5
			L111.4,83.9z"/>
		<path class="st0" d="M114.5,99.5c-0.4,0-0.8-0.1-1.2-0.3l-6.1-3.4c-1.2-0.7-1.7-2.2-1-3.4c0.7-1.2,2.2-1.7,3.4-1l6.1,3.4
			c1.2,0.7,1.7,2.2,1,3.4C116.3,99,115.4,99.5,114.5,99.5z"/>
		<path class="st0" d="M102.7,111.2c-0.9,0-1.7-0.5-2.1-1.2l-3.7-6c-0.7-1.2-0.4-2.7,0.8-3.4s2.7-0.4,3.4,0.8l3.7,6
			c0.7,1.2,0.4,2.7-0.8,3.4C103.6,111.1,103.2,111.2,102.7,111.2z"/>
		<path class="st0" d="M87.2,115.9c-1.3,0-2.5-1.1-2.5-2.4l-0.2-7c-0.1-1.4,1-2.5,2.4-2.6l0,0H87c1.3,0,2.5,1.1,2.5,2.4l0.2,7
			C89.7,114.7,88.7,115.8,87.2,115.9L87.2,115.9z"/>
		<path class="st0" d="M71.4,112.3c-0.4,0-0.8-0.1-1.2-0.3c-1.2-0.7-1.6-2.2-1-3.4l3.3-6.2c0.6-1.2,2.2-1.7,3.4-1.1
			c1.2,0.6,1.7,2.2,1,3.4l-3.3,6.2C73.2,111.8,72.3,112.3,71.4,112.3z"/>
		<path class="st0" d="M59.5,100c-1.4,0-2.5-1.1-2.5-2.5c0-0.9,0.4-1.7,1.2-2.1l5.9-3.8c1.2-0.7,2.7-0.4,3.5,0.8
			c0.7,1.2,0.4,2.7-0.8,3.5l0,0l-5.9,3.8C60.4,99.9,60,100,59.5,100z"/>
		<path class="st0" d="M55.2,84.6c-1.4,0-2.5-1.1-2.6-2.4c0-1.4,1.1-2.5,2.4-2.6l7-0.4c1.4-0.1,2.6,1,2.6,2.4c0.1,1.4-1,2.6-2.4,2.6
			L55.2,84.6L55.2,84.6z"/>
		<path class="st0" d="M65.5,71.9c-0.4,0-0.8-0.1-1.1-0.3l-6.2-3.1c-1.3-0.5-1.9-2-1.3-3.3c0.5-1.3,2-1.9,3.3-1.3
			c0.1,0,0.2,0.1,0.3,0.2l6.2,3.1c1.2,0.6,1.7,2.1,1.1,3.4C67.3,71.3,66.4,71.9,65.5,71.9L65.5,71.9z"/>
		<path class="st0" d="M74.5,63.1c-0.8,0-1.6-0.4-2.1-1.1l-3.9-5.8c-0.8-1.2-0.4-2.7,0.7-3.5c1.2-0.8,2.7-0.4,3.5,0.7l3.9,5.8
			c0.8,1.1,0.5,2.7-0.7,3.5C75.5,63,75,63.1,74.5,63.1L74.5,63.1z"/>
		<path class="st0" d="M12,104.8c-1-0.4-2.2-0.7-3.3-0.7c-4.8,0-8.7,3.9-8.7,8.7v11.5c0,4.8,3.9,8.7,8.7,8.7l0,0
			c1.1,0,2.2-0.2,3.3-0.6c3.3-1.3,5.4-4.5,5.4-8.1v-11.5C17.5,109.4,15.3,106.2,12,104.8z M12.4,124.4c0,2.1-1.7,3.7-3.7,3.7l0,0
			c-0.6,0-1.2-0.1-1.7-0.4c-1.2-0.6-2-1.9-2-3.3v-11.5c0-1.4,0.8-2.7,2-3.3c0.5-0.3,1.1-0.4,1.7-0.4c1.4,0,2.6,0.8,3.3,2
			c0.3,0.5,0.4,1.1,0.4,1.8V124.4z"/>
		<path class="st0" d="M17.5,118.7c0,1.4-1.1,2.5-2.5,2.5l0,0H2.5c-1.4,0-2.5-1.1-2.5-2.5s1.1-2.5,2.5-2.5H15
			C16.4,116.2,17.5,117.3,17.5,118.7z"/>
		<path class="st0" d="M17.5,44.1c0,1.4-1.1,2.5-2.5,2.5H2.5c-1.4,0-2.5-1.1-2.5-2.5s1.1-2.5,2.5-2.5H15
			C16.4,41.6,17.5,42.7,17.5,44.1z"/>
		<path class="st1" d="M20.3,19.2c5.1,0,5.2-8,0-8S15.2,19.2,20.3,19.2z"/>
		<path class="st1" d="M153.1,19.5c5.1,0,5.1-8,0-8S148,19.5,153.1,19.5z"/>
		<path class="st1" d="M61.4,50.6c5.1,0,5.1-8,0-8S56.2,50.6,61.4,50.6z"/>
		<path class="st1" d="M112.1,50.3c5.2,0,5.2-8,0-8S106.9,50.3,112.1,50.3z"/>
		<path class="st1" d="M127.7,99c5.1,0,5.2-8,0-8S122.5,99,127.7,99z"/>
		<path class="st1" d="M86.8,128.8c5.2,0,5.2-8,0-8S81.7,128.8,86.8,128.8z"/>
		<path class="st1" d="M45.6,99c5.2,0,5.2-8,0-8S40.4,99,45.6,99z"/>
		<path class="st1" d="M152.9,151.8c5.1,0,5.2-8,0-8S147.8,151.8,152.9,151.8z"/>
		<path class="st1" d="M20.1,152.3c5.1,0,5.1-8,0-8S15,152.3,20.1,152.3z"/>
	</g>
</g>
</svg>
