<?xml version="1.0" encoding="utf-8"?>
<!-- Generator: Adobe Illustrator 23.0.2, SVG Export Plug-In . SVG Version: 6.00 Build 0)  -->
<svg version="1.1" id="Layer_1" xmlns="http://www.w3.org/2000/svg" xmlns:xlink="http://www.w3.org/1999/xlink" x="0px" y="0px"
	 viewBox="0 0 208.4 183.1" style="enable-background:new 0 0 208.4 183.1;" xml:space="preserve">
<style type="text/css">
	.st0{fill:#F08080;}
	.st1{fill:#161821;}
</style>
<title>cold shoulder</title>
<g>
	<path class="st0" d="M129.7,22.7l0.1-0.1c2.4-2.4,2.4-6.2,0-8.6c-2.4-2.3-6.2-2.3-8.6,0c-0.1,0.1-0.1,0.1-0.2,0.2
		c-2.8-1.9-6.5-1.2-8.4,1.6c-1.4,2-1.4,4.7,0,6.8c-2.3,2.5-2.1,6.3,0.3,8.6c2.4,2.2,6,2.2,8.3-0.1l0.1-0.2l7.8,7.8
		c0.5,0.5,1.2,0.5,1.7,0c0.4-0.5,0.4-1.2,0-1.7l-10.7-10.7c-0.5-0.5-1.2-0.5-1.7,0c-0.5,0.5-0.5,1.2,0,1.7l1.2,1.2
		c0,0.1-0.1,0.1-0.1,0.2c-1.5,1.4-3.8,1.4-5.3,0c-1.4-1.5-1.4-3.8,0-5.3c0.8-0.7,1.8-1.1,2.8-1.1c0.6,0,1.2-0.5,1.2-1.1
		c0-0.6-0.5-1.2-1.1-1.2l0,0c-1,0-1.9,0.1-2.8,0.5c-1.1-1.7-0.7-4,1-5.1c1.3-0.9,3-0.8,4.2,0.1c-0.3,0.8-0.4,1.6-0.4,2.5
		c0,0.6,0.6,1.1,1.2,1.1c0,0,0,0,0,0c0.6,0,1.1-0.6,1.1-1.2c0,0,0,0,0,0c0-1.1,0.4-2.1,1.1-2.8c1.5-1.4,3.8-1.4,5.3,0
		c1.5,1.5,1.5,3.8,0,5.3l-0.1,0.1l-1.2-1.2c-0.5-0.5-1.2-0.5-1.7,0c-0.5,0.5-0.5,1.2,0,1.7l0,0l10.6,10.6c0.5,0.5,1.2,0.5,1.7,0
		c0.5-0.5,0.5-1.2,0-1.7L129.7,22.7z"/>
	<path class="st0" d="M128.9,28.8c-0.5-0.5-1.2-0.5-1.7,0c-0.5,0.5-0.5,1.2,0,1.7l8.4,8.4c0.5,0.5,1.2,0.5,1.7,0
		c0.5-0.5,0.5-1.2,0-1.7l0,0L128.9,28.8z"/>
	<path class="st0" d="M192.3,22.6c0.7-1,1-2.2,1-3.4c0-1.6-0.6-3.2-1.8-4.3c-2.1-2-5.3-2.3-7.7-0.7c-0.1-0.1-0.1-0.1-0.2-0.2
		c-2.4-2.3-6.2-2.3-8.6,0c-2.4,2.4-2.4,6.2,0,8.6c0,0,0,0,0,0l0.1,0.1l-7.8,7.8c-0.5,0.5-0.5,1.2,0,1.7c0.5,0.5,1.2,0.5,1.7,0l0,0
		l10.6-10.6c0.5-0.5,0.5-1.2,0-1.7c-0.5-0.5-1.2-0.5-1.7,0l-1.2,1.2l-0.1-0.1c-1.5-1.5-1.5-3.8,0-5.3c1.5-1.4,3.8-1.4,5.3,0
		c0.8,0.8,1.1,1.8,1.1,2.9c0,0.7,0.5,1.2,1.2,1.2c0.6,0,1.1-0.4,1.2-1c0-0.8-0.1-1.7-0.4-2.5c1.5-1,3.5-0.9,4.8,0.4
		c1.3,1.3,1.4,3.2,0.5,4.7c-0.9-0.4-1.8-0.6-2.8-0.5c-0.6,0-1.1,0.6-1.1,1.2c0,0.6,0.6,1.1,1.2,1.1l0,0c2.1-0.1,3.8,1.5,3.9,3.5
		c0.1,1.1-0.3,2.1-1.1,2.8c-1.5,1.4-3.8,1.4-5.3,0c0-0.1-0.1-0.1-0.1-0.2l1.2-1.2c0.5-0.5,0.5-1.2,0-1.7c-0.5-0.5-1.2-0.5-1.7,0
		l-10.6,10.6c-0.5,0.5-0.5,1.2,0,1.7c0.5,0.5,1.2,0.5,1.7,0l0,0l7.8-7.8l0.1,0.2c2.4,2.4,6.2,2.4,8.6,0c0,0,0,0,0,0
		C194.6,28.8,194.6,25,192.3,22.6z"/>
	<path class="st0" d="M177.7,28.8c-0.5-0.5-1.2-0.5-1.7,0c0,0,0,0,0,0l-8.4,8.4c-0.5,0.5-0.5,1.2,0,1.7c0.5,0.5,1.2,0.5,1.7,0l0,0
		l8.4-8.4C178.2,30,178.2,29.3,177.7,28.8C177.7,28.8,177.7,28.8,177.7,28.8z"/>
	<path class="st0" d="M158.2,4.9L158,5c-0.6-3.3-3.8-5.4-7.1-4.8c-2.4,0.5-4.3,2.4-4.8,4.8c-3.3,0.2-5.9,3-5.8,6.3
		c0.1,3.2,2.7,5.7,5.9,5.8h0.2v11c0,0.6,0.5,1.2,1.2,1.2c0.6,0,1.2-0.5,1.2-1.2V13c0-0.6-0.5-1.2-1.2-1.2c-0.6,0-1.2,0.5-1.2,1.2
		c0,0,0,0,0,0v1.7c-0.1,0-0.1,0-0.2,0c-2.1,0-3.7-1.7-3.7-3.7s1.7-3.7,3.7-3.7c1.1,0,2.1,0.5,2.8,1.3c0.3,0.6,1,0.8,1.6,0.5
		c0.6-0.3,0.8-1,0.5-1.6c-0.1-0.2-0.2-0.3-0.4-0.5c-0.6-0.7-1.4-1.3-2.3-1.6c0.4-2,2.4-3.3,4.4-2.9c1.5,0.3,2.7,1.5,2.9,3
		c-0.8,0.4-1.4,0.9-2,1.5c-0.4,0.5-0.4,1.2,0.1,1.7c0.5,0.4,1.2,0.4,1.7-0.1l0,0c1.4-1.5,3.7-1.7,5.3-0.3c1.5,1.4,1.7,3.7,0.3,5.3
		c-0.7,0.8-1.7,1.2-2.8,1.2H158V13c-0.1-0.6-0.6-1.1-1.3-1.1c-0.6,0.1-1,0.5-1.1,1.1v15.1c0.1,0.6,0.6,1.1,1.3,1.1
		c0.6-0.1,1-0.5,1.1-1.1v-11h0.1c3.3,0.1,6.2-2.5,6.3-5.8c0.1-3.3-2.5-6.2-5.8-6.3C158.5,4.9,158.4,4.9,158.2,4.9L158.2,4.9z"/>
	<path class="st0" d="M152,19.6c-0.6,0-1.2,0.5-1.2,1.2v11.8c-0.1,0.6,0.4,1.2,1.1,1.3c0.6,0.1,1.2-0.4,1.3-1.1c0-0.1,0-0.1,0-0.2
		V20.7C153.2,20.1,152.6,19.6,152,19.6C152,19.6,152,19.6,152,19.6z"/>
	<path class="st0" d="M20,22.7l0.1-0.1c2.4-2.4,2.4-6.2,0-8.6c-2.4-2.3-6.2-2.3-8.6,0c-0.1,0.1-0.1,0.1-0.2,0.2
		c-2.8-1.9-6.5-1.2-8.4,1.6c-1.4,2-1.4,4.7,0,6.8c-2.3,2.5-2.1,6.3,0.3,8.6c2.4,2.2,6,2.2,8.3-0.1l0.1-0.2l7.8,7.8
		c0.5,0.5,1.2,0.5,1.7,0c0.5-0.5,0.5-1.2,0-1.7L10.4,26.5c-0.5-0.5-1.2-0.5-1.7,0s-0.5,1.2,0,1.7l0,0l1.2,1.2l-0.1,0.2
		c-1.5,1.4-3.8,1.4-5.3,0c-1.4-1.5-1.4-3.8,0-5.3c0.8-0.7,1.8-1.1,2.8-1.1c0.6,0,1.2-0.5,1.2-1.1c0-0.6-0.5-1.2-1.1-1.2
		c-1,0-1.9,0.1-2.8,0.5c-1.1-1.7-0.7-4,1-5.1c1.3-0.9,3-0.8,4.2,0.1c-0.3,0.8-0.4,1.6-0.4,2.5c0,0.6,0.6,1.1,1.2,1.1
		c0.6,0,1.1-0.6,1.1-1.2l0,0c-0.1-1.1,0.3-2.1,1.1-2.8c1.5-1.4,3.8-1.4,5.3,0c1.5,1.5,1.5,3.8,0,5.3L18.3,21l-1.2-1.2
		c-0.5-0.5-1.2-0.5-1.7,0s-0.5,1.2,0,1.7l10.6,10.6c0.5,0.5,1.2,0.5,1.7,0c0.5-0.5,0.5-1.2,0-1.7L20,22.7z"/>
	<path class="st0" d="M19.1,28.8c-0.5-0.5-1.2-0.5-1.7,0c-0.5,0.5-0.5,1.2,0,1.7l8.4,8.4c0.5,0.5,1.2,0.5,1.7,0
		c0.5-0.5,0.5-1.2,0-1.7L19.1,28.8z"/>
	<path class="st0" d="M82.5,22.6c1.6-2.4,1.3-5.6-0.8-7.7c-2.1-2-5.3-2.3-7.7-0.7c-0.1-0.1-0.1-0.1-0.2-0.2c-2.4-2.3-6.2-2.3-8.6,0
		c-2.4,2.4-2.4,6.2,0,8.6c0,0,0,0,0,0l0.1,0.1l-7.8,7.8c-0.5,0.5-0.5,1.2,0,1.7c0.5,0.5,1.2,0.5,1.7,0l10.7-10.6
		c0.5-0.5,0.5-1.2,0-1.7c-0.5-0.5-1.2-0.5-1.7,0L67.1,21L67,21c-1.5-1.5-1.5-3.8,0-5.3c1.5-1.4,3.8-1.4,5.3,0
		c0.8,0.8,1.1,1.8,1.1,2.9c0,0.6,0.5,1.2,1.1,1.2s1.2-0.5,1.2-1.1l0,0c0-0.8-0.1-1.7-0.4-2.5c1.5-1,3.5-0.9,4.8,0.4
		c0.7,0.7,1.1,1.6,1.1,2.6c0,0.7-0.2,1.4-0.6,2.1c-0.9-0.4-1.8-0.6-2.8-0.5c-0.6,0-1.1,0.6-1.1,1.2c0,0.6,0.6,1.1,1.2,1.1l0,0
		c2.1-0.1,3.8,1.5,3.9,3.5c0.1,1.1-0.3,2.1-1.1,2.8c-1.5,1.4-3.8,1.4-5.3,0c0,0-0.1-0.1-0.1-0.2l1.2-1.2c0.5-0.5,0.5-1.2,0-1.7
		c-0.5-0.5-1.2-0.5-1.7,0L64.2,37.2c-0.5,0.5-0.5,1.2,0,1.7c0.5,0.5,1.2,0.5,1.7,0l7.8-7.8l0.1,0.2c2.4,2.3,6.3,2.2,8.6-0.2
		C84.6,28.6,84.7,25,82.5,22.6z"/>
	<path class="st0" d="M67.9,28.8c-0.5-0.5-1.2-0.5-1.7,0c0,0,0,0,0,0l-8.4,8.4c-0.4,0.5-0.4,1.2,0,1.7c0.4,0.5,1.2,0.5,1.6,0
		c0,0,0,0,0,0l8.4-8.4C68.3,30,68.4,29.3,67.9,28.8C67.9,28.8,67.9,28.8,67.9,28.8z"/>
	<path class="st0" d="M48.4,4.9h-0.3c-0.6-3.3-3.8-5.4-7.1-4.8c-2.4,0.5-4.3,2.4-4.8,4.8c-3.3,0.2-5.9,3-5.8,6.3
		c0.1,3.2,2.7,5.7,5.9,5.8h0.2v11c0,0.6,0.5,1.2,1.2,1.2c0.6,0,1.2-0.5,1.2-1.2c0,0,0,0,0,0V13c0-0.6-0.5-1.2-1.2-1.2
		c-0.6,0-1.2,0.5-1.2,1.2c0,0,0,0,0,0v1.7c-0.1,0-0.1,0-0.2,0c-2.1,0-3.7-1.7-3.7-3.7s1.7-3.7,3.7-3.7c1.1,0,2.1,0.5,2.8,1.3
		c0.3,0.6,1,0.8,1.6,0.5c0.6-0.3,0.8-1,0.5-1.6C41.1,7.2,41,7.1,40.8,7c-0.6-0.7-1.4-1.3-2.3-1.6c0.4-2,2.4-3.3,4.4-2.9
		c1.5,0.3,2.7,1.5,2.9,3c-0.8,0.4-1.4,0.9-2,1.5c-0.4,0.5-0.4,1.2,0.1,1.7c0.5,0.4,1.2,0.4,1.7-0.1l0,0c1.4-1.5,3.7-1.7,5.3-0.3
		c1.5,1.4,1.7,3.7,0.3,5.3c-0.7,0.8-1.7,1.2-2.8,1.2h-0.1V13c-0.1-0.6-0.6-1.1-1.3-1.1c-0.6,0.1-1,0.5-1.1,1.1v15.1
		c0.1,0.6,0.6,1.1,1.3,1.1c0.6-0.1,1-0.5,1.1-1.1v-11h0.1c3.3,0.1,6.2-2.5,6.3-5.8c0.1-3.3-2.5-6.2-5.8-6.3
		C48.7,4.9,48.5,4.9,48.4,4.9L48.4,4.9z"/>
	<path class="st0" d="M42.2,19.6c-0.6,0-1.2,0.5-1.2,1.1c0,0,0,0,0,0v11.8c-0.1,0.6,0.4,1.2,1.1,1.3c0.6,0.1,1.2-0.4,1.3-1.1
		c0-0.1,0-0.1,0-0.2V20.7C43.3,20.1,42.8,19.6,42.2,19.6z"/>
	<g>
		<path class="st1" d="M77.4,117.4c-0.5-0.6-1.3-0.9-2.1-0.7c-0.1,0-0.1,0-0.2,0.1c-2,0.5-4.2,0.2-6-0.8c-0.1-0.1-0.2-0.2-0.3-0.2
			c0,0,0-0.1,0-0.1c-1.4-1.2-2.3-2.8-2.6-4.6c-0.3-1.5-0.4-3-0.4-4.5c0-0.5,0-1,0-1.5c0-0.9,0.1-1.9,0.1-2.9
			c0.1-1.2,0.1-2.5,0.1-3.7c0-1.4,0-2.8-0.2-4.2c-0.5-4.3-1.3-9-3.8-11.6c0,0,0,0,0,0c1.1-0.2,2-0.8,2.7-1.7c1.1-1.3,1.8-2.8,2-4.5
			c0.5-2.9-0.4-5.6-2.1-7l-0.2-0.2c-1.2-9.9-9.7-17.6-19.9-17.6c-10.9,0-19.3,7.5-20,17.6c-1.8,1.3-2.7,4-2.3,7.1
			c0.2,1.6,0.9,3.2,2,4.5c0.9,1,2.1,1.7,3.4,1.8c0,0,0,0,0,0c1.8,2.8,4.3,5.1,7.3,6.7c0,0,0,0,0,0c1.6,0.9,3.3,1.5,5,1.9
			c0,0,0.1,0,0.1,0c1.5,0.3,3,0.5,4.5,0.5c0.8,0,1.7,0,2.5-0.1c0,0,0,0,0.1,0c0.5,0.2,1,0.4,1.4,0.7c-0.1,1-0.2,1.9-0.3,2.8
			c0,0.2,0,0.3,0,0.5c0,0,0,0,0,0c0,0.2,0,0.3,0,0.5c-0.1,1.2-0.1,2.3-0.1,3.4l0,0c0,0,0,0,0,0c0,0.2,0,0.3,0,0.5c0,0,0,0,0,0
			c-1.5,0.8-3.2,1.2-5,1.1c-2.5,0.1-4.9-0.8-6.8-2.5c0,0,0,0,0,0c-0.7-0.7-1.2-1.6-1.3-2.6c0-0.3,0.1-0.7,0.2-1c0,0-0.1,0-0.1,0
			c0,0,0-0.1,0-0.1c-1.4,0.2-2.7,0.5-4,1c0,0,0,0.1,0,0.1c-1,0.4-2.1,0.8-3.1,1.3c-5.2,2.7-9.5,6.9-12.3,12l-7,12.4c0,0,0,0,0,0
			c-2.9,0.4-5.5,2.4-6.6,5.1c-0.8,1.8-0.9,3.7-0.4,5.5c0,0,0,0,0,0c-1.6,2.1-2.2,4.8-1.4,7.3c0.3,1.2,1,2.4,1.9,3.3
			c1.1,1.2,2.6,2.1,4.2,2.5c0.5,0.1,1.1,0.2,1.7,0.2c1.1,0,2.2-0.2,3.3-0.4l1.6-0.3l3.5-0.7c0,0,0,0,0,0L4.8,217c0,0.1,0,0.2,0,0.3
			c0,1.1,0.9,1.9,1.9,1.9h9.2h0.1h3.1v70.9c0,5.5,4.4,9.9,9.9,9.9c5.5,0,9.9-4.4,9.9-9.9c0,0,0,0,0,0v-70.9h0.3c0,0.3,0,0.5,0.1,0.8
			l9.5,69.4c0.4,3.4,2.1,6.5,4.9,8.6c1.4,1,3.1,1.6,4.9,1.6c0.6,0,1.2-0.1,1.8-0.2c5.4-1.2,8.9-7.4,8-14l-9-66.1h1.1h0.1h10.2
			c0.5,0,1.1-0.2,1.4-0.6c0.4-0.4,0.5-1,0.5-1.5l-9.3-92l0,0l0.1-0.1h0c0.7,0.1,1.4,0.2,2.1,0.2c1.7,0,3.3-0.4,4.8-1
			c1.6-0.7,3.1-1.5,4.5-2.5c0.3-0.2,0.6-0.5,0.9-0.7c0.2-0.2,0.6-0.5,0.6-0.5c1-0.3,1.5-1.4,1.3-2.4
			C77.7,117.8,77.6,117.6,77.4,117.4z M44.7,55.6c8.9,0,16.2,7.3,16.2,16.2c0,0.8-0.1,1.7-0.2,2.5c-0.1,1,0.6,2,1.6,2.2h0.3
			c0.1,0,0.3,0,0.4,0c-0.1,0.5-0.3,1-0.6,1.4c0,0,0,0-0.1,0c-0.1-0.1-0.2-0.2-0.3-0.2c0,0-0.1,0-0.2,0c0,0,0,0,0,0
			c-0.1-0.1-0.3-0.1-0.5-0.2C51,75.1,41.6,67.8,38.1,62c-0.4-0.7-1.1-1.1-1.9-1.2c-1.5-0.2-2.8,0.8-3,2.2c-0.4,2.6-2.2,4.7-4.5,5.7
			C29.6,61.1,36.2,55.6,44.7,55.6z M29.8,78c-0.5-1-1.6-1.4-2.6-1c-0.2,0.1-0.3,0.2-0.5,0.3c-0.2-0.5-0.4-1-0.5-1.5
			c-0.2-1.1,0-2.1,0.2-2.7c0.1,0,0.2,0,0.3,0c4.2-0.4,7.8-3,9.5-6.9C40.7,71.9,49,78,58.4,80.6c-2.4,3.8-6.3,6.3-10.7,7
			c-1,0.2-2,0.3-3,0.3c-1.5,0-3-0.2-4.5-0.6C35.5,85.9,31.7,82.5,29.8,78z M59.5,123.6c0,0.1,0,0.2,0,0.3l0,0.3l-14.2,20.6
			c-0.2,0.2-0.4,0.4-0.5,0.7c-0.8,1.7-2.4,2.7-4.2,2.8c-0.6,0-1.3-0.1-1.8-0.4l-13-5.6l10.3-2.7l0.9-0.2c0.4,0,0.7-0.1,1-0.4
			c0,0,0,0,0,0c0.1-0.1,0.3-0.2,0.4-0.4l0.3-0.5l1.1-1.6L47,126l5.4-7.8c0.2-0.3,0.3-0.6,0.3-0.9c0,0,0,0,0,0c0,0,0,0,0,0
			C54.4,119.9,56.7,122.1,59.5,123.6z M19.2,111.3c2.5-4.5,6.2-8.1,10.7-10.5c0.7-0.4,1.5-0.7,2.3-1c0,0,0,0,0,0
			c1.8,3.2,6,5.3,10.9,5.3c1.8,0,3.5-0.3,5.1-0.9c0,0,0.1,0,0.1,0c0,0,0,0,0,0.1c0.3,3.8,1.4,7.6,3.2,11c0,0,0,0,0,0c0,0,0,0,0,0
			c-0.8-0.4-1.8-0.1-2.3,0.7l-4.3,6.2c0,0,0,0,0,0c-1.9-1-4.1-1.3-6.2-0.8l-13.3,3.4l-4.1,1l-0.4,0.1l0,0l-7.6-3.2
			c-0.1-0.1-0.2-0.1-0.3-0.1L19.2,111.3z M9.5,125.8c0.1,0,0.3,0.1,0.4,0.1c0.6,0,1.3,0.1,1.8,0.4l2.8,1.2l-8.1,2.1
			c-0.2,0-0.4,0.1-0.6,0.2c-0.2,0.1-0.3,0.1-0.5,0.2c0,0,0,0,0,0c0.1-0.4,0.2-0.9,0.3-1.3C6.3,127,7.8,126,9.5,125.8z M12.2,141.4
			l-1.6,0.3c-1.1,0.3-2.3,0.4-3.4,0.3c-0.8-0.2-1.6-0.7-2.2-1.3c-0.5-0.5-0.8-1.1-1-1.7c-0.4-1.4-0.1-2.9,0.9-4.1
			c0.5-0.3,1-0.7,1.5-1.1c0.3-0.2,0.6-0.3,0.9-0.4l13.7-3.5h0l0.1,0c0,0,0.1,0,0.1,0l2.3-0.6c0.1,0,0.1,0,0.2-0.1l15.9-4
			c1-0.3,2.1-0.2,3,0.3l-6.1,8.9l-0.8,1.2l-0.2,0.2l-16.3,4.2C16.9,140.5,14.5,140.9,12.2,141.4z M66.4,215.4c-0.1,0-0.3,0-0.4,0h-7
			c0,0,0,0,0,0h-4c0.1,0.4,0.2,0.7,0.2,1.1l0.4,2.8l9.1,66.6c0.1,0.5,0.1,1,0.1,1.5c0,4-2.1,7.5-5.1,8.2c-1.3,0.3-2.6,0-3.6-0.8
			c-1.9-1.4-3-3.6-3.3-5.9l-9.5-69.4c0-0.1,0-0.2,0-0.3h0c-0.1-1.3-0.1-2.6,0.2-3.9h0h-4H39h-3.9v3.9v70.9c0,3.3-2.7,6-6,6
			c-3.3,0-6-2.7-6-6v-70.9v-3.9h-3.9v0l-7.4,0c-0.1,0-0.3,0-0.4,0H9l11.4-71.2l16.8,7.2c1.1,0.5,2.2,0.7,3.4,0.7
			c3.3,0,6.3-1.9,7.7-4.9c0.1-0.1,0.1-0.2,0.2-0.3l11.7-17l8.7,85.4H66.4z M69,120.6c-0.9,0.4-1.9,0.6-2.8,0.6l0,0
			c-1.4,0.1-2.9-0.2-4.2-0.8l0,0c0,0,0,0-0.1,0c-3-1.4-5.5-3.8-7-6.7c-1.9-3.6-2.9-7.5-3-11.6c0,0,0,0,0,0c0-0.5,0-1.1,0-1.6
			c0,0,0,0,0-0.1c0,0,0,0,0,0c0-1.3,0-2.6,0.1-4l0,0c0-0.1,0-0.2,0-0.2c0-0.1,0-0.3,0-0.4c0-0.1,0-0.2,0-0.2
			c0.1-1.6,0.4-3.2,0.7-4.8c0,0,0,0,0,0c0-0.2,0.1-0.4,0.1-0.6l0,0l0.1,0c2.5-1.1,4.8-2.7,6.6-4.7c1.8,2.2,2.4,7.3,2.6,9.1
			c0.1,1.3,0.2,2.5,0.1,3.8c0,1-0.1,1.9-0.1,2.9v0.7c-0.1,1.5-0.1,3-0.1,4.5c0,1.8,0.1,3.6,0.4,5.4c0.3,1.8,1,3.5,2,4.9
			c0.7,1,1.6,1.8,2.6,2.5c0.1,0.1,0.2,0.1,0.3,0.2c0.7,0.4,1.4,0.7,2.2,0.9L69,120.6z"/>
		<path class="st1" d="M129.7,76.6c0.2,1.7,1,3.4,2.1,4.7c0.9,1.1,2.3,1.8,3.8,1.9c0.2,0,0.4,0,0.6,0c5.4,9.4,17.4,12.6,26.8,7.2
			c3-1.7,5.5-4.3,7.3-7.3c3,0.4,5.8-2.4,6.5-6.5c0.6-3.8-1-7.3-3.6-8.1c0.2-0.2,0.4-0.4,0.6-0.6c0.6-0.7,1.1-1.5,1.3-2.4
			c0.2-0.8,0.8-3.4-1.2-4.1c-3.3-1.3-5.9-3.6-8.7-5.9c-1.3-1.2-2.7-2.3-4.2-3.5c-2.7-1.9-5.9-2.9-9.2-2.8c-4.7-0.1-9.1,2.2-11.7,6.1
			c-2.7,0.3-5.2,1.7-6.8,3.9c-2.2,3.3-2.2,7.8-1.9,10.6C129.8,71.7,129.2,74.2,129.7,76.6z M170.6,70.5c0.6-0.4,1.2-0.8,1.8-1.3
			l-0.5,3c0.5,0.1,1.3,1.7,1,3.8c-0.1,0.9-0.5,1.8-1,2.5l-2-0.6c-0.8-0.2-1.7,0.2-2,1c-2.8,7.5-11,11.7-18.8,9.5
			c-4.9-1.3-8.8-4.9-10.5-9.6c-0.3-0.8-1.2-1.2-2-1l-2,0.6c-0.5-0.7-0.9-1.6-1-2.5c-0.3-1.8,0.2-3.2,0.8-3.7l-0.4-0.4l1.6-0.4
			c-0.5-1.8-1.2-7,0.9-10c1.1-1.5,2.9-2.4,4.8-2.4L142,59l0.5-0.5c0.2-0.2,0.4-0.4,0.5-0.7c1.9-3.1,5.2-4.9,8.8-4.8
			c2.4-0.1,4.9,0.6,6.9,2c1.4,1,2.7,2.2,4,3.3c2.6,2.4,5.5,4.5,8.6,6.1c-0.1,0.4-0.3,0.7-0.6,1c-0.8,0.9-1.7,1.6-2.7,2.2
			c-2,1.1-5.4,1.3-9.4,0.8c-5.4-0.7-10.5-2.7-15-5.8l-1.6-1.2l-1.1,1.6c-0.9,1.3-2.2,2.4-3.6,3l1.2,3.7c1.7-0.6,3.2-1.7,4.4-3
			c4.6,2.9,9.8,4.7,15.2,5.5c1.5,0.2,3,0.3,4.5,0.3c2.5,0.1,5-0.4,7.3-1.5C170.1,70.8,170.3,70.7,170.6,70.5"/>
		<path class="st1" d="M205.5,128c-1.4-1.3-2.7-2.7-4.1-4c-2.9-2.9-5.9-5.8-8.8-8.7c-2.5-2.5-5-4.9-7.5-7.4
			c-1.5-1.5-3.2-3.1-4.8-4.5c-1.6-1.4-3.3-2.9-5.3-3.7c-1.2-0.5-2.5-0.8-3.8-1.2c-2.7-0.6-5.5-1-8.2-1.2c-3.3-0.3-6.5-0.4-9.8-0.4
			c-5.1,0-10.3,0.2-15.4,1.1c-1.7,0.3-3.4,0.7-5,1.2c-3.2,1.1-6.3,2.5-8.9,4.6c-1.4,1.1-2.6,2.5-3.9,3.8c-1.4,1.4-2.8,2.7-4.2,4.1
			c-0.8,0.7-1.5,1.5-2.3,2.2c-3.3,3.2-6.6,6.5-9.8,9.7c-1.4,1.4-2.9,2.9-4.3,4.3c-3.1,3-3.8,7.7-1.7,11.5c0.5,1.3,1.3,2.5,2.3,3.5
			l24.1,24.1c1,1,2.3,1.8,3.6,2.3c0,5.5,0,10.3,0,13.9c0,24-4.8,96.2-4.9,96.9v0.1c0,8.7,6.3,15.8,13.9,15.8c7.7,0,13.9-7,13.9-15.7
			l1.2-87.4c0-0.2,0.1-0.3,0-0.3h2.4c0.1,0.1,0.1,0.2,0.1,0.3l1.5,87.4c0,8.7,6.3,15.8,13.9,15.8c7.7,0,13.9-7,13.9-15.8
			c0-0.8-4.4-74.6-4.4-98.5v-13.3c0,0,0,0,0,0c0.6-0.4,1.1-0.8,1.6-1.3L205,143c1-1,1.7-2.1,2.2-3.4c0,0,0-0.1,0.1-0.1
			C209.3,135.7,208.6,131,205.5,128z M149.2,141.5c0-0.8,0.1-1.7,0.2-2.5c0.1-0.8,0.1-2,0.2-2.9l1.4-18.9c0.1-1.5,0.2-2.9,0.3-4.4
			l0.1-1.2l1.6,0.4v-3.2l-0.6-0.1h-0.1v-0.1c0-0.3,0-0.6,0-1V107c0,0,0.1,0,0.1,0l0.7-0.1v-2.8l-0.7-0.1c-0.6-0.1-1.2,0-1.7,0.3
			c-0.3-1.2-0.5-2.3-0.7-3.5h0.1c2.5,0,5,0,7.6,0h0.1c0,0,0,0.1,0,0.1l-0.6,3.4c-0.5-0.3-1.1-0.4-1.7-0.3l-0.7,0.1v2.8l0.8,0.1
			c0,0.4,0,0.8,0,1.2v0.4c-0.2,0.1-0.3,0.1-0.5,0.3c-0.3,0.3-0.4,0.6-0.3,1v2.2l1.6-0.5c0,0,0,0.1,0,0.1l2.1,28.2
			c0.1,0.9,0.1,1.8,0.2,2.7c0,0.1,0,0.2,0,0.3h-0.1c-0.4,0-0.7,0.2-1,0.4l-3.6,2.4c-1.1-0.7-2.1-1.4-3.2-2.1
			c-0.5-0.3-0.9-0.5-1.5-0.6L149.2,141.5z M185.2,135.3L185.2,135.3l-6,6v-11.9L185.2,135.3z M179.3,163.3L179.3,163.3l0-16.5
			l11.5-11.5l-2.8-2.7c0,0-8.7-8.6-8.7-8.6c0,0-3.9-3.8-3.9-3.8c0,0,0,5.5,0,5.5v19.6l0,0v5.5l0,0v32.6c0.1,12.8,1.2,36.9,2.2,57.9
			c1.1,21,2.1,38.9,2.1,39.2c0,6.5-4.5,11.9-10,11.9c-5.5,0-10-5.3-10-11.9l-1.5-87.4c0-2.2-1.7-4-3.9-4.1h-2.5
			c-2.2,0.1-3.9,1.9-3.9,4.1l-1.2,87.4c0,6.5-4.5,11.9-10,11.9c-5.5,0-10-5.3-10.1-11.8c0.2-2.6,4.9-73.3,4.9-97.1c0-3.4,0-8,0-13.3
			c5.3-0.3,9.4-4.9,9.1-10.2c-0.1-2.4-1.1-4.6-2.8-6.3l0-0.1l-6.4-6.4c0-8.1-0.1-16.2-0.1-23.1c0-1.9,0-3.7,0-5.4l-3.9,3.8
			L117,132.5l-2.8,2.7l13.3,13.3c0,0,0,0,0,0.1l3.9,3.9c0,0,0,0,0-0.1l3.7,3.7c2.3,2.3,2.3,6,0,8.3c-1,1-2.3,1.6-3.6,1.7
			c-1.3,0.1-2.7-0.2-3.8-1c0,0,0,0,0,0c0,0,0,0-0.1,0c-0.3-0.2-0.6-0.4-0.8-0.7L107,144.6l-4.3-4.4c-0.6-0.6-1.1-1.4-1.4-2.3
			c-0.6-0.9-0.9-2-0.8-3.1c0-1.6,0.6-3,1.7-4.1l4.4-4.3l19.9-19.7c0.3-0.3,0.6-0.5,0.9-0.7c1-0.6,5.4-3,8-3.6c0,0,0,0,0,0
			c0,0,0,0,0,0c2.6-0.7,6.4-1.3,11.4-1.6c0,0.2,0,0.4,0.1,0.6c0.2,0.8,0.4,1.7,0.5,2.6l0.2,1c0.1,0.8,0.6,1.6,1.3,2
			c0.2,0.1,0.3,0.2,0.3,0.9c0,0.2,0,0.4,0,0.7c0,0.2-0.1,0.4-0.2,0.6c-0.3,0.4-0.5,0.9-0.5,1.5c-0.1,0.3-0.1,0.6-0.1,0.9
			c0,0.3-0.1,0.5-0.1,0.8l-1.3,18.4l-0.4,5.8l-0.2,3.1l-0.1,0.8c0,0.6-0.1,1.2-0.1,1.9c-0.2,1.5,0.6,3,2,3.6
			c0.5,0.2,0.9,0.4,1.3,0.7c1.2,0.8,2.4,1.6,3.6,2.4c0.2,0.2,0.5,0.3,0.8,0.3c0.3,0,0.6-0.1,0.9-0.3c1.2-0.8,2.5-1.7,3.7-2.5
			c0.4-0.2,0.8-0.5,1.2-0.6c1.3-0.5,2.1-1.8,2-3.1c0.1-0.7,0-1.4,0-2.2l-0.6-7.4c-0.1-1-0.1-1.9-0.2-2.9c-0.1-1-0.2-2.1-0.2-3.1
			l-0.3-4.1c-0.1-1.5-0.3-3.1-0.4-4.6c-0.1-1.1-0.2-2.2-0.2-3.3c-0.1-1.4-0.2-2.8-0.3-4.2c0-0.6-0.2-1.1-0.5-1.6
			c-0.2-0.3-0.3-0.7-0.2-1.1c0-0.3,0-0.6,0-0.9c0.8-0.5,1.4-1.3,1.5-2.2c0.2-1.2,0.5-2.4,0.7-3.6c0.1-0.2,0.1-0.4,0.1-0.6
			c3.1,0.2,6.2,0.6,9.3,1.2c6.9,1.3,11.5,7.4,16.2,12.1c0.2,0.2,0.4,0.4,0.5,0.5c3.1,3.1,6.3,6.2,9.4,9.4c0.7,0.7,1.5,1.4,2.2,2.2
			c0,0,0,0,0,0c0,0,0,0,0,0l4.4,4.3c1.2,1.2,1.8,2.7,1.7,4.3c0,0.9-0.3,1.9-0.8,2.8c-0.3,0.9-0.8,1.7-1.4,2.4l-4.3,4.4L179.3,163.3z
			 M127.4,127.6C127.4,127.7,127.4,127.7,127.4,127.6c0,4.8,0.1,10.1,0.1,15.4l-7.8-7.8L127.4,127.6z"/>
	</g>
</g>
</svg>
