<?xml version="1.0" encoding="utf-8"?>
<!-- Generator: Adobe Illustrator 23.0.2, SVG Export Plug-In . SVG Version: 6.00 Build 0)  -->
<svg version="1.1" id="Layer_1" xmlns="http://www.w3.org/2000/svg" xmlns:xlink="http://www.w3.org/1999/xlink" x="0px" y="0px"
	 viewBox="0 0 523.9 248.1" style="enable-background:new 0 0 523.9 248.1;" xml:space="preserve">
<style type="text/css">
	.st0{fill:#161821;}
	.st1{fill:#FFFFFF;}
	.st2{fill:#B0FFD4;}
	.st3{fill:none;}
	.st4{fill:#FFFFB3;}
	.st5{fill:#ADE2AA;}
	.st6{fill:#D4EBFF;}
	.st7{fill:#343444;}
</style>
<rect x="-1052.8" y="-44" class="st0" width="614" height="342"/>
<title>Su Williams Mediations Blue White</title>
<polygon class="st1" points="20.6,357.8 13.2,379 5.7,357.9 3,357.9 0,384.2 3,384.2 5.2,365.4 11.8,384.2 14.6,384.2 21.2,365.3 
	23.4,384.2 26.5,384.2 23.4,357.9 "/>
<polygon class="st1" points="40.4,384.2 57.4,384.2 57.4,381.1 43.4,381.1 43.4,370.2 54.3,370.2 54.3,367.2 43.4,367.2 43.4,360.9 
	57.4,360.9 57.4,357.8 40.4,357.8 "/>
<path class="st1" d="M78.3,357.8h-7v26.3h7c7.3-0.2,13-6.3,12.8-13.5C90.9,363.7,85.3,358,78.3,357.8z M74.4,360.9h3.9
	c5.6,0.2,10,4.8,9.8,10.4c-0.2,5.3-4.5,9.6-9.8,9.8h-3.9V360.9z"/>
<rect x="106.1" y="357.8" class="st1" width="3.1" height="26.3"/>
<path class="st1" d="M133,357.9l-10,25.2l-0.4,1h3.4l3-7.8h10.7l3,7.8h3.3l-10.3-26.3L133,357.9z M138.5,373.4h-8.3l4.1-10.7
	L138.5,373.4z"/>
<polygon class="st1" points="154.9,360.9 161.1,360.9 161.1,384.2 164.2,384.2 164.2,360.9 170.4,360.9 170.4,357.8 154.9,357.8 "/>
<rect x="184.2" y="357.8" class="st1" width="3.1" height="26.3"/>
<path class="st1" d="M215.1,357.8c-7.3,0-13.2,5.9-13.2,13.1s5.9,13.2,13.1,13.2c7.3,0,13.2-5.9,13.2-13.1c0,0,0,0,0,0
	C228.2,363.7,222.3,357.9,215.1,357.8z M215,360.9c5.6,0,10.1,4.5,10.1,10.1c0,5.6-4.5,10.1-10.1,10.1c-5.6,0-10.1-4.5-10.1-10.1
	c0,0,0,0,0,0C204.9,365.4,209.4,360.9,215,360.9L215,360.9z"/>
<polygon class="st1" points="256.1,377.5 245.1,358.2 244.9,357.8 242.2,357.8 242.2,384.2 245.3,384.2 245.3,364.5 256.3,383.8 
	256.5,384.2 259.2,384.2 259.2,357.8 256.1,357.8 "/>
<path class="st1" d="M306.8,367.9L306.8,367.9c-2.8-1-4.5-1.7-4.5-3.9c0-1.7,1.4-3.1,3.1-3.1c1.2,0,2.4,0.7,2.9,1.8l0.4,0.8l2.6-1.7
	l-0.3-0.6c-1.1-2-3.2-3.3-5.5-3.4c-3.4,0-6.2,2.8-6.2,6.2c0,4.6,3.4,5.8,6.4,6.8c2.8,0.9,5.1,1.7,5.1,4.9c0,3-2.4,5.4-5.4,5.5
	c-1.4,0-2.8-0.6-3.8-1.6l-0.4-0.4l-2.6,1.7l0.6,0.6c3.2,3.4,8.6,3.6,12,0.3c1.7-1.6,2.7-3.8,2.7-6.2
	C313.8,370.3,309.9,369,306.8,367.9z"/>
<polygon class="st1" points="327.8,384.2 344.8,384.2 344.8,381.1 330.9,381.1 330.9,370.2 341.7,370.2 341.7,367.2 330.9,367.2 
	330.9,360.9 344.8,360.9 344.8,357.8 327.8,357.8 "/>
<path class="st1" d="M375.1,364.1c0-3.4-2.8-6.2-6.2-6.2h-10v26.3h3v-13.9h3.9l6.3,13.5l0.2,0.4h3.4l-6.5-13.9
	C372.4,370.1,375.1,367.4,375.1,364.1z M361.9,360.9h7c1.7,0,3.1,1.4,3.1,3.2c0,1.7-1.4,3.1-3.1,3.1l0,0h-7L361.9,360.9z"/>
<polygon class="st1" points="399,379.4 390.7,357.9 387.3,357.9 397.7,384.2 400.4,384.2 410.6,357.9 407.3,357.9 "/>
<rect x="424.1" y="357.8" class="st1" width="3" height="26.3"/>
<path class="st1" d="M454.9,360.9c2.8,0,5.4,1.2,7.3,3.1l0.5,0.5l2.5-1.9l-0.6-0.6c-5-5.3-13.3-5.5-18.6-0.6
	c-5.3,5-5.5,13.3-0.6,18.6c5,5.3,13.3,5.5,18.6,0.6c0.2-0.2,0.4-0.4,0.6-0.6l0.5-0.6l-2.4-2l-0.5,0.5c-3.8,4-10.2,4.2-14.3,0.3
	c-4-3.8-4.2-10.2-0.3-14.3C449.5,362,452.1,360.9,454.9,360.9L454.9,360.9z"/>
<polygon class="st1" points="478.8,384.2 495.8,384.2 495.8,381.1 481.8,381.1 481.8,370.2 492.7,370.2 492.7,367.2 481.8,367.2 
	481.8,360.9 495.8,360.9 495.8,357.8 478.8,357.8 "/>
<path class="st1" d="M516.8,367.9L516.8,367.9c-2.8-1-4.5-1.7-4.5-3.9c-0.1-1.7,1.2-3.2,2.9-3.3c1.3-0.1,2.6,0.7,3.1,2l0.4,0.8
	l2.6-1.7l-0.3-0.6c-1.5-3.1-5.2-4.3-8.3-2.8c-2.1,1.1-3.5,3.3-3.4,5.7c0,4.6,3.4,5.8,6.4,6.8c2.8,0.9,5.1,1.7,5.1,4.9
	c0,3-2.4,5.4-5.5,5.5c-1.4,0-2.8-0.6-3.8-1.6l-0.4-0.4l-2.6,1.7l0.6,0.6c3.2,3.4,8.6,3.6,12,0.3c1.7-1.6,2.7-3.8,2.7-6.2
	C523.9,370.3,520,369,516.8,367.9z"/>
<g>
	<path class="st2" d="M-203.3,64.2L-203.3,64.2c-0.2,0.1-0.4,0.1-0.5,0c0-0.1,0.1-0.2,0.1-0.3c0-0.1,0.1-0.2,0.1-0.3l0,0
		c0,0,0-0.1,0-0.1c0-0.2,0.1-0.4,0.1-0.5c0-0.2,0.1-0.4,0.1-0.5l0.2,0.7l0.1,0.4v0.1C-203,63.8-203.1,64-203.3,64.2z"/>
	<path class="st2" d="M-211.4,61.1c-0.1,0.2-0.1,0.4-0.2,0.6l0,0c0,0.1,0,0.2-0.1,0.3l-0.1,0.4c-0.1-0.3-0.4-0.6-0.6-0.8h-0.1
		c0,0-0.1,0-0.1,0h-0.1c0,0-0.1,0.1-0.1,0.1c-0.1,0.1-0.1,0.3-0.2,0.5c0,0.2-0.1,0.5-0.1,0.7c0,0.1,0,0.2,0,0.3l0,0
		c0,0.1,0,0.2-0.1,0.3l0,0c-0.1,0.1-0.2,0.2-0.4,0.2l0,0c-0.3,0-0.6-0.2-0.6-0.6c0-0.1,0-0.2,0-0.3v-0.1l0,0c0-0.2,0-0.4,0.1-0.6
		c0-0.2,0.1-0.4,0.2-0.6c0.1-0.2,0.2-0.4,0.3-0.5l0,0c0.1-0.1,0.1-0.2,0.2-0.2l0.1-0.1c0.1,0,0.1-0.1,0.2-0.1
		c0.3-0.1,0.6-0.2,0.9-0.2h0.1c0.2,0,0.3,0.1,0.5,0.2c0.1,0,0.1,0.1,0.2,0.1C-211.5,60.8-211.5,60.9-211.4,61.1z"/>
	<path class="st2" d="M-217.1,62.4l0.2,0.2C-217,62.5-217.1,62.5-217.1,62.4C-217.2,62.4-217.2,62.4-217.1,62.4L-217.1,62.4
		c-0.1-0.1-0.1-0.1-0.1-0.2l0.1-0.1L-217.1,62.4z"/>
	<path class="st2" d="M-210.6,58.2c-0.1,0.3-0.1,0.5-0.2,0.8l0,0c0,0.2-0.1,0.3-0.1,0.5l-0.1,0.5l0,0c-0.1,0.1-0.2,0.3-0.3,0.4
		c-0.1,0.1-0.2,0.3-0.3,0.3c-0.1,0.1-0.3,0.1-0.4,0c-0.1,0-0.2-0.1-0.2-0.2l0,0c0,0-0.1-0.1-0.1-0.1c0-0.1,0-0.1,0-0.2
		c0-0.1,0-0.1,0-0.2c0-0.1,0.1-0.2,0.2-0.3c0-0.1,0.1-0.1,0.1-0.1l0,0c0,0,0-0.1,0.1-0.1l0,0l0.2-0.2l0,0l0.2-0.2l0.3-0.3l0.5-0.4
		L-210.6,58.2l0.1-0.1C-210.5,58.1-210.6,58.2-210.6,58.2z"/>
	<path class="st2" d="M-212,62.9l-0.1,0.4h0.1l-0.1,0.1c-0.2,0.5-0.3,0.9-0.4,1.4v0.1l-0.1,0.1c-0.1,0.2-0.1,0.4-0.2,0.6
		c-0.1-0.1-0.1-0.2-0.1-0.4c-0.1-0.1-0.1-0.3-0.1-0.5l0,0c0-0.2,0-0.4,0-0.6c0,0,0-0.1,0-0.1l0,0c0-0.2,0.1-0.3,0.2-0.4
		c0-0.1,0.1-0.2,0.2-0.2c0-0.1,0.1-0.1,0.1-0.1l0,0c0.1-0.1,0.2-0.2,0.3-0.3c0.1,0,0.1-0.1,0.2-0.1l0,0l0.3-0.2L-212,62.9z"/>
	<path class="st2" d="M-216.1,63.5c0,0.3-0.3,0.5-0.6,0.5c0,0,0,0,0,0h-0.1c-0.1,0-0.2-0.1-0.3-0.1l-0.1-0.1l0,0l-0.1-0.1l0,0
		c-0.1-0.1-0.3-0.2-0.4-0.3l-0.1-0.1c-0.1-0.1-0.2-0.1-0.4-0.2h-0.1l-0.3-0.1c-0.1,0-0.2,0-0.3,0c0,0-0.1,0-0.2,0.2v0.1l0,0
		c-0.1,0.2-0.1,0.5,0,0.8c0.1,0.2,0.3,0.4,0.5,0.5c0.1,0,0.2,0.1,0.2,0.2l0,0v0.1h-0.1c-0.3-0.1-0.6-0.3-0.9-0.4h-0.1h-0.1
		c-0.2-0.1-0.4-0.2-0.7-0.2c0-0.1,0-0.3,0-0.4c0-0.3,0.1-0.7,0.3-1c0.1-0.3,0.4-0.5,0.6-0.7l0,0c0.1,0,0.2-0.1,0.3-0.1h0.2
		c0.1,0,0.2,0,0.4,0h0.2c0.3,0.1,0.6,0.2,0.9,0.4l0.1,0.1h0.1l0.2,0.2l0,0l0.2,0.1l0.2,0.1l0,0l0.1,0.1l0.1,0.1l0.1,0.1
		c0.1,0.1,0.1,0.2,0.1,0.2C-216.1,63.4-216.1,63.5-216.1,63.5z"/>
	<path class="st3" d="M-216.3,80.1c-0.2,0.2-0.4,0.5-0.6,0.7 M-216.3,80.1c-0.2,0.2-0.4,0.5-0.6,0.7 M-216.3,80.1
		c-0.2,0.2-0.4,0.5-0.6,0.7 M-216.3,80.1c-0.2,0.2-0.4,0.5-0.6,0.7 M-216.3,80.1c-0.2,0.2-0.4,0.5-0.6,0.7 M-216.3,80.1
		c-0.2,0.2-0.4,0.5-0.6,0.7 M-216.3,80.1c-0.2,0.2-0.4,0.5-0.6,0.7 M-228.7,67.4c-0.2-0.3-0.3-0.7-0.5-1l-0.5,0.4l0,0
		c0,0.1,0,0.1-0.1,0.1c-0.1,0.2-0.1,0.3-0.2,0.5l0,0v0.1l0,0c0.2,0.1,0.3,0.3,0.4,0.5l0.4-0.3L-228.7,67.4L-228.7,67.4L-228.7,67.4z
		 M-228.7,67.4c-0.2-0.3-0.3-0.7-0.5-1l-0.5,0.4l0,0c0,0.1,0,0.1-0.1,0.1c-0.1,0.2-0.1,0.3-0.2,0.5l0,0v0.1l0,0
		c0.2,0.1,0.3,0.3,0.4,0.5l0.4-0.3L-228.7,67.4L-228.7,67.4L-228.7,67.4z M-228.7,67.4c-0.2-0.3-0.3-0.7-0.5-1l-0.5,0.4l0,0
		c0,0.1,0,0.1-0.1,0.1c-0.1,0.2-0.1,0.3-0.2,0.5l0,0v0.1l0,0c0.2,0.1,0.3,0.3,0.4,0.5l0.4-0.3L-228.7,67.4L-228.7,67.4L-228.7,67.4z
		 M-212,72.6c0-0.1,0-0.3,0-0.4l-1.1,0.3h-0.1l0.1,0.1c0.1,1.3,0,2.6-0.3,3.9l-1.4,1.6c0.3,0.1,0.7,0.1,1,0.1c0.1,0,0.2,0,0.3,0
		c0.4-0.4,0.7-0.9,1.1-1.3c0.1-0.7,0.2-1.3,0.3-2C-212,74.2-212,73.4-212,72.6z M-213.4,67.6L-213.4,67.6l-0.2-0.4
		c-0.2-0.3-0.4-0.5-0.6-0.7l-0.1-0.1l-0.3-0.3l-0.2-0.2l-0.2-0.2l-0.1-0.1l-0.3-0.3l-0.4-0.3c0.1-0.4,0.1-0.7,0.2-1.1l-0.6,0.5
		l-0.3,0.2l-0.4-0.2l-0.1-0.1l-0.2-0.1l-0.2-0.1h-0.1l-0.4,0.4l0,0l-0.4,0.4l-0.1,0.1l0,0l0.4,0.2c0.2,0.1,0.3,0.2,0.5,0.3
		c0.1,0,0.2,0.1,0.3,0.2l0,0c0.3,0.2,0.6,0.4,0.8,0.6l0.2,0.2l0.2,0.2c0.1,0.1,0.2,0.2,0.3,0.3l0.1,0.1l0.1,0.1
		c0.1,0.1,0.2,0.2,0.2,0.3c0.1,0.2,0.3,0.4,0.4,0.5c0,0.1,0,0.1,0,0.2l0.1-0.1c0.2,0.3,0.4,0.6,0.6,1c0,0.1,0.1,0.2,0.1,0.3
		s0.1,0.2,0.1,0.3c0,0.1,0.1,0.3,0.2,0.5c0-0.5,0-1,0.1-1.5C-213.5,68.1-213.5,67.8-213.4,67.6L-213.4,67.6z M-228.4,66.9
		c-0.1,0.2-0.1,0.3-0.2,0.5l0.3-0.2L-228.4,66.9z M-228.6,67.4c-0.2-0.3-0.3-0.7-0.5-1l-0.5,0.4l0,0c0,0.1,0,0.1-0.1,0.1
		c-0.1,0.2-0.1,0.3-0.2,0.5l0,0v0.1l0,0c0.2,0.1,0.3,0.3,0.4,0.5l0.4-0.3L-228.6,67.4L-228.6,67.4L-228.6,67.4z M-230.1,68l-0.6,1.2
		c-0.2-0.3-0.3-0.5-0.5-0.8v0.5c0,0.1,0,0.2-0.1,0.3c-0.1,0.2-0.1,0.5-0.2,0.7c0,0,0,0.1,0,0.1c0.2-0.3,0.5-0.5,0.8-0.8
		c0,0,0,0,0.1-0.1l0.9-0.8C-229.8,68.2-230,68-230.1,68L-230.1,68z M-231.6,70l-0.4-0.7c-0.1,0.3-0.2,0.6-0.3,0.9l-0.5-0.4l-0.1-0.1
		l-0.1,0.2c-0.2,0.2-0.4,0.4-0.6,0.7l0,0c-0.6,0.7-1.1,1.4-1.7,2.1l-0.4,0.5c-0.1,0.2-0.2,0.4-0.3,0.5c-0.1,0.2-0.2,0.3-0.3,0.4
		l0.9,0.6c0.2-0.3,0.4-0.6,0.6-0.9l0.4-0.5l0.4-0.5c0.4-0.5,0.8-1.1,1.3-1.6l0.1-0.1l0.2-0.2l0.4-0.5L-231.6,70L-231.6,70z
		 M-231.6,70l-0.4-0.7c-0.1,0.3-0.2,0.6-0.3,0.9l-0.5-0.4l-0.1-0.1l-0.1,0.2c-0.2,0.2-0.4,0.4-0.6,0.7l0,0c-0.6,0.7-1.1,1.4-1.7,2.1
		l-0.4,0.5c-0.1,0.2-0.2,0.4-0.3,0.5c-0.1,0.2-0.2,0.3-0.3,0.4l0.9,0.6c0.2-0.3,0.4-0.6,0.6-0.9l0.4-0.5l0.4-0.5
		c0.4-0.5,0.8-1.1,1.3-1.6l0.1-0.1l0.2-0.2l0.4-0.5L-231.6,70L-231.6,70z M-231.6,70l-0.4-0.7c-0.1,0.3-0.2,0.6-0.3,0.9l-0.5-0.4
		l-0.1-0.1l-0.1,0.2c-0.2,0.2-0.4,0.4-0.6,0.7l0,0c-0.6,0.7-1.1,1.4-1.7,2.1l-0.4,0.5c-0.1,0.2-0.2,0.4-0.3,0.5
		c-0.1,0.2-0.2,0.3-0.3,0.4l0.9,0.6c0.2-0.3,0.4-0.6,0.6-0.9l0.4-0.5l0.4-0.5c0.4-0.5,0.8-1.1,1.3-1.6l0.1-0.1l0.2-0.2l0.4-0.5
		L-231.6,70L-231.6,70z M-231.6,70l-0.4-0.7c-0.1,0.3-0.2,0.6-0.3,0.9l-0.5-0.4l-0.1-0.1l-0.1,0.2c-0.2,0.2-0.4,0.4-0.6,0.7l0,0
		c-0.6,0.7-1.1,1.4-1.7,2.1l-0.4,0.5c-0.1,0.2-0.2,0.4-0.3,0.5c-0.1,0.2-0.2,0.3-0.3,0.4l0.9,0.6c0.2-0.3,0.4-0.6,0.6-0.9l0.4-0.5
		l0.4-0.5c0.4-0.5,0.8-1.1,1.3-1.6l0.1-0.1l0.2-0.2l0.4-0.5L-231.6,70L-231.6,70z M-212,72.6c0-0.1,0-0.3,0-0.4l-1.1,0.3h-0.1
		l0.1,0.1c0.1,1.3,0,2.6-0.3,3.9l-1.4,1.6c0.3,0.1,0.7,0.1,1,0.1c0.1,0,0.2,0,0.3,0c0.4-0.4,0.7-0.9,1.1-1.3c0.1-0.7,0.2-1.3,0.3-2
		C-212,74.2-212,73.4-212,72.6L-212,72.6z M-213.4,67.5L-213.4,67.5l-0.2-0.4c-0.2-0.3-0.4-0.5-0.6-0.7l-0.1-0.1l-0.3-0.3l-0.2-0.2
		l-0.2-0.2l-0.1-0.1l-0.3-0.3l-0.4-0.3c0.1-0.4,0.1-0.7,0.2-1.1l-0.6,0.5l-0.3,0.2l-0.4-0.2l-0.1-0.1l-0.2-0.1l-0.2-0.1h-0.1
		l-0.4,0.4l0,0l-0.4,0.4l-0.1,0.1l0,0l0.4,0.2c0.2,0.1,0.3,0.2,0.5,0.3c0.1,0,0.2,0.1,0.3,0.2l0,0c0.3,0.2,0.6,0.4,0.8,0.6l0.2,0.2
		l0.2,0.2c0.1,0.1,0.2,0.2,0.3,0.3l0.1,0.1l0.1,0.1c0.1,0.1,0.2,0.2,0.2,0.3c0.1,0.2,0.3,0.4,0.4,0.5c0,0.1,0,0.1,0,0.2l0.1-0.1
		c0.2,0.3,0.4,0.6,0.6,1c0,0.1,0.1,0.2,0.1,0.3s0.1,0.2,0.1,0.3c0,0.1,0.1,0.3,0.2,0.5c0-0.5,0-1,0.1-1.5
		C-213.5,68.1-213.5,67.8-213.4,67.5L-213.4,67.5z M-228.4,66.8c-0.1,0.2-0.1,0.3-0.2,0.5l0.3-0.2L-228.4,66.8z M-230.1,67.9
		l-0.6,1.2c-0.2-0.3-0.3-0.5-0.5-0.8v0.6c0,0.1,0,0.2-0.1,0.3c-0.1,0.2-0.1,0.5-0.2,0.7c0,0,0,0.1,0,0.1c0.2-0.3,0.5-0.5,0.8-0.8
		c0,0,0,0,0.1-0.1l0.9-0.8C-229.8,68.2-230,68-230.1,67.9L-230.1,67.9z M-212,72.6c0-0.1,0-0.3,0-0.4l-1.1,0.3h-0.1l0.1,0.1
		c0.1,1.3,0,2.6-0.3,3.9l-1.4,1.6c0.3,0.1,0.7,0.1,1,0.1c0.1,0,0.2,0,0.3,0c0.4-0.4,0.7-0.9,1.1-1.3c0.1-0.7,0.2-1.3,0.3-2
		C-212,74.2-212,73.4-212,72.6L-212,72.6z M-213.4,67.5L-213.4,67.5l-0.2-0.4c-0.2-0.3-0.4-0.5-0.6-0.7l-0.1-0.1l-0.3-0.3l-0.2-0.2
		l-0.2-0.2l-0.1-0.1l-0.3-0.3l-0.4-0.3c0.1-0.4,0.1-0.7,0.2-1.1l-0.6,0.5l-0.3,0.2l-0.4-0.2l-0.1-0.1l-0.2-0.1l-0.2-0.1h-0.1
		l-0.4,0.4l0,0l-0.4,0.4l-0.1,0.1l0,0l0.4,0.2c0.2,0.1,0.3,0.2,0.5,0.3c0.1,0,0.2,0.1,0.3,0.2l0,0c0.3,0.2,0.6,0.4,0.8,0.6l0.2,0.2
		l0.2,0.2c0.1,0.1,0.2,0.2,0.3,0.3l0.1,0.1l0.1,0.1c0.1,0.1,0.2,0.2,0.2,0.3c0.1,0.2,0.3,0.4,0.4,0.5c0,0.1,0,0.1,0,0.2l0.1-0.1
		c0.2,0.3,0.4,0.6,0.6,1c0,0.1,0.1,0.2,0.1,0.3s0.1,0.2,0.1,0.3c0,0.1,0.1,0.3,0.2,0.5c0-0.5,0-1,0.1-1.5
		C-213.5,68.1-213.5,67.8-213.4,67.5L-213.4,67.5z M-225.3,63.6c-0.3,0.2-0.7,0.4-1.1,0.7c0.2,0.3,0.4,0.6,0.6,0.9
		c0.3-0.2,0.6-0.4,0.9-0.6C-225,64.3-225.2,63.9-225.3,63.6L-225.3,63.6z M-227.3,64.9l-0.5,0.3l0,0c-0.1,0.2-0.2,0.5-0.3,0.7V66
		l0,0c-0.1,0.2-0.2,0.5-0.3,0.7l-0.2-0.7V66c-0.1,0.1-0.3,0.2-0.4,0.3l-0.5,0.4l0,0c0,0.1,0,0.1-0.1,0.1h-0.1l-0.3,0.2l-0.1,0.1
		l-0.4,0.4l-0.6,0.6h-0.1c0,0,0,0.1,0,0.1l0,0v0.6c0,0.1,0,0.2-0.1,0.3c-0.1,0.2-0.1,0.5-0.2,0.7c0,0,0,0.1,0,0.1
		c0.2-0.3,0.5-0.5,0.8-0.8l0.1-0.1l0.9-0.8l0.3-0.3l0.1-0.1l0.4-0.3l0.3-0.3l0,0l0.3-0.2l0.5-0.4l0.1-0.1l0.4-0.3
		c0.3-0.2,0.5-0.4,0.7-0.5C-226.8,65.6-227.1,65.3-227.3,64.9L-227.3,64.9z M-231.6,70l-0.4-0.7c-0.1,0.3-0.2,0.6-0.3,0.9l-0.5-0.4
		l-0.1-0.1l-0.1,0.2c-0.2,0.2-0.4,0.4-0.6,0.7l0,0c-0.6,0.7-1.1,1.4-1.7,2.1l-0.4,0.5c-0.1,0.2-0.2,0.4-0.3,0.5
		c-0.1,0.2-0.2,0.3-0.3,0.4l0.9,0.6c0.2-0.3,0.4-0.6,0.6-0.9l0.4-0.5l0.4-0.5c0.4-0.5,0.8-1.1,1.3-1.6l0.1-0.1l0.2-0.2l0.4-0.5
		L-231.6,70L-231.6,70z M-210.9,72.2v-0.4c0-0.2,0-0.4-0.1-0.6l0,0c0-0.1,0-0.1,0-0.2c0-0.1,0-0.3-0.1-0.4c-0.1-0.1-0.1-0.5-0.1-0.7
		l-0.1-0.4c-0.1-0.4-0.2-0.7-0.4-1.1c-0.2-0.4-0.3-0.8-0.5-1.1l-0.1-0.1c-0.2-0.3-0.3-0.6-0.5-0.8l-0.2-0.3c0.1-0.2,0.1-0.4,0.2-0.6
		c0.1-0.2,0.1-0.4,0.2-0.6l-0.3,0.3c-0.1-0.1-0.1-0.3-0.1-0.5l0,0c0-0.3,0.1-0.6,0.1-0.9l0,0c0-0.1,0-0.2,0-0.3
		c0-0.1,0.1-0.2,0.2-0.2h-0.1c0-0.2,0.1-0.4,0.1-0.6l0,0c0-0.2,0.1-0.5,0.1-0.7l0.1-0.3c0,0-0.1,0-0.1,0l0,0v0.2l-0.2-0.1
		c-0.1,0.2-0.2,0.3-0.3,0.5c-0.2-0.1-0.3-0.1-0.5-0.1c-0.1,0.2-0.1,0.4-0.1,0.6c-0.2,0-0.3,0.1-0.5,0.2l0,0v0.1
		c-0.1,0.4-0.3,0.9-0.4,1.3c-0.2-0.2-0.5-0.4-0.8-0.6h-0.1l-0.6,0.5l-0.4,0.3l-0.4-0.2l-0.1-0.1l-0.2-0.1l-0.2-0.1h-0.1l-0.2-0.1
		l-0.3-0.2l-0.2-0.1h-0.1l-0.1-0.1l-0.5-0.1l0,0l-0.3-0.1l-0.2-0.1h-0.1L-220,63l-1.1-0.3l-0.3-0.1h-0.2l-0.9-0.2l0,0
		c-0.2,0.1-0.4,0.2-0.6,0.3l-0.5,0.3l-0.3,0.2l-0.2,0.1l-0.5,0.3l-0.5,0.3c-0.3,0.2-0.7,0.4-1.1,0.7l-0.5,0.3l-0.5,0.3l-0.5,0.3l0,0
		l-0.4,0.3l0,0l-0.5,0.4c-0.1,0.1-0.3,0.2-0.4,0.3l-0.5,0.4l0,0l-0.1,0.1l-0.3,0.2l-0.1,0.1l-0.4,0.4l-0.6,0.6h-0.1l-0.5,0.5l0,0
		h-0.4l-0.1,0.1l-0.5,0.5l-0.2,0.2l-0.1,0.2c-0.2,0.2-0.4,0.4-0.6,0.7l0,0c-0.6,0.7-1.1,1.4-1.7,2.1l-0.4,0.5
		c-0.1,0.2-0.2,0.4-0.3,0.5c-0.1,0.2-0.2,0.3-0.3,0.4c-0.1,0.1-0.4,0.6-0.6,1c-0.2,0.3-0.4,0.7-0.5,1c-2.2,4.5-2.6,9.7-1.2,14.4
		c1.3,4.6,3,7.4,4.7,8.9c0.3,0.3,0.6,0.5,0.9,0.7c0.3,0.2,0.7,0.4,1,0.5c0.1-0.4,0.2-0.7,0.4-1c0.4-0.7,1-1.4,1.6-2
		c0.3-0.3,0.6-0.6,0.9-1s0.5-0.5,0.8-0.7c0.5-0.4,0.9-0.8,1.4-1.2c0,0.1,0,0.3-0.1,0.4l0.3-0.6c0.8-0.6,1.6-1.2,2.4-1.7
		c0.5-0.3,1.1-0.7,1.6-0.9l0.5-0.3c1-0.5,2-1,3.1-1.5c0.5-0.2,0.9-0.4,1.4-0.5h0.2c0,0,0-0.1,0.1-0.1c0.3-0.5,0.5-1,0.8-1.5l0,0
		c0.1-0.2,0.2-0.4,0.3-0.6l0.4-0.8c-0.5,0.2-1,0.3-1.5,0.5c-0.5,0.2-0.8,0.3-1.2,0.4l-1,0.4l0,0c0.2-0.3,0.4-0.6,0.6-0.8
		c0.2-0.3,0.2-0.3,0.3-0.4c0.3-0.5,0.7-0.9,1-1.4c0.8-1.1,1.7-2.3,2.6-3.4c0.3-0.4,0.7-0.8,1-1.2l0.9-1l0,0v-0.1
		c0.1-0.3,0.2-0.7,0.3-1s0.2-0.9,0.3-1.3c0.1-0.7,0.2-1.3,0.3-2c0.4-0.4,0.8-0.9,1.2-1.3C-210.9,73.3-210.9,72.8-210.9,72.2z
		 M-222.7,63.3C-222.7,63.4-222.7,63.4-222.7,63.3c-0.1,0.2-0.2,0.2-0.4,0.2h-0.1L-222.7,63.3L-222.7,63.3z M-231.6,70l-0.4-0.7
		c-0.1,0.3-0.2,0.6-0.3,0.9l-0.5-0.4l-0.1-0.1l-0.1,0.2c-0.2,0.2-0.4,0.4-0.6,0.7l0,0c-0.6,0.7-1.1,1.4-1.7,2.1l-0.4,0.5
		c-0.1,0.2-0.2,0.4-0.3,0.5c-0.1,0.2-0.2,0.3-0.3,0.4l0.9,0.6c0.2-0.3,0.4-0.6,0.6-0.9l0.4-0.5l0.4-0.5c0.4-0.5,0.8-1.1,1.3-1.6
		l0.1-0.1l0.2-0.2l0.4-0.5L-231.6,70L-231.6,70z M-227.3,64.9l-0.5,0.3l0,0c-0.1,0.2-0.2,0.5-0.3,0.7V66l0,0
		c-0.1,0.2-0.2,0.5-0.3,0.7l-0.2-0.7V66c-0.1,0.1-0.3,0.2-0.4,0.3l-0.5,0.4l0,0c0,0.1,0,0.1-0.1,0.1h-0.1l-0.3,0.2l-0.1,0.1
		l-0.4,0.4l-0.6,0.6h-0.1c0,0,0,0.1,0,0.1l0,0v0.4c0,0,0,0.1,0,0.1c0,0.1,0,0.2-0.1,0.3c-0.1,0.2-0.1,0.5-0.2,0.7c0,0,0,0.1,0,0.1
		c0.2-0.3,0.5-0.5,0.8-0.8c0,0,0,0,0.1-0.1l0.9-0.8l0.3-0.3l0.1-0.1l0.4-0.3l0.3-0.3l0,0l0.3-0.2l0.5-0.4l0.1-0.1l0.4-0.3
		c0.3-0.2,0.5-0.4,0.7-0.5C-226.8,65.5-227.1,65.2-227.3,64.9L-227.3,64.9z M-225.4,63.6c-0.3,0.2-0.7,0.4-1.1,0.7
		c0.2,0.3,0.4,0.6,0.6,0.9c0.3-0.2,0.6-0.4,0.9-0.6C-225,64.3-225.2,64-225.4,63.6L-225.4,63.6z M-213.5,67.5L-213.5,67.5l-0.2-0.4
		c-0.2-0.3-0.4-0.5-0.6-0.7l-0.1-0.1l-0.3-0.3l-0.2-0.2l-0.2-0.2l-0.1,0l-0.3-0.3l-0.4-0.3c0-0.4,0.1-0.7,0.2-1.1l-0.6,0.5l-0.2,0.2
		l-0.4-0.2l-0.1-0.1l-0.2-0.1l-0.2-0.1h0l-0.4,0.4l0,0l-0.4,0.4l-0.1,0.1l0,0l0.4,0.2c0.2,0.1,0.3,0.2,0.5,0.3
		c0.1,0,0.2,0.1,0.3,0.2l0,0c0.3,0.2,0.6,0.4,0.8,0.6l0.2,0.2l0.2,0.2c0.1,0.1,0.2,0.2,0.3,0.3l0.1,0.1l0.1,0.1
		c0.1,0.1,0.2,0.2,0.2,0.3c0.1,0.2,0.3,0.4,0.4,0.5c0,0.1,0,0.1,0,0.2l0.1-0.1c0.2,0.3,0.4,0.6,0.6,1c0,0.1,0.1,0.2,0.1,0.3
		s0.1,0.2,0.1,0.3c0,0.1,0.1,0.3,0.2,0.5c0-0.5,0-1,0.1-1.5C-213.5,68.1-213.5,67.9-213.5,67.5L-213.5,67.5z M-212,72.6
		c0-0.1,0-0.3,0-0.4l-1.1,0.3h-0.1l0.1,0.1c0.1,1.3,0,2.6-0.3,3.9l-1.4,1.6c0.3,0.1,0.7,0.1,1,0.1c0.1,0,0.2,0,0.3,0
		c0.4-0.4,0.7-0.9,1.1-1.3c0.1-0.7,0.2-1.3,0.3-2C-212,74.2-212,73.4-212,72.6L-212,72.6z M-231.6,70l-0.4-0.7
		c-0.1,0.3-0.2,0.6-0.3,0.9l-0.5-0.4l-0.1-0.1l-0.1,0.2c-0.2,0.2-0.4,0.4-0.6,0.7l0,0c-0.6,0.7-1.1,1.4-1.7,2.1l-0.4,0.5
		c-0.1,0.2-0.2,0.4-0.3,0.5c-0.1,0.2-0.2,0.3-0.3,0.4l0.9,0.6c0.2-0.3,0.4-0.6,0.6-0.9l0.4-0.5l0.4-0.5c0.4-0.5,0.8-1.1,1.3-1.6
		l0.1-0.1l0.2-0.2l0.4-0.5L-231.6,70L-231.6,70z M-227.3,64.9l-0.5,0.3l0,0c-0.1,0.2-0.2,0.5-0.3,0.7V66l0,0
		c-0.1,0.2-0.2,0.5-0.3,0.7l-0.2-0.7V66c-0.1,0.1-0.3,0.2-0.4,0.3l-0.5,0.4l0,0c0,0.1,0,0.1-0.1,0.1h-0.1l-0.3,0.2l-0.1,0.1
		l-0.4,0.4l-0.6,0.6h-0.1c0,0,0,0.1,0,0.1l0,0v0.4c0,0,0,0.1,0,0.1c0,0.1,0,0.2-0.1,0.3c-0.1,0.2-0.1,0.5-0.2,0.7c0,0,0,0.1,0,0.1
		c0.2-0.3,0.5-0.5,0.8-0.8c0,0,0,0,0.1-0.1l0.9-0.8l0.3-0.3l0.1-0.1l0.4-0.3l0.3-0.3l0,0l0.3-0.2l0.5-0.4l0.1-0.1l0.4-0.3
		c0.3-0.2,0.5-0.4,0.7-0.5C-226.8,65.5-227.1,65.2-227.3,64.9L-227.3,64.9z M-225.3,63.6c-0.3,0.2-0.7,0.4-1.1,0.7
		c0.2,0.3,0.4,0.6,0.6,0.9c0.3-0.2,0.6-0.4,0.9-0.6C-225,64.3-225.2,64-225.3,63.6L-225.3,63.6z M-213.5,67.5L-213.5,67.5l-0.2-0.4
		c-0.2-0.3-0.4-0.5-0.6-0.7l-0.1-0.1l-0.3-0.3l-0.2-0.2l-0.2-0.2l-0.1,0l-0.3-0.3l-0.4-0.3c0-0.4,0.1-0.7,0.2-1.1l-0.6,0.5l-0.2,0.2
		l-0.4-0.2l-0.1-0.1l-0.2-0.1l-0.2-0.1h0l-0.4,0.4l0,0l-0.4,0.4l-0.1,0.1l0,0l0.4,0.2c0.2,0.1,0.3,0.2,0.5,0.3
		c0.1,0,0.2,0.1,0.3,0.2l0,0c0.3,0.2,0.6,0.4,0.8,0.6l0.2,0.2l0.2,0.2c0.1,0.1,0.2,0.2,0.3,0.3l0.1,0.1l0.1,0.1
		c0.1,0.1,0.2,0.2,0.2,0.3c0.1,0.2,0.3,0.4,0.4,0.5c0,0.1,0,0.1,0,0.2l0.1-0.1c0.2,0.3,0.4,0.6,0.6,1c0,0.1,0.1,0.2,0.1,0.3
		s0.1,0.2,0.1,0.3c0,0.1,0.1,0.3,0.2,0.5c0-0.5,0-1,0.1-1.5C-213.5,68.1-213.5,67.9-213.5,67.5L-213.5,67.5z M-212,72.6
		c0-0.1,0-0.3,0-0.4l-1.1,0.3h-0.1l0.1,0.1c0.1,1.3,0,2.6-0.3,3.9l-1.4,1.6c0.3,0.1,0.7,0.1,1,0.1c0.1,0,0.2,0,0.3,0
		c0.4-0.4,0.7-0.9,1.1-1.3c0.1-0.7,0.2-1.3,0.3-2C-212,74.2-212,73.4-212,72.6L-212,72.6z M-230.1,67.9l-0.6,1.2
		c-0.2-0.3-0.3-0.5-0.5-0.8v0.6c0,0.1,0,0.2-0.1,0.3c-0.1,0.2-0.1,0.5-0.2,0.7c0,0,0,0.1,0,0.1c0.2-0.3,0.5-0.5,0.8-0.8
		c0,0,0,0,0.1-0.1l0.9-0.8C-229.8,68.2-230,68-230.1,67.9L-230.1,67.9z M-228.4,66.8c-0.1,0.2-0.1,0.3-0.2,0.5l0.3-0.2L-228.4,66.8z
		 M-213.4,67.5L-213.4,67.5l-0.2-0.4c-0.2-0.3-0.4-0.5-0.6-0.7l-0.1-0.1l-0.3-0.3l-0.2-0.2l-0.2-0.2l-0.1-0.1l-0.3-0.3l-0.4-0.3
		c0.1-0.4,0.1-0.7,0.2-1.1l-0.6,0.5l-0.3,0.2l-0.4-0.2l-0.1-0.1l-0.2-0.1l-0.2-0.1h-0.1l-0.4,0.4l0,0l-0.4,0.4l-0.1,0.1l0,0l0.4,0.2
		c0.2,0.1,0.3,0.2,0.5,0.3c0.1,0,0.2,0.1,0.3,0.2l0,0c0.3,0.2,0.6,0.4,0.8,0.6l0.2,0.2l0.2,0.2c0.1,0.1,0.2,0.2,0.3,0.3l0.1,0.1
		l0.1,0.1c0.1,0.1,0.2,0.2,0.2,0.3c0.1,0.2,0.3,0.4,0.4,0.5c0,0.1,0,0.1,0,0.2l0.1-0.1c0.2,0.3,0.4,0.6,0.6,1c0,0.1,0.1,0.2,0.1,0.3
		s0.1,0.2,0.1,0.3c0,0.1,0.1,0.3,0.2,0.5c0-0.5,0-1,0.1-1.5C-213.5,68.1-213.5,67.8-213.4,67.5L-213.4,67.5z M-212,72.6
		c0-0.1,0-0.3,0-0.4l-1.1,0.3h-0.1l0.1,0.1c0.1,1.3,0,2.6-0.3,3.9l-1.4,1.6c0.3,0.1,0.7,0.1,1,0.1c0.1,0,0.2,0,0.3,0
		c0.4-0.4,0.7-0.9,1.1-1.3c0.1-0.7,0.2-1.3,0.3-2C-212,74.2-212,73.4-212,72.6L-212,72.6z M-230.1,67.9l-0.6,1.2
		c-0.2-0.3-0.3-0.5-0.5-0.8v0.6c0,0.1,0,0.2-0.1,0.3c-0.1,0.2-0.1,0.5-0.2,0.7c0,0,0,0.1,0,0.1c0.2-0.3,0.5-0.5,0.8-0.8
		c0,0,0,0,0.1-0.1l0.9-0.8C-229.8,68.2-230,68-230.1,67.9L-230.1,67.9z M-228.4,66.8c-0.1,0.2-0.1,0.3-0.2,0.5l0.3-0.2L-228.4,66.8z
		 M-213.4,67.5L-213.4,67.5l-0.2-0.4c-0.2-0.3-0.4-0.5-0.6-0.7l-0.1-0.1l-0.3-0.3l-0.2-0.2l-0.2-0.2l-0.1-0.1l-0.3-0.3l-0.4-0.3
		c0.1-0.4,0.1-0.7,0.2-1.1l-0.6,0.5l-0.3,0.2l-0.4-0.2l-0.1-0.1l-0.2-0.1l-0.2-0.1h-0.1l-0.4,0.4l0,0l-0.4,0.4l-0.1,0.1l0,0l0.4,0.2
		c0.2,0.1,0.3,0.2,0.5,0.3c0.1,0,0.2,0.1,0.3,0.2l0,0c0.3,0.2,0.6,0.4,0.8,0.6l0.2,0.2l0.2,0.2c0.1,0.1,0.2,0.2,0.3,0.3l0.1,0.1
		l0.1,0.1c0.1,0.1,0.2,0.2,0.2,0.3c0.1,0.2,0.3,0.4,0.4,0.5c0,0.1,0,0.1,0,0.2l0.1-0.1c0.2,0.3,0.4,0.6,0.6,1c0,0.1,0.1,0.2,0.1,0.3
		s0.1,0.2,0.1,0.3c0,0.1,0.1,0.3,0.2,0.5c0-0.5,0-1,0.1-1.5C-213.5,68.1-213.5,67.8-213.4,67.5L-213.4,67.5z M-212,72.6
		c0-0.1,0-0.3,0-0.4l-1.1,0.3h-0.1l0.1,0.1c0.1,1.3,0,2.6-0.3,3.9l-1.4,1.6c0.3,0.1,0.7,0.1,1,0.1c0.1,0,0.2,0,0.3,0
		c0.4-0.4,0.7-0.9,1.1-1.3c0.1-0.7,0.2-1.3,0.3-2C-212,74.2-212,73.4-212,72.6L-212,72.6z M-219.4,64.2l-0.1-0.1 M-219.4,64.2
		L-219.4,64.2c0.3,0.1,0.6,0.3,0.9,0.4h0.1l0.1-0.1l0.4-0.4l0,0l0.4-0.4h0.1l0.2,0.1l0.2,0.1l0.1,0.1l0.4,0.4
		c0.2,0.1,0.4,0.3,0.6,0.4l0.4,0.3l0.3,0.3l0.1,0.1l0.2,0.2l0.2,0.2l0.3,0.3l0.1,0.1c0.2,0.2,0.4,0.5,0.6,0.7l0.2,0.4l0,0
		c0,0.3,0,0.6-0.1,0.8c0,0.5-0.1,1-0.1,1.5c0.1,0.5,0.3,1,0.3,1.5c0,0.2,0,0.4,0.1,0.6c0,0.2,0,0.4,0.1,0.6l1.1-0.3
		c0,0.1,0,0.3,0,0.4c0,0.8,0,1.6-0.1,2.4l-0.3,0.3l-1,1.2l-1.4,1.6c-0.3,0.3-0.5,0.6-0.8,1l-0.8,1c-0.3,0.3-0.4,0.5-0.6,0.7
		l-1.4,1.8c-0.5,0.6-0.9,1.2-1.3,1.7l-0.9,1.3c-1,1.4-1.9,2.7-2.8,4.1c-1,0.6-2,1.2-3,1.9c-0.4,0.3-0.8,0.6-1.2,0.9
		c-0.4,0.3-0.8,0.6-1.2,1c-0.6,0.5-1.1,1-1.7,1.6c-1.1,1-2,2.2-2.7,3.4c-1.7-1.6-3.1-4.4-4.1-8.2c-1.3-4.5-1-9.3,1.1-13.6
		c0.3-0.7,0.7-1.3,1.1-2l-0.9-0.6c0.1-0.1,0.2-0.3,0.3-0.4c0.1-0.1,0.2-0.4,0.3-0.5l0.4-0.5c0.5-0.7,1.1-1.4,1.7-2.1l0,0
		c0.2-0.2,0.4-0.4,0.6-0.7l0.1-0.2l0.1,0.1l0.5,0.4c0.1-0.2,0.2-0.5,0.3-0.9l0.4,0.7l0,0c0,0,0-0.1,0-0.1c0.1-0.2,0.1-0.5,0.2-0.7
		c0-0.1,0-0.2,0.1-0.3v-0.6c0.1,0.3,0.3,0.5,0.5,0.8l0.6-1.2c0.1-0.2,0.2-0.4,0.3-0.5l0,0c0.1-0.2,0.2-0.3,0.2-0.5
		c0,0,0.1-0.1,0.1-0.1l0,0l0.5-0.4c0.1,0.3,0.3,0.7,0.5,1l0,0c0.1-0.2,0.2-0.3,0.2-0.5l0.1,0.3l0.5-0.4l0.1-0.1l0.4-0.3
		c0.3-0.2,0.5-0.4,0.7-0.5l0.5-0.3l0.4-0.3c0.3-0.2,0.6-0.4,0.9-0.6l0,0l0.5-0.3l0.5-0.3l0.6-0.3h0.3c0.1,0,0.2-0.1,0.3-0.2
		c0,0,0.1,0,0.1-0.1l0,0l0.2-0.1l0.5,0.1h0.1l0.4,0.1l0.5,0.1l0.4,0.1l0.4,0.1c0.2,0.1,0.5,0.2,0.7,0.2 M-219.5,64.2
		c-0.2-0.1-0.4-0.2-0.7-0.2l-0.4-0.1l-0.4-0.1l-0.5-0.1l-0.4-0.1h-0.1l-0.5-0.1l-0.2,0.1l0,0c0,0,0,0.1-0.1,0.1
		c-0.1,0.1-0.2,0.1-0.3,0.2h-0.2l-0.6,0.3l-0.5,0.3l-0.5,0.3l0,0c-0.3,0.2-0.6,0.4-0.9,0.6l-0.4,0.3l-0.5,0.3
		c-0.2,0.2-0.5,0.3-0.7,0.5l-0.4,0.3l-0.1,0.1l-0.5,0.4l-0.3,0.2l0,0l-0.3,0.3l-0.4,0.3l-0.1,0.1l-0.3,0.3l-0.9,0.8l0,0
		c-0.3,0.2-0.5,0.5-0.8,0.8l-0.4,0.4l-0.4,0.5l-0.2,0.2l-0.1,0.1c-0.4,0.5-0.9,1-1.3,1.6l-0.4,0.5c-0.1,0.2-0.3,0.4-0.4,0.5
		c-0.1,0.2-0.4,0.6-0.6,0.9c-0.4,0.6-0.8,1.3-1.1,2c-2,4.2-2.4,9.1-1,13.6c1.1,3.8,2.5,6.6,4.1,8.2c0.8-1.3,1.7-2.4,2.7-3.4
		c0.5-0.6,1.1-1.1,1.7-1.6c0.4-0.3,0.8-0.7,1.2-1c0.4-0.3,0.8-0.6,1.2-0.9c1-0.7,2-1.3,3-1.9c0.9-1.4,1.8-2.8,2.8-4.1l0.9-1.2
		c0.4-0.6,0.9-1.2,1.3-1.7l1.4-1.8 M-216.4,80.2c0.3-0.3,0.5-0.6,0.8-1c0.3-0.3,0.5-0.7,0.8-1c0.5-0.6,0.9-1.1,1.4-1.6
		c0.2-1.3,0.3-2.6,0.3-3.9l-0.1-0.1h0.1c0-0.2,0-0.4-0.1-0.6c-0.1-0.2,0-0.4-0.1-0.6c-0.1-0.5-0.2-1-0.3-1.5
		c-0.1-0.2-0.1-0.3-0.2-0.5c0-0.1-0.1-0.2-0.1-0.3c-0.1-0.1-0.1-0.2-0.1-0.3c-0.2-0.3-0.3-0.6-0.6-1l-0.1,0.1c0-0.1,0-0.1,0-0.2
		c-0.1-0.2-0.3-0.4-0.4-0.5c-0.1-0.1-0.1-0.2-0.2-0.3l-0.1-0.1l-0.1-0.1c-0.1-0.1-0.2-0.2-0.3-0.3l-0.2-0.2l-0.2-0.2
		c-0.3-0.2-0.5-0.4-0.8-0.6l0,0c-0.1-0.1-0.2-0.1-0.3-0.2c-0.2-0.1-0.3-0.2-0.5-0.3l-0.4-0.2h-0.1c-0.3-0.1-0.6-0.3-0.9-0.4h-0.1"/>
	<path class="st4" d="M-231.6,59.6L-231.6,59.6L-231.6,59.6c-0.3,0-0.4-0.2-0.4-0.4l0,0v-0.1c0-0.3,0-0.6-0.1-0.8v-0.5l0,0v-0.2
		c0-0.2,0-0.4,0-0.5c-0.2-1.7-0.5-3.5-0.9-5.2l0,0c-0.1-0.7-0.4-1.3-0.9-1.8c-0.2,0.1-0.3,0.2-0.3,0.4c-0.3,1,0,3.7,0.7,6.7
		c0,0.2,0.1,0.4,0.1,0.5c0.1,0.2,0.1,0.4,0.2,0.5c0.1,0.2,0.2,0.6,0.3,0.9c0,0.1,0,0.1,0,0.2v0.2c0,0.2-0.2,0.3-0.4,0.4h-0.2
		c-0.2,0-0.5-0.2-0.5-0.4v-0.1l-0.2-0.6l-0.1-0.5c0-0.2-0.1-0.4-0.1-0.5c0-0.2-0.1-0.4-0.1-0.5c-0.8-3.3-1.6-7.7,0.3-8.3l0,0
		c0.3-0.1,0.7-0.1,1,0.2c0,0,0.1,0,0.1,0.1c0.7,0.7,1.1,1.6,1.3,2.6l0,0c0.4,1.7,0.7,3.4,0.9,5.2c0,0.2,0,0.4,0.1,0.6v0.1l0,0v0.1
		l0,0v1.1C-231.2,58.9-231.5,59.2-231.6,59.6z"/>
	<path class="st4" d="M-224.2,54.3c0,0.2-0.2,0.5-0.3,0.6l0,0c-0.3,0.3-0.6,0.5-1,0.6l-0.3,0.1l0,0l-0.3,0.1
		c-0.3,0.3-0.6,0.6-0.9,0.9l-0.2,0.3c0,0.1-0.1,0.1-0.1,0.2l-0.1,0.1l0,0c-0.1,0.1-0.1,0.3-0.2,0.4c-0.2,0.5-0.3,1.1-0.4,1.7
		c0,0.4,0,0.7,0.1,1.1l0,0c0.1,0.3-0.1,0.6-0.4,0.7c0,0,0,0,0,0h-0.2c-0.2,0-0.4-0.2-0.4-0.4c-0.1-0.4-0.1-0.8-0.1-1.2
		c0-0.6,0.1-1.3,0.3-1.9c0.1-0.2,0.1-0.4,0.2-0.6c0.1-0.2,0.2-0.4,0.3-0.6l0.1-0.2c0.3-0.6,0.8-1.1,1.3-1.5l0.1-0.1
		c0.2-0.2,0.5-0.3,0.7-0.4c0.2-0.1,0.3-0.1,0.4-0.2l0,0c0.1,0,0.1-0.1,0.2-0.2l0.1-0.1c0-0.1-0.1-0.2-0.1-0.3l-0.1-0.1
		c-0.3-0.2-0.6-0.3-1-0.3h-0.1c-0.6,0.2-1,0.6-1.4,1.1c-0.6,0.7-1.1,1.5-1.5,2.3c-0.1,0.2-0.2,0.4-0.3,0.6l-0.1,0.2l0,0
		c0,0.1-0.1,0.2-0.2,0.2c-0.1,0.1-0.3,0.1-0.5,0l0,0c-0.1,0-0.2-0.1-0.2-0.2c-0.1-0.1-0.1-0.2-0.1-0.3c0-0.1,0-0.2,0.1-0.3l0.1-0.2
		c0,0,0-0.1,0.1-0.1c0.5-1,1.2-2,2-2.9c0.5-0.7,1.3-1.3,2.1-1.5c0.1,0,0.2,0,0.3,0c0.4,0,0.8,0.1,1.1,0.2c0.3,0.1,0.5,0.3,0.7,0.5
		c0.1,0.1,0.2,0.3,0.3,0.4l0,0C-224.2,53.7-224.1,54-224.2,54.3z"/>
	<path class="st4" d="M-243.9,70.7c0,0.1-0.1,0.1-0.1,0.2c-0.1,0.1-0.2,0.2-0.4,0.2c-0.2,0-0.3-0.1-0.4-0.2l-0.5-0.5l0,0
		c-1.2-1.1-2.8-1.8-4.4-2h-1.8c-0.3,0-0.5,0-0.8-0.1c-0.3,0-0.6-0.1-0.9-0.2l0,0c-0.3-0.1-0.6-0.3-0.8-0.6l0,0
		c0-0.1-0.1-0.1-0.1-0.2l0,0l-0.1-0.2c0-0.1-0.1-0.2-0.1-0.2l0,0c0-0.1,0-0.3,0-0.4c0-0.1,0-0.2,0.1-0.3c0.1-0.1,0.1-0.3,0.2-0.4
		c0.2-0.2,0.3-0.3,0.5-0.5c0.4-0.3,1-0.5,1.5-0.6c0.2,0,0.3,0,0.5,0c0.2,0,0.5,0,0.7,0h0.4c0.3,0,0.6,0.1,0.9,0.2l0,0l0.5,0.1l0,0
		l0.4,0.1c0.6,0.2,1.2,0.4,1.8,0.7c0.4,0.2,0.8,0.4,1.3,0.6l1.3,0.7l0,0c0.3,0.2,0.3,0.5,0.2,0.8c0,0,0,0,0,0l0,0l-0.1,0.1l-0.1,0.1
		c-0.1,0-0.2,0-0.2,0c-0.1,0-0.2,0-0.3-0.1l-0.4-0.3l0,0c-1.2-0.7-2.5-1.3-3.9-1.8l0,0c-1-0.4-2.1-0.5-3.2-0.3l0,0
		c-0.4,0.1-0.8,0.4-1.1,0.7l0,0c0,0,0,0,0,0.1c0.3,0.6,1.2,0.7,2.1,0.7h1.6c1.6,0.2,3.2,0.8,4.4,1.8c0.3,0.2,0.6,0.4,0.8,0.7
		s0.2,0.2,0.4,0.4l0,0C-243.9,70.2-243.8,70.5-243.9,70.7z"/>
	<path class="st4" d="M-239.5,61c-0.1,0.2-0.3,0.4-0.5,0.4h-0.2c-0.3-0.1-0.6-0.2-0.8-0.3l-0.1-0.1c-0.4-0.3-0.8-0.6-1.2-1l0,0
		c-0.1-0.1-0.1-0.2-0.2-0.3c-0.1-0.2-0.2-0.3-0.3-0.5c-0.1-0.2-0.2-0.3-0.2-0.5c-0.2-0.7-0.3-1.3-0.3-2c0-1-0.2-1.2-0.2-1.2
		c-0.1,0.1-0.2,0.1-0.3,0.2c0,0-0.1,0.1-0.1,0.1c-0.1,0.3-0.2,0.6-0.2,0.9c0,0.8,0.1,1.5,0.3,2.2l0.1,0.3l0,0c0,0.1,0,0.2,0,0.2
		l0.2,0.5c0.1,0.4,0.3,0.9,0.5,1.5c0,0,0,0.1,0,0.1c0,0,0,0.1,0,0.1l0,0c0,0.2-0.1,0.4-0.4,0.5c-0.1,0-0.1,0-0.2,0
		c-0.2,0-0.4-0.2-0.5-0.4c-0.1-0.4-0.3-0.8-0.4-1.1c-0.1-0.2-0.1-0.3-0.2-0.5c0-0.2-0.1-0.3-0.1-0.5l0,0v-0.1l-0.1-0.4
		c-0.1-0.5-0.2-1.1-0.3-1.6c-0.2-1.9,0.3-2.5,0.6-2.7c0.4-0.4,0.9-0.5,1.4-0.4l0,0c0.8,0.3,0.9,1.4,0.9,2.2c0,0.6,0.1,1.2,0.3,1.8
		c0.1,0.2,0.2,0.4,0.3,0.5l0.4,0.5l0.1,0.1c0.3,0.3,0.7,0.6,1.2,0.8h0.2C-239.6,60.4-239.4,60.6-239.5,61
		C-239.5,61-239.5,61-239.5,61z"/>
	<path class="st4" d="M-236.9,72.2c-0.2,0.2-0.6,0.2-0.8-0.1l-0.3-0.3c-0.9-1.1-1.6-2.2-2.2-3.5l0,0c-0.2-0.4-0.4-0.8-0.5-1.2
		c0-0.1-0.1-0.3-0.2-0.4c-0.1-0.1-0.2-0.1-0.3-0.1h-0.1c-0.2,0.1-0.4,0.2-0.5,0.5c-0.1,0.3-0.1,0.6,0,0.9c0,0.1,0,0.2,0,0.3
		c0,0.1,0.1,0.2,0.1,0.4c0.1,0.2,0.2,0.5,0.3,0.7l0,0c0.3,0.6,0.6,1.2,0.9,1.8l0,0l0.2,0.4c0,0.1,0.1,0.2,0.1,0.2
		c0,0.3-0.2,0.6-0.5,0.6c0,0,0,0,0,0c0,0-0.1,0-0.1,0c-0.2,0-0.3-0.1-0.4-0.3l-0.2-0.4l-0.2-0.3c-0.3-0.6-0.6-1.2-0.9-1.9l0,0
		c-0.4-0.9-0.5-1.8-0.3-2.7c0.1-0.3,0.3-0.6,0.6-0.9c0.2-0.1,0.4-0.3,0.6-0.3h0.1c0.1,0,0.3-0.1,0.4-0.1c0.4,0,0.7,0.1,1,0.4
		c0.1,0,0.1,0.1,0.1,0.1c0.2,0.2,0.3,0.4,0.5,0.6c0.2,0.5,0.4,1,0.7,1.5c0.6,1.2,1.4,2.3,2.2,3.2C-236.5,71.6-236.6,72-236.9,72.2
		C-236.8,72.2-236.9,72.2-236.9,72.2z"/>
	<path class="st4" d="M-232.5,67.3v0.2l0,0v0.4c0,0,0,0.1,0,0.1c0,0.1,0,0.2-0.1,0.3c0,0.2-0.1,0.5-0.2,0.7c0,0,0,0.1,0,0.1
		l-0.4,0.4l-0.4,0.5l-0.2,0.2c-0.2-0.1-0.4-0.3-0.3-0.5c0-0.1,0-0.1,0-0.2l0.1-0.3l0,0c0-0.1,0.1-0.2,0.1-0.3c0-0.1,0-0.2,0.1-0.3
		c0.1-0.3,0.2-0.6,0.2-0.9v-0.1c0.1-0.3,0.1-0.5,0-0.8c0,0,0-0.1,0-0.1c-0.1,0-0.3,0.1-0.4,0.2c-0.1,0.1-0.2,0.2-0.2,0.3
		c-0.1,0.2-0.3,0.4-0.3,0.6l0,0l-0.1,0.2l-0.1,0.2c-0.1,0.4-0.3,0.7-0.4,1.1c0,0.1-0.1,0.2-0.1,0.3v0.1c-0.1,0.3-0.3,0.4-0.5,0.4
		h-0.1c-0.2,0-0.4-0.2-0.4-0.4c0-0.1,0-0.1,0-0.2c0.1-0.3,0.1-0.7,0.2-1c0.1-0.4,0.2-0.7,0.4-1.1c0.1-0.2,0.2-0.5,0.4-0.7
		c0.1-0.1,0.1-0.2,0.2-0.3c0.1-0.1,0.2-0.3,0.4-0.4c0.1-0.1,0.2-0.2,0.3-0.2c0.2-0.2,0.4-0.2,0.7-0.3h0.6c0.2,0.1,0.4,0.2,0.5,0.4
		l0,0c0.1,0.2,0.2,0.4,0.2,0.6C-232.5,66.8-232.5,67.1-232.5,67.3z"/>
	<path class="st4" d="M-245.7,66.5L-245.7,66.5c-0.1,0.1-0.2,0.2-0.2,0.2c-0.1,0.1-0.2,0.1-0.3,0.1h-0.1c-0.1,0-0.1,0-0.2,0
		l-0.9-0.5h-0.1l-1-0.6c-1.1-0.6-2.1-1.3-2.9-2.2l0,0c-0.1-0.1-0.2-0.3-0.3-0.4l-0.1-0.2c-0.1-0.1-0.1-0.2-0.1-0.3
		c0-0.1,0-0.2,0-0.3c0-0.1,0-0.2,0-0.3v-0.1c0.1-0.3,0.4-0.5,0.7-0.6h0.9l0.6,0.2l0,0l0.6,0.3h0.1l0.4,0.2l0,0
		c0.7,0.4,1.4,0.8,2.1,1.3c0.2,0.2,0.3,0.4,0.2,0.6c0,0,0,0.1-0.1,0.1c-0.1,0.1-0.2,0.2-0.3,0.2l0,0c-0.2,0-0.3,0-0.5-0.1
		c-0.7-0.5-1.3-0.9-2-1.3c-0.3-0.1-0.5-0.3-0.7-0.4l-0.3-0.1c-0.2-0.1-0.5-0.2-0.7-0.2l0,0c0,0.1,0,0.1,0.1,0.1
		c0.1,0.1,0.2,0.2,0.3,0.3c0.1,0.1,0.3,0.3,0.4,0.4l0.4,0.4l0,0l0.3,0.2l0.7,0.5c0.3,0.2,0.7,0.5,1.1,0.7l1.2,0.7l0.4,0.2
		c0.1,0.1,0.2,0.2,0.3,0.3C-245.6,66.2-245.6,66.4-245.7,66.5z"/>
	<path class="st4" d="M-229.6,60.6L-229.6,60.6c-0.1,0.7-0.2,1.4-0.5,2.1l0,0c-0.1,0.3-0.4,0.4-0.7,0.4c-0.1,0-0.2-0.1-0.3-0.2
		c-0.1-0.1-0.1-0.3-0.1-0.5c0.2-0.6,0.3-1.2,0.4-1.8l0,0c0.1-0.3,0.1-0.7-0.1-1h-0.4c-0.3,0.2-0.6,0.5-0.7,0.8v0.1
		c-0.3,0.9-0.4,1.8-0.3,2.7l0,0v0.7c0,0.3-0.2,0.6-0.5,0.6h-0.1c-0.3,0-0.5-0.2-0.5-0.5c-0.1-0.8-0.1-1.6-0.1-2.4l0,0
		c0-0.3,0.1-0.7,0.2-1l0,0c0-0.1,0-0.2,0.1-0.3c0-0.1,0.1-0.2,0.1-0.4c0.1-0.3,0.3-0.6,0.6-0.9l0.1-0.1c0.1-0.1,0.2-0.1,0.2-0.2
		c0.1-0.1,0.1-0.1,0.2-0.1c0.1-0.1,0.2-0.1,0.4-0.2h0.2c0.1,0,0.3,0,0.4,0c0.1,0,0.2,0,0.4,0c0.2,0,0.4,0.1,0.5,0.3l0,0
		C-229.7,59.2-229.5,59.9-229.6,60.6z"/>
	<path class="st4" d="M-221.3,57.2c-0.1,0.3-0.3,0.6-0.5,0.9l-0.3,0.5l0,0l-0.1,0.2l-0.2,0.3l-0.1,0.2c-0.3,0.5-0.5,1-0.8,1.5
		c0,0,0,0.1-0.1,0.1l0,0c0,0-0.1,0.1-0.1,0.1l0,0c-0.1,0.1-0.2,0.1-0.3,0.1c-0.1,0-0.2,0-0.2-0.1l0,0c-0.2-0.1-0.3-0.3-0.3-0.5
		c0-0.1,0-0.1,0-0.2c0.2-0.5,0.5-1,0.7-1.4c0.1-0.2,0.2-0.4,0.3-0.5l0,0c0-0.1,0.1-0.1,0.1-0.2l0.2-0.3c0.2-0.4,0.5-0.8,0.7-1.3
		c0.3-0.5,0.4-1.1,0.2-1.7c0-0.3-0.3-0.4-0.5-0.4c-0.2,0-0.3,0.1-0.4,0.3c-0.1,0.2-0.3,0.5-0.4,0.7c-0.2,0.6-0.6,1.2-1.1,1.6
		l-0.1,0.1c-0.2,0.2-0.4,0.3-0.6,0.5l-0.3,0.3l0,0c-0.1,0.1-0.2,0.2-0.2,0.2l0,0c-0.2,0.2-0.3,0.3-0.4,0.5c-0.3,0.4-0.3,1-0.1,1.4
		c0,0.1,0,0.1,0,0.2c0.1,0.3-0.1,0.6-0.4,0.7c-0.3,0.1-0.6-0.1-0.7-0.4c0,0,0-0.1,0-0.1l0,0c-0.2-0.6-0.2-1.3,0-1.9
		c0.1-0.2,0.1-0.4,0.3-0.5c0.1-0.2,0.2-0.4,0.4-0.5c0.1-0.1,0.1-0.1,0.2-0.2l0,0c0.4-0.4,0.8-0.8,1.2-1.1l0.1-0.1l0,0
		c0.3-0.3,0.6-0.7,0.8-1.1c0.1-0.3,0.3-0.5,0.4-0.8c0.3-0.5,0.9-0.9,1.5-0.8c0.5,0,0.9,0.3,1.2,0.7c0.1,0.1,0.1,0.3,0.2,0.4
		C-220.8,55.5-220.9,56.4-221.3,57.2z"/>
	<path class="st4" d="M-227.4,66.4l-0.4,0.3l-0.1,0.1l-0.5,0.4l-0.1-0.3l-0.2-0.7V66c-0.1-0.3-0.2-0.5-0.3-0.7s-0.1-0.2-0.1-0.3
		c-0.1-0.3-0.3-0.6-0.6-0.9c-0.1-0.2-0.3-0.2-0.5-0.2l0,0c-0.4,0.1-0.7,0.4-0.9,0.8c-0.1,0.2-0.2,0.4-0.2,0.6
		c-0.1,0.4,0.1,0.6,0.7,1h0.1l0.1,0.1l0.2,0.1l0.3,0.2c0.1,0.1,0.2,0.1,0.2,0.2h0.1c0.3,0.2,0.5,0.5,0.7,0.8l-0.4,0.3l-0.1,0.1
		l-0.3,0.3c-0.1-0.1-0.2-0.3-0.3-0.4c-0.1-0.1-0.3-0.3-0.4-0.4h-0.1l-0.4-0.3l0,0l-0.4-0.2h-0.1c-0.2-0.1-0.3-0.2-0.4-0.4l0,0
		c-0.4-0.4-0.5-1-0.4-1.6c0.1-0.6,0.4-1.1,0.9-1.6c0.3-0.3,0.6-0.5,1-0.6h0.1c0.4-0.1,0.8,0,1.1,0.1h0.1c0.3,0.2,0.6,0.6,0.8,0.9
		c0.1,0.1,0.1,0.2,0.2,0.4c0.2,0.3,0.3,0.7,0.4,1l0,0l0.1,0.4L-227.4,66.4z"/>
	<path class="st4" d="M-223.9,64.1l-0.5,0.3l-0.5,0.3l0,0c-0.1-0.3-0.3-0.7-0.4-1c-0.1-0.3-0.3-0.7-0.5-1c-0.2-0.3-0.4-0.6-0.7-0.9
		c-0.1-0.1-0.2-0.1-0.3-0.2c-0.2-0.1-0.3-0.1-0.5-0.1c-0.1,0-0.2,0.1-0.2,0.2c0,0.6,0.2,1.1,0.5,1.6v0.1l0.3,0.5
		c0,0.1,0.1,0.1,0.1,0.2l0.1,0.2l0,0c0.2,0.3,0.4,0.6,0.6,0.9l-0.4,0.3l-0.5,0.3c-0.2-0.3-0.4-0.6-0.6-0.9c-0.1-0.1-0.1-0.2-0.2-0.3
		c-0.1-0.2-0.3-0.4-0.4-0.6c-0.1-0.2-0.2-0.5-0.3-0.7c-0.3-0.6-0.4-1.3-0.3-1.9l0,0c0.1-0.3,0.2-0.5,0.5-0.7l0,0
		c0.1-0.1,0.3-0.2,0.4-0.2c0.5-0.1,1-0.1,1.4,0.1l0.1,0.1c0.5,0.4,1,0.8,1.3,1.4c0.2,0.3,0.4,0.6,0.5,1c0,0.1,0.1,0.1,0.1,0.2
		C-224.2,63.5-224,63.8-223.9,64.1z"/>
	<path class="st4" d="M-219.8,61.5c0,0.3-0.1,0.6-0.2,1c-0.1,0.3-0.2,0.6-0.3,1l-0.5-0.1l-0.4-0.1h-0.1c0.1-0.3,0.2-0.6,0.3-1
		c0.1-0.3,0.1-0.6,0.2-1c0.2-0.7,0.2-1.4,0.1-2.1l0,0c0,0,0-0.1-0.1-0.1c-0.8,0.4-1.3,1.2-1.2,2.1c0,0.3,0,0.6,0,1c0,0,0,0.1,0,0.1
		c0,0.2,0,0.4,0.1,0.6c0,0.1,0,0.2-0.1,0.3h-0.1l-0.4,0.2h-0.2c-0.1,0-0.1-0.1-0.2-0.1c0,0-0.1,0-0.1-0.1c0-0.1-0.1-0.1-0.1-0.2
		c0-0.1,0-0.3-0.1-0.4c-0.1-0.2,0-0.3,0-0.5v-0.6c0-0.4,0-0.7,0.1-1.1c0-0.1,0.1-0.3,0.1-0.4c0.2-0.5,0.5-1,0.9-1.4l0,0
		c0,0,0-0.1,0.1-0.1l0,0c0.1-0.1,0.2-0.1,0.3-0.2l0.3-0.1h0.1c0.2-0.1,0.4-0.1,0.7,0h0.1c0.1,0,0.2,0.1,0.3,0.2
		c0.1,0.1,0.2,0.2,0.3,0.4c0.1,0.2,0.1,0.4,0.2,0.6C-219.6,60.1-219.7,60.8-219.8,61.5z"/>
	<path class="st4" d="M-211.3,56.7v0.6c0,0.2-0.1,0.5-0.2,0.7c-0.1,0.2-0.2,0.4-0.2,0.6c0,0.1-0.1,0.1-0.1,0.2l0,0
		c0,0.1-0.1,0.2-0.2,0.3c-0.1,0.1-0.1,0.3-0.2,0.4l0,0v0.1l0,0c-0.2,0.3-0.5,0.3-0.8,0.2c0,0-0.1-0.1-0.1-0.1l0,0
		c-0.1-0.1-0.1-0.2-0.1-0.3l0,0c0-0.1,0-0.1,0-0.2v-0.1l0,0c0-0.1,0.1-0.1,0.1-0.2c0.1-0.2,0.2-0.3,0.3-0.5c0.3-0.5,0.5-1.1,0.5-1.7
		c0,0,0-0.1,0-0.1l0,0c-0.1-0.1-0.2-0.1-0.3-0.1c-0.5,0-0.9,0.7-1.3,1.7c-0.1,0.2-0.1,0.3-0.2,0.5l-0.1,0.2l0,0c0,0-0.1,0.2-0.1,0.3
		c0,0.1,0,0.1-0.1,0.2c-0.1,0.2-0.1,0.3-0.1,0.5c-0.1,0.4-0.2,0.8-0.2,1.2c0,0.2,0,0.3-0.1,0.5c0,0.2-0.1,0.5-0.1,0.7l0,0
		c0,0.1-0.1,0.3-0.2,0.3c-0.1,0-0.1,0.1-0.2,0.1c-0.1-0.2-0.2-0.5-0.3-0.7c-0.1-0.2-0.1-0.4-0.2-0.6c0-0.1,0-0.2-0.1-0.3l0,0
		c0-0.2,0-0.4,0.1-0.5l0,0c0.1-0.4,0.2-0.9,0.3-1.4l0,0v-0.2c0-0.2,0.1-0.4,0.2-0.5c0-0.2,0.1-0.4,0.2-0.5c0-0.1,0.1-0.2,0.1-0.3
		l0,0c0.3-1,0.9-1.8,1.9-2.3c0.2-0.1,0.3-0.1,0.5-0.1c0.2,0,0.4,0,0.7,0.1c0.2,0.1,0.4,0.2,0.5,0.3c0.2,0.2,0.3,0.5,0.3,0.8l0,0
		C-211.2,56.5-211.3,56.6-211.3,56.7z"/>
	<path class="st4" d="M-233.7,61.5L-233.7,61.5c0,0.2,0,0.5-0.1,0.7c0,0.1-0.1,0.2-0.1,0.4l0,0c-0.2,0.6-0.5,1.1-0.8,1.6l0,0
		c0,0-0.1,0.1-0.1,0.1c-0.1,0.1-0.2,0.1-0.3,0.1h0c-0.1,0-0.2,0-0.3-0.1c-0.1-0.1-0.2-0.3-0.2-0.5l0,0c0-0.1,0-0.2,0.1-0.3
		c0.1-0.1,0.1-0.2,0.2-0.2l0.1-0.1c0.2-0.4,0.4-0.8,0.5-1.2c0.1-0.2,0-0.3,0-0.3c-0.1-0.1-0.2-0.2-0.3-0.1c-0.3,0-0.5,0.2-0.7,0.3
		c-0.2,0.2-0.4,0.4-0.5,0.6c0,0,0,0.1,0,0.1c-0.1,0.1-0.1,0.3-0.2,0.5V63c0,0.2-0.1,0.4-0.1,0.6c-0.1-0.1-0.2-0.1-0.2-0.2l-0.2-0.1
		h-0.1l-0.2-0.1l-0.2-0.1h-0.1v-0.1c0-0.1,0-0.2,0.1-0.4l0,0c0-0.2,0.1-0.4,0.2-0.5l0.1-0.2V62c0.1-0.1,0.1-0.2,0.2-0.4l0.1-0.1
		c0.2-0.3,0.5-0.5,0.8-0.7c0.3-0.2,0.7-0.3,1-0.4h0.2c0.2,0,0.4,0,0.6,0.1l0,0c0.2,0.1,0.4,0.2,0.5,0.4l0.1,0.1l0.1,0.1
		C-233.8,61.2-233.7,61.3-233.7,61.5z"/>
	<path class="st4" d="M-241.2,64.9c-0.2,0.2-0.6,0.1-0.8-0.1l-0.1-0.1l-0.1-0.2c-0.5-0.7-1.1-1.4-1.7-2l0,0
		c-0.4-0.5-0.8-0.9-1.2-1.4l-0.2-0.2l-0.1-0.1l-0.2-0.2l-0.2-0.2l-0.4-0.4l-0.3-0.3l-0.8-0.8c-1.6-1.5-3.1-2.5-3.9-2.3
		c-0.1,0-0.3,0.1-0.4,0.2c-0.1,0.4,1.4,1.8,3.3,3.1c0,0,0.4,0.2,0.8,0.6l0.5,0.4c0.1,0.1,0.3,0.3,0.5,0.4c0.7,0.6,1.3,1.3,1.8,2.1
		l0,0c0.4,0.7,0.8,1.5,0.9,2.3l0,0c0.1,0.2,0,0.5-0.2,0.7c-0.1,0.1-0.1,0.1-0.2,0.1h-0.1c-0.3,0-0.5-0.2-0.5-0.4l0,0
		c-0.4-1.7-1.4-3.2-2.8-4.3c-0.2-0.1-0.3-0.3-0.5-0.4c-0.2-0.1-0.3-0.3-0.5-0.4l-0.2-0.1c-1.2-0.8-4.1-2.7-3.9-4.2
		c0.1-0.4,0.3-0.8,1.2-1.1c1.1-0.3,2.7,0.6,4.3,2l0.5,0.4l0.3,0.3l0.2,0.2l0.6,0.6l0.1,0.1l0.5,0.5l0.3,0.3l0,0l0.4,0.4l0,0l0.1,0.1
		l0,0c0.4,0.5,0.8,0.9,1.2,1.4l0,0c0.2,0.2,0.3,0.3,0.4,0.5l0,0c0.6,0.7,1.1,1.3,1.3,1.7c0.3,0.1,0.4,0.5,0.3,0.7
		C-241.1,64.8-241.2,64.9-241.2,64.9z"/>
	<path class="st4" d="M-234.6,68.1c0,0.3-0.2,0.6-0.5,0.6h-0.1c-0.2,0-0.3-0.1-0.4-0.2c-0.1-0.1-0.1-0.2-0.1-0.3V68
		c0-0.3-0.1-0.6-0.2-0.9l0,0c0-0.2-0.1-0.3-0.1-0.5c0-0.2-0.2-0.5-0.2-0.8s-0.2-0.5-0.3-0.7c-0.1-0.2-0.2-0.4-0.3-0.6
		c-0.1-0.2-0.3-0.4-0.4-0.5l0,0c-0.1-0.1-0.2-0.2-0.4-0.3l-0.2-0.2c-0.1-0.1-0.2-0.1-0.2-0.2l-0.2-0.1h-0.1l-0.2-0.1l-0.2-0.1h-0.4
		c-0.2,0-0.4,0-0.5,0.1c-0.2,0-0.3,0.2-0.3,0.3c0,0.2,0.1,0.3,0.3,0.5c0.3,0.2,0.6,0.4,0.9,0.6l0.4,0.2c0.2,0.1,0.5,0.3,0.7,0.5
		c0.5,0.4,0.8,1,0.7,1.6l0,0c0,0.3-0.1,0.6-0.2,0.8l0,0c-0.1,0.3-0.4,0.4-0.7,0.3l0,0c-0.3-0.1-0.4-0.4-0.4-0.7c0,0,0,0,0,0
		c0.1-0.2,0.1-0.3,0.1-0.5c0-0.5-0.2-0.8-0.8-1.2l-0.3-0.2c-0.4-0.2-0.8-0.5-1.1-0.7c-0.5-0.4-0.7-1-0.6-1.7c0.2-0.5,0.5-0.8,1-1
		c0.2-0.1,0.3-0.1,0.5-0.1h0.6c0.2,0,0.3,0,0.5,0h0.2l0.3,0.1h0.1l0.2,0.1l0.2,0.1c0.4,0.2,0.7,0.5,1,0.8c0.1,0.1,0.2,0.2,0.3,0.3
		l0,0c0,0,0.1,0.1,0.1,0.1c0.1,0.1,0.3,0.3,0.4,0.5c0.1,0.2,0.3,0.4,0.4,0.6c0.3,0.7,0.6,1.5,0.7,2.2l0,0
		C-234.8,67.1-234.8,67.6-234.6,68.1C-234.7,68-234.7,68.1-234.6,68.1C-234.7,68.1-234.7,68.1-234.6,68.1L-234.6,68.1z"/>
	<path class="st4" d="M-215.4,62.4c0,0.3-0.3,0.5-0.5,0.5c0,0,0,0,0,0l0,0c0,0-0.1,0-0.1,0c-0.1,0-0.1,0-0.1-0.1c0,0-0.1,0-0.1-0.1
		c0,0,0,0,0-0.1c-0.1-0.2-0.2-0.5-0.3-0.7c-0.1-0.2-0.1-0.4-0.2-0.6c0-0.1,0-0.2-0.1-0.3l0,0v-0.4c-0.1-0.5-0.1-1.1-0.1-1.6v-0.5
		c0,0,0-0.1,0-0.1c0-0.2,0-0.4-0.1-0.5c0-0.1-0.1-0.3-0.2-0.4c-0.1,0-0.2,0-0.2,0h-0.2c-0.1,0-0.2,0.1-0.3,0.2
		c-0.1,0.2-0.2,0.3-0.2,0.5c0,0.2-0.1,0.3-0.1,0.5c0,1,0.1,2,0.3,2.9v0.2l0,0c0,0.2,0.1,0.3,0.1,0.5c0,0,0,0.1,0,0.1l0.1,0.3
		c0,0.1,0.1,0.3,0.1,0.4v0.3c0,0.1,0,0.1,0,0.2c0,0.2-0.1,0.4-0.4,0.5h-0.1c-0.2,0-0.4-0.1-0.5-0.4c0-0.1,0-0.1-0.1-0.2l-0.1-0.5
		l0,0l-0.2-0.6l0,0l-0.1-0.5l0,0c-0.1-0.4-0.2-0.8-0.2-1.2c-0.1-0.7-0.2-1.4-0.1-2.1v-0.5c0-0.2,0.1-0.3,0.1-0.5
		c0.1-0.3,0.3-0.6,0.6-0.8c0.1-0.1,0.3-0.2,0.4-0.2c0.2-0.1,0.5-0.1,0.7-0.1c0.3,0,0.5,0.1,0.7,0.2c0.1,0.1,0.2,0.2,0.3,0.3
		c0.2,0.2,0.3,0.5,0.4,0.8l0,0c0,0.2,0.1,0.5,0.1,0.7v0.7l0,0v0.4l0,0c0,0.4,0,0.8,0.1,1.2l0,0c0,0,0,0.1,0,0.1c0,0.1,0,0.2,0.1,0.3
		c0.1,0.3,0.2,0.6,0.3,0.8C-215.5,62.2-215.4,62.3-215.4,62.4z"/>
	<path class="st4" d="M-249.9,61.7L-249.9,61.7c0,0.3-0.1,0.4-0.3,0.5l0,0c0,0-0.1,0-0.1,0h-0.4l-0.1,0c-0.1,0-0.1-0.1-0.2-0.2
		l-0.1-0.1l-0.1-0.1c-0.1-0.1-0.2-0.3-0.3-0.4l-0.1-0.1l0,0c-0.3-0.4-0.8-0.7-1.2-0.9c-0.1,0-0.2-0.1-0.3-0.1c-0.3,0-0.7,0.1-1,0.3
		l-0.2,0.2c-0.6,0.6-0.6,0.8-0.6,0.8c0.1,0.2,1.1,0.5,1.9,0.6l0.3,0.1h0.3l0.3,0.1h0.2c0.1,0.1,0.2,0.2,0.3,0.3
		c0.1,0.1,0.3,0.3,0.4,0.4l0.4,0.4c-0.1,0.1-0.1,0.2-0.2,0.2c-0.1,0-0.1,0-0.2,0h-0.1l-1-0.2l0,0l-0.4-0.1h-0.2l-0.6-0.1
		c-0.4-0.1-0.8-0.2-1.1-0.3c-0.5-0.1-0.9-0.5-1.1-1c-0.1-0.3,0-0.7,0.1-1c0.2-0.3,0.4-0.7,0.7-0.9l0.3-0.2c0.3-0.2,0.6-0.4,1-0.5
		l0,0c0.3-0.1,0.5-0.1,0.8-0.1c0.3,0,0.6,0.1,0.8,0.3c0.7,0.3,1.2,0.8,1.7,1.4l0.3,0.4l0.2,0.3c0,0,0,0.1,0,0.1c0,0,0,0.1,0,0.1
		L-249.9,61.7z"/>
	<path class="st4" d="M-235.1,58.5c0,0.1-0.1,0.2-0.2,0.3l0,0c-0.1,0.1-0.3,0.1-0.4,0.1h-0.1c-0.1,0-0.2-0.1-0.3-0.2l-0.2-0.3
		l-0.1-0.2l-0.3-0.5l-0.4-0.6c-0.4-0.7-1-1.3-1.7-1.8c-0.2-0.2-0.5-0.2-0.8-0.3h-0.2c-0.1,0-0.1,0-0.2,0.1c-0.2,0.3-0.2,0.6-0.2,0.9
		c0,0.3,0.1,0.3,0.6,0.6h0.1l0.2,0.1c0.5,0.3,0.9,0.6,1.3,1l0,0c0.1,0.1,0.2,0.2,0.3,0.4l0.1,0.1c0.1,0.2,0.2,0.3,0.4,0.5
		c0.4,0.6,0.7,1.2,1,1.8c0,0.1,0.1,0.1,0.1,0.2l0.1,0.1l0,0c0.1,0.1,0.1,0.2,0.2,0.4c0,0,0,0.1,0.1,0.1l0.1,0.2
		c0.1,0.1-0.2,0.3-0.2,0.3h-0.1l-0.2-0.1h-0.2h-0.4c-0.1-0.2-0.2-0.4-0.2-0.5s-0.2-0.4-0.2-0.5c-0.3-0.6-0.7-1.2-1.1-1.8
		c0,0-0.1-0.1-0.1-0.1c-0.1-0.1-0.2-0.3-0.3-0.4c-0.1-0.2-0.3-0.3-0.5-0.4l0,0l-0.1-0.1c-0.1-0.1-0.3-0.2-0.5-0.3l-0.3-0.1
		c-0.1-0.1-0.3-0.2-0.4-0.2c-0.4-0.3-0.7-0.7-0.7-1.2c-0.1-0.5,0-1,0.3-1.4c0.1-0.1,0.1-0.2,0.2-0.3c0.2-0.2,0.5-0.3,0.8-0.4
		c0.2,0,0.3,0,0.5,0h0.4c0.5,0.1,0.9,0.3,1.3,0.6c0.7,0.6,1.2,1.2,1.7,2l0,0c0.2,0.3,0.4,0.6,0.6,0.9c0,0.1,0.1,0.2,0.2,0.3l0.1,0.2
		l0,0C-235.1,58.1-235,58.3-235.1,58.5z"/>
	<path class="st5" d="M-232.4,103.2c0-0.1-0.1-0.2-0.1-0.3c-0.2-0.3-0.5-0.5-0.9-0.5h-0.1c-0.2,0-0.4,0.1-0.5,0.2
		c-0.3,0.2-0.5,0.5-0.5,0.8v0.1v0.4c0,0.2,0,0.5,0,0.8v1.6l-0.1,1.4c-0.3,4.1-0.6,8.2-0.9,12.4l-1.1,16c0,0.6,0.4,1.1,1,1.2h0.1
		c0.6,0,1.1-0.5,1.1-1l0.9-12.8c0.2-3.5,0.5-6.9,0.7-10.3l0.5-6.5l0.1-1.1v-1.2c0-0.3,0.1-0.5,0.1-0.8v-0.2L-232.4,103.2z"/>
	<path class="st5" d="M-227.9,103.9c-0.5-0.1-1.1-0.2-1.6-0.4l-0.3-0.1l-0.1,0.3c-0.1,0.3-0.1,0.5-0.1,0.8c0,0.1,0,0.3,0,0.4v0.1
		c-0.1,0.3-0.1,0.7-0.1,1c-0.3,4-0.5,8.1-0.8,12.1v0.6c-0.3,5.2-0.6,11.8-1.3,17.9c-0.1,0.6,0.4,1.2,1,1.2c0,0,0,0,0,0h0.1
		c0.6,0,1-0.4,1.1-1c0.7-5.8,1-11.7,1.3-17.5l0.1-1.1c0.2-3.8,0.4-7.8,0.7-11.7c0-0.2,0-0.4,0-0.6s0-0.4,0-0.5v-0.4
		c0-0.2,0-0.5,0-0.7V104L-227.9,103.9z"/>
	<path class="st6" d="M-167.4,14L-167.4,14c-0.4-0.3-0.8-0.5-1.3-0.5c-0.3,0-0.5,0.1-0.7,0.1c-4,1.6-7.9,3.5-11.7,5.8
		c0-0.4,0.1-0.8,0.1-1c0.1-0.8-0.2-1.6-0.9-2.1l0,0c-0.6-0.4-1.3-0.3-1.9,0.1c-3.6,2.4-7.1,5.1-10.3,8.1l-0.2,0.2V23
		c0-0.7-0.3-1.3-0.8-1.7c-0.2-0.1-0.5-0.2-0.7-0.2c-0.4,0-0.7,0.1-1,0.3c-1.2,0.9-2.5,1.9-3.6,2.9c-0.7-6.5-2.7-12.7-4.7-18.6
		c-0.5-1.4-0.9-2.8-1.4-4.2c-0.2-0.7-0.8-1.3-1.6-1.5c-0.7-0.2-1.5,0-2.1,0.5c-6.7,6.1-12.3,13.2-16.5,21.1l-0.5-0.4
		c-0.8-0.6-1.8-1-2.9-1.1c-0.2,0-0.4,0.1-0.5,0.1c-0.3,0.2-0.7,0.4-1,0.7c-0.2,0.2-0.5,0.4-0.8,0.7c-0.3,0.3-0.6,0.5-0.9,0.8
		c-3.3,3.2-5.7,7.2-6.8,11.7c-1.5,5.8-1.3,12.2,0.6,19.5c0,0.2,0.1,0.4,0.2,0.6c0.1,0.2,0.1,0.5,0.2,0.7c0.7,0.4,1.3,1,1.8,1.7
		l0.4,0.6l0.3,0.5v0.1l0.7-0.4c0-0.1-0.1-0.2-0.1-0.4c0-0.1-0.2-0.6-0.3-1c-2.6-8-3.1-15.2-1.5-21.4c1-3.9,3-7.4,5.7-10.3
		c0.3-0.3,0.6-0.6,0.9-0.8l0.8-0.7l0.7-0.5c0.6,0.2,1.1,0.5,1.6,0.8c0.3,0.2,0.6,0.4,0.9,0.6s0.6,0.5,0.9,0.8
		c1.5,1.4,2.8,3.1,3.8,4.9c2.6,4.8,4.3,12.3,1.6,23.6c-0.1,0.3-0.1,0.6-0.2,0.9c-0.2,0.9-0.5,1.9-0.8,2.8V57l-0.2,0.5l-0.1,0.2
		c0,0.1-0.1,0.2-0.1,0.3l-0.1,0.4c0.3,0.1,0.5,0.2,0.8,0.4c0.1-0.1,0.1-0.1,0.2-0.1c0,0,0.1,0.1,0.1,0.1c0,0.1,0,0.1,0,0.2
		c0.3,0.2,0.6,0.4,0.9,0.6l0.2-0.7c0-0.2-0.1-0.5-0.2-0.7h0.4c0.1-0.2,0.1-0.4,0.2-0.5l0.2-0.5c4.3-14.3,2-23.7-1.4-29.4l0,0
		c-1-1.7-2.2-3.3-3.7-4.7c4.2-7.8,9.7-14.9,16.3-20.8l0,0c0.5,1.4,0.9,2.8,1.4,4.3c2.1,6.4,4.3,12.9,4.7,19.8l-0.6,0.6
		c-5.9,5.9-13.8,16-15.8,29.7l-0.1,0.6c0.7,0,1.4,0.1,2.2,0.3c0-0.2,0.1-0.4,0.1-0.6c1.8-12,8.3-21.1,13.7-26.9l1.1-1.1
		c0.4-0.4,0.7-0.7,1-1c1.4-1.4,2.9-2.7,4.4-3.9v8c0,0.5,0,1-0.1,1.6c-0.1,0.5-0.1,1.2-0.1,1.8c-0.3,5-1.4,9.9-3.5,14.4
		c-0.3,0.7-0.7,1.5-1.1,2.2s-0.8,1.4-1.3,2.1c-0.1,0.7-0.1,1.5-0.2,2.2c-0.1,0.8-0.2,1.4-0.3,2.2c0.5-0.6,0.9-1.2,1.4-1.8
		s0.8-1.2,1.2-1.8c4.6-7.4,5.7-14.8,6-21.9v-5.1l0.2-0.2c3.3-3.3,6.9-6.2,10.8-8.9c-0.1,0.8-0.2,1.5-0.3,2.3c0,0.5-0.1,0.9-0.2,1.4
		c-0.1,0.5-0.1,1-0.2,1.5c-1.6,10-4.4,22.6-8.6,33.1c-0.3,0.7-0.6,1.4-0.9,2c-0.3,0.7-0.7,1.5-1,2.2l1.3-1l0.6-0.5
		c0.6-0.5,1.2-0.9,1.8-1.4c0.3-0.6,0.5-1.3,0.8-2c0.3-0.7,0.5-1.2,0.7-1.9c3.6-10.5,6.2-21.3,7.8-32.3v-0.1
		c3.9-2.5,8.1-4.6,12.4-6.4c-0.3,1.4-0.6,2.9-0.8,4.3c-1.8,9.5-3.7,19.3-9.5,28c-0.5,0.8-1,1.5-1.6,2.2c-0.6,0.7-1.4,1.8-2.2,2.7
		c1-0.6,1.9-1.2,2.9-1.8c0.5-0.3,1-0.6,1.5-0.9l0.6-0.4l0.3-0.2c0.5-0.7,0.9-1.4,1.3-2.1c0.4-0.7,0.7-1.2,1.1-1.9
		c4.5-8.3,6.2-17.1,7.8-25.4c0.3-1.5,0.6-3,0.9-4.4C-166.7,15.3-166.9,14.5-167.4,14z"/>
	<path class="st6" d="M-230.9,22c-0.2-0.3-0.4-0.7-0.5-1c-4.3-7.6-9.8-14.5-16.3-20.3c-0.9-0.9-2.3-0.8-3.1,0.1
		c-0.3,0.3-0.4,0.6-0.5,1c-0.5,1.4-0.9,2.9-1.4,4.3c-1.9,5.9-4,12-4.7,18.5c0,0,0,0.1,0,0.1l-0.1-0.1c-1.4-1.3-2.9-2.6-4.4-3.7
		c-0.5-0.4-1.2-0.4-1.7-0.2c-0.6,0.4-1,1-1,1.7v7.4c-0.2-0.2-0.4-0.4-0.6-0.5c-7.2-5.8-15.4-10.4-24.2-13.5
		c-0.7-0.2-1.4-0.1-1.9,0.4c-0.6,0.6-0.7,1.5-0.4,2.2c0.5,1.4,0.9,2.8,1.4,4.3c1.5,4.5,3,9.1,4.9,13.7l0,0c-3.8-2.8-7.3-4.3-9.9-3.6
		c-0.6,0.2-1,0.8-0.8,1.4c0,0,0,0,0,0c0,0.1,0.1,0.2,0.1,0.2c0.5,1,6.1,12.1,14.2,24.9c-12-3.6-34.4-9.5-37.7-4.6
		c-0.2,0.3-0.2,0.8-0.1,1.1c2.6,5,20.9,25.7,45.1,37.8c0.6,0.3,1.1,0.6,1.7,0.8s1,0.5,1.6,0.7c0.6-0.2,1.2-0.3,1.8-0.4h0.1
		c0.5-0.1,1-0.1,1.6-0.2h0.8c-0.8-0.3-1.5-0.6-2.2-1l-0.2-0.1c-0.5-0.2-1-0.5-1.6-0.7c-1.4-0.6-2.7-1.3-4.1-2
		C-297,79.2-313.8,61-317.3,55.4c3.6-2.1,20.6,1.5,37.1,6.7l0,0c3.3,5.1,7,10.3,10.8,15.3l2.7,3.3l0.6,0.7c1.7,2,3.4,3.9,5.2,5.7
		c2.8,2.4,4.9,4.4,6.5,6c0.9,0.7,1.9,1.4,2.8,2.1c0.4,0.3,0.9,0.6,1.3,0.9c0.7,0.4,1.3,0.8,2.1,1.1c0.3,0.2,0.6,0.3,0.9,0.4
		c0.5,0.2,0.9,0.4,1.4,0.6c0.1,0.1,0.3,0.1,0.4,0.1c0.2,0,0.5-0.1,0.7-0.2l0.1-0.1l0.1-0.1l0.1-0.1c0.1-0.1,0.2-0.3,0.3-0.4
		c0,0,0-0.1,0-0.1l-0.8-0.6l-0.3-0.2l0,0c-0.2-0.2-0.4-0.3-0.7-0.5c-1.9-0.9-3.7-2-5.4-3.2c-0.4-0.3-0.8-0.6-1.2-0.9l0.1,0.1
		l-0.1-0.1c-1.1-0.9-2.2-1.9-3.4-2.9c-1.2-1.1-2.4-2.3-3.5-3.6c-1-0.9-2.1-1.8-3.1-2.6c-0.8-1.1-1.4-2.1-2-3.2
		c-1-1.2-2.1-2.5-3.1-3.9c-0.8-1-1.6-2.1-2.3-3.1c-2.2-3-4.4-6.1-6.4-9.2l0,0h0.1l-1-1.5l-1-1.5c-7.4-11.3-12.9-21.6-14.9-25.4
		c2.5,0.3,5.9,2.4,10,6v0.1c0.8,0.8,1.7,1.6,2.6,2.5l0.1,0.1l0,0c1.6,1.5,3.2,3.2,4.8,5.1c0,0,0.1,0,0.1,0.1
		c0.7,0.8,1.4,1.6,2.1,2.4c1.4,1.6,2.8,3.4,4.3,5.2l0,0l0,0c0,0.1,0,0.2,0.1,0.2c0.1,0.5,0.2,1.1,0.3,1.6s0.2,1,0.3,1.5
		c0.1,0.5,0.2,1,0.3,1.5l0.4,1.6c0.5,0.3,1,0.7,1.5,1.1c0.5,0.4,1,0.8,1.5,1.3c-0.2-0.6-0.4-1.3-0.5-1.9c-0.2-0.6-0.3-1.2-0.5-1.8
		c-0.1-0.4-0.2-0.7-0.2-1c0-0.1,0-0.2,0-0.2c0,0,0-0.1,0-0.1c-0.1-0.5-0.2-1-0.4-1.6l0,0c0-0.2-0.1-0.4-0.1-0.7L-267,57
		c-0.1-0.5-0.2-1-0.3-1.5c-0.9-4.8-1.3-8.8-1.5-10.3c1.9,0.5,6.4,7.8,11.3,17.4l0.8,1.6l0.8,1.6c0.9,1.8,1.8,3.6,2.6,5.4l0.5,1
		l0.5,1c0.3-0.2,0.6-0.4,0.9-0.6s0.7-0.4,1-0.6c-0.1-0.4-0.3-0.8-0.5-1.1l-0.5-1c-0.1-0.2-0.2-0.3-0.2-0.5c-0.1-0.2-0.3-0.6-0.4-1
		c0,0,0-0.1-0.1-0.1c-0.1-0.2-0.1-0.3-0.2-0.5c-0.1-0.2-0.3-0.5-0.4-0.8v-0.1l-0.6-1.3l-0.1-0.2l-0.4-0.8c-0.1-0.2-0.2-0.5-0.3-0.7
		l-0.6-1.2c-0.1-0.3-0.3-0.6-0.4-0.9l-0.2-0.4l-0.4-0.7c-4.7-9.2-9.9-17.6-13-17.9c-0.9-0.1-1.7,0.4-2.1,1.1
		c-0.1,0.2-0.2,0.4-0.2,0.7c0,0.4,0.3,3.2,0.8,7.1v0.1l-0.1-0.1c-3.5-4.4-7.3-8.5-11.4-12.3c-2.7-5.7-5-11.6-6.8-17.7
		c-0.4-1.3-0.8-2.5-1.2-3.8c9.1,3.3,17.6,8.3,25,14.7c0.4,8.7,2.1,17.9,9.9,27l0.4,0.4l0.3,0.3c0.7-0.4,1.4-0.7,2.1-0.9l-0.1-0.1
		c-7.5-8.1-9.6-16.3-10.2-24.4v-0.1l0,0c0-0.6-0.1-1.1-0.1-1.7l-0.1-0.7v-0.7c-0.1-2-0.1-4-0.1-6v-2.4c1.6,1.3,3.2,2.6,4.7,4.1
		c0.3,0.3,0.7,0.7,1.1,1c0.4,0.3,0.8,0.7,1.1,1.1c6.6,6.8,11.2,15.2,13.3,24.4c0.3,1.3,0.5,2.7,0.7,4.1v0.5c0,0.2,0,0.4,0,0.5
		l1.1-0.3l1.1-0.2c0-0.2,0-0.4-0.1-0.5c-0.1-0.2,0-0.3-0.1-0.5v-0.1l-0.1-0.7l-0.1-0.7h-0.1c-0.4-0.2-0.5-0.3-0.6-0.6
		c0-0.3,0-0.6,0.2-0.9c0.1,0,0.1-0.1,0.2-0.1c0-0.2-0.1-0.4-0.1-0.5c0-0.2-0.1-0.4-0.1-0.5c-2.6-12.2-9.7-21.5-15.3-27.1v-0.1
		c0.6-6.8,2.7-13.3,4.8-19.7l1.5-4.4c6.4,5.8,11.8,12.6,16,20.1c0.2,0.3,0.4,0.7,0.5,1s0.4,0.7,0.5,1c0.3-0.3,0.6-0.6,0.9-0.8
		l0.8-0.7L-230.9,22z"/>
	<path class="st6" d="M-241.1,99.1l0.3,0.3l0.7,0.7h-1.7c-0.7,0-1.4,0-2.1-0.1l-1.1-0.1c0.9,0.3,1.7,0.7,2.5,1l0.4,0.2h0.2l2.5,1.1
		h1.9c0.1,0,0.3,0,0.4-0.1c0.1,0,0.2-0.1,0.3-0.2c0.1-0.1,0.2-0.2,0.3-0.4c0.1-0.1,0.1-0.3,0.1-0.4l-1.9-0.8L-241.1,99.1z"/>
	<path class="st6" d="M-271.3,68.5l1.6,1.5l1.6,1.7c-0.3-0.8-0.5-1.5-0.7-2.2s-0.4-1.4-0.5-2.1l-1.4-1.4l-1.3-1.4
		c0.1,0.6,0.2,1.2,0.3,1.9c0,0,0,0.1,0,0.1l0,0C-271.6,67.2-271.5,67.8-271.3,68.5z"/>
	<path class="st6" d="M-255.3,76.6L-255.3,76.6L-255.3,76.6L-255.3,76.6L-255.3,76.6l0.3-0.5l0.4-0.5l0.3-0.4l0.5-0.5l-0.6-1.1
		l-0.6-1l-1-1.5c-1.6-1.9-3.3-3.7-4.9-5.4l0,0l0,0c-1.2-1.2-2.5-2.3-3.8-3.3l0.1,0.2l-0.2-0.1l0,0c0.3,0.4,0.6,0.8,0.9,1.2
		c0.7,1,1.4,1.9,2,2.8c0.6,0.9,1.4,2,2,3s1.3,1.9,1.9,2.9l0.8,1c0.3,0.3,0.5,0.6,0.7,0.9l-0.2,0.2l0,0v0.1l0,0l0.6,1
		C-255.7,75.9-255.5,76.3-255.3,76.6z"/>
	<path class="st6" d="M-244.3,97L-244.3,97L-244.3,97L-244.3,97z"/>
	<path class="st6" d="M-256.5,80.3c0-0.1,0-0.2,0-0.3l-0.5-0.4c-0.2-0.1-0.3-0.3-0.5-0.4c-0.3-0.3-0.6-0.6-0.9-0.9l0,0l0,0l0,0l0,0
		c-0.1,0.4-0.2,0.8-0.2,1.3c0,0.2-0.1,0.4-0.1,0.6v0.7c0,0.1,0,0.1,0,0.2l1.2,1.3l1.5,1.6c-0.1-0.4-0.2-0.7-0.3-1.1c0,0,0-0.1,0-0.1
		l0,0c-0.1-0.3-0.1-0.6-0.1-0.8c0-0.2,0-0.4,0-0.5c0-0.3,0-0.6,0-0.9L-256.5,80.3z"/>
	<path class="st6" d="M-138.6,54.1c-0.5-1.5-2-2.3-4.8-2.7h-0.2c-11.1,0.3-21.8,4.3-29.2,7.8c1.4-2.1,2.7-4.3,3.9-6.5
		c0.7-1.3,1.3-2.6,1.7-4l0.1-0.2c0.4-0.8,0.5-1.7,0.3-2.6c-0.4-1.1-1.5-1.8-2.7-1.7c-0.8,0-1.6,0.2-2.4,0.4
		c-1.1,0.4-2.2,0.9-3.3,1.4c-0.6,0.3-1.2,0.7-1.8,1c-0.8,0.5-1.5,0.9-2,1.2l-0.6,0.4c-3.2,1.9-6.4,4-9.6,6.2l-1.7,1.2l-1.7,1.2
		l-2,1.5c-2.5,2-5,4-7.3,6.1c0.8-3.4,1.4-6.8,1.7-10.2c0.1-0.9,0.1-1.7,0.2-2.5c0-0.8,0.1-1.8,0.1-2.6c0.1-2.8,0-5.6-0.3-8.4
		c0-0.4-0.2-0.8-0.5-1.1c-0.2-0.2-0.5-0.4-0.8-0.5c-0.1,0-0.2,0-0.3,0h-0.1c-0.4,0.1-0.8,0.2-1.2,0.5c-0.2,0.2-0.4,0.3-0.7,0.5
		c-0.3,0.2-0.6,0.5-0.9,0.9c-0.7,0.8-1.4,1.6-2,2.4v0.1c-0.4,0.5-0.8,1.1-1.2,1.8c-1.7,2.7-3,5.6-3.8,8.7l-0.2,0.6
		c-0.2,0.6-0.3,1.1-0.5,1.8l-0.1,0.4c0,0.1,0,0.1-0.1,0.2l-0.1,0.4l-0.1,0.4l-0.1,0.5c0,0.1,0,0.1-0.1,0.2c0,0.1,0,0.2-0.1,0.3
		l-0.1,0.5c-0.1,0.3-0.2,0.5-0.2,0.8c0,0.1-0.1,0.2-0.1,0.3l-0.1,0.2l-0.1,0.4l-0.1,0.3l-0.2,0.6c0,0.1-0.1,0.3-0.1,0.4l-0.1,0.3
		v0.1c-0.1,0.4-0.3,0.9-0.4,1.3c-0.2-0.2-0.5-0.4-0.8-0.6l-0.4-0.3l-0.1-0.1l-0.4-0.2h-0.1l-0.3-0.2l-0.2-0.1l-0.5-0.2
		c-0.1-0.1-0.3-0.1-0.4-0.2l-0.1-0.1l-0.5-0.2l-0.6-0.2l-1.1-0.4l-0.6-0.1h-0.1c-0.1,0-0.3-0.1-0.4-0.1l-0.7-0.1h-0.5
		c-0.1,0-0.3,0.1-0.4,0.1l-0.1,0.1l-0.2,0.1l-0.3,0.2l-1,0.6l-0.5,0.3l-0.5,0.3l-1.1,0.7l-0.1,0.1l-0.3,0.2l-0.5,0.3l-0.4,0.3
		l-0.4,0.3l-0.4,0.3l-0.5,0.4c-0.3,0.2-0.6,0.5-0.9,0.7c0,0-0.1,0-0.1,0l-0.1,0.1l-0.4,0.4l-0.4,0.4l-0.3,0.2l-0.1,0.1l-0.4,0.4
		l-0.3,0.3l-0.2,0.2l-0.5,0.5l-0.1,0.1l-0.2,0.2l-0.7,0.8V70c-0.2,0.3-0.5,0.5-0.7,0.8c-0.5,0.6-0.9,1.2-1.4,1.9l-0.3,0.5l-0.3,0.5
		c-0.4-0.2-0.8-0.5-1.2-0.7c-0.5-0.3-0.9-0.5-1.4-0.8c-0.8-0.2-1.5-0.5-2.2-1l-0.4-0.2c-0.4-0.2-0.8-0.3-1.2-0.5
		c-1.9-0.7-3.8-1.3-5.7-1.8h-0.5c-0.1,0-0.1,0-0.2,0.1l-0.5,0.2l-0.4,0.2l-0.2,0.1c-0.2,0.1-0.4,0.2-0.6,0.3l-0.3,0.2
		c-0.3,0.2-0.6,0.4-1,0.6l-0.9,0.6c-0.5,0.4-1.1,0.9-1.7,1.4l-1.1-1.4c-1.6-1.9-3.3-3.7-4.9-5.4c-1.2-1.2-2.5-2.3-3.8-3.3
		c-0.4-0.3-0.8-0.7-1.2-1c-0.5-0.4-0.9-0.7-1.4-1c-0.5-0.3-0.9-0.6-1.4-0.9l-0.7-0.4c-0.9-0.5-2.1-0.3-2.6,0.6
		c-0.2,0.3-0.3,0.7-0.3,1V61c0,1.2,0.1,2.5,0.3,3.7c0.1,0.6,0.2,1.2,0.3,1.9s0.2,1.3,0.4,2c0.3,1.2,0.6,2.5,1,3.8
		c0.4,1.3,0.8,2.4,1.3,3.6c0.4,0.9,0.8,1.7,1.2,2.6l-1.6-1.2c-1.4-1.1-2.7-2-3.8-2.9c-4.8-3.9-20.5-16.4-24.9-14.4
		c-0.8,0.4-1.4,1.2-1.4,2.2c-0.3,4.6,11.1,18.3,24.2,28.5c1,0.8,2,1.6,3.1,2.3l-0.3,0.1l-0.3,0.1c-0.7,0.2-1.3,0.3-2,0.4
		c-1.7,0.2-3.3,0-4.9-0.5c-1-0.3-2.6-0.7-3.1,0.8c-0.1,0.3-0.1,0.6,0.1,0.9c0.4,0.7,9.3,16.3,31.1,17.6c6,0,11.8-1.5,17-4.6
		c0.7-0.4,1.2-0.8,1.7-1.1h0.1c0.4,0,0.7-0.2,0.9-0.5l0.5-0.7c0.5,0.3,1,0.5,1.5,0.6c0.5,0.2,1.1,0.3,1.6,0.4l0.8,0.1
		c1,0.3,2.1,0.5,3.1,0.5c1.8,0,3.6-0.4,5.3-1h0.2h0.1c3.6,1.1,7.3,1.8,11,1.9c4.1-0.1,8.1-0.5,12.1-1.3c4.1-0.6,8.2-1.6,12.2-3
		c3.6-1.3,7-2.7,10.4-4.4c0.8-0.4,1.7-0.8,2.5-1.2c0.8-0.4,1.4-0.6,2.1-1c1.6-0.7,2.9-1.8,3.9-3.2c1.9-2.9,0.7-5.9-3.6-8.9
		c-1-0.6-2-1.2-3-1.6c11.1-7.4,21.6-15.8,31.2-25.1C-139.9,58-137.9,56.1-138.6,54.1z M-212.7,65.5c0.1-0.2,0.1-0.4,0.2-0.6
		c0-0.1,0.1-0.1,0.1-0.2c0.1-0.4,0.3-0.9,0.4-1.4v-0.1l0.1-0.4l0.1-0.3v-0.1l0.1-0.4c0-0.1,0.1-0.2,0.1-0.3c0.1-0.2,0.1-0.4,0.2-0.6
		c0.1-0.2,0.1-0.3,0.1-0.4v-0.1l0.2-0.6l0.1-0.5c0-0.2,0.1-0.3,0.1-0.5c0.1-0.3,0.1-0.5,0.2-0.8l0.3-1.2c0.1-0.5,0.3-0.9,0.4-1.4
		c0-0.1,0.1-0.3,0.1-0.4c0-0.1,0-0.1,0-0.2c0.3-0.9,0.6-1.9,0.9-2.8c0-0.1,0.1-0.2,0.1-0.3V52c0-0.1,0.1-0.2,0.1-0.3
		c0-0.1,0.1-0.1,0.1-0.2l0.1-0.2c0.2-0.5,0.4-0.9,0.6-1.4c0.1-0.3,0.2-0.5,0.3-0.7l0.1-0.1l0.1-0.2c0.3-0.7,0.7-1.3,1.1-1.9
		c0.3-0.5,0.7-0.9,1-1.4c0.7-1,1.4-1.9,2.2-2.7c0.2-0.2,0.3-0.3,0.5-0.5v0.2c0.4,3.8,0.4,7.6,0.2,11.4l0,0c-0.1,0.7-0.1,1.5-0.2,2.2
		c-0.1,0.7-0.2,1.4-0.3,2.2c-0.2,1.3-0.4,2.7-0.7,4.1c0,0.2-0.1,0.4-0.1,0.5c0,0.2-0.1,0.3-0.1,0.5c0,0,0,0.1,0,0.1
		c0,0.1,0,0.2-0.1,0.3c0,0.1,0,0.2-0.1,0.3c0,0,0,0.1,0,0.1c-0.3,1.1-0.6,2.2-0.9,3.3l-0.2,0.2c-0.2,0.1-0.3,0.3-0.5,0.4
		c-0.5,0.5-1,1-1.6,1.5l-0.1,0.1l-1.1,1.1l-0.6,0.7c-0.7,0.7-1.4,1.5-2.1,2.2c0-0.5,0-1-0.1-1.5v-0.4c0-0.2,0-0.4-0.1-0.6
		c0-0.1,0-0.1,0-0.2c0-0.1,0-0.3-0.1-0.4c-0.1-0.1-0.1-0.5-0.1-0.7l-0.1-0.4c-0.1-0.4-0.2-0.7-0.4-1.1c-0.2-0.4-0.3-0.8-0.5-1.1
		l-0.1-0.1c-0.2-0.3-0.3-0.6-0.5-0.8l-0.2-0.3C-212.9,66-212.8,65.8-212.7,65.5z M-213.2,79.5L-213.2,79.5c0.3-0.4,0.6-0.8,0.9-1.1
		l0.7-0.8l0.7-0.7c1.3-1.5,2.7-2.9,4.1-4.3c0.7-0.7,1.4-1.4,2.1-2.1l0.9-0.8c0.3-0.3,0.5-0.5,0.8-0.8c0.5-0.5,1-1,1.5-1.4
		c1-0.9,2-1.8,3-2.7c1.3-1.2,2.7-2.3,4-3.3l1.3-1l0.6-0.5c0.6-0.5,1.2-0.9,1.8-1.4c2.6-1.9,5.2-3.7,7.8-5.4c1-0.6,1.9-1.2,2.9-1.8
		l1.5-0.9l0.6-0.4l0.3-0.2c2.1-1.3,4.3-2.3,6.7-3.2c1-0.3,2.2-0.5,2.3-0.1c0,0.4-0.1,0.8-0.3,1.1l-0.1,0.2c-0.4,1.3-0.9,2.5-1.6,3.6
		c-1.9,3.3-3.9,6.6-6,9.6c-0.5,0.7-0.9,1.4-1.4,2l-1.6,2.2c-6.4,8.8-13.6,16.9-21.5,24.4l-1,0.5h-0.1c0.7-1.2,0.7-2.7,0.1-3.9
		c-0.8-1.5-2.8-2.2-5.3-1.9c-1.7,0.2-3.5,0.5-5.2,1c-0.5,0.1-1,0.3-1.6,0.4l-0.6,0.2l-0.8,0.2c-0.5,0.2-1,0.3-1.5,0.5
		c-0.5,0.2-0.8,0.3-1.2,0.4l-1,0.4l-0.3,0.2l0.2-0.2c0.2-0.3,0.4-0.6,0.6-0.8c0.2-0.3,0.2-0.3,0.3-0.4c0.3-0.5,0.7-0.9,1-1.4
		c0.8-1.1,1.7-2.3,2.6-3.4c0.3-0.4,0.7-0.8,1-1.2L-213.2,79.5z M-236.3,76.6c0.3-0.7,0.7-1.3,1.1-2c0.2-0.3,0.4-0.6,0.6-0.9l0.4-0.5
		l0.4-0.5c0.4-0.5,0.8-1.1,1.3-1.6l0.1-0.1l0.2-0.2l0.4-0.5l0.4-0.4c0.2-0.3,0.5-0.5,0.8-0.8c0,0,0,0,0.1,0l0.9-0.8l0.3-0.3l0.1-0.1
		l0.4-0.3l0.3-0.3l0.3-0.2l0.5-0.4l0.1-0.1l0.4-0.3c0.3-0.2,0.5-0.4,0.7-0.5l0.5-0.3l0.4-0.3c0.3-0.2,0.6-0.4,0.9-0.6l0.5-0.3
		l0.5-0.3l0.6-0.3h0.1l0.4-0.2h0.1l0.2-0.1l0.5,0.1h0.1l0.4,0.1l0.5,0.1l0.4,0.1l0.4,0.1c0.2,0.1,0.5,0.2,0.7,0.2h0.1h0.1
		c0.3,0.1,0.6,0.3,0.9,0.4h0.1l0.4,0.2c0.2,0.1,0.3,0.2,0.5,0.3c0.1,0,0.2,0.1,0.3,0.2c0.3,0.2,0.6,0.4,0.8,0.6l0.2,0.2l0.2,0.2
		l0.3,0.3l0.1,0.1l0.1,0.1c0.1,0.1,0.2,0.2,0.2,0.3c0.1,0.2,0.3,0.4,0.4,0.5c0,0.1,0,0.1,0,0.2l0.1-0.1c0.2,0.3,0.4,0.6,0.6,1
		c0,0.1,0.1,0.2,0.1,0.3s0.1,0.2,0.1,0.3c0,0.1,0.1,0.3,0.2,0.5c0.1,0.5,0.3,1,0.3,1.5c0,0.2,0,0.4,0.1,0.6c0,0.2,0,0.4,0.1,0.6v0.1
		c0.1,1.3,0,2.6-0.3,3.9l-1.4,1.6c-0.3,0.3-0.5,0.6-0.8,1l-0.8,1c-0.3,0.3-0.4,0.5-0.6,0.7l-1.4,1.8c-0.5,0.6-0.9,1.2-1.3,1.7
		l-0.9,1.3c-1,1.4-1.9,2.7-2.8,4.1l-0.2,0.3c-0.9,0.5-1.8,1.1-2.6,1.7c-0.4,0.3-0.8,0.6-1.1,0.9c-0.3,0.3-0.8,0.6-1.2,1
		c-0.6,0.5-1.1,1-1.7,1.6c-1.1,1-2,2.2-2.7,3.4c0,0,0,0.1,0,0.1l0,0c-1.7-1.6-3.1-4.4-4.1-8.2C-238.7,85.8-238.3,80.9-236.3,76.6z
		 M-255.3,76.6l0.3-0.5l0.4-0.5l0.3-0.4l0.5-0.5l0.3-0.3c0.4-0.4,0.8-0.8,1.3-1.1c0.4-0.4,0.6-0.4,0.9-0.6s0.7-0.4,1-0.6
		c0.5-0.3,1-0.6,1.5-0.8c3.7,0.9,7.3,2.4,10.7,4.3c-2.4,4.8-2.9,10.2-1.4,15.4c1.3,4.7,3.2,8,5.5,9.8h0.1c-0.1,0.5-0.1,1,0,1.5
		c-0.7-0.3-1.5-0.7-2.4-1.1l-1.9-0.9l-2.8-1.2l-0.4-0.2c-0.5-0.3-1-0.7-1.4-1l-1.1-0.8l-0.1-0.1l-0.9-0.7c-0.1-0.1-0.2-0.2-0.3-0.3
		c-0.1-0.1-0.4-0.3-0.7-0.5c-6-4.7-8.8-8.5-9.9-11.6c-0.1-0.4-0.2-0.7-0.3-1.1c-0.1-0.3-0.1-0.6-0.2-1c0-0.2,0-0.4,0-0.5
		c0-0.3,0-0.6,0-0.9v-0.2c0-0.1,0-0.2,0-0.3C-256.3,78.8-255.9,77.7-255.3,76.6z M-268.2,71.6c-0.3-0.8-0.5-1.5-0.7-2.2
		s-0.4-1.4-0.5-2.1c-0.4-2-0.7-4-0.8-6c0.7,0.4,1.4,0.9,2.1,1.4c0.5,0.3,1,0.7,1.5,1.1s1,0.8,1.5,1.3c2.5,2.2,4.9,4.6,7.1,7.1
		c0.5,0.6,1.1,1.3,1.6,1.9l-0.1,0.3c-0.9,1.1-1.5,2.4-1.9,3.8c-0.1,0.4-0.2,0.8-0.2,1.3c0,0.2-0.1,0.4-0.1,0.6v0.7
		c0,0.1,0,0.1,0,0.2c0.1,2.3,0.8,4.5,2.1,6.5c-1-0.9-2-1.8-3-2.7c-1-0.9-2.1-1.8-3.1-2.6c-0.8-1.1-1.4-2.1-2-3.2
		C-266.2,76.7-267.4,74.2-268.2,71.6L-268.2,71.6z M-297.2,62.2c0-0.1,0-0.2,0.1-0.2c1.5-1.1,12.1,5.6,22.6,14.2
		c0.1,0,4.8,3.6,10.2,8c1.1,0.9,2.3,1.9,3.4,2.9c2.8,2.4,4.9,4.4,6.5,6c0.6,0.6,1.1,1.2,1.6,1.7l-0.5-0.2
		c-5.6-1.7-11.4-2.8-15.9-2.3C-283.6,82.3-297.5,66.1-297.2,62.2z M-234.4,104.9c-0.2,0.2-0.5,0.3-0.7,0.5
		c-4.9,3.1-10.6,4.7-16.4,4.6c-11.1-0.5-21.4-5.9-28.2-14.7c2.6,0.7,5.3,0.7,7.9-0.1l0.3-0.1c0.6-0.2,1.2-0.3,1.8-0.4h0.1
		c0.5-0.1,1-0.1,1.6-0.2h2c4.7,0.2,10.5,1.7,15.9,3.6c0.5,0.2,1,0.4,1.6,0.6l1.3,0.5l2.2,0.9c0.7,0.3,1.7,0.6,2.5,1l0,0l0.4,0.2h0.2
		l2.5,1.1c2.1,0.9,3.8,1.8,5,2.4L-234.4,104.9z M-226.7,104.3c-0.1,0-0.2-0.1-0.3-0.1c-0.3,0-0.6-0.1-1-0.1
		c-0.6-0.1-1.1-0.2-1.6-0.4c-0.2-0.1-0.4-0.1-0.6-0.2c-0.3-0.1-0.7-0.3-0.9-0.6c-0.3-0.2-0.5-0.5-0.7-0.9c0,0,0-0.1,0-0.1
		c-0.1-0.4-0.1-0.8,0-1.2c0-0.2,0.1-0.3,0.2-0.5c0.1-0.1,0.1-0.3,0.2-0.4l0,0l0.1-0.1c0.4-0.8,1-1.5,1.6-2.1c0.3-0.3,0.6-0.6,0.9-1
		c0.3-0.3,0.5-0.5,0.8-0.7c0.5-0.4,0.9-0.8,1.4-1.2l0.3-0.2c0.8-0.6,1.6-1.2,2.4-1.7c0.5-0.3,1.1-0.7,1.6-0.9l0.5-0.3
		c1-0.5,2-1,3.1-1.5c0.5-0.2,0.9-0.4,1.4-0.5l0.3-0.1l0.5-0.2l1-0.3c2.7-0.9,5.5-1.6,8.3-1.9c0.3,0,0.6,0,0.9,0
		c0.9-0.1,1.7,0.2,2.3,0.8c0.2,0.3,0.6,1.6-2,4.9l-0.1,0.1c-0.6,0.4-1.2,0.7-1.8,1c-2.3,1.4-4.5,2.9-6.7,4.4l-0.2,0.2
		c-0.5,0.3-1,0.7-1.4,1l-1,0.7l-0.5,0.4l-1.4,1l-2.2,1.7c-0.4,0.3-0.5,0.7-0.4,1.1c0,0.1,0,0.1,0,0.2h-0.1
		C-223.5,104.8-225.1,104.8-226.7,104.3L-226.7,104.3z M-169.5,86.6c4.2,2.9,3.8,4.6,3,5.9c-0.8,1.1-1.8,1.9-3,2.4l-2,0.9
		c-0.9,0.4-1.7,0.8-2.6,1.2c-3.3,1.7-6.6,3.1-10.1,4.4c-3.9,1.3-7.8,2.3-11.9,3c-3.9,0.7-7.8,1.2-11.7,1.2c-2.7-0.1-5.3-0.4-7.9-1.1
		h-0.2l0,0l-1.5-0.5l-1.1-0.3l1.4-1c1.1-0.8,2.1-1.5,3.2-2.3l0,0l1.9-1.3h0.1l2-1.4l0.3-0.2c1.6-0.7,3.1-1.6,4.5-2.5
		c0,0,0.4-0.3,1.1-1c1.3-0.7,2.6-1.5,4.1-2.3l1.2-0.6c2-1.1,4.1-2.1,6.2-3.2l0.5-0.2c4.2-2.3,8.8-3.5,13.6-3.5h1.4
		c0.6,0,1.2,0.1,1.8,0.2c0.5,0.1,1.1,0.2,1.6,0.4C-172.3,85.2-170.8,85.8-169.5,86.6z M-141.7,56.5c-10,9.6-20.9,18.3-32.5,25.8
		c-1.1-0.2-2.1-0.4-3.2-0.5h-1c-5.1,0-10.2,1.2-14.7,3.7l-0.5,0.3l-1,0.5c7.1-7.3,13.6-15.1,19.4-23.5c6.9-3.6,19.3-9,31.7-9.3
		c2,0.3,2.8,0.8,2.9,1.1C-140.5,55.1-141.2,56.1-141.7,56.5L-141.7,56.5z"/>
</g>
<text transform="matrix(1 0 0 1 -533.4738 221.6914)" class="st1" style="font-family:'Lato-Regular'; font-size:20.8057px; letter-spacing:6;">FAMILY MEDIATION SERVICES</text>
<g>
	<g>
		<path class="st1" d="M62.9,179.9c-1.6-0.9-3.3-1.7-5.1-2.2c-0.9-0.2-1.9-0.5-2.8-0.7c-1-0.2-2-0.5-3-0.7l-2.7-0.7l-2.7-0.7
			c-0.8-0.2-1.6-0.4-2.3-0.7c-0.7-0.2-1.4-0.5-2-0.8c-1.1-0.6-2.1-1.4-2.8-2.4c-0.7-1-1-2.3-1-3.5c0-1.4,0.3-2.8,1.1-4
			c0.6-1,1.5-1.8,2.5-2.3c2.5-1.3,5.4-1.9,8.2-1.9c3.1-0.2,6.2,0.6,8.8,2.3c2.1,1.5,3.2,4.2,3.5,8c0,0.9,0.8,1.7,1.7,1.7h1.2
			c1,0,1.7-0.8,1.7-1.7c0,0,0-0.1,0-0.1c-0.3-5.3-2-9.2-5.3-11.6c-3.4-2.2-7.4-3.4-11.5-3.2l0,0c-1.9,0-3.9,0.2-5.8,0.5
			c-0.9,0.2-1.9,0.5-2.7,0.8c-0.9,0.3-1.8,0.7-2.7,1.2c-1.6,1-3,2.4-4,4c-1.2,1.9-1.8,4.1-1.7,6.3c-0.1,4.1,2.1,7.8,5.6,9.7
			c1.6,0.9,3.3,1.5,5,2c0.9,0.2,1.7,0.5,2.6,0.7l2.7,0.7l2.6,0.5l2.6,0.6c1.6,0.3,3.1,0.9,4.5,1.6c1.2,0.5,2.2,1.4,2.9,2.4
			c0.8,1.3,1.1,2.7,1.1,4.2c0.1,2.7-1.3,5.2-3.6,6.5c-2.7,1.5-5.7,2.3-8.7,2.2c-4.2,0-7.6-0.9-10.2-2.9c-2.4-1.8-3.7-5-3.7-9.5
			c0-1-0.8-1.7-1.7-1.7h-1.2c-0.5,0-0.9,0.2-1.2,0.5c-0.3,0.3-0.5,0.8-0.5,1.2c0,5.9,1.8,10.3,5.4,13.1s7.7,4,13.2,4
			c4,0.1,7.9-1,11.3-3c3.7-2.2,5.6-5.6,5.7-10.3c0.1-2.2-0.4-4.4-1.3-6.4C65.8,182.2,64.5,180.8,62.9,179.9z"/>
		<path class="st1" d="M116.2,155.7H115c-1,0-1.7,0.8-1.7,1.7v27.1c0,9.6-4.1,14.1-12.9,14.2s-13-4.6-12.9-14.2v-27.1
			c0-1-0.8-1.7-1.7-1.7h-1.2c-1,0-1.7,0.8-1.7,1.7v27.1c0.1,12.5,6,18.9,17.6,18.9s17.5-6.3,17.6-18.9v-27.1
			C118,156.5,117.2,155.7,116.2,155.7C116.2,155.7,116.2,155.7,116.2,155.7z"/>
		<path class="st1" d="M213.8,155.7h-1.2c-0.8,0-1.5,0.5-1.7,1.3l-10.5,36.2l-11-36.3c-0.2-0.7-0.9-1.2-1.7-1.2H186
			c-0.8,0-1.5,0.5-1.7,1.2l-10.8,36.2L162.9,157c-0.2-0.7-0.9-1.3-1.7-1.3h-1.3c-0.6,0-1.1,0.3-1.4,0.7c-0.3,0.4-0.4,1-0.3,1.5
			l12.8,43.2c0.2,0.7,0.9,1.2,1.7,1.2h1.6c0.8,0,1.5-0.5,1.7-1.2l10.9-36.4l11,36.3c0.2,0.7,0.9,1.2,1.7,1.2h1.6
			c0.8,0,1.5-0.5,1.7-1.3l12.5-43.2c0.2-0.5,0-1.1-0.3-1.5C214.8,156,214.3,155.7,213.8,155.7z"/>
		<path class="st1" d="M228.6,155.7h1.2c1,0,1.7,0.8,1.7,1.7v43.2c0,1-0.8,1.7-1.7,1.7h-1.2c-1,0-1.7-0.8-1.7-1.7v-43.2
			C226.8,156.5,227.6,155.7,228.6,155.7z"/>
		<path class="st1" d="M274.8,197.7h-23.5v-40.3c0-1-0.8-1.7-1.7-1.7h-1.2c-1,0-1.7,0.8-1.7,1.7v43.2c0,1,0.8,1.7,1.7,1.7h26.4
			c1,0,1.7-0.8,1.7-1.7v-1.2c0-1-0.7-1.8-1.7-1.8C274.9,197.7,274.9,197.7,274.8,197.7z"/>
		<path class="st1" d="M316.1,197.7h-23.5v-40.3c0-0.9-0.8-1.7-1.7-1.7h-1.2c-1,0-1.7,0.8-1.7,1.7v43.2c0,1,0.8,1.7,1.7,1.7h26.4
			c1,0,1.7-0.8,1.7-1.7v-1.2c0-1-0.7-1.8-1.7-1.8C316.2,197.7,316.1,197.7,316.1,197.7z"/>
		<path class="st1" d="M330.9,155.7h1.2c1,0,1.7,0.8,1.7,1.7v43.2c0,1-0.8,1.7-1.7,1.7h-1.2c-1,0-1.7-0.8-1.7-1.7v-43.2
			C329.1,156.5,329.9,155.7,330.9,155.7z"/>
		<path class="st1" d="M367.5,156.8L367.5,156.8c-0.3-0.7-0.9-1.1-1.6-1.1h-1.6c-0.7,0-1.4,0.4-1.6,1.1L345.1,200
			c-0.4,0.9,0.1,1.9,0.9,2.3c0.2,0.1,0.4,0.1,0.7,0.1h1.4c0.7,0,1.4-0.4,1.6-1.1l5.3-13.1h19.7l5.3,13.1c0.3,0.7,0.9,1.1,1.6,1.1
			h1.3c0.6,0,1.1-0.3,1.4-0.8c0.3-0.5,0.4-1.1,0.2-1.6L367.5,156.8z M372.8,183.5h-15.9l8.2-20.2L372.8,183.5z"/>
		<path class="st1" d="M438.3,155.7h-2c-0.7,0-1.3,0.4-1.6,1L418,194.9l-16.7-38.1c-0.3-0.6-0.9-1-1.6-1h-2c-1,0-1.7,0.8-1.7,1.7
			v43.2c0,1,0.8,1.7,1.7,1.7h1.2c1,0,1.7-0.8,1.7-1.7V167l15.1,34.4c0.3,0.6,0.9,1,1.6,1h1.3c0.7,0,1.3-0.4,1.6-1l15.1-34.4v33.7
			c0,1,0.8,1.7,1.7,1.7h1.2c1,0,1.7-0.8,1.7-1.7v-43.2C440.1,156.5,439.3,155.7,438.3,155.7C438.3,155.7,438.3,155.7,438.3,155.7z"
			/>
		<path class="st1" d="M488.3,183.8L488.3,183.8c-0.9-1.6-2.2-2.9-3.8-3.8c-1.6-0.9-3.3-1.7-5.1-2.2c-0.9-0.2-1.9-0.5-2.8-0.7
			c-1-0.2-2-0.5-3-0.7l-2.7-0.7l-2.7-0.7c-0.8-0.2-1.6-0.4-2.3-0.7c-0.7-0.2-1.4-0.5-2-0.8c-1.1-0.6-2.1-1.4-2.8-2.4
			c-0.7-1-1-2.3-1-3.5c0-1.4,0.3-2.8,1.1-4c0.6-1,1.5-1.8,2.5-2.3c2.5-1.3,5.2-1.9,8-1.9h0.2c3.1-0.2,6.2,0.6,8.9,2.3
			c2.1,1.5,3.2,4.2,3.4,8c0,0.9,0.8,1.7,1.7,1.7h1.2c0.5,0,0.9-0.2,1.3-0.5c0.3-0.3,0.5-0.8,0.5-1.3c-0.3-5.3-2-9.2-5.3-11.6
			c-3.4-2.2-7.4-3.4-11.5-3.2c-2,0-3.9,0.2-5.8,0.5c-0.9,0.2-1.8,0.5-2.7,0.8c-0.9,0.3-1.7,0.7-2.5,1.2c-1.6,1-3,2.4-4,4
			c-1.2,1.9-1.8,4.1-1.7,6.3c-0.1,2.1,0.5,4.2,1.6,6c1,1.6,2.3,2.9,4,3.8c1.6,0.9,3.3,1.5,5,2c0.9,0.2,1.7,0.5,2.6,0.7l2.7,0.7
			l2.6,0.5c0.9,0.2,1.7,0.4,2.6,0.6c1.6,0.3,3.1,0.9,4.5,1.6c1.2,0.5,2.2,1.4,2.9,2.4c0.8,1.3,1.1,2.7,1.1,4.2
			c0.1,2.7-1.3,5.2-3.6,6.5c-2.7,1.5-5.8,2.3-8.9,2.2c-3.6,0.2-7.1-0.9-10-2.9c-2.4-1.8-3.7-5-3.7-9.5c0-1-0.8-1.7-1.7-1.7h-1.2
			c-1,0-1.7,0.8-1.7,1.7c0,0,0,0,0,0c0,5.9,1.8,10.3,5.4,13.1c3.5,2.8,7.8,4,13.2,4c4,0.1,7.9-1,11.3-3c3.7-2.2,5.6-5.6,5.7-10.3
			C489.7,187.9,489.2,185.7,488.3,183.8z"/>
	</g>
	<g>
		<path class="st1" d="M9.4,226.1v6.1h7.1v1.9H9.4v7.5H7.1v-17.4h10.7v1.9H9.4z"/>
		<path class="st1" d="M40.8,241.6H39c-0.2,0-0.4-0.1-0.5-0.2c-0.1-0.1-0.2-0.2-0.3-0.4l-1.6-4.2h-7.8l-1.6,4.2
			c0,0.1-0.1,0.3-0.3,0.4c-0.1,0.1-0.3,0.2-0.5,0.2h-1.8l6.9-17.4h2.4L40.8,241.6z M35.9,235.1l-2.7-7.1c-0.1-0.2-0.2-0.5-0.3-0.7
			c-0.1-0.3-0.2-0.6-0.3-0.9c-0.2,0.7-0.3,1.2-0.5,1.6l-2.7,7.1H35.9z"/>
		<path class="st1" d="M68.4,224.2v17.4h-2.1v-12.8c0-0.2,0-0.4,0-0.5c0-0.2,0-0.4,0-0.6l-6,10.9c-0.2,0.4-0.5,0.5-0.8,0.5h-0.3
			c-0.4,0-0.7-0.2-0.8-0.5l-6.1-10.9c0,0.4,0.1,0.8,0.1,1.2v12.8h-2.1v-17.4h1.7c0.2,0,0.4,0,0.5,0.1c0.1,0,0.2,0.2,0.3,0.3l6,10.7
			c0.1,0.2,0.2,0.4,0.3,0.6c0.1,0.2,0.2,0.4,0.3,0.6c0.1-0.2,0.2-0.4,0.3-0.6c0.1-0.2,0.2-0.4,0.3-0.6l5.9-10.7
			c0.1-0.2,0.2-0.3,0.3-0.3c0.1,0,0.3-0.1,0.5-0.1H68.4z"/>
		<path class="st1" d="M82.5,241.6h-2.4v-17.4h2.4V241.6z"/>
		<path class="st1" d="M104,239.6v2h-9.9v-17.4h2.3v15.4H104z"/>
		<path class="st1" d="M118.1,234.6v6.9h-2.4v-6.9l-6.4-10.4h2.1c0.2,0,0.4,0.1,0.5,0.2c0.1,0.1,0.2,0.2,0.3,0.4l4,6.7
			c0.1,0.3,0.3,0.5,0.4,0.8c0.1,0.2,0.2,0.5,0.3,0.7c0.1-0.3,0.2-0.5,0.3-0.7c0.1-0.2,0.2-0.5,0.4-0.8l4-6.7
			c0.1-0.1,0.2-0.3,0.3-0.4c0.1-0.1,0.3-0.2,0.5-0.2h2.1L118.1,234.6z"/>
		<path class="st1" d="M164.6,224.2v17.4h-2.1v-12.8c0-0.2,0-0.4,0-0.5c0-0.2,0-0.4,0-0.6l-6,10.9c-0.2,0.4-0.5,0.5-0.8,0.5h-0.3
			c-0.4,0-0.7-0.2-0.8-0.5l-6.1-10.9c0,0.4,0.1,0.8,0.1,1.2v12.8h-2.1v-17.4h1.7c0.2,0,0.4,0,0.5,0.1c0.1,0,0.2,0.2,0.3,0.3l6,10.7
			c0.1,0.2,0.2,0.4,0.3,0.6c0.1,0.2,0.2,0.4,0.3,0.6c0.1-0.2,0.2-0.4,0.3-0.6c0.1-0.2,0.2-0.4,0.3-0.6l5.9-10.7
			c0.1-0.2,0.2-0.3,0.3-0.3c0.1,0,0.3-0.1,0.5-0.1H164.6z"/>
		<path class="st1" d="M187,239.6l0,1.9h-10.7v-17.4H187v1.9h-8.3v5.8h6.8v1.8h-6.8v5.9H187z"/>
		<path class="st1" d="M212.6,232.9c0,1.3-0.2,2.5-0.6,3.5c-0.4,1.1-1,2-1.7,2.7c-0.8,0.8-1.7,1.3-2.7,1.8c-1.1,0.4-2.2,0.6-3.5,0.6
			h-6.5v-17.4h6.5c1.3,0,2.4,0.2,3.5,0.6c1.1,0.4,2,1,2.7,1.8s1.3,1.7,1.7,2.7C212.4,230.4,212.6,231.6,212.6,232.9z M210.2,232.9
			c0-1.1-0.1-2-0.4-2.9c-0.3-0.8-0.7-1.6-1.2-2.1c-0.5-0.6-1.2-1-1.9-1.3s-1.6-0.5-2.5-0.5h-4.1v13.6h4.1c0.9,0,1.8-0.2,2.5-0.5
			s1.4-0.7,1.9-1.3c0.5-0.6,0.9-1.3,1.2-2.1C210,234.9,210.2,233.9,210.2,232.9z"/>
		<path class="st1" d="M225.6,241.6h-2.4v-17.4h2.4V241.6z"/>
		<path class="st1" d="M251.4,241.6h-1.8c-0.2,0-0.4-0.1-0.5-0.2c-0.1-0.1-0.2-0.2-0.3-0.4l-1.6-4.2h-7.8l-1.6,4.2
			c0,0.1-0.1,0.3-0.3,0.4c-0.1,0.1-0.3,0.2-0.5,0.2h-1.8l6.9-17.4h2.4L251.4,241.6z M246.5,235.1l-2.7-7.1c-0.1-0.2-0.2-0.5-0.3-0.7
			c-0.1-0.3-0.2-0.6-0.3-0.9c-0.2,0.7-0.3,1.2-0.5,1.6l-2.7,7.1H246.5z"/>
		<path class="st1" d="M271,226.2h-5.6v15.4H263v-15.4h-5.6v-2H271V226.2z"/>
		<path class="st1" d="M283.2,241.6h-2.4v-17.4h2.4V241.6z"/>
		<path class="st1" d="M310.9,232.9c0,1.3-0.2,2.5-0.6,3.6c-0.4,1.1-1,2-1.7,2.8c-0.8,0.8-1.7,1.4-2.7,1.8c-1.1,0.4-2.2,0.6-3.5,0.6
			c-1.3,0-2.4-0.2-3.5-0.6c-1-0.4-2-1-2.7-1.8c-0.8-0.8-1.3-1.7-1.7-2.8c-0.4-1.1-0.6-2.3-0.6-3.6c0-1.3,0.2-2.5,0.6-3.6
			c0.4-1.1,1-2,1.7-2.8c0.8-0.8,1.7-1.4,2.7-1.8c1-0.4,2.2-0.7,3.5-0.7c1.3,0,2.4,0.2,3.5,0.7c1.1,0.4,2,1,2.7,1.8
			c0.8,0.8,1.3,1.7,1.7,2.8C310.7,230.4,310.9,231.6,310.9,232.9z M308.5,232.9c0-1.1-0.1-2-0.4-2.9c-0.3-0.8-0.7-1.6-1.2-2.2
			c-0.5-0.6-1.2-1-1.9-1.4c-0.8-0.3-1.6-0.5-2.5-0.5c-0.9,0-1.8,0.2-2.5,0.5c-0.8,0.3-1.4,0.8-1.9,1.4c-0.5,0.6-1,1.3-1.2,2.2
			c-0.3,0.8-0.4,1.8-0.4,2.9c0,1.1,0.1,2,0.4,2.9c0.3,0.8,0.7,1.6,1.2,2.1c0.5,0.6,1.2,1,1.9,1.3c0.8,0.3,1.6,0.5,2.5,0.5
			c0.9,0,1.8-0.2,2.5-0.5c0.8-0.3,1.4-0.8,1.9-1.3c0.5-0.6,0.9-1.3,1.2-2.1C308.4,234.9,308.5,233.9,308.5,232.9z"/>
		<path class="st1" d="M335.6,224.2v17.4h-1.2c-0.2,0-0.3,0-0.5-0.1c-0.1-0.1-0.2-0.2-0.4-0.3l-10-13.1c0,0.2,0,0.4,0,0.6
			c0,0.2,0,0.4,0,0.5v12.4h-2.1v-17.4h1.2c0.1,0,0.2,0,0.3,0c0.1,0,0.1,0,0.2,0.1c0.1,0,0.1,0.1,0.2,0.1c0.1,0.1,0.1,0.1,0.2,0.2
			l10,13.1c0-0.2,0-0.4,0-0.6s0-0.4,0-0.6v-12.3H335.6z"/>
		<path class="st1" d="M369.7,226.9c-0.1,0.1-0.2,0.2-0.2,0.3c-0.1,0.1-0.2,0.1-0.3,0.1c-0.1,0-0.3-0.1-0.5-0.2
			c-0.2-0.1-0.4-0.3-0.7-0.5c-0.3-0.2-0.6-0.3-1-0.5c-0.4-0.1-0.9-0.2-1.4-0.2c-0.5,0-1,0.1-1.4,0.2c-0.4,0.1-0.7,0.3-1,0.6
			c-0.3,0.2-0.5,0.5-0.6,0.9c-0.1,0.3-0.2,0.7-0.2,1.1c0,0.5,0.1,0.9,0.4,1.2c0.2,0.3,0.6,0.6,0.9,0.8c0.4,0.2,0.8,0.4,1.3,0.6
			c0.5,0.2,1,0.3,1.5,0.5c0.5,0.2,1,0.4,1.5,0.6c0.5,0.2,0.9,0.5,1.3,0.8c0.4,0.3,0.7,0.8,0.9,1.2c0.2,0.5,0.4,1.1,0.4,1.8
			c0,0.8-0.1,1.5-0.4,2.1c-0.3,0.7-0.6,1.2-1.1,1.7c-0.5,0.5-1.1,0.9-1.8,1.2c-0.7,0.3-1.5,0.4-2.5,0.4c-1.1,0-2.2-0.2-3.1-0.6
			c-0.9-0.4-1.7-1-2.4-1.7l0.7-1.1c0.1-0.1,0.1-0.2,0.2-0.2c0.1-0.1,0.2-0.1,0.3-0.1c0.1,0,0.2,0,0.4,0.1c0.1,0.1,0.3,0.2,0.5,0.3
			c0.2,0.1,0.4,0.3,0.6,0.4c0.2,0.2,0.5,0.3,0.7,0.4c0.3,0.1,0.6,0.2,1,0.3c0.4,0.1,0.8,0.1,1.2,0.1c0.6,0,1.1-0.1,1.5-0.2
			c0.4-0.2,0.8-0.4,1.1-0.6c0.3-0.3,0.5-0.6,0.7-1c0.2-0.4,0.2-0.8,0.2-1.3c0-0.5-0.1-1-0.4-1.3c-0.2-0.3-0.6-0.6-0.9-0.8
			c-0.4-0.2-0.8-0.4-1.3-0.6c-0.5-0.2-1-0.3-1.5-0.5c-0.5-0.2-1-0.4-1.5-0.6c-0.5-0.2-0.9-0.5-1.3-0.8c-0.4-0.3-0.7-0.8-0.9-1.3
			c-0.2-0.5-0.4-1.2-0.4-1.9c0-0.6,0.1-1.2,0.4-1.8c0.2-0.6,0.6-1.1,1-1.5c0.5-0.4,1-0.8,1.7-1.1c0.7-0.3,1.4-0.4,2.3-0.4
			c1,0,1.9,0.2,2.6,0.5c0.8,0.3,1.5,0.8,2.1,1.3L369.7,226.9z"/>
		<path class="st1" d="M391.9,239.6l0,1.9h-10.7v-17.4h10.7v1.9h-8.3v5.8h6.8v1.8h-6.8v5.9H391.9z"/>
		<path class="st1" d="M415.3,241.6h-2.1c-0.4,0-0.7-0.2-0.9-0.5l-4.5-6.2c-0.1-0.2-0.3-0.3-0.4-0.4c-0.2-0.1-0.4-0.1-0.7-0.1h-1.8
			v7.2h-2.3v-17.4h4.9c1.1,0,2,0.1,2.8,0.3c0.8,0.2,1.5,0.5,2,1c0.5,0.4,0.9,0.9,1.2,1.5s0.4,1.3,0.4,2c0,0.6-0.1,1.2-0.3,1.7
			c-0.2,0.5-0.5,1-0.8,1.4s-0.8,0.8-1.3,1.1c-0.5,0.3-1.1,0.5-1.8,0.7c0.3,0.2,0.6,0.4,0.8,0.7L415.3,241.6z M407.3,232.6
			c0.7,0,1.3-0.1,1.8-0.2c0.5-0.2,1-0.4,1.3-0.7c0.4-0.3,0.6-0.7,0.8-1.1c0.2-0.4,0.3-0.9,0.3-1.4c0-1-0.3-1.8-1-2.3
			c-0.7-0.5-1.7-0.8-3.1-0.8h-2.6v6.6H407.3z"/>
		<path class="st1" d="M438.6,224.2l-7.1,17.4h-2.1l-7.1-17.4h1.9c0.2,0,0.4,0.1,0.5,0.2c0.1,0.1,0.2,0.2,0.3,0.4l4.9,12.3
			c0.1,0.3,0.2,0.6,0.3,0.9c0.1,0.3,0.2,0.7,0.3,1c0.1-0.4,0.2-0.7,0.3-1c0.1-0.3,0.2-0.6,0.3-0.9l4.9-12.3c0-0.1,0.1-0.3,0.3-0.4
			c0.1-0.1,0.3-0.2,0.5-0.2H438.6z"/>
		<path class="st1" d="M450.5,241.6h-2.4v-17.4h2.4V241.6z"/>
		<path class="st1" d="M474.4,238c0.1,0,0.2,0.1,0.3,0.2l0.9,1c-0.7,0.8-1.6,1.5-2.6,1.9s-2.2,0.7-3.7,0.7c-1.2,0-2.4-0.2-3.4-0.6
			c-1-0.4-1.9-1-2.6-1.8c-0.7-0.8-1.3-1.7-1.7-2.8c-0.4-1.1-0.6-2.3-0.6-3.6c0-1.3,0.2-2.5,0.6-3.6s1-2,1.7-2.8s1.6-1.4,2.7-1.8
			c1-0.4,2.2-0.6,3.5-0.6c1.2,0,2.3,0.2,3.3,0.6c0.9,0.4,1.8,0.9,2.5,1.6l-0.8,1.1c0,0.1-0.1,0.1-0.2,0.2c-0.1,0.1-0.2,0.1-0.3,0.1
			c-0.1,0-0.3-0.1-0.5-0.2c-0.2-0.2-0.5-0.3-0.8-0.5c-0.3-0.2-0.8-0.4-1.3-0.5c-0.5-0.2-1.1-0.2-1.9-0.2c-0.9,0-1.7,0.2-2.5,0.5
			c-0.7,0.3-1.4,0.8-1.9,1.4c-0.5,0.6-1,1.3-1.3,2.2c-0.3,0.8-0.4,1.8-0.4,2.9c0,1.1,0.2,2,0.5,2.9c0.3,0.8,0.7,1.6,1.3,2.2
			c0.5,0.6,1.2,1,1.9,1.3c0.7,0.3,1.5,0.5,2.4,0.5c0.5,0,1,0,1.4-0.1c0.4-0.1,0.8-0.2,1.2-0.3c0.4-0.1,0.7-0.3,1-0.5
			c0.3-0.2,0.6-0.4,0.9-0.7C474.1,238,474.3,238,474.4,238z"/>
		<path class="st1" d="M496.4,239.6l0,1.9h-10.7v-17.4h10.7v1.9H488v5.8h6.8v1.8H488v5.9H496.4z"/>
		<path class="st1" d="M515.8,226.9c-0.1,0.1-0.2,0.2-0.2,0.3c-0.1,0.1-0.2,0.1-0.3,0.1c-0.1,0-0.3-0.1-0.5-0.2
			c-0.2-0.1-0.4-0.3-0.7-0.5c-0.3-0.2-0.6-0.3-1-0.5c-0.4-0.1-0.9-0.2-1.4-0.2c-0.5,0-1,0.1-1.4,0.2c-0.4,0.1-0.7,0.3-1,0.6
			c-0.3,0.2-0.5,0.5-0.6,0.9c-0.1,0.3-0.2,0.7-0.2,1.1c0,0.5,0.1,0.9,0.4,1.2c0.2,0.3,0.6,0.6,0.9,0.8c0.4,0.2,0.8,0.4,1.3,0.6
			c0.5,0.2,1,0.3,1.5,0.5c0.5,0.2,1,0.4,1.5,0.6c0.5,0.2,0.9,0.5,1.3,0.8c0.4,0.3,0.7,0.8,0.9,1.2c0.2,0.5,0.4,1.1,0.4,1.8
			c0,0.8-0.1,1.5-0.4,2.1c-0.3,0.7-0.6,1.2-1.1,1.7c-0.5,0.5-1.1,0.9-1.8,1.2c-0.7,0.3-1.5,0.4-2.5,0.4c-1.1,0-2.2-0.2-3.1-0.6
			c-0.9-0.4-1.7-1-2.4-1.7l0.7-1.1c0.1-0.1,0.1-0.2,0.2-0.2c0.1-0.1,0.2-0.1,0.3-0.1c0.1,0,0.2,0,0.4,0.1c0.1,0.1,0.3,0.2,0.5,0.3
			c0.2,0.1,0.4,0.3,0.6,0.4c0.2,0.2,0.5,0.3,0.7,0.4c0.3,0.1,0.6,0.2,1,0.3c0.4,0.1,0.8,0.1,1.2,0.1c0.6,0,1.1-0.1,1.5-0.2
			c0.4-0.2,0.8-0.4,1.1-0.6c0.3-0.3,0.5-0.6,0.7-1c0.2-0.4,0.2-0.8,0.2-1.3c0-0.5-0.1-1-0.4-1.3c-0.2-0.3-0.6-0.6-0.9-0.8
			c-0.4-0.2-0.8-0.4-1.3-0.6c-0.5-0.2-1-0.3-1.5-0.5c-0.5-0.2-1-0.4-1.5-0.6c-0.5-0.2-0.9-0.5-1.3-0.8c-0.4-0.3-0.7-0.8-0.9-1.3
			c-0.2-0.5-0.4-1.2-0.4-1.9c0-0.6,0.1-1.2,0.4-1.8c0.2-0.6,0.6-1.1,1-1.5c0.5-0.4,1-0.8,1.7-1.1c0.7-0.3,1.4-0.4,2.3-0.4
			c1,0,1.9,0.2,2.6,0.5c0.8,0.3,1.5,0.8,2.1,1.3L515.8,226.9z"/>
	</g>
	<g>
		<path class="st7" d="M261.8,118.3c24.8-0.2,47-2,68.8-7.8c8.3-2.2,16.7-4.7,24.1-9.2c4-2.4,7.7-5.3,11.3-8.2
			c3.4-2.8,4.2-9.3,2.1-13.2c-2.3-4.4-6-7.4-10.1-10c-7.1-4.5-14.9-7.3-22.8-9.8c-1.1-0.3-2.3-0.6-3.3-1c-1.3-0.5-2.2-1.5-1.8-3
			c0.4-1.7,1.7-2.1,3.3-1.8c0.5,0.1,0.9,0.2,1.4,0.3c8.4,2.5,16.7,5.3,24.3,9.8c4.7,2.7,8.9,5.9,12.2,10.4
			c4.2,5.8,3.7,11.7,0.9,17.9c-3.2,7.2-9.7,10.8-16.2,14.2c-11.6,6-24.3,9-37,11.4c-21.7,4-43.5,6-65.6,4.9
			c-24.3-1.2-48.4-4.2-71.5-12.5c-6.7-2.4-13.1-5.5-18.7-10.2c-3.5-2.9-6.3-6.3-7.6-10.7c-1.9-6.3-0.2-11.7,3.9-16.6
			c4.2-4.9,9.5-8.3,15.2-11.1c7.7-3.8,15.8-6.4,24-8.6c2.3-0.6,3.9,0.1,4.1,1.9c0.3,2.2-1.2,2.8-2.9,3.2c-9,2.3-17.8,5.1-25.8,9.7
			c-3,1.7-6,3.7-8.6,6c-7.2,6.2-7.3,13.6-0.5,20.2c4.7,4.6,10.4,7.8,16.5,10.2c21.2,8.5,43.4,11.8,66,12.9
			C253,117.9,258.6,118.1,261.8,118.3z"/>
		<path class="st6" d="M266.2,13.2c-8.1,8.2-12.4,18.1-12.3,30c0.1,11.5,4.5,21.6,10.6,30.8c-1.8,3.8-3.5,4-5.5,0.9
			c-9-14-12.7-29-8.5-45.7c-4.7-4.2-10.2-6.6-16.7-7.8c-2.7,10.2-2.8,19.9,1.2,29.4c4,9.6,11.4,16.1,20,21c0.9,2.4,0.3,3.7-2,4.4
			c-0.5-0.2-1.2-0.4-1.8-0.7c-18.2-9.6-28.4-31.6-23.9-51.7c0.9-3.9,1.7-5.5,3.8-7.6c4.9-0.5,7.6,0.4,21.3,7.2
			c0.5-0.8,0.9-1.6,1.4-2.3c3.1-4.2,6.2-8.4,9.5-12.5c0.9-1.1,2.4-1.5,3.7-2.3c6.2,4.7,10.3,10.6,13.7,17.2
			c6.7-4.2,13.4-7.5,21.2-7.7c3.4,4.6,4.1,9.8,4.3,14.9c0.9,19.5-7.2,34.3-23.9,44.5c-3.2,1.9-4.2,1.5-5.5-2.4
			c1.1-0.8,2.4-1.8,3.7-2.7c8.7-5.4,15.4-12.5,18.6-22.4c2.8-8.6,2.7-17.2,0.1-26.3c-6.2,0.9-11.5,3.5-16.6,7.5
			c4.4,17.5,0.1,33.1-9.5,47.5c-2.4,0.9-3.8,0.4-4.5-2.3c0.8-1.4,1.8-3.1,2.8-4.8c5.7-9.6,8.6-19.9,7.5-31.1
			c-0.9-9.4-4.9-17.5-11.4-24.3c-0.2-0.2-0.6-0.4-0.9-0.6C266.9,13.2,266.8,13.3,266.2,13.2z"/>
		<path class="st7" d="M333.3,75c1.4-2.6,2.2-3,4.3-1.9c3.2,1.8,5.6,4.6,7.5,7.7c1.8,3.2,0.1,8.4-2.7,11.1
			c-6.2,6.1-14,9.2-22.1,11.5c-11.5,3.3-23.3,5-35.2,5.9c-14.7,1.1-29.4,1.1-44.1-0.2c-14.6-1.2-28.9-3.7-42.5-9.4
			c-5-2.1-9.1-5.1-12.8-8.9c-3.1-3.2-2.9-9.5,0.3-12.7c2.1-2.1,4.5-4,6.8-5.9c0.8-0.7,2.1-0.8,3.5-1.4c0.7,1.4,1.2,2.6,1.9,3.9
			c-1.7,1.2-3.1,2-4.3,3c-1.6,1.4-3.3,2.7-4.4,4.4c-1.9,3-1,5.1,1.6,7.6c4.7,4.5,10.7,6.1,16.6,7.8c13.1,3.9,26.6,5.7,40.2,6.6
			c14.4,1,28.7,0.7,43-0.9c14.4-1.6,28.7-4.1,42-10.2c2.5-1.1,4.7-3.5,6.4-5.7c2.1-2.8,1.4-5.4-1.3-7.7c-1.4-1.2-2.7-2.5-4.1-3.8
			C333.7,75.8,333.5,75.3,333.3,75z"/>
		<path class="st6" d="M332.4,80.2c-0.9,0.6-1.9,1.4-3.1,1.8c-14.2,5.3-28.5,5.1-42.9,0.4c-0.7-0.2-1.4-0.8-2.5-1.4
			c0.3-1.3,0.6-2.5,1-4c1.9,0.4,3.4,0.6,4.8,1c10.6,3,21.3,3.6,32.1,0.8c1-0.3,2-0.6,3.4-1.1c-5-6.9-11.6-9.2-19.2-8.7
			c-2.1-1.6-2.1-3.1-0.6-4.6C316.4,62.3,330.5,70.3,332.4,80.2z"/>
		<path class="st6" d="M210.5,78.3c3.7,0.7,7.4,1.6,11.2,2.1c8.3,1.2,16.5-0.1,24.5-2.4c1.4-0.4,2.8-0.4,4.7-0.6
			c0.1,1.8,0.2,3,0.2,4.5c-2.5,0.7-4.7,1.4-7,1.9c-3.9,0.8-7.7,1.5-11.6,2c-2.8,0.3-5.6,0.5-8.4,0.2c-3.7-0.4-7.3-1.3-10.9-2.1
			c-2.3-0.5-4.6-1-6.8-1.6c-1.6-0.4-3.2-1-3.5-3c3.6-9.8,14.9-16.1,26.5-14.8c1.7,1.3,1.8,2.8,0,4.6c-4.6,0.2-9.7,0.1-13.8,3.2
			c-1.9,1.4-3.7,3.1-5.5,4.7C210.4,77.4,210.4,77.9,210.5,78.3z"/>
		<path class="st6" d="M284.5,84.5c2.1,0.1,3.2,1,3.1,3.5c-3.2,3.4-7.2,6.1-11.4,8.7c-6.9,4.4-13.7,4.2-20.2-0.6
			c-3.4-2.5-6.6-5.1-10.3-8.1c0.9-1.3,1.3-2.7,2.2-3.1c0.8-0.3,2.3,0.1,3.1,0.7c2.7,1.9,5.1,4.1,7.7,6c4.8,3.6,9.9,3.9,14.9,0.5
			C277.3,89.7,280.8,87.1,284.5,84.5z"/>
		<path class="st6" d="M206.8,49.3c5.1-2.2,14.9-0.2,21.7,4.5c0.7,1.8,0.5,3.3-1.8,4.2c-4.4-1.3-8.4-4.1-14.1-4.1
			c2.4,3,4.5,5.4,6.8,8.2c-0.9,1.1-1.6,2.1-2.4,2.9C211.3,62.9,205.6,54,206.8,49.3z"/>
		<path class="st6" d="M317.5,64.6c-1.1-1.2-2-2.2-2.9-3.2c2-2.6,3.7-4.8,5.7-7.5c-5.7-0.1-9.8,3-14.7,4.2c-0.7-1-1.3-1.9-1.8-2.6
			c3.1-5.8,18.7-9.3,23.2-5C326,56.3,322.4,60.6,317.5,64.6z"/>
	</g>
</g>
</svg>
