<svg xmlns="http://www.w3.org/2000/svg" viewBox="0 0 245.6 209.37"><defs><style>.cls-1{fill:#60c6ea;}.cls-2{fill:#635555;}</style></defs><title>subsequent sessions</title><g id="Layer_2" data-name="Layer 2"><g id="Layer_3" data-name="Layer 3"><path class="cls-1" d="M69.63,134a10.06,10.06,0,0,0,3-.07h-6a9.91,9.91,0,0,0,1.72.15A11.17,11.17,0,0,0,69.63,134Z"/><path class="cls-1" d="M31,201.63A9.37,9.37,0,0,1,15,195V163H27.22v-3H3v-3.54A19.52,19.52,0,0,1,21.38,137c.37,0,.74,0,1.12,0h1.9l-.06-.49a9.57,9.57,0,0,1,0-2.51H22.5q-.59,0-1.17,0A22.54,22.54,0,0,0,0,156.47V160H0v3H12v32a12.35,12.35,0,0,0,21,8.8,11.68,11.68,0,0,0,1.86-2.34A9.86,9.86,0,0,1,32.81,199,9.82,9.82,0,0,1,31,201.63Z"/><path class="cls-1" d="M205.87,137h3.46l0-.08a11.92,11.92,0,0,0-1.95-2.92h-4.82A8.88,8.88,0,0,1,205.87,137Z"/><path class="cls-1" d="M115.52,137h43.82a6.51,6.51,0,0,1-1.88-2q-.28-.48-.54-1H115.55a9.57,9.57,0,0,1,0,2.51Z"/><polygon class="cls-1" points="47.13 163.01 92.79 163.01 93.16 160.01 46.76 160.01 47.13 163.01"/><path class="cls-1" d="M242.6,145.27A22.49,22.49,0,0,0,223.1,134h-4.65l1.73,3h2.92a5.06,5.06,0,0,1,.55,0,19.5,19.5,0,0,1,18.95,19.48V160h-8.46a1.45,1.45,0,0,0-.59.12l1.66,2.88.43.74V163h8.46a1.5,1.5,0,0,0,1.5-1.5v-5A22.3,22.3,0,0,0,242.6,145.27Z"/><path class="cls-1" d="M232.64,180.34V195a9.36,9.36,0,0,1-18.72,0V163L212,160H201.76l-1.06,3h10.22v32a12.36,12.36,0,0,0,24.72,0V178.53a9.32,9.32,0,0,1-1.56,1.14A8.5,8.5,0,0,1,232.64,180.34Z"/><path class="cls-1" d="M188.6,134.45a1.46,1.46,0,0,0-1.1-.21l-14,2.73h16.93a9.11,9.11,0,0,1,3.37-3H189Z"/><polygon class="cls-1" points="112.33 163.01 180.94 163.01 182 160.01 112.7 160.01 112.33 163.01"/><path class="cls-2" d="M202.92,97.77l-3.26-20.21a1.5,1.5,0,0,0-2.9-.23c-.17.52-4,12.2-2.49,20.84l-15.55,3.69-.34.08a1.5,1.5,0,0,0,0,2.92l.1,0,.25,0a1.39,1.39,0,0,0,.35,0l4.18-1,13.13-3.12,5.41-1.28A1.5,1.5,0,0,0,202.92,97.77Zm-5.73-.29a37.54,37.54,0,0,1,.67-12.24l1.88,11.63Z"/><path class="cls-2" d="M177.67,119.36a9.27,9.27,0,0,1-2-.23l-31-7.34a8.17,8.17,0,0,1-3.49-1.78,8.61,8.61,0,0,1-2.87-6.53,9.83,9.83,0,0,1,.26-2.22c.18-.73.35-1.43.5-2.13a.09.09,0,0,1,0,0c.16-.78.3-1.57.43-2.35.61-4,1.72-11.1,2.74-17.46A1.48,1.48,0,0,1,144,78a1.5,1.5,0,0,1,1.24,1.72c-1,6.35-2.12,13.45-2.74,17.44q-.19,1.23-.45,2.46a.09.09,0,0,1,0,0c-.16.76-.33,1.52-.53,2.27a6.78,6.78,0,0,0-.17,1.51,5.6,5.6,0,0,0,1.85,4.27,5.1,5.1,0,0,0,2.21,1.12l30.93,7.34a5.77,5.77,0,0,0,6.77-3.73,4.41,4.41,0,0,0,.16-.55,5.62,5.62,0,0,0,.16-1.33,5.78,5.78,0,0,0-1.7-4.07A5.66,5.66,0,0,0,179,105l-.62-.15-22.72-5.39a1.5,1.5,0,0,1-1.13-1.7l2.3-14.27a1.5,1.5,0,0,1,3,.48L157.7,96.87l22,5.22a8.69,8.69,0,0,1,4.15,2.31,8.71,8.71,0,0,1,2.34,8.22q-.1.43-.24.84a8.73,8.73,0,0,1-7,5.81A9,9,0,0,1,177.67,119.36Z"/><path class="cls-2" d="M161.41,100.79a1.55,1.55,0,0,1-.37,0A1.49,1.49,0,0,1,160,98.92c1.08-4.23.42-9.8-.49-14.24a1.46,1.46,0,0,1-1.41.54,1.5,1.5,0,0,1-1.24-1.72l1-5.94a1.49,1.49,0,0,1,1.36-1.25,1.51,1.51,0,0,1,1.54,1c0,.09.67,2,1.34,5,1.15,5,2.22,12,.84,17.39A1.5,1.5,0,0,1,161.41,100.79Z"/><path class="cls-2" d="M188.6,137a1.5,1.5,0,0,1-.52.21l-1.25.24h0l-18,3.53a17.85,17.85,0,0,1-4.17.5c-3,0-7-.82-9.43-4.49-.11-.16-.22-.33-.32-.5a20.47,20.47,0,0,1-1.29-2.5c-3.6-8.21-1-16.45.45-20,.43-1,.76-1.64.82-1.75a1.5,1.5,0,0,1,2.63,1.43s-.2.39-.48,1c-1.25,2.89-4.23,11.38-.09,19.26q.26.48.54,1a6.51,6.51,0,0,0,1.88,2c3.49,2.48,8.66,1.1,8.72,1.08l.11,0,5.37-1.05,14-2.73a1.5,1.5,0,0,1,1.76,1.18A1.5,1.5,0,0,1,188.6,137Z"/><path class="cls-2" d="M209.33,137l0-.08a11.92,11.92,0,0,0-1.95-2.92h-4.82a8.88,8.88,0,0,1,3.35,3,7.37,7.37,0,0,1,.71,1.21,9.27,9.27,0,0,1,.38,7.12L204.58,152l-2.82,8h3.18l1.36-3.84,1.31-3.72h0l2.18-6.14A12.27,12.27,0,0,0,209.33,137ZM189,134l-.41.48A12.1,12.1,0,0,0,187,137c-.07.15-.14.3-.2.45h0c-.09.22-.18.43-.26.66L178.82,160H182l7.4-20.92a9.37,9.37,0,0,1,1.07-2.12,9.11,9.11,0,0,1,3.37-3Zm20.32,3,0-.08a11.92,11.92,0,0,0-1.95-2.92,12.31,12.31,0,0,0-14.46-2.88A12.43,12.43,0,0,0,189,134l-.41.48A12.1,12.1,0,0,0,187,137c-.07.15-.14.3-.2.45h0c-.09.22-.18.43-.26.66L178.82,160H182l7.4-20.92a9.37,9.37,0,0,1,1.07-2.12,9.11,9.11,0,0,1,3.37-3l.33-.18a9.35,9.35,0,0,1,4-.91,9.22,9.22,0,0,1,4.35,1.09,8.88,8.88,0,0,1,3.35,3,7.37,7.37,0,0,1,.71,1.21,9.27,9.27,0,0,1,.38,7.12L204.58,152l-2.82,8h3.18l1.36-3.84,1.31-3.72h0l2.18-6.14A12.27,12.27,0,0,0,209.33,137Zm0,0,0-.08a11.92,11.92,0,0,0-1.95-2.92,12.31,12.31,0,0,0-14.46-2.88A12.43,12.43,0,0,0,189,134l-.41.48A12.1,12.1,0,0,0,187,137c-.07.15-.14.3-.2.45h0c-.09.22-.18.43-.26.66L178.82,160H182l7.4-20.92a9.37,9.37,0,0,1,1.07-2.12,9.11,9.11,0,0,1,3.37-3l.33-.18a9.35,9.35,0,0,1,4-.91,9.22,9.22,0,0,1,4.35,1.09,8.88,8.88,0,0,1,3.35,3,7.37,7.37,0,0,1,.71,1.21,9.27,9.27,0,0,1,.38,7.12L204.58,152l-2.82,8h3.18l1.36-3.84,1.31-3.72h0l2.18-6.14A12.27,12.27,0,0,0,209.33,137Zm0,0,0-.08a11.92,11.92,0,0,0-1.95-2.92,12.31,12.31,0,0,0-14.46-2.88A12.43,12.43,0,0,0,189,134l-.41.48A12.1,12.1,0,0,0,187,137c-.07.15-.14.3-.2.45h0c-.09.22-.18.43-.26.66L178.82,160H182l7.4-20.92a9.37,9.37,0,0,1,1.07-2.12,9.11,9.11,0,0,1,3.37-3l.33-.18a9.35,9.35,0,0,1,4-.91,9.22,9.22,0,0,1,4.35,1.09,8.88,8.88,0,0,1,3.35,3,7.37,7.37,0,0,1,.71,1.21,9.27,9.27,0,0,1,.38,7.12L204.58,152l-2.82,8h3.18l1.36-3.84,1.31-3.72h0l2.18-6.14A12.27,12.27,0,0,0,209.33,137Zm0,0,0-.08a11.92,11.92,0,0,0-1.95-2.92,12.31,12.31,0,0,0-14.46-2.88A12.43,12.43,0,0,0,189,134l-.41.48A12.1,12.1,0,0,0,187,137c-.07.15-.14.3-.2.45h0c-.09.22-.18.43-.26.66L178.82,160l-1.06,3L167.17,193a12.19,12.19,0,0,0-.71,4.1,12.34,12.34,0,0,0,8.21,11.61,12.53,12.53,0,0,0,4.12.71,12.34,12.34,0,0,0,11.59-8.21L203.88,163l1.06-3,1.36-3.84,1.31-3.72h0l2.18-6.14A12.27,12.27,0,0,0,209.33,137Zm-8.63,26-13.14,37.15A9.31,9.31,0,1,1,170,194L180.94,163l1.06-3,7.4-20.92a9.37,9.37,0,0,1,1.07-2.12,9.11,9.11,0,0,1,3.37-3l.33-.18a9.35,9.35,0,0,1,4-.91,9.22,9.22,0,0,1,4.35,1.09,8.88,8.88,0,0,1,3.35,3,7.37,7.37,0,0,1,.71,1.21,9.27,9.27,0,0,1,.38,7.12L204.58,152l-2.82,8Zm8.63-26,0-.08a11.92,11.92,0,0,0-1.95-2.92,12.31,12.31,0,0,0-14.46-2.88A12.43,12.43,0,0,0,189,134l-.41.48A12.1,12.1,0,0,0,187,137c-.07.15-.14.3-.2.45h0c-.09.22-.18.43-.26.66L178.82,160H182l7.4-20.92a9.37,9.37,0,0,1,1.07-2.12,9.11,9.11,0,0,1,3.37-3l.33-.18a9.35,9.35,0,0,1,4-.91,9.22,9.22,0,0,1,4.35,1.09,8.88,8.88,0,0,1,3.35,3,7.37,7.37,0,0,1,.71,1.21,9.27,9.27,0,0,1,.38,7.12L204.58,152l-2.82,8h3.18l1.36-3.84,1.31-3.72h0l2.18-6.14A12.27,12.27,0,0,0,209.33,137Zm0,0,0-.08a11.92,11.92,0,0,0-1.95-2.92,12.31,12.31,0,0,0-14.46-2.88A12.43,12.43,0,0,0,189,134l-.41.48A12.1,12.1,0,0,0,187,137c-.07.15-.14.3-.2.45h0c-.09.22-.18.43-.26.66L178.82,160H182l7.4-20.92a9.37,9.37,0,0,1,1.07-2.12,9.11,9.11,0,0,1,3.37-3l.33-.18a9.35,9.35,0,0,1,4-.91,9.22,9.22,0,0,1,4.35,1.09,8.88,8.88,0,0,1,3.35,3,7.37,7.37,0,0,1,.71,1.21,9.27,9.27,0,0,1,.38,7.12L204.58,152l-2.82,8h3.18l1.36-3.84,1.31-3.72h0l2.18-6.14A12.27,12.27,0,0,0,209.33,137Zm0,0,0-.08a11.92,11.92,0,0,0-1.95-2.92,12.31,12.31,0,0,0-14.46-2.88A12.43,12.43,0,0,0,189,134l-.41.48A12.1,12.1,0,0,0,187,137c-.07.15-.14.3-.2.45h0c-.09.22-.18.43-.26.66L178.82,160H182l7.4-20.92a9.37,9.37,0,0,1,1.07-2.12,9.11,9.11,0,0,1,3.37-3l.33-.18a9.35,9.35,0,0,1,4-.91,9.22,9.22,0,0,1,4.35,1.09,8.88,8.88,0,0,1,3.35,3,7.37,7.37,0,0,1,.71,1.21,9.27,9.27,0,0,1,.38,7.12L204.58,152l-2.82,8h3.18l1.36-3.84,1.31-3.72h0l2.18-6.14A12.27,12.27,0,0,0,209.33,137Z"/><path class="cls-2" d="M241.32,174.79a12.2,12.2,0,0,1-5.68,7.44l-.06,0a12.31,12.31,0,0,1-2.94,1.23,12.35,12.35,0,0,1-13.88-5.74l-4.84-8.38-3-5.2-.67-1.17-1.74-3-2.21-3.84-1.63-2.82a1.5,1.5,0,0,1-.09-1.32,1.55,1.55,0,0,1,.64-.73,1.51,1.51,0,0,1,2.05.55l.34.59h0L212,160l1.73,3,.21.36,7.44,12.89a9.31,9.31,0,0,0,11.28,4.08,8.5,8.5,0,0,0,1.44-.67,9.32,9.32,0,0,0,1.56-1.14A9.29,9.29,0,0,0,237.49,167l-1.85-3.2-.43-.74-1.66-2.88-.07-.12-13.3-23-1.73-3-9.86-17.07a8.36,8.36,0,0,1-.4-.79c-2.4-5.12-12.81-2.82-12.92-2.79l-.12,0-9.82,1.48-.51.08a1.5,1.5,0,0,1-.44-3l2-.3,8.3-1.26a26.15,26.15,0,0,1,8.83-.39h0a10.87,10.87,0,0,1,5.49,2.3,7.57,7.57,0,0,1,1.92,2.53,6.27,6.27,0,0,0,.29.58L221.91,134l1.74,3,13.29,23,1.73,3,1.41,2.44A12.21,12.21,0,0,1,241.32,174.79Z"/><path class="cls-2" d="M197.11,57.1a1.54,1.54,0,0,1-.55-.11,1.5,1.5,0,0,1-.85-1.94c10.13-25.79-2.46-39.71-2.59-39.84a17.28,17.28,0,0,0-13.74-5.86c-5.38.17-10.15,2.6-11.92,4.81a1.35,1.35,0,0,1-.4.35c-17.85,10.71-4.37,39.18-4.23,39.47a1.51,1.51,0,0,1-2.71,1.31c-.15-.31-14.7-31,5.18-43.22,2.27-2.65,7.52-5.52,14-5.72a20.3,20.3,0,0,1,16,6.82c.56.61,14,15.44,3.18,43A1.51,1.51,0,0,1,197.11,57.1Z"/><path class="cls-2" d="M192.61,37.23a1.74,1.74,0,0,0-.36-.13c-9.41-2-18.43-10.61-19.73-14.53a1.5,1.5,0,0,0-2.92.47c0,6.32-4.79,7.67-5,7.72a1.5,1.5,0,0,0-1.14,1.45v.39a15.64,15.64,0,0,0,29.82,6.61A1.51,1.51,0,0,0,192.61,37.23Zm-13.49,8a12.66,12.66,0,0,1-12.62-12,10.22,10.22,0,0,0,5.39-5.92,38.13,38.13,0,0,0,17.79,12.19A12.71,12.71,0,0,1,179.12,45.24Z"/><path class="cls-2" d="M218,108a8.32,8.32,0,0,1-5.24,3.82l-.15,0-3.61.47-5,.66h-.2a1.5,1.5,0,0,1-.3-3h0l.1,0,8.52-1.12a5.36,5.36,0,0,0,3.9-6.56l-.08-.31c-.41-1.58-.74-3.19-1-4.79-.78-5.08-3.27-21.12-4.43-27.66-.09-.54-.17-1-.25-1.42-.11-.57-.23-1.1-.36-1.58-1.08-4-2.77-4.9-2.79-4.91a.84.84,0,0,1-.24-.14,31.27,31.27,0,0,0-9.9-4.39l-.49-.14a64.9,64.9,0,0,0-6.77-1.41q-1.17-.18-2.4-.33a9.18,9.18,0,0,1-16.61-.07l-1.36.17a57.53,57.53,0,0,0-12.6,3,26.92,26.92,0,0,0-6.17,3.19,1.18,1.18,0,0,1-.29.16s-1.68,1-2.74,4.89c-.13.48-.25,1-.36,1.58-.07.39-.16.86-.26,1.42-.36,2.06-.89,5.3-1.61,9.8l-.07.42v0A1.52,1.52,0,0,1,143.51,81a1.5,1.5,0,0,1-1.23-1.71v0l.07-.42c.66-4.15,1.17-7.23,1.52-9.31.14-.8.26-1.46.36-2s.14-.7.22-1c1.26-5.44,3.71-7.14,4.46-7.55a30.11,30.11,0,0,1,6.76-3.5c1.24-.46,2.56-.89,4-1.28,1-.26,1.93-.51,3-.73,2-.45,4.12-.83,6.36-1.13.86-.12,1.7-.22,2.49-.3a1.63,1.63,0,0,1,1.69,1,6.18,6.18,0,0,0,11.79.05,1.5,1.5,0,0,1,1.59-1c1.28.14,2.49.3,3.67.48q3.2.49,6,1.2c1,.24,2,.51,2.91.8a32.8,32.8,0,0,1,9.43,4.4c.74.41,3.2,2.11,4.46,7.55.08.33.15.67.22,1,.1.53.22,1.2.35,2,1.19,6.87,3.58,22.25,4.35,27.2a45.21,45.21,0,0,0,.92,4.49l.09.32A8.38,8.38,0,0,1,218,108Z"/><path class="cls-2" d="M77.87,94.74l-.56-7.37c-.06-1-.13-1.93-.19-2.9s-.15-2.07-.22-3.1l-.31-4.05c-.13-1.53-.25-3.06-.36-4.58-.07-1.07-.15-2.13-.21-3.21v-.06l-.21-2.94c0-.42-.07-.84-.1-1.26a2.62,2.62,0,0,0-.53-1.57,1.51,1.51,0,0,1-.25-1.1,7.37,7.37,0,0,0,0-.94,3.16,3.16,0,0,0,1.51-2.23c.22-1.2.45-2.38.71-3.56a3.33,3.33,0,0,0,0-1.21,2.81,2.81,0,0,0-1-1.76,5.62,5.62,0,0,0-1-.61,2,2,0,0,1-.36-.19l-.2-.1H66.12l-.67.19a3.35,3.35,0,0,0-2.11,2.47,2.6,2.6,0,0,0,0,1.24,24.13,24.13,0,0,1,.52,2.56l.18,1a2.61,2.61,0,0,0,1.27,2c.24.13.34.22.27.89,0,.21,0,.43,0,.65a.8.8,0,0,1-.21.61A4.13,4.13,0,0,0,64.86,65a6.29,6.29,0,0,0-.13.87,4.63,4.63,0,0,1-.09.62l0,.14-.19,2.86L63.37,85,63,90.69l-.22,3.12h0l-.07.83c0,.63-.08,1.23-.15,1.86a3.35,3.35,0,0,0,2,3.56,6.69,6.69,0,0,1,1.3.69c1.21.78,2.41,1.59,3.61,2.41a1.4,1.4,0,0,0,1.65,0c1.22-.83,2.45-1.66,3.7-2.46A8.45,8.45,0,0,1,76,100a3.2,3.2,0,0,0,2-3.13C78,96.18,77.94,95.46,77.87,94.74ZM74.8,97.19a1.88,1.88,0,0,0-1,.37L70.26,100c-1.05-.72-2.12-1.43-3.19-2.12a5.13,5.13,0,0,0-1.46-.6l.1-1.55c.05-.83.1-1.67.17-2.51s.13-2,.21-2.92l1.39-18.77c0-.66.09-1.31.13-2s.12-1.59.19-2.39l0-.61,0-.62,1.56.44,0-3.21L68.78,63s-.06,0-.08,0v-.11c0-.33,0-.64,0-1v-.61h.1l.66-.13V58.43l-.71-.1a2.56,2.56,0,0,0-1.66.33c-.24-1.17-.46-2.33-.65-3.5h7.69s0,.05,0,.09l-.64,3.41a2.63,2.63,0,0,0-1.71-.33l-.7.1v2.74l.75.11c0,.42,0,.81,0,1.22v.44a1.21,1.21,0,0,0-.46.26,1.17,1.17,0,0,0-.33,1v2.2l1.62-.46a.39.39,0,0,0,0,.15l0,.47.22,3,1.8,24.67c.07.89.13,1.77.2,2.66,0,.18,0,.28,0,.33ZM63.37,85,63,90.69"/><path class="cls-2" d="M100.55,108,94.71,83.42a1.48,1.48,0,0,0-1.63-1.14,1.5,1.5,0,0,0-1.33,1.49v24.74l-22.12,5.13-22.14-5.13-3-.69L42,107.23l-1.47-.34a1.5,1.5,0,0,0-.68,2.92h0l5.86,1.36h.08L68,116.35l1.25.29h0l.7.16a7.11,7.11,0,0,1,4.38,3l3.68.66a10.18,10.18,0,0,0-1-2,8.92,8.92,0,0,0-1-1.35,9.69,9.69,0,0,0-1.59-1.48l19.12-4.43h.06l5.81-1.34a1.52,1.52,0,0,0,1.12-1.81Zm-5.8-.19V96.58l2.53,10.65Zm-63.09,15-2.32-.54a7.26,7.26,0,0,1-5.43-8.76l5.56-29.45,2.92-14.54H29.33l-2.8,14L21,112.91a10.3,10.3,0,0,0,3.64,10.35,10,10,0,0,0,2.4,1.41,9.23,9.23,0,0,0,1.64.53l3,.69a6.4,6.4,0,0,1,.63-.14l6.82-1.21ZM100.55,108,94.71,83.42a1.48,1.48,0,0,0-1.63-1.14,1.5,1.5,0,0,0-1.33,1.49v24.74l-22.12,5.13-22.14-5.13-3-.69L42,107.23l-1.47-.34a1.5,1.5,0,0,0-.68,2.92h0l5.86,1.36h.08L68,116.35l1.25.29h0l.7.16a7.11,7.11,0,0,1,4.38,3l3.68.66a10.18,10.18,0,0,0-1-2,8.92,8.92,0,0,0-1-1.35,9.69,9.69,0,0,0-1.59-1.48l19.12-4.43h.06l5.81-1.34a1.52,1.52,0,0,0,1.12-1.81Zm-5.8-.19V96.58l2.53,10.65Zm-63.09,15-2.32-.54a7.26,7.26,0,0,1-5.43-8.76l5.56-29.45,2.92-14.54H29.33l-2.8,14L21,112.91a10.3,10.3,0,0,0,3.64,10.35,10,10,0,0,0,2.4,1.41,9.23,9.23,0,0,0,1.64.53l3,.69a6.4,6.4,0,0,1,.63-.14l6.82-1.21ZM100.55,108,94.71,83.42a1.48,1.48,0,0,0-1.63-1.14,1.5,1.5,0,0,0-1.33,1.49v24.74l-22.12,5.13-22.14-5.13-3-.69L42,107.23l-1.47-.34a1.5,1.5,0,0,0-.68,2.92h0l5.86,1.36h.08L68,116.35l1.25.29h0l.7.16a7.11,7.11,0,0,1,4.38,3l3.68.66a10.18,10.18,0,0,0-1-2,8.92,8.92,0,0,0-1-1.35,9.69,9.69,0,0,0-1.59-1.48l19.12-4.43h.06l5.81-1.34a1.52,1.52,0,0,0,1.12-1.81Zm-5.8-.19V96.58l2.53,10.65Zm-63.09,15-2.32-.54a7.26,7.26,0,0,1-5.43-8.76l5.56-29.45,2.92-14.54H29.33l-2.8,14L21,112.91a10.3,10.3,0,0,0,3.64,10.35,10,10,0,0,0,2.4,1.41,9.23,9.23,0,0,0,1.64.53l3,.69a6.4,6.4,0,0,1,.63-.14l6.82-1.21ZM100.55,108,94.71,83.42a1.48,1.48,0,0,0-1.63-1.14,1.5,1.5,0,0,0-1.33,1.49v24.74l-22.12,5.13-22.14-5.13-3-.69L42,107.23l-1.47-.34a1.5,1.5,0,0,0-.68,2.92h0l5.86,1.36h.08L68,116.35l1.25.29h0l.7.16a7.11,7.11,0,0,1,4.38,3l3.68.66a10.18,10.18,0,0,0-1-2,8.92,8.92,0,0,0-1-1.35,9.69,9.69,0,0,0-1.59-1.48l19.12-4.43h.06l5.81-1.34a1.52,1.52,0,0,0,1.12-1.81Zm-5.8-.19V96.58l2.53,10.65Zm-63.09,15-2.32-.54a7.26,7.26,0,0,1-5.43-8.76l5.56-29.45,2.92-14.54H29.33l-2.8,14L21,112.91a10.3,10.3,0,0,0,3.64,10.35,10,10,0,0,0,2.4,1.41,9.23,9.23,0,0,0,1.64.53l3,.69a6.4,6.4,0,0,1,.63-.14l6.82-1.21ZM100.55,108,94.71,83.42a1.48,1.48,0,0,0-1.63-1.14,1.5,1.5,0,0,0-1.33,1.49v24.74l-22.12,5.13-22.14-5.13-3-.69L42,107.23l-1.47-.34a1.5,1.5,0,0,0-.68,2.92h0l5.86,1.36h.08L68,116.35l1.25.29h0l.7.16a7.11,7.11,0,0,1,4.38,3l3.68.66a10.18,10.18,0,0,0-1-2,8.92,8.92,0,0,0-1-1.35,9.69,9.69,0,0,0-1.59-1.48l19.12-4.43h.06l5.81-1.34a1.52,1.52,0,0,0,1.12-1.81Zm-5.8-.19V96.58l2.53,10.65Zm-63.09,15-2.32-.54a7.26,7.26,0,0,1-5.43-8.76l5.56-29.45,2.92-14.54H29.33l-2.8,14L21,112.91a10.3,10.3,0,0,0,3.64,10.35,10,10,0,0,0,2.4,1.41,9.23,9.23,0,0,0,1.64.53l3,.69a6.4,6.4,0,0,1,.63-.14l6.82-1.21ZM100.55,108,94.71,83.42a1.48,1.48,0,0,0-1.63-1.14,1.5,1.5,0,0,0-1.33,1.49v24.74l-22.12,5.13-22.14-5.13-3-.69L42,107.23l-1.47-.34a1.5,1.5,0,0,0-.68,2.92h0l5.86,1.36h.08L68,116.35l1.25.29h0l.7.16a7.11,7.11,0,0,1,4.38,3l3.68.66a10.18,10.18,0,0,0-1-2,8.92,8.92,0,0,0-1-1.35,9.69,9.69,0,0,0-1.59-1.48l19.12-4.43h.06l5.81-1.34a1.52,1.52,0,0,0,1.12-1.81Zm-5.8-.19V96.58l2.53,10.65Zm-63.09,15-2.32-.54a7.26,7.26,0,0,1-5.43-8.76l5.56-29.45,2.92-14.54H29.33l-2.8,14L21,112.91a10.3,10.3,0,0,0,3.64,10.35,10,10,0,0,0,2.4,1.41,9.23,9.23,0,0,0,1.64.53l3,.69a6.4,6.4,0,0,1,.63-.14l6.82-1.21ZM100.55,108,94.71,83.42a1.48,1.48,0,0,0-1.63-1.14,1.5,1.5,0,0,0-1.33,1.49v24.74l-22.12,5.13-22.14-5.13-3-.69L42,107.23l-1.47-.34a1.5,1.5,0,0,0-.68,2.92h0l5.86,1.36h.08L68,116.35l1.25.29h0l.7.16a7.11,7.11,0,0,1,4.38,3l3.68.66a10.18,10.18,0,0,0-1-2,8.92,8.92,0,0,0-1-1.35,9.69,9.69,0,0,0-1.59-1.48l19.12-4.43h.06l5.81-1.34a1.52,1.52,0,0,0,1.12-1.81Zm-5.8-.19V96.58l2.53,10.65Zm-63.09,15-2.32-.54a7.26,7.26,0,0,1-5.43-8.76l5.56-29.45,2.92-14.54H29.33l-2.8,14L21,112.91a10.3,10.3,0,0,0,3.64,10.35,10,10,0,0,0,2.4,1.41,9.23,9.23,0,0,0,1.64.53l3,.69a6.4,6.4,0,0,1,.63-.14l6.82-1.21ZM100.55,108,94.71,83.42a1.48,1.48,0,0,0-1.63-1.14,1.5,1.5,0,0,0-1.33,1.49v24.74l-22.12,5.13-22.14-5.13-3-.69L42,107.23l-1.47-.34a1.5,1.5,0,0,0-.68,2.92h0l5.86,1.36h.08L68,116.35l1.25.29h0l.7.16a7.11,7.11,0,0,1,4.38,3l3.68.66a10.18,10.18,0,0,0-1-2,8.92,8.92,0,0,0-1-1.35,9.69,9.69,0,0,0-1.59-1.48l19.12-4.43h.06l5.81-1.34a1.52,1.52,0,0,0,1.12-1.81Zm-5.8-.19V96.58l2.53,10.65Zm-63.09,15-2.32-.54a7.26,7.26,0,0,1-5.43-8.76l5.56-29.45,2.92-14.54H29.33l-2.8,14L21,112.91a10.3,10.3,0,0,0,3.64,10.35,10,10,0,0,0,2.4,1.41,9.23,9.23,0,0,0,1.64.53l3,.69a6.4,6.4,0,0,1,.63-.14l6.82-1.21ZM100.55,108,94.71,83.42a1.48,1.48,0,0,0-1.63-1.14,1.5,1.5,0,0,0-1.33,1.49v24.74l-22.12,5.13-22.14-5.13-3-.69L42,107.23l-1.47-.34a1.5,1.5,0,0,0-.68,2.92h0l5.86,1.36h.08L68,116.35a13.13,13.13,0,0,1,2-.09,12.15,12.15,0,0,1,2.51.19l3.51.63a9.69,9.69,0,0,0-1.59-1.48l19.12-4.43h.06l5.81-1.34a1.52,1.52,0,0,0,1.12-1.81Zm-5.8-.19V96.58l2.53,10.65ZM119.5,112l-6.78-28.55-2.81-13.94-.46-2.28c0-.24-.1-.48-.16-.72A19.46,19.46,0,0,0,90.42,51.66H48.83A19.48,19.48,0,0,0,30,66.53c-.06.24-.11.48-.16.72l-.46,2.28-2.8,14L21,112.91a10.3,10.3,0,0,0,3.64,10.35,10,10,0,0,0,2.4,1.41,9.23,9.23,0,0,0,1.64.53l3,.69,34.41,8,.57.11a9.91,9.91,0,0,0,1.72.15,11.17,11.17,0,0,0,1.29-.08,10.06,10.06,0,0,0,3-.07l.57-.11,34.74-8.05,2.65-.61a9.93,9.93,0,0,0,2-.7,10.08,10.08,0,0,0,1.93-1.18A10.27,10.27,0,0,0,119.5,112Zm-6.5,8.73a1.64,1.64,0,0,0-.22.14,7.07,7.07,0,0,1-2.86,1.39l-2,.47-7.43,1.72L76.6,130a10.35,10.35,0,0,0,1.75-3.82,10.14,10.14,0,0,0-1.29-7.74,8.92,8.92,0,0,0-1-1.35,9.69,9.69,0,0,0-1.59-1.48l19.12-4.43h.06l5.81-1.34a1.52,1.52,0,0,0,1.12-1.81L94.71,83.42a1.48,1.48,0,0,0-1.63-1.14,1.5,1.5,0,0,0-1.33,1.49v24.74l-22.12,5.13-22.14-5.13-3-.69L42,107.23l-1.47-.34a1.5,1.5,0,0,0-.68,2.92h0l5.86,1.36h.08L68,116.35l1.25.29h0l.7.16a7.11,7.11,0,0,1,4.38,3,1.21,1.21,0,0,1,.14.2,7.31,7.31,0,0,1,1.11,3.83,7.74,7.74,0,0,1-.19,1.65,7.22,7.22,0,0,1-6,5.54h0a6.86,6.86,0,0,1-2.67-.11l-27.64-6.39-7.43-1.72-2.32-.54a7.26,7.26,0,0,1-5.43-8.76l5.56-29.45,2.92-14.54.34-1.69c.09-.44.2-.88.32-1.31A16.48,16.48,0,0,1,48.83,54.66H90.42a16.46,16.46,0,0,1,15.77,11.87c.13.43.23.87.32,1.31l.34,1.69,2.94,14.59,6.79,28.59A7.27,7.27,0,0,1,113,120.75ZM94.75,107.82V96.58l2.53,10.65Zm5.8.19L94.71,83.42a1.48,1.48,0,0,0-1.63-1.14,1.5,1.5,0,0,0-1.33,1.49v24.74l-22.12,5.13-22.14-5.13-3-.69L42,107.23l-1.47-.34a1.5,1.5,0,0,0-.68,2.92h0l5.86,1.36h.08L68,116.35a13.13,13.13,0,0,1,2-.09,12.15,12.15,0,0,1,2.51.19l3.51.63a9.69,9.69,0,0,0-1.59-1.48l19.12-4.43h.06l5.81-1.34a1.52,1.52,0,0,0,1.12-1.81Zm-5.8-.19V96.58l2.53,10.65Zm-63.09,15-2.32-.54a7.26,7.26,0,0,1-5.43-8.76l5.56-29.45,2.92-14.54H29.33l-2.8,14L21,112.91a10.3,10.3,0,0,0,3.64,10.35,10,10,0,0,0,2.4,1.41,9.23,9.23,0,0,0,1.64.53l3,.69a6.4,6.4,0,0,1,.63-.14l6.82-1.21ZM100.55,108,94.71,83.42a1.48,1.48,0,0,0-1.63-1.14,1.5,1.5,0,0,0-1.33,1.49v24.74l-22.12,5.13-22.14-5.13-3-.69L42,107.23l-1.47-.34a1.5,1.5,0,0,0-.68,2.92h0l5.86,1.36h.08L68,116.35l1.25.29h0l.7.16a7.11,7.11,0,0,1,4.38,3l3.68.66a10.18,10.18,0,0,0-1-2,8.92,8.92,0,0,0-1-1.35,9.69,9.69,0,0,0-1.59-1.48l19.12-4.43h.06l5.81-1.34a1.52,1.52,0,0,0,1.12-1.81Zm-5.8-.19V96.58l2.53,10.65Zm-63.09,15-2.32-.54a7.26,7.26,0,0,1-5.43-8.76l5.56-29.45,2.92-14.54H29.33l-2.8,14L21,112.91a10.3,10.3,0,0,0,3.64,10.35,10,10,0,0,0,2.4,1.41,9.23,9.23,0,0,0,1.64.53l3,.69a6.4,6.4,0,0,1,.63-.14l6.82-1.21ZM100.55,108,94.71,83.42a1.48,1.48,0,0,0-1.63-1.14,1.5,1.5,0,0,0-1.33,1.49v24.74l-22.12,5.13-22.14-5.13-3-.69L42,107.23l-1.47-.34a1.5,1.5,0,0,0-.68,2.92h0l5.86,1.36h.08L68,116.35l1.25.29h0l.7.16a7.11,7.11,0,0,1,4.38,3l3.68.66a10.18,10.18,0,0,0-1-2,8.92,8.92,0,0,0-1-1.35,9.69,9.69,0,0,0-1.59-1.48l19.12-4.43h.06l5.81-1.34a1.52,1.52,0,0,0,1.12-1.81Zm-5.8-.19V96.58l2.53,10.65Zm-63.09,15-2.32-.54a7.26,7.26,0,0,1-5.43-8.76l5.56-29.45,2.92-14.54H29.33l-2.8,14L21,112.91a10.3,10.3,0,0,0,3.64,10.35,10,10,0,0,0,2.4,1.41,9.23,9.23,0,0,0,1.64.53l3,.69a6.4,6.4,0,0,1,.63-.14l6.82-1.21ZM100.55,108,94.71,83.42a1.48,1.48,0,0,0-1.63-1.14,1.5,1.5,0,0,0-1.33,1.49v24.74l-22.12,5.13-22.14-5.13-3-.69L42,107.23l-1.47-.34a1.5,1.5,0,0,0-.68,2.92h0l5.86,1.36h.08L68,116.35l1.25.29h0l.7.16a7.11,7.11,0,0,1,4.38,3l3.68.66a10.18,10.18,0,0,0-1-2,8.92,8.92,0,0,0-1-1.35,9.69,9.69,0,0,0-1.59-1.48l19.12-4.43h.06l5.81-1.34a1.52,1.52,0,0,0,1.12-1.81Zm-5.8-.19V96.58l2.53,10.65Zm-63.09,15-2.32-.54a7.26,7.26,0,0,1-5.43-8.76l5.56-29.45,2.92-14.54H29.33l-2.8,14L21,112.91a10.3,10.3,0,0,0,3.64,10.35,10,10,0,0,0,2.4,1.41,9.23,9.23,0,0,0,1.64.53l3,.69a6.4,6.4,0,0,1,.63-.14l6.82-1.21ZM100.55,108,94.71,83.42a1.48,1.48,0,0,0-1.63-1.14,1.5,1.5,0,0,0-1.33,1.49v24.74l-22.12,5.13-22.14-5.13-3-.69L42,107.23l-1.47-.34a1.5,1.5,0,0,0-.68,2.92h0l5.86,1.36h.08L68,116.35l1.25.29h0l.7.16a7.11,7.11,0,0,1,4.38,3l3.68.66a10.18,10.18,0,0,0-1-2,8.92,8.92,0,0,0-1-1.35,9.69,9.69,0,0,0-1.59-1.48l19.12-4.43h.06l5.81-1.34a1.52,1.52,0,0,0,1.12-1.81Zm-5.8-.19V96.58l2.53,10.65Zm-63.09,15-2.32-.54a7.26,7.26,0,0,1-5.43-8.76l5.56-29.45,2.92-14.54H29.33l-2.8,14L21,112.91a10.3,10.3,0,0,0,3.64,10.35,10,10,0,0,0,2.4,1.41,9.23,9.23,0,0,0,1.64.53l3,.69a6.4,6.4,0,0,1,.63-.14l6.82-1.21ZM100.55,108,94.71,83.42a1.48,1.48,0,0,0-1.63-1.14,1.5,1.5,0,0,0-1.33,1.49v24.74l-22.12,5.13-22.14-5.13-3-.69L42,107.23l-1.47-.34a1.5,1.5,0,0,0-.68,2.92h0l5.86,1.36h.08L68,116.35l1.25.29h0l.7.16a7.11,7.11,0,0,1,4.38,3l3.68.66a10.18,10.18,0,0,0-1-2,8.92,8.92,0,0,0-1-1.35,9.69,9.69,0,0,0-1.59-1.48l19.12-4.43h.06l5.81-1.34a1.52,1.52,0,0,0,1.12-1.81Zm-5.8-.19V96.58l2.53,10.65Zm-63.09,15-2.32-.54a7.26,7.26,0,0,1-5.43-8.76l5.56-29.45,2.92-14.54H29.33l-2.8,14L21,112.91a10.3,10.3,0,0,0,3.64,10.35,10,10,0,0,0,2.4,1.41,9.23,9.23,0,0,0,1.64.53l3,.69a6.4,6.4,0,0,1,.63-.14l6.82-1.21ZM100.55,108,94.71,83.42a1.48,1.48,0,0,0-1.63-1.14,1.5,1.5,0,0,0-1.33,1.49v24.74l-22.12,5.13-22.14-5.13-3-.69L42,107.23l-1.47-.34a1.5,1.5,0,0,0-.68,2.92h0l5.86,1.36h.08L68,116.35l1.25.29h0l.7.16a7.11,7.11,0,0,1,4.38,3l3.68.66a10.18,10.18,0,0,0-1-2,8.92,8.92,0,0,0-1-1.35,9.69,9.69,0,0,0-1.59-1.48l19.12-4.43h.06l5.81-1.34a1.52,1.52,0,0,0,1.12-1.81Zm-5.8-.19V96.58l2.53,10.65Zm-63.09,15-2.32-.54a7.26,7.26,0,0,1-5.43-8.76l5.56-29.45,2.92-14.54H29.33l-2.8,14L21,112.91a10.3,10.3,0,0,0,3.64,10.35,10,10,0,0,0,2.4,1.41,9.23,9.23,0,0,0,1.64.53l3,.69a6.4,6.4,0,0,1,.63-.14l6.82-1.21ZM100.55,108,94.71,83.42a1.48,1.48,0,0,0-1.63-1.14,1.5,1.5,0,0,0-1.33,1.49v24.74l-22.12,5.13-22.14-5.13-3-.69L42,107.23l-1.47-.34a1.5,1.5,0,0,0-.68,2.92h0l5.86,1.36h.08L68,116.35l1.25.29h0l.7.16a7.11,7.11,0,0,1,4.38,3l3.68.66a10.18,10.18,0,0,0-1-2,8.92,8.92,0,0,0-1-1.35,9.69,9.69,0,0,0-1.59-1.48l19.12-4.43h.06l5.81-1.34a1.52,1.52,0,0,0,1.12-1.81Zm-5.8-.19V96.58l2.53,10.65Zm5.8.19L94.71,83.42a1.48,1.48,0,0,0-1.63-1.14,1.5,1.5,0,0,0-1.33,1.49v24.74l-22.12,5.13-22.14-5.13-3-.69L42,107.23l-1.47-.34a1.5,1.5,0,0,0-.68,2.92h0l5.86,1.36h.08L68,116.35a13.13,13.13,0,0,1,2-.09,12.15,12.15,0,0,1,2.51.19l3.51.63a9.69,9.69,0,0,0-1.59-1.48l19.12-4.43h.06l5.81-1.34a1.52,1.52,0,0,0,1.12-1.81Zm-5.8-.19V96.58l2.53,10.65Z"/><path class="cls-2" d="M46,111.21a1.5,1.5,0,0,1-1.5-1.5V96.58L41.62,108.7A1.5,1.5,0,0,1,38.7,108l5.84-24.59a1.48,1.48,0,0,1,1.63-1.14,1.5,1.5,0,0,1,1.32,1.49v25.94A1.5,1.5,0,0,1,46,111.21Z"/><path class="cls-2" d="M115.52,137l-2.82,23h3l2.81-23Zm-21.71,6-23.59-4.2a1.15,1.15,0,0,0-.26,0,1.09,1.09,0,0,0-.26,0L46.11,143a1.48,1.48,0,0,0-1.23,1.65L46.76,160h3L48,145.69,70,141.79l21.93,3.9L90.14,160h3L95,144.64A1.48,1.48,0,0,0,93.81,143ZM24.4,137H22.5c-.38,0-.75,0-1.12,0l2.82,23h3Zm91.12,0-2.82,23h3l2.81-23Zm-21.71,6-23.59-4.2a1.15,1.15,0,0,0-.26,0,1.09,1.09,0,0,0-.26,0L46.11,143a1.48,1.48,0,0,0-1.23,1.65L46.76,160h3L48,145.69,70,141.79l21.93,3.9L90.14,160h3L95,144.64A1.48,1.48,0,0,0,93.81,143ZM24.4,137H22.5c-.38,0-.75,0-1.12,0l2.82,23h3Zm91.12,0-2.82,23h3l2.81-23Zm-21.71,6-23.59-4.2a1.15,1.15,0,0,0-.26,0,1.09,1.09,0,0,0-.26,0L46.11,143a1.48,1.48,0,0,0-1.23,1.65L46.76,160h3L48,145.69,70,141.79l21.93,3.9L90.14,160h3L95,144.64A1.48,1.48,0,0,0,93.81,143ZM24.4,137H22.5c-.38,0-.75,0-1.12,0l2.82,23h3Zm91.12,0-2.82,23h3l2.81-23Zm-21.71,6-23.59-4.2a1.15,1.15,0,0,0-.26,0,1.09,1.09,0,0,0-.26,0L46.11,143a1.48,1.48,0,0,0-1.23,1.65L46.76,160h3L48,145.69,70,141.79l21.93,3.9L90.14,160h3L95,144.64A1.48,1.48,0,0,0,93.81,143ZM24.4,137H22.5c-.38,0-.75,0-1.12,0l2.82,23h3Zm91.12,0-2.82,23h3l2.81-23Zm-21.71,6-23.59-4.2a1.15,1.15,0,0,0-.26,0,1.09,1.09,0,0,0-.26,0L46.11,143a1.48,1.48,0,0,0-1.23,1.65L46.76,160h3L48,145.69,70,141.79l21.93,3.9L90.14,160h3L95,144.64A1.48,1.48,0,0,0,93.81,143ZM24.4,137H22.5c-.38,0-.75,0-1.12,0l2.82,23h3Zm91.12,0-2.82,23h3l2.81-23Zm-21.71,6-23.59-4.2a1.15,1.15,0,0,0-.26,0,1.09,1.09,0,0,0-.26,0L46.11,143a1.48,1.48,0,0,0-1.23,1.65L46.76,160h3L48,145.69,70,141.79l21.93,3.9L90.14,160h3L95,144.64A1.48,1.48,0,0,0,93.81,143ZM24.4,137H22.5c-.38,0-.75,0-1.12,0l2.82,23h3Zm94.18-3a12.71,12.71,0,0,0-6-9.47,12.43,12.43,0,0,0-4.44-1.7l-.29,0-7.43,1.72,7.19,1.28.29.06a9.67,9.67,0,0,1,7.61,8.16,9.57,9.57,0,0,1,0,2.51l-.06.49-2.82,23-.37,3-4,32.25a9.71,9.71,0,0,1-9.61,8.52,9.39,9.39,0,0,1-1.19-.08,9.7,9.7,0,0,1-8.45-10.8L92.79,163l.37-3L95,144.64A1.48,1.48,0,0,0,93.81,143l-23.59-4.2a1.15,1.15,0,0,0-.26,0,1.09,1.09,0,0,0-.26,0L46.11,143a1.48,1.48,0,0,0-1.23,1.65L46.76,160l.37,3,3.66,29.89a9.7,9.7,0,0,1-8.45,10.8,9.51,9.51,0,0,1-1.19.08,9.66,9.66,0,0,1-6.28-2.32A9.86,9.86,0,0,1,32.81,199h0a9.59,9.59,0,0,1-1.27-3.75L27.59,163l-.37-3L24.4,137l-.06-.49a9.57,9.57,0,0,1,0-2.51,9.67,9.67,0,0,1,7.27-8.08,6.4,6.4,0,0,1,.63-.14l6.82-1.21-7.43-1.72A12.53,12.53,0,0,0,27,124.67,12.72,12.72,0,0,0,21.33,134a12.86,12.86,0,0,0,0,2.84l0,.17,2.82,23,.37,3,4,32.61a12.68,12.68,0,0,0,2.4,6,12.06,12.06,0,0,0,2,2.17,12.57,12.57,0,0,0,8.14,3,11.78,11.78,0,0,0,1.56-.1,12.69,12.69,0,0,0,11.06-14.14L50.15,163l-.37-3L48,145.69,70,141.79l21.93,3.9L90.14,160l-.37,3-3.62,29.53a12.71,12.71,0,0,0,11.06,14.14,11.67,11.67,0,0,0,1.56.1,12.71,12.71,0,0,0,12.59-11.16l4-32.61.37-3,2.81-23,0-.13A13.13,13.13,0,0,0,118.58,134ZM69.29,116.64l.7.16a7.11,7.11,0,0,1,4.38,3l3.68.66a10.18,10.18,0,0,0-1-2,8.92,8.92,0,0,0-1-1.35l-3.51-.63a12.15,12.15,0,0,0-2.51-.19,13.13,13.13,0,0,0-2,.09l1.25.29Zm7.77,1.79a8.92,8.92,0,0,0-1-1.35l-3.51-.63a12.15,12.15,0,0,0-2.51-.19,13.13,13.13,0,0,0-2,.09l1.25.29h0l.7.16a7.11,7.11,0,0,1,4.38,3l3.68.66A10.18,10.18,0,0,0,77.06,118.43ZM24.4,137H22.5c-.38,0-.75,0-1.12,0l2.82,23h3Zm69.41,6-23.59-4.2a1.15,1.15,0,0,0-.26,0,1.09,1.09,0,0,0-.26,0L46.11,143a1.48,1.48,0,0,0-1.23,1.65L46.76,160h3L48,145.69,70,141.79l21.93,3.9L90.14,160h3L95,144.64A1.48,1.48,0,0,0,93.81,143Zm21.71-6-2.82,23h3l2.81-23ZM24.4,137H22.5c-.38,0-.75,0-1.12,0l2.82,23h3Zm69.41,6-23.59-4.2a1.15,1.15,0,0,0-.26,0,1.09,1.09,0,0,0-.26,0L46.11,143a1.48,1.48,0,0,0-1.23,1.65L46.76,160h3L48,145.69,70,141.79l21.93,3.9L90.14,160h3L95,144.64A1.48,1.48,0,0,0,93.81,143Zm21.71-6-2.82,23h3l2.81-23ZM24.4,137H22.5c-.38,0-.75,0-1.12,0l2.82,23h3Zm69.41,6-23.59-4.2a1.15,1.15,0,0,0-.26,0,1.09,1.09,0,0,0-.26,0L46.11,143a1.48,1.48,0,0,0-1.23,1.65L46.76,160h3L48,145.69,70,141.79l21.93,3.9L90.14,160h3L95,144.64A1.48,1.48,0,0,0,93.81,143Zm21.71-6-2.82,23h3l2.81-23ZM24.4,137H22.5c-.38,0-.75,0-1.12,0l2.82,23h3Zm69.41,6-23.59-4.2a1.15,1.15,0,0,0-.26,0,1.09,1.09,0,0,0-.26,0L46.11,143a1.48,1.48,0,0,0-1.23,1.65L46.76,160h3L48,145.69,70,141.79l21.93,3.9L90.14,160h3L95,144.64A1.48,1.48,0,0,0,93.81,143Zm21.71-6-2.82,23h3l2.81-23ZM24.4,137H22.5c-.38,0-.75,0-1.12,0l2.82,23h3Zm69.41,6-23.59-4.2a1.15,1.15,0,0,0-.26,0,1.09,1.09,0,0,0-.26,0L46.11,143a1.48,1.48,0,0,0-1.23,1.65L46.76,160h3L48,145.69,70,141.79l21.93,3.9L90.14,160h3L95,144.64A1.48,1.48,0,0,0,93.81,143Zm21.71-6-2.82,23h3l2.81-23ZM24.4,137H22.5c-.38,0-.75,0-1.12,0l2.82,23h3Zm69.41,6-23.59-4.2a1.15,1.15,0,0,0-.26,0,1.09,1.09,0,0,0-.26,0L46.11,143a1.48,1.48,0,0,0-1.23,1.65L46.76,160h3L48,145.69,70,141.79l21.93,3.9L90.14,160h3L95,144.64A1.48,1.48,0,0,0,93.81,143ZM77.06,118.43a8.92,8.92,0,0,0-1-1.35l-3.51-.63a12.15,12.15,0,0,0-2.51-.19,13.13,13.13,0,0,0-2,.09l1.25.29h0l.7.16a7.11,7.11,0,0,1,4.38,3l3.68.66A10.18,10.18,0,0,0,77.06,118.43Z"/><path class="cls-2" d="M90.38,20c.24-.25.48-.49.69-.74a6.8,6.8,0,0,0,1.36-2.43c.2-.71.73-3.07-.91-3.73C87.84,11.67,85,9.21,82,6.62c-1.43-1.24-2.92-2.53-4.52-3.71A15.93,15.93,0,0,0,67.91,0,14.46,14.46,0,0,0,55.55,6.59a9.88,9.88,0,0,0-7.16,4.06c-2.3,3.26-2.35,7.66-2,10.6a8.24,8.24,0,0,0-1.73,7c.61,3.85,3.08,6.61,5.79,6.61a4,4,0,0,0,.6,0,20.54,20.54,0,0,0,36.83,0,4.3,4.3,0,0,0,.61,0c2.7,0,5.17-2.76,5.79-6.61C94.89,24.17,93.2,20.64,90.38,20Zm.9,7.7a5.44,5.44,0,0,1-2.18,3.88c.06-.19.13-.37.18-.56a1.49,1.49,0,0,0-1-1.84,1.51,1.51,0,0,0-1.85,1.06,17.57,17.57,0,0,1-33.89,0,1.5,1.5,0,1,0-2.89.79c0,.19.12.37.17.56a5.48,5.48,0,0,1-2.18-3.88,7.16,7.16,0,0,1,0-2.41,1.41,1.41,0,0,0,.75.23,1.32,1.32,0,0,0,.39-.06,1.49,1.49,0,0,0,1.06-1.83c0-.07-1.87-7.18,1-11.3A7.17,7.17,0,0,1,56.5,9.51a1.49,1.49,0,0,0,.94-.43,4.4,4.4,0,0,0,.48-.63A11.53,11.53,0,0,1,67.91,3a13.1,13.1,0,0,1,7.78,2.32c1.51,1.12,3,2.36,4.34,3.57,2.87,2.47,5.83,5,9.59,6.7a3,3,0,0,1-.08.46,3.8,3.8,0,0,1-.78,1.33,10.83,10.83,0,0,1-3.05,2.45c-3,1.55-7.36,1.33-10.52.88a37.45,37.45,0,0,1-16.44-6.4,1.51,1.51,0,0,0-1.13-.25,1.47,1.47,0,0,0-1,.64,9.9,9.9,0,0,1-4.24,3.42A1.5,1.5,0,0,0,53.34,21a11.79,11.79,0,0,0,4.85-3.41,40.88,40.88,0,0,0,16.57,6.12c3.52.5,8.43.7,12.09-1.08,0,.25.07.51.09.76l3-.25s0-.05,0-.07C90.9,23.43,91.66,25.38,91.28,27.74Z"/></g></g></svg>